ISO-10303-21;
HEADER;
FILE_DESCRIPTION (( 'STEP AP214' ),
    '1' );
FILE_NAME ('动力单元.STEP',
    '2026-09-16T15:34:24',
    ( '' ),
    ( '' ),
    'SwSTEP 2.0',
    'SolidWorks 2026',
    '' );
FILE_SCHEMA (( 'AUTOMOTIVE_DESIGN' ));
ENDSEC;

DATA;
#1 = DIRECTION ( 'NONE',  ( 1.000000000000000000, -0.000000000000000000, 0.000000000000000000 ) ) ;
#2 = VERTEX_POINT ( 'NONE', #366 ) ;
#3 = ORIENTED_EDGE ( 'NONE', *, *, #932, .F. ) ;
#4 = ITEM_DEFINED_TRANSFORMATION ( 'NONE', 'NONE', #683,  #12 ) ;
#5 = DIRECTION ( 'NONE',  ( -1.000000000000000000, 0.000000000000000000, 0.000000000000000000 ) ) ;
#6 = EDGE_LOOP ( 'NONE', ( #35, #456, #119, #548 ) ) ;
#7 = ADVANCED_FACE ( 'NONE', ( #643 ), #794, .T. ) ;
#8 = DIRECTION ( 'NONE',  ( 0.000000000000000000, 0.000000000000000000, 1.000000000000000000 ) ) ;
#9 = ORIENTED_EDGE ( 'NONE', *, *, #725, .F. ) ;
#10 = ADVANCED_FACE ( 'NONE', ( #252 ), #606, .F. ) ;
#11 = LINE ( 'NONE', #567, #124 ) ;
#12 = AXIS2_PLACEMENT_3D ( 'NONE', #246, #818, #48 ) ;
#13 = CARTESIAN_POINT ( 'NONE',  ( 80.49999999999995737, -2.000000000000971223, 10.00000000000000355 ) ) ;
#14 = ORIENTED_EDGE ( 'NONE', *, *, #710, .T. ) ;
#15 = AXIS2_PLACEMENT_3D ( 'NONE', #487, #419, #925 ) ;
#16 = CARTESIAN_POINT ( 'NONE',  ( -24.99999999999999289, -3.293171856836892877E-15, -4.999999999999940492 ) ) ;
#17 = CARTESIAN_POINT ( 'NONE',  ( -57.50000000000000711, -20.00000000000000355, 2.000000000000001776 ) ) ;
#18 = ORIENTED_EDGE ( 'NONE', *, *, #169, .T. ) ;
#19 = CONTEXT_DEPENDENT_SHAPE_REPRESENTATION ( #231, #677 ) ;
#20 = EDGE_CURVE ( 'NONE', #930, #144, #911, .T. ) ;
#21 = CARTESIAN_POINT ( 'NONE',  ( 50.00000000000000000, 1.999999999999241052, 10.00000000000000355 ) ) ;
#22 = CARTESIAN_POINT ( 'NONE',  ( -50.00000000000000000, -20.00000000000000355, 21.99999999999995026 ) ) ;
#23 = ORIENTED_EDGE ( 'NONE', *, *, #480, .F. ) ;
#24 = PRODUCT_DEFINITION ( '鏈', '', #852, #607 ) ;
#25 = CYLINDRICAL_SURFACE ( 'NONE', #730, 1.999999999999999556 ) ;
#26 = CIRCLE ( 'NONE', #856, 2.000000000000000000 ) ;
#27 = ORIENTED_EDGE ( 'NONE', *, *, #772, .F. ) ;
#28 = CIRCLE ( 'NONE', #860, 2.000000000000000000 ) ;
#29 = VECTOR ( 'NONE', #117, 1000.000000000000000 ) ;
#30 = FACE_BOUND ( 'NONE', #298, .T. ) ;
#31 = CARTESIAN_POINT ( 'NONE',  ( -57.50000000000007816, 1.999999999999991784, 10.00000000000000355 ) ) ;
#32 = CARTESIAN_POINT ( 'NONE',  ( 0.000000000000000000, 0.000000000000000000, 21.99999999999995026 ) ) ;
#33 = ORIENTED_EDGE ( 'NONE', *, *, #143, .T. ) ;
#34 =( LENGTH_UNIT ( ) NAMED_UNIT ( * ) SI_UNIT ( .MILLI., .METRE. ) );
#35 = ORIENTED_EDGE ( 'NONE', *, *, #289, .T. ) ;
#36 =( NAMED_UNIT ( * ) SI_UNIT ( $, .STERADIAN. ) SOLID_ANGLE_UNIT ( ) );
#37 = DIRECTION ( 'NONE',  ( -0.000000000000000000, -0.000000000000000000, 1.000000000000000000 ) ) ;
#38 = CARTESIAN_POINT ( 'NONE',  ( 0.000000000000000000, 0.000000000000000000, 20.00000000000000000 ) ) ;
#39 = ORIENTED_EDGE ( 'NONE', *, *, #832, .F. ) ;
#40 =( NAMED_UNIT ( * ) SI_UNIT ( $, .STERADIAN. ) SOLID_ANGLE_UNIT ( ) );
#41 = VECTOR ( 'NONE', #814, 1000.000000000000000 ) ;
#42 = VECTOR ( 'NONE', #732, 1000.000000000000000 ) ;
#43 = DIRECTION ( 'NONE',  ( 0.000000000000000000, 0.000000000000000000, 1.000000000000000000 ) ) ;
#44 = PRODUCT_DEFINITION_CONTEXT ( 'detailed design', #309, 'design' ) ;
#45 = DIRECTION ( 'NONE',  ( -1.000000000000000000, 6.982962677686266711E-15, -0.000000000000000000 ) ) ;
#46 = ORIENTED_EDGE ( 'NONE', *, *, #20, .F. ) ;
#47 = DIRECTION ( 'NONE',  ( 0.000000000000000000, -1.000000000000000000, 0.000000000000000000 ) ) ;
#48 = DIRECTION ( 'NONE',  ( 1.000000000000000000, 0.000000000000000000, 0.000000000000000000 ) ) ;
#49 = EDGE_CURVE ( 'NONE', #896, #262, #130, .T. ) ;
#50 = FACE_OUTER_BOUND ( 'NONE', #151, .T. ) ;
#51 = VERTEX_POINT ( 'NONE', #529 ) ;
#52 = PRESENTATION_STYLE_ASSIGNMENT (( #544 ) ) ;
#53 = PLANE ( 'NONE',  #917 ) ;
#54 =( LENGTH_UNIT ( ) NAMED_UNIT ( * ) SI_UNIT ( .MILLI., .METRE. ) );
#55 = FACE_BOUND ( 'NONE', #559, .T. ) ;
#56 = ORIENTED_EDGE ( 'NONE', *, *, #195, .F. ) ;
#57 = DIRECTION ( 'NONE',  ( 1.000000000000000000, 0.000000000000000000, 0.000000000000000000 ) ) ;
#58 = EDGE_LOOP ( 'NONE', ( #441, #754, #759, #68 ) ) ;
#59 = LINE ( 'NONE', #320, #479 ) ;
#60 = DIRECTION ( 'NONE',  ( 0.000000000000000000, 0.000000000000000000, 1.000000000000000000 ) ) ;
#61 = VECTOR ( 'NONE', #655, 1000.000000000000000 ) ;
#62 = DIRECTION ( 'NONE',  ( 0.000000000000000000, 0.000000000000000000, 1.000000000000000000 ) ) ;
#63 = ORIENTED_EDGE ( 'NONE', *, *, #510, .F. ) ;
#64 = DIRECTION ( 'NONE',  ( 0.000000000000000000, 0.000000000000000000, -1.000000000000000000 ) ) ;
#65 = EDGE_CURVE ( 'NONE', #453, #395, #474, .T. ) ;
#66 = APPLICATION_CONTEXT ( 'automotive_design' ) ;
#67 = DIRECTION ( 'NONE',  ( -1.000000000000000000, 0.000000000000000000, 0.000000000000000000 ) ) ;
#68 = ORIENTED_EDGE ( 'NONE', *, *, #773, .T. ) ;
#69 = DIRECTION ( 'NONE',  ( -0.000000000000000000, -0.000000000000000000, 1.000000000000000000 ) ) ;
#70 = ADVANCED_FACE ( 'NONE', ( #123 ), #469, .F. ) ;
#71 = ORIENTED_EDGE ( 'NONE', *, *, #437, .T. ) ;
#72 = VECTOR ( 'NONE', #874, 1000.000000000000000 ) ;
#73 = CARTESIAN_POINT ( 'NONE',  ( 29.00000000000001776, 1.752350985488479226E-14, 0.000000000000000000 ) ) ;
#74 = VERTEX_POINT ( 'NONE', #599 ) ;
#75 = CARTESIAN_POINT ( 'NONE',  ( 0.000000000000000000, 0.000000000000000000, 0.000000000000000000 ) ) ;
#76 = ORIENTED_EDGE ( 'NONE', *, *, #729, .F. ) ;
#77 = CIRCLE ( 'NONE', #600, 1.999999999999999556 ) ;
#78 = PLANE ( 'NONE',  #564 ) ;
#79 = ORIENTED_EDGE ( 'NONE', *, *, #437, .F. ) ;
#80 = VECTOR ( 'NONE', #368, 1000.000000000000000 ) ;
#81 = DIRECTION ( 'NONE',  ( 1.000000000000000000, 0.000000000000000000, 0.000000000000000000 ) ) ;
#82 = CARTESIAN_POINT ( 'NONE',  ( 57.49999999999999289, -20.00000000000000355, 2.000000000000001776 ) ) ;
#83 = EDGE_CURVE ( 'NONE', #51, #618, #315, .T. ) ;
#84 = ORIENTED_EDGE ( 'NONE', *, *, #234, .T. ) ;
#85 = CARTESIAN_POINT ( 'NONE',  ( -50.00000000000000000, 19.99999999999999645, 3.999999999999972466 ) ) ;
#86 = EDGE_LOOP ( 'NONE', ( #649, #189, #379, #224 ) ) ;
#87 = APPLICATION_CONTEXT ( 'automotive_design' ) ;
#88 = SHAPE_REPRESENTATION ( '\X2\6267884c5668\X0\', ( #12 ), #168 ) ;
#89 = CARTESIAN_POINT ( 'NONE',  ( -57.50000000000000711, -18.00000000000000355, 2.000000000000001776 ) ) ;
#90 = LINE ( 'NONE', #303, #685 ) ;
#91 = FACE_BOUND ( 'NONE', #184, .T. ) ;
#92 = AXIS2_PLACEMENT_3D ( 'NONE', #923, #912, #270 ) ;
#93 = PLANE ( 'NONE',  #876 ) ;
#94 = PRESENTATION_LAYER_ASSIGNMENT (  '', '', ( #841 ) ) ;
#95 = LINE ( 'NONE', #22, #245 ) ;
#96 = ORIENTED_EDGE ( 'NONE', *, *, #864, .F. ) ;
#97 = ADVANCED_FACE ( 'NONE', ( #186 ), #115, .F. ) ;
#98 = MANIFOLD_SOLID_BREP ( '\X2\51f853f0\X0\-\X2\62c94f38\X0\1', #617 ) ;
#99 = DIRECTION ( 'NONE',  ( 1.000000000000000000, 0.000000000000000000, 0.000000000000000000 ) ) ;
#100 = EDGE_LOOP ( 'NONE', ( #9, #339, #907, #478, #354, #707 ) ) ;
#101 = PRODUCT_RELATED_PRODUCT_CATEGORY ( 'part', '', ( #798 ) ) ;
#102 = DIRECTION ( 'NONE',  ( 1.000000000000000000, 0.000000000000000000, 0.000000000000000000 ) ) ;
#103 = DIRECTION ( 'NONE',  ( 0.000000000000000000, 0.000000000000000000, 1.000000000000000000 ) ) ;
#104 = CYLINDRICAL_SURFACE ( 'NONE', #522, 3.999999999999996447 ) ;
#105 = MANIFOLD_SOLID_BREP ( '\X2\52079664\X0\-\X2\62c94f38\X0\4', #256 ) ;
#106 = DIRECTION ( 'NONE',  ( 0.000000000000000000, 0.000000000000000000, 1.000000000000000000 ) ) ;
#107 = ORIENTED_EDGE ( 'NONE', *, *, #305, .F. ) ;
#108 = AXIS2_PLACEMENT_3D ( 'NONE', #644, #662, #307 ) ;
#109 = SURFACE_STYLE_FILL_AREA ( #397 ) ;
#110 = AXIS2_PLACEMENT_3D ( 'NONE', #38, #135, #693 ) ;
#111 =( LENGTH_UNIT ( ) NAMED_UNIT ( * ) SI_UNIT ( .MILLI., .METRE. ) );
#112 = DIRECTION ( 'NONE',  ( 1.000000000000000000, 0.000000000000000000, 0.000000000000000000 ) ) ;
#113 = EDGE_CURVE ( 'NONE', #483, #733, #340, .T. ) ;
#114 = ORIENTED_EDGE ( 'NONE', *, *, #627, .T. ) ;
#115 = CYLINDRICAL_SURFACE ( 'NONE', #916, 3.999999999999996447 ) ;
#116 =( LENGTH_UNIT ( ) NAMED_UNIT ( * ) SI_UNIT ( .MILLI., .METRE. ) );
#117 = DIRECTION ( 'NONE',  ( 0.000000000000000000, 1.000000000000000000, 0.000000000000000000 ) ) ;
#118 = DIRECTION ( 'NONE',  ( -0.000000000000000000, -0.000000000000000000, -1.000000000000000000 ) ) ;
#119 = ORIENTED_EDGE ( 'NONE', *, *, #396, .T. ) ;
#120 = CARTESIAN_POINT ( 'NONE',  ( -57.50000000000000711, 19.99999999999999645, 25.00000000000001421 ) ) ;
#121 = DIRECTION ( 'NONE',  ( 0.000000000000000000, 0.000000000000000000, 1.000000000000000000 ) ) ;
#122 = EDGE_LOOP ( 'NONE', ( #405, #56, #686, #213 ) ) ;
#123 = FACE_OUTER_BOUND ( 'NONE', #528, .T. ) ;
#124 = VECTOR ( 'NONE', #489, 1000.000000000000000 ) ;
#125 = AXIS2_PLACEMENT_3D ( 'NONE', #791, #364, #551 ) ;
#126 =( NAMED_UNIT ( * ) PLANE_ANGLE_UNIT ( ) SI_UNIT ( $, .RADIAN. ) );
#127 = UNCERTAINTY_MEASURE_WITH_UNIT (LENGTH_MEASURE( 1.000000000000000082E-05 ), #111, 'distance_accuracy_value', 'NONE');
#128 = CARTESIAN_POINT ( 'NONE',  ( -57.50000000000000711, -20.00000000000000355, 25.00000000000001421 ) ) ;
#129 = ORIENTED_EDGE ( 'NONE', *, *, #136, .F. ) ;
#130 = LINE ( 'NONE', #196, #389 ) ;
#131 = APPLICATION_PROTOCOL_DEFINITION ( 'draft international standard', 'automotive_design', 1998, #309 ) ;
#132 = CARTESIAN_POINT ( 'NONE',  ( 50.00000000000000000, -20.00000000000000355, 3.999999999999972466 ) ) ;
#133 = EDGE_LOOP ( 'NONE', ( #561, #468, #430, #369, #920, #448, #672, #881 ) ) ;
#134 = DIRECTION ( 'NONE',  ( 1.000000000000000000, 0.000000000000000000, 0.000000000000000000 ) ) ;
#135 = DIRECTION ( 'NONE',  ( 0.000000000000000000, 0.000000000000000000, 1.000000000000000000 ) ) ;
#136 = EDGE_CURVE ( 'NONE', #147, #486, #28, .T. ) ;
#137 = ORIENTED_EDGE ( 'NONE', *, *, #260, .F. ) ;
#138 = DIRECTION ( 'NONE',  ( -0.000000000000000000, -0.000000000000000000, 1.000000000000000000 ) ) ;
#139 = CIRCLE ( 'NONE', #728, 4.000000000000000000 ) ;
#140 = COLOUR_RGB ( '',0.7921568627450980005, 0.8196078431372548767, 0.9333333333333333481 ) ;
#141 = AXIS2_PLACEMENT_3D ( 'NONE', #440, #8, #659 ) ;
#142 = DIRECTION ( 'NONE',  ( -1.000000000000000000, 0.000000000000000000, 0.000000000000000000 ) ) ;
#143 = EDGE_CURVE ( 'NONE', #453, #704, #377, .T. ) ;
#144 = VERTEX_POINT ( 'NONE', #921 ) ;
#145 = DIRECTION ( 'NONE',  ( 1.000000000000000000, 0.000000000000000000, 0.000000000000000000 ) ) ;
#146 = DIRECTION ( 'NONE',  ( -0.000000000000000000, -0.000000000000000000, -1.000000000000000000 ) ) ;
#147 = VERTEX_POINT ( 'NONE', #786 ) ;
#148 = CARTESIAN_POINT ( 'NONE',  ( -50.00000000000000000, 19.99999999999999645, 21.99999999999995026 ) ) ;
#149 = EDGE_LOOP ( 'NONE', ( #802, #240, #701, #691 ) ) ;
#150 = CARTESIAN_POINT ( 'NONE',  ( -57.50000000000000711, 19.99999999999999645, 21.99999999999995026 ) ) ;
#151 = EDGE_LOOP ( 'NONE', ( #244, #612, #266, #747 ) ) ;
#152 = DIRECTION ( 'NONE',  ( -0.000000000000000000, -0.000000000000000000, -1.000000000000000000 ) ) ;
#153 = AXIS2_PLACEMENT_3D ( 'NONE', #16, #527, #102 ) ;
#154 = EDGE_CURVE ( 'NONE', #765, #387, #345, .T. ) ;
#155 = DIRECTION ( 'NONE',  ( 0.000000000000000000, 0.000000000000000000, -1.000000000000000000 ) ) ;
#156 = AXIS2_PLACEMENT_3D ( 'NONE', #75, #358, #57 ) ;
#157 = EDGE_LOOP ( 'NONE', ( #46, #499, #23, #554 ) ) ;
#158 = CIRCLE ( 'NONE', #110, 2.000000000000000000 ) ;
#159 = FACE_OUTER_BOUND ( 'NONE', #926, .T. ) ;
#160 = ITEM_DEFINED_TRANSFORMATION ( 'NONE', 'NONE', #492,  #12 ) ;
#161 = CARTESIAN_POINT ( 'NONE',  ( -50.00000000000000000, -20.00000000000000355, 3.999999999999972466 ) ) ;
#162 = CYLINDRICAL_SURFACE ( 'NONE', #406, 1.999999999999999556 ) ;
#163 = EDGE_LOOP ( 'NONE', ( #695, #632 ) ) ;
#164 = DIRECTION ( 'NONE',  ( -1.000000000000000000, 0.000000000000000000, -0.000000000000000000 ) ) ;
#165 = EDGE_CURVE ( 'NONE', #862, #727, #653, .T. ) ;
#166 = CARTESIAN_POINT ( 'NONE',  ( -50.00000000000000000, -20.00000000000000355, 21.99999999999995026 ) ) ;
#167 = VERTEX_POINT ( 'NONE', #148 ) ;
#168 =( GEOMETRIC_REPRESENTATION_CONTEXT ( 3 ) GLOBAL_UNCERTAINTY_ASSIGNED_CONTEXT ( ( #828 ) ) GLOBAL_UNIT_ASSIGNED_CONTEXT ( ( #54, #126, #36 ) ) REPRESENTATION_CONTEXT ( 'NONE', 'WORKASPACE' ) );
#169 = EDGE_CURVE ( 'NONE', #262, #422, #705, .T. ) ;
#170 = AXIS2_PLACEMENT_3D ( 'NONE', #120, #47, #835 ) ;
#171 = DIRECTION ( 'NONE',  ( 0.000000000000000000, 0.000000000000000000, 1.000000000000000000 ) ) ;
#172 = PRODUCT_DEFINITION_SHAPE ( 'NONE', 'NONE',  #936 ) ;
#173 = CARTESIAN_POINT ( 'NONE',  ( 50.00000000000000000, 19.99999999999999645, 21.99999999999995026 ) ) ;
#174 = DIRECTION ( 'NONE',  ( -0.000000000000000000, -0.000000000000000000, 1.000000000000000000 ) ) ;
#175 = ORIENTED_EDGE ( 'NONE', *, *, #344, .T. ) ;
#176 = CARTESIAN_POINT ( 'NONE',  ( -28.99999999999999289, -2.803313137177951890E-15, -4.999999999999940492 ) ) ;
#177 = CARTESIAN_POINT ( 'NONE',  ( 80.49999999999997158, -9.715232358842708309E-13, 10.00000000000000355 ) ) ;
#178 = DIRECTION ( 'NONE',  ( 1.000000000000000000, 0.000000000000000000, 0.000000000000000000 ) ) ;
#179 = ADVANCED_FACE ( 'NONE', ( #569, #431, #282 ), #53, .F. ) ;
#180 = EDGE_CURVE ( 'NONE', #233, #862, #493, .T. ) ;
#181 = DIRECTION ( 'NONE',  ( 0.000000000000000000, 0.000000000000000000, 1.000000000000000000 ) ) ;
#182 = CARTESIAN_POINT ( 'NONE',  ( 25.00000000000002132, 1.752350985488479226E-14, 4.000000000000081712 ) ) ;
#183 = AXIS2_PLACEMENT_3D ( 'NONE', #863, #717, #711 ) ;
#184 = EDGE_LOOP ( 'NONE', ( #639, #304 ) ) ;
#185 = VECTOR ( 'NONE', #512, 1000.000000000000000 ) ;
#186 = FACE_OUTER_BOUND ( 'NONE', #796, .T. ) ;
#187 = PRODUCT ( '\X2\6267884c5668\X0\', '\X2\6267884c5668\X0\', '', ( #269 ) ) ;
#188 =( NAMED_UNIT ( * ) PLANE_ANGLE_UNIT ( ) SI_UNIT ( $, .RADIAN. ) );
#189 = ORIENTED_EDGE ( 'NONE', *, *, #897, .T. ) ;
#190 = CARTESIAN_POINT ( 'NONE',  ( 50.00000000000000000, -20.00000000000000355, 21.99999999999995026 ) ) ;
#191 = PRODUCT_DEFINITION_CONTEXT ( 'detailed design', #771, 'design' ) ;
#192 = DIRECTION ( 'NONE',  ( 1.000000000000000000, -0.000000000000000000, 0.000000000000000000 ) ) ;
#193 = CARTESIAN_POINT ( 'NONE',  ( -15.00000000000000000, 0.000000000000000000, 20.00000000000000000 ) ) ;
#194 = VERTEX_POINT ( 'NONE', #291 ) ;
#195 = EDGE_CURVE ( 'NONE', #727, #506, #277, .T. ) ;
#196 = CARTESIAN_POINT ( 'NONE',  ( -57.50000000000000711, 19.99999999999999645, 21.99999999999995026 ) ) ;
#197 = APPLICATION_PROTOCOL_DEFINITION ( 'draft international standard', 'automotive_design', 1998, #771 ) ;
#198 = CARTESIAN_POINT ( 'NONE',  ( 50.00000000000000000, -7.585428742148397593E-13, 10.00000000000000355 ) ) ;
#199 = ORIENTED_EDGE ( 'NONE', *, *, #729, .T. ) ;
#200 = CIRCLE ( 'NONE', #360, 1.999999999999999556 ) ;
#201 = DIRECTION ( 'NONE',  ( -0.000000000000000000, 0.000000000000000000, 1.000000000000000000 ) ) ;
#202 = AXIS2_PLACEMENT_3D ( 'NONE', #739, #807, #164 ) ;
#203 = AXIS2_PLACEMENT_3D ( 'NONE', #258, #201, #538 ) ;
#204 = CARTESIAN_POINT ( 'NONE',  ( 0.000000000000000000, 0.000000000000000000, 20.00000000000000000 ) ) ;
#205 = VERTEX_POINT ( 'NONE', #851 ) ;
#206 = CARTESIAN_POINT ( 'NONE',  ( 57.49999999999999289, -20.00000000000000355, 21.99999999999995026 ) ) ;
#207 = CARTESIAN_POINT ( 'NONE',  ( -57.50000000000009237, -7.874386363565467892E-15, 10.00000000000000355 ) ) ;
#208 = ORIENTED_EDGE ( 'NONE', *, *, #278, .F. ) ;
#209 = CARTESIAN_POINT ( 'NONE',  ( -57.50000000000000711, 19.99999999999999645, 2.000000000000001776 ) ) ;
#210 = ORIENTED_EDGE ( 'NONE', *, *, #49, .F. ) ;
#211 = PRODUCT_DEFINITION ( '鏈', '', #884, #44 ) ;
#212 = LINE ( 'NONE', #150, #507 ) ;
#213 = ORIENTED_EDGE ( 'NONE', *, *, #858, .F. ) ;
#214 = LINE ( 'NONE', #782, #577 ) ;
#215 = VECTOR ( 'NONE', #288, 1000.000000000000000 ) ;
#216 = LINE ( 'NONE', #496, #712 ) ;
#217 = ORIENTED_EDGE ( 'NONE', *, *, #772, .T. ) ;
#218 = LINE ( 'NONE', #423, #273 ) ;
#219 = CARTESIAN_POINT ( 'NONE',  ( 50.00000000000000000, -20.00000000000000355, 3.999999999999972466 ) ) ;
#220 = ORIENTED_EDGE ( 'NONE', *, *, #490, .T. ) ;
#221 = CARTESIAN_POINT ( 'NONE',  ( -20.99999999999999289, -3.293171856836892877E-15, -4.999999999999940492 ) ) ;
#222 = EDGE_CURVE ( 'NONE', #486, #51, #560, .T. ) ;
#223 = LINE ( 'NONE', #228, #811 ) ;
#224 = ORIENTED_EDGE ( 'NONE', *, *, #738, .T. ) ;
#225 = CARTESIAN_POINT ( 'NONE',  ( -57.50000000000000711, -20.00000000000000355, 0.000000000000000000 ) ) ;
#226 = VECTOR ( 'NONE', #45, 1000.000000000000000 ) ;
#227 = VECTOR ( 'NONE', #831, 1000.000000000000000 ) ;
#228 = CARTESIAN_POINT ( 'NONE',  ( 57.49999999999999289, 19.99999999999999645, 21.99999999999995026 ) ) ;
#229 = CIRCLE ( 'NONE', #108, 2.000000000000000000 ) ;
#230 = AXIS2_PLACEMENT_3D ( 'NONE', #128, #611, #608 ) ;
#231 =( REPRESENTATION_RELATIONSHIP ('NONE','NONE', #886, #88 ) REPRESENTATION_RELATIONSHIP_WITH_TRANSFORMATION ( #4 )SHAPE_REPRESENTATION_RELATIONSHIP( ) );
#232 = LINE ( 'NONE', #447, #185 ) ;
#233 = VERTEX_POINT ( 'NONE', #206 ) ;
#234 = EDGE_CURVE ( 'NONE', #167, #896, #427, .T. ) ;
#235 = CARTESIAN_POINT ( 'NONE',  ( -50.00000000000000000, -20.00000000000000355, 3.999999999999972466 ) ) ;
#236 = CARTESIAN_POINT ( 'NONE',  ( 0.000000000000000000, 0.000000000000000000, 0.000000000000000000 ) ) ;
#237 = EDGE_CURVE ( 'NONE', #537, #626, #502, .T. ) ;
#238 = FACE_OUTER_BOUND ( 'NONE', #598, .T. ) ;
#239 = CARTESIAN_POINT ( 'NONE',  ( -24.99999999999999289, -3.293171856836892877E-15, 4.000000000000081712 ) ) ;
#240 = ORIENTED_EDGE ( 'NONE', *, *, #760, .T. ) ;
#241 = DIRECTION ( 'NONE',  ( 0.000000000000000000, 0.000000000000000000, 1.000000000000000000 ) ) ;
#242 = CIRCLE ( 'NONE', #92, 2.000000000000000000 ) ;
#243 = DIRECTION ( 'NONE',  ( 1.000000000000000000, -0.000000000000000000, -0.000000000000000000 ) ) ;
#244 = ORIENTED_EDGE ( 'NONE', *, *, #760, .F. ) ;
#245 = VECTOR ( 'NONE', #452, 1000.000000000000000 ) ;
#246 = CARTESIAN_POINT ( 'NONE',  ( 0.000000000000000000, 0.000000000000000000, 0.000000000000000000 ) ) ;
#247 = EDGE_LOOP ( 'NONE', ( #210, #317, #271, #71, #806, #893 ) ) ;
#248 = EDGE_CURVE ( 'NONE', #144, #233, #214, .T. ) ;
#249 = CARTESIAN_POINT ( 'NONE',  ( 0.000000000000000000, 0.000000000000000000, 0.000000000000000000 ) ) ;
#250 = DIRECTION ( 'NONE',  ( -6.938893903907229955E-15, -1.000000000000000000, 0.000000000000000000 ) ) ;
#251 = ORIENTED_EDGE ( 'NONE', *, *, #573, .F. ) ;
#252 = FACE_OUTER_BOUND ( 'NONE', #934, .T. ) ;
#253 = DIRECTION ( 'NONE',  ( 0.000000000000000000, 0.000000000000000000, 1.000000000000000000 ) ) ;
#254 = AXIS2_PLACEMENT_3D ( 'NONE', #407, #610, #134 ) ;
#255 = EDGE_LOOP ( 'NONE', ( #635, #217, #311, #885 ) ) ;
#256 = CLOSED_SHELL ( 'NONE', ( #374, #428, #508, #70, #877, #460, #10, #581, #682, #847, #927, #179, #383, #530, #543, #752, #97, #904, #449, #7 ) ) ;
#257 = VECTOR ( 'NONE', #69, 1000.000000000000000 ) ;
#258 = CARTESIAN_POINT ( 'NONE',  ( 0.000000000000000000, 0.000000000000000000, 21.99999999999995026 ) ) ;
#259 = CARTESIAN_POINT ( 'NONE',  ( -57.50000000000000711, -18.00000000000000355, 0.000000000000000000 ) ) ;
#260 = EDGE_CURVE ( 'NONE', #727, #147, #218, .T. ) ;
#261 = CYLINDRICAL_SURFACE ( 'NONE', #274, 2.000000000000000000 ) ;
#262 = VERTEX_POINT ( 'NONE', #696 ) ;
#263 =( LENGTH_UNIT ( ) NAMED_UNIT ( * ) SI_UNIT ( .MILLI., .METRE. ) );
#264 = EDGE_CURVE ( 'NONE', #910, #854, #839, .T. ) ;
#265 = DIRECTION ( 'NONE',  ( -0.000000000000000000, -0.000000000000000000, -1.000000000000000000 ) ) ;
#266 = ORIENTED_EDGE ( 'NONE', *, *, #65, .T. ) ;
#267 = PRODUCT_DEFINITION_FORMATION_WITH_SPECIFIED_SOURCE ( '浠', '', #323, .NOT_KNOWN. ) ;
#268 = SURFACE_SIDE_STYLE ('',( #613 ) ) ;
#269 = PRODUCT_CONTEXT ( 'NONE', #87, 'mechanical' ) ;
#270 = DIRECTION ( 'NONE',  ( 0.000000000000000000, 0.000000000000000000, -1.000000000000000000 ) ) ;
#271 = ORIENTED_EDGE ( 'NONE', *, *, #83, .T. ) ;
#272 = DIRECTION ( 'NONE',  ( 0.000000000000000000, -1.000000000000000000, 0.000000000000000000 ) ) ;
#273 = VECTOR ( 'NONE', #353, 1000.000000000000000 ) ;
#274 = AXIS2_PLACEMENT_3D ( 'NONE', #842, #553, #763 ) ;
#275 = CARTESIAN_POINT ( 'NONE',  ( 15.00000000000000000, 1.836970198721029589E-15, 20.00000000000000000 ) ) ;
#276 = ORIENTED_EDGE ( 'NONE', *, *, #878, .F. ) ;
#277 = LINE ( 'NONE', #555, #549 ) ;
#278 = EDGE_CURVE ( 'NONE', #426, #733, #287, .T. ) ;
#279 = DIRECTION ( 'NONE',  ( 0.000000000000000000, 0.000000000000000000, -1.000000000000000000 ) ) ;
#280 = DIRECTION ( 'NONE',  ( -1.000000000000000000, 0.000000000000000000, 0.000000000000000000 ) ) ;
#281 = EDGE_LOOP ( 'NONE', ( #830, #27 ) ) ;
#282 = FACE_OUTER_BOUND ( 'NONE', #86, .T. ) ;
#283 = CARTESIAN_POINT ( 'NONE',  ( 15.00000000000000000, 1.836970198721029589E-15, 20.00000000000000000 ) ) ;
#284 = ORIENTED_EDGE ( 'NONE', *, *, #466, .F. ) ;
#285 = CIRCLE ( 'NONE', #762, 15.00000000000000000 ) ;
#286 = STYLED_ITEM ( 'NONE', ( #394 ), #98 ) ;
#287 = CIRCLE ( 'NONE', #156, 2.000000000000000000 ) ;
#288 = DIRECTION ( 'NONE',  ( -0.000000000000000000, -0.000000000000000000, -1.000000000000000000 ) ) ;
#289 = EDGE_CURVE ( 'NONE', #537, #2, #743, .T. ) ;
#290 = ORIENTED_EDGE ( 'NONE', *, *, #817, .T. ) ;
#291 = CARTESIAN_POINT ( 'NONE',  ( 57.49999999999999289, 19.99999999999999645, 21.99999999999995026 ) ) ;
#292 = CARTESIAN_POINT ( 'NONE',  ( 57.49999999999999289, -20.00000000000000355, 2.000000000000001776 ) ) ;
#293 = VERTEX_POINT ( 'NONE', #85 ) ;
#294 = DIRECTION ( 'NONE',  ( -0.000000000000000000, -0.000000000000000000, 1.000000000000000000 ) ) ;
#295 = CYLINDRICAL_SURFACE ( 'NONE', #588, 2.000000000000000000 ) ;
#296 = EDGE_LOOP ( 'NONE', ( #39, #276 ) ) ;
#297 = DIRECTION ( 'NONE',  ( 1.000000000000000000, 0.000000000000000000, 0.000000000000000000 ) ) ;
#298 = EDGE_LOOP ( 'NONE', ( #737, #563 ) ) ;
#299 = EDGE_CURVE ( 'NONE', #387, #656, #636, .T. ) ;
#300 =( GEOMETRIC_REPRESENTATION_CONTEXT ( 3 ) GLOBAL_UNCERTAINTY_ASSIGNED_CONTEXT ( ( #127 ) ) GLOBAL_UNIT_ASSIGNED_CONTEXT ( ( #111, #589, #380 ) ) REPRESENTATION_CONTEXT ( 'NONE', 'WORKASPACE' ) );
#301 = LINE ( 'NONE', #283, #576 ) ;
#302 = CIRCLE ( 'NONE', #361, 2.000000000000000000 ) ;
#303 = CARTESIAN_POINT ( 'NONE',  ( -50.00000000000000000, 19.99999999999999645, 3.999999999999972466 ) ) ;
#304 = ORIENTED_EDGE ( 'NONE', *, *, #466, .T. ) ;
#305 = EDGE_CURVE ( 'NONE', #810, #422, #888, .T. ) ;
#306 = DIRECTION ( 'NONE',  ( 0.000000000000000000, 0.000000000000000000, 1.000000000000000000 ) ) ;
#307 = DIRECTION ( 'NONE',  ( 0.000000000000000000, 0.000000000000000000, 1.000000000000000000 ) ) ;
#308 = PRODUCT_DEFINITION_SHAPE ( 'NONE', 'NONE',  #24 ) ;
#309 = APPLICATION_CONTEXT ( 'automotive_design' ) ;
#310 = CARTESIAN_POINT ( 'NONE',  ( 2.000000000000000000, 2.449293598294706414E-16, 0.000000000000000000 ) ) ;
#311 = ORIENTED_EDGE ( 'NONE', *, *, #237, .T. ) ;
#312 = CIRCLE ( 'NONE', #520, 2.000000000000000000 ) ;
#313 = LINE ( 'NONE', #235, #41 ) ;
#314 = DIRECTION ( 'NONE',  ( 1.000000000000000000, 0.000000000000000000, 0.000000000000000000 ) ) ;
#315 = CIRCLE ( 'NONE', #494, 2.000000000000000000 ) ;
#316 = EDGE_CURVE ( 'NONE', #822, #74, #518, .T. ) ;
#317 = ORIENTED_EDGE ( 'NONE', *, *, #829, .T. ) ;
#318 = VECTOR ( 'NONE', #152, 1000.000000000000000 ) ;
#319 = PLANE ( 'NONE',  #202 ) ;
#320 = CARTESIAN_POINT ( 'NONE',  ( -57.50000000000000711, -20.00000000000000355, 25.00000000000001421 ) ) ;
#321 = EDGE_LOOP ( 'NONE', ( #718, #63 ) ) ;
#322 = CARTESIAN_POINT ( 'NONE',  ( 57.49999999999999289, -20.00000000000000355, 25.00000000000001421 ) ) ;
#323 = PRODUCT ( '\X2\52a8529b53555143\X0\', '\X2\52a8529b53555143\X0\', '', ( #539 ) ) ;
#324 = AXIS2_PLACEMENT_3D ( 'NONE', #678, #43, #552 ) ;
#325 = ORIENTED_EDGE ( 'NONE', *, *, #657, .F. ) ;
#326 =( NAMED_UNIT ( * ) PLANE_ANGLE_UNIT ( ) SI_UNIT ( $, .RADIAN. ) );
#327 = EDGE_CURVE ( 'NONE', #844, #144, #232, .T. ) ;
#328 = FACE_OUTER_BOUND ( 'NONE', #609, .T. ) ;
#329 = DIRECTION ( 'NONE',  ( -1.000000000000000000, 0.000000000000000000, 0.000000000000000000 ) ) ;
#330 = VECTOR ( 'NONE', #1, 1000.000000000000000 ) ;
#331 = ORIENTED_EDGE ( 'NONE', *, *, #490, .F. ) ;
#332 = VECTOR ( 'NONE', #708, 1000.000000000000000 ) ;
#333 = EDGE_CURVE ( 'NONE', #629, #910, #229, .T. ) ;
#334 = DIRECTION ( 'NONE',  ( -1.000000000000000000, 6.982962677686266711E-15, -0.000000000000000000 ) ) ;
#335 = EDGE_LOOP ( 'NONE', ( #343, #373 ) ) ;
#336 = FILL_AREA_STYLE_COLOUR ( '', #812 ) ;
#337 = SHAPE_REPRESENTATION_RELATIONSHIP ( 'NONE' , 'NONE' ,  #88, #756 ) ;
#338 = CYLINDRICAL_SURFACE ( 'NONE', #550, 15.00000000000000000 ) ;
#339 = ORIENTED_EDGE ( 'NONE', *, *, #180, .T. ) ;
#340 = LINE ( 'NONE', #761, #318 ) ;
#341 = PRODUCT_CONTEXT ( 'NONE', #541, 'mechanical' ) ;
#342 = CARTESIAN_POINT ( 'NONE',  ( 2.000000000000000000, 2.449293598294706414E-16, 20.00000000000000000 ) ) ;
#343 = ORIENTED_EDGE ( 'NONE', *, *, #657, .T. ) ;
#344 = EDGE_CURVE ( 'NONE', #293, #167, #90, .T. ) ;
#345 = LINE ( 'NONE', #630, #391 ) ;
#346 = AXIS2_PLACEMENT_3D ( 'NONE', #32, #597, #467 ) ;
#347 = CYLINDRICAL_SURFACE ( 'NONE', #919, 2.000000000000000000 ) ;
#348 = FACE_OUTER_BOUND ( 'NONE', #924, .T. ) ;
#349 = ORIENTED_EDGE ( 'NONE', *, *, #670, .T. ) ;
#350 =( NAMED_UNIT ( * ) PLANE_ANGLE_UNIT ( ) SI_UNIT ( $, .RADIAN. ) );
#351 = CARTESIAN_POINT ( 'NONE',  ( 57.49999999999999289, 19.99999999999999645, 25.00000000000001421 ) ) ;
#352 = EDGE_LOOP ( 'NONE', ( #129, #417, #868, #875 ) ) ;
#353 = DIRECTION ( 'NONE',  ( 0.000000000000000000, 1.000000000000000000, 0.000000000000000000 ) ) ;
#354 = ORIENTED_EDGE ( 'NONE', *, *, #136, .T. ) ;
#355 = EDGE_CURVE ( 'NONE', #359, #930, #505, .T. ) ;
#356 = CARTESIAN_POINT ( 'NONE',  ( -57.50000000000010658, -2.000000000000007550, 10.00000000000000355 ) ) ;
#357 = ORIENTED_EDGE ( 'NONE', *, *, #154, .F. ) ;
#358 = DIRECTION ( 'NONE',  ( 0.000000000000000000, 0.000000000000000000, 1.000000000000000000 ) ) ;
#359 = VERTEX_POINT ( 'NONE', #880 ) ;
#360 = AXIS2_PLACEMENT_3D ( 'NONE', #207, #918, #906 ) ;
#361 = AXIS2_PLACEMENT_3D ( 'NONE', #735, #390, #470 ) ;
#362 = CARTESIAN_POINT ( 'NONE',  ( 25.00000000000002132, 1.752350985488479226E-14, 0.000000000000000000 ) ) ;
#363 = VERTEX_POINT ( 'NONE', #17 ) ;
#364 = DIRECTION ( 'NONE',  ( 0.000000000000000000, 0.000000000000000000, 1.000000000000000000 ) ) ;
#365 = DIRECTION ( 'NONE',  ( 1.000000000000000000, 0.000000000000000000, 0.000000000000000000 ) ) ;
#366 = CARTESIAN_POINT ( 'NONE',  ( -28.99999999999999289, -2.803313137177951890E-15, 0.000000000000000000 ) ) ;
#367 = EDGE_CURVE ( 'NONE', #618, #147, #583, .T. ) ;
#368 = DIRECTION ( 'NONE',  ( -1.000000000000000000, 6.982962677686266711E-15, -0.000000000000000000 ) ) ;
#369 = ORIENTED_EDGE ( 'NONE', *, *, #180, .F. ) ;
#370 = DIRECTION ( 'NONE',  ( -1.000000000000000000, -0.000000000000000000, -0.000000000000000000 ) ) ;
#371 = EDGE_CURVE ( 'NONE', #395, #834, #590, .T. ) ;
#372 = FACE_OUTER_BOUND ( 'NONE', #850, .T. ) ;
#373 = ORIENTED_EDGE ( 'NONE', *, *, #333, .T. ) ;
#374 = ADVANCED_FACE ( 'NONE', ( #523 ), #795, .F. ) ;
#375 = AXIS2_PLACEMENT_3D ( 'NONE', #322, #658, #306 ) ;
#376 = DIRECTION ( 'NONE',  ( -1.000000000000000000, 0.000000000000000000, 0.000000000000000000 ) ) ;
#377 = CIRCLE ( 'NONE', #125, 15.00000000000000000 ) ;
#378 = DIRECTION ( 'NONE',  ( 0.000000000000000000, 0.000000000000000000, -1.000000000000000000 ) ) ;
#379 = ORIENTED_EDGE ( 'NONE', *, *, #932, .T. ) ;
#380 =( NAMED_UNIT ( * ) SI_UNIT ( $, .STERADIAN. ) SOLID_ANGLE_UNIT ( ) );
#381 = DIRECTION ( 'NONE',  ( 1.000000000000000000, 0.000000000000000000, 0.000000000000000000 ) ) ;
#382 = ORIENTED_EDGE ( 'NONE', *, *, #367, .T. ) ;
#383 = ADVANCED_FACE ( 'NONE', ( #159 ), #162, .F. ) ;
#384 = LINE ( 'NONE', #744, #793 ) ;
#385 = DIRECTION ( 'NONE',  ( -1.000000000000000000, 0.000000000000000000, 0.000000000000000000 ) ) ;
#386 = CARTESIAN_POINT ( 'NONE',  ( 25.00000000000002132, 1.752350985488479226E-14, -4.999999999999940492 ) ) ;
#387 = VERTEX_POINT ( 'NONE', #801 ) ;
#388 = VECTOR ( 'NONE', #570, 1000.000000000000000 ) ;
#389 = VECTOR ( 'NONE', #272, 1000.000000000000000 ) ;
#390 = DIRECTION ( 'NONE',  ( -1.000000000000000000, 0.000000000000000000, 0.000000000000000000 ) ) ;
#391 = VECTOR ( 'NONE', #138, 1000.000000000000000 ) ;
#392 = ORIENTED_EDGE ( 'NONE', *, *, #621, .T. ) ;
#393 = CIRCLE ( 'NONE', #418, 2.000000000000000000 ) ;
#394 = PRESENTATION_STYLE_ASSIGNMENT (( #676 ) ) ;
#395 = VERTEX_POINT ( 'NONE', #815 ) ;
#396 = EDGE_CURVE ( 'NONE', #751, #626, #566, .T. ) ;
#397 = FILL_AREA_STYLE ('',( #401 ) ) ;
#398 = CARTESIAN_POINT ( 'NONE',  ( 0.000000000000000000, 0.000000000000000000, 0.000000000000000000 ) ) ;
#399 = FACE_OUTER_BOUND ( 'NONE', #149, .T. ) ;
#400 = ORIENTED_EDGE ( 'NONE', *, *, #625, .T. ) ;
#401 = FILL_AREA_STYLE_COLOUR ( '', #140 ) ;
#402 = SHAPE_REPRESENTATION_RELATIONSHIP ( 'NONE' , 'NONE' ,  #785, #454 ) ;
#403 = DIRECTION ( 'NONE',  ( 0.000000000000000000, 0.000000000000000000, -1.000000000000000000 ) ) ;
#404 = CIRCLE ( 'NONE', #890, 4.000000000000000000 ) ;
#405 = ORIENTED_EDGE ( 'NONE', *, *, #652, .F. ) ;
#406 = AXIS2_PLACEMENT_3D ( 'NONE', #883, #575, #726 ) ;
#407 = CARTESIAN_POINT ( 'NONE',  ( 1031.861028363227888, 1027.995993653543565, 1017.644277451480889 ) ) ;
#408 = LINE ( 'NONE', #837, #745 ) ;
#409 = ORIENTED_EDGE ( 'NONE', *, *, #113, .F. ) ;
#410 = SHAPE_DEFINITION_REPRESENTATION ( #308, #785 ) ;
#411 = EDGE_CURVE ( 'NONE', #733, #426, #843, .T. ) ;
#412 = DIRECTION ( 'NONE',  ( 0.000000000000000000, 0.000000000000000000, -1.000000000000000000 ) ) ;
#413 = EDGE_LOOP ( 'NONE', ( #33, #580 ) ) ;
#414 = CARTESIAN_POINT ( 'NONE',  ( 0.000000000000000000, 0.000000000000000000, 3.999999999999972466 ) ) ;
#415 = LINE ( 'NONE', #697, #29 ) ;
#416 = DIRECTION ( 'NONE',  ( 1.000000000000000000, 0.000000000000000000, 0.000000000000000000 ) ) ;
#417 = ORIENTED_EDGE ( 'NONE', *, *, #367, .F. ) ;
#418 = AXIS2_PLACEMENT_3D ( 'NONE', #198, #700, #403 ) ;
#419 = DIRECTION ( 'NONE',  ( 1.000000000000000000, -0.000000000000000000, -0.000000000000000000 ) ) ;
#420 = VECTOR ( 'NONE', #855, 1000.000000000000000 ) ;
#421 = DIRECTION ( 'NONE',  ( 0.000000000000000000, 0.000000000000000000, 1.000000000000000000 ) ) ;
#422 = VERTEX_POINT ( 'NONE', #166 ) ;
#423 = CARTESIAN_POINT ( 'NONE',  ( 57.49999999999999289, -20.00000000000000355, 0.000000000000000000 ) ) ;
#424 = EDGE_CURVE ( 'NONE', #422, #167, #95, .T. ) ;
#425 = LINE ( 'NONE', #562, #388 ) ;
#426 = VERTEX_POINT ( 'NONE', #310 ) ;
#427 = LINE ( 'NONE', #484, #420 ) ;
#428 = ADVANCED_FACE ( 'NONE', ( #736 ), #104, .F. ) ;
#429 = CARTESIAN_POINT ( 'NONE',  ( 57.49999999999999289, 1.999999999999188649, 10.00000000000000355 ) ) ;
#430 = ORIENTED_EDGE ( 'NONE', *, *, #858, .T. ) ;
#431 = FACE_BOUND ( 'NONE', #321, .T. ) ;
#432 = AXIS2_PLACEMENT_3D ( 'NONE', #89, #5, #503 ) ;
#433 =( GEOMETRIC_REPRESENTATION_CONTEXT ( 3 ) GLOBAL_UNCERTAINTY_ASSIGNED_CONTEXT ( ( #808 ) ) GLOBAL_UNIT_ASSIGNED_CONTEXT ( ( #34, #350, #634 ) ) REPRESENTATION_CONTEXT ( 'NONE', 'WORKASPACE' ) );
#434 = CARTESIAN_POINT ( 'NONE',  ( 0.000000000000000000, 0.000000000000000000, 20.00000000000000000 ) ) ;
#435 = ORIENTED_EDGE ( 'NONE', *, *, #234, .F. ) ;
#436 = DIRECTION ( 'NONE',  ( -1.000000000000000000, 0.000000000000000000, 0.000000000000000000 ) ) ;
#437 = EDGE_CURVE ( 'NONE', #618, #506, #869, .T. ) ;
#438 = CARTESIAN_POINT ( 'NONE',  ( -28.99999999999999289, -2.803313137177951890E-15, 4.000000000000081712 ) ) ;
#439 = UNCERTAINTY_MEASURE_WITH_UNIT (LENGTH_MEASURE( 1.000000000000000082E-05 ), #263, 'distance_accuracy_value', 'NONE');
#440 = CARTESIAN_POINT ( 'NONE',  ( 0.000000000000000000, 0.000000000000000000, 0.000000000000000000 ) ) ;
#441 = ORIENTED_EDGE ( 'NONE', *, *, #20, .T. ) ;
#442 = CARTESIAN_POINT ( 'NONE',  ( -50.00000000000000000, -2.000000000000059952, 10.00000000000000355 ) ) ;
#443 = DIRECTION ( 'NONE',  ( -0.000000000000000000, -0.000000000000000000, 1.000000000000000000 ) ) ;
#444 = CIRCLE ( 'NONE', #546, 3.999999999999996447 ) ;
#445 = DIRECTION ( 'NONE',  ( 1.000000000000000000, 0.000000000000000000, -0.000000000000000000 ) ) ;
#446 = AXIS2_PLACEMENT_3D ( 'NONE', #723, #174, #99 ) ;
#447 = CARTESIAN_POINT ( 'NONE',  ( 50.00000000000000000, -20.00000000000000355, 3.999999999999972466 ) ) ;
#448 = ORIENTED_EDGE ( 'NONE', *, *, #327, .F. ) ;
#449 = ADVANCED_FACE ( 'NONE', ( #372 ), #671, .T. ) ;
#450 = FACE_BOUND ( 'NONE', #519, .T. ) ;
#451 = CARTESIAN_POINT ( 'NONE',  ( 21.00000000000002487, 1.801336857454373285E-14, -4.999999999999940492 ) ) ;
#452 = DIRECTION ( 'NONE',  ( 0.000000000000000000, 1.000000000000000000, 0.000000000000000000 ) ) ;
#453 = VERTEX_POINT ( 'NONE', #193 ) ;
#454 = ADVANCED_BREP_SHAPE_REPRESENTATION ( '', ( #105, #12 ), #300 ) ;
#455 = CARTESIAN_POINT ( 'NONE',  ( 25.00000000000002132, 1.752350985488479226E-14, 0.000000000000000000 ) ) ;
#456 = ORIENTED_EDGE ( 'NONE', *, *, #870, .T. ) ;
#457 = DIRECTION ( 'NONE',  ( -0.000000000000000000, -0.000000000000000000, 1.000000000000000000 ) ) ;
#458 = VECTOR ( 'NONE', #766, 1000.000000000000000 ) ;
#459 = FACE_OUTER_BOUND ( 'NONE', #587, .T. ) ;
#460 = ADVANCED_FACE ( 'NONE', ( #472, #758 ), #93, .F. ) ;
#461 = VECTOR ( 'NONE', #243, 1000.000000000000000 ) ;
#462 = ORIENTED_EDGE ( 'NONE', *, *, #424, .T. ) ;
#463 = DIRECTION ( 'NONE',  ( -1.000000000000000000, 6.982962677686266711E-15, -0.000000000000000000 ) ) ;
#464 =( NAMED_UNIT ( * ) SI_UNIT ( $, .STERADIAN. ) SOLID_ANGLE_UNIT ( ) );
#465 = CARTESIAN_POINT ( 'NONE',  ( 80.49999999999998579, 1.999999999999028111, 10.00000000000000355 ) ) ;
#466 = EDGE_CURVE ( 'NONE', #787, #822, #302, .T. ) ;
#467 = DIRECTION ( 'NONE',  ( 1.000000000000000000, 0.000000000000000000, 0.000000000000000000 ) ) ;
#468 = ORIENTED_EDGE ( 'NONE', *, *, #517, .T. ) ;
#469 = CYLINDRICAL_SURFACE ( 'NONE', #532, 1.999999999999999556 ) ;
#470 = DIRECTION ( 'NONE',  ( 0.000000000000000000, 0.000000000000000000, 1.000000000000000000 ) ) ;
#471 = DIRECTION ( 'NONE',  ( 0.000000000000000000, 0.000000000000000000, -1.000000000000000000 ) ) ;
#472 = FACE_BOUND ( 'NONE', #163, .T. ) ;
#473 = ORIENTED_EDGE ( 'NONE', *, *, #573, .T. ) ;
#474 = LINE ( 'NONE', #915, #227 ) ;
#475 = APPLICATION_PROTOCOL_DEFINITION ( 'draft international standard', 'automotive_design', 1998, #87 ) ;
#476 = CARTESIAN_POINT ( 'NONE',  ( 21.00000000000002487, 1.801336857454373285E-14, 4.000000000000081712 ) ) ;
#477 = CIRCLE ( 'NONE', #183, 15.00000000000000000 ) ;
#478 = ORIENTED_EDGE ( 'NONE', *, *, #260, .T. ) ;
#479 = VECTOR ( 'NONE', #905, 1000.000000000000000 ) ;
#480 = EDGE_CURVE ( 'NONE', #844, #359, #415, .T. ) ;
#481 = SHAPE_DEFINITION_REPRESENTATION ( #584, #886 ) ;
#482 = DIRECTION ( 'NONE',  ( 1.000000000000000000, 0.000000000000000000, 0.000000000000000000 ) ) ;
#483 = VERTEX_POINT ( 'NONE', #895 ) ;
#484 = CARTESIAN_POINT ( 'NONE',  ( -57.50000000000000711, 19.99999999999999645, 21.99999999999995026 ) ) ;
#485 = DIRECTION ( 'NONE',  ( -1.000000000000000000, 6.982962677686266711E-15, 0.000000000000000000 ) ) ;
#486 = VERTEX_POINT ( 'NONE', #669 ) ;
#487 = CARTESIAN_POINT ( 'NONE',  ( 57.49999999999999289, -18.00000000000000355, 2.000000000000001776 ) ) ;
#488 = CONTEXT_DEPENDENT_SHAPE_REPRESENTATION ( #668, #172 ) ;
#489 = DIRECTION ( 'NONE',  ( -0.000000000000000000, -0.000000000000000000, -1.000000000000000000 ) ) ;
#490 = EDGE_CURVE ( 'NONE', #205, #656, #746, .T. ) ;
#491 = ORIENTED_EDGE ( 'NONE', *, *, #49, .T. ) ;
#492 = AXIS2_PLACEMENT_3D ( 'NONE', #826, #60, #848 ) ;
#493 = LINE ( 'NONE', #565, #664 ) ;
#494 = AXIS2_PLACEMENT_3D ( 'NONE', #820, #901, #823 ) ;
#495 = AXIS2_PLACEMENT_3D ( 'NONE', #182, #103, #385 ) ;
#496 = CARTESIAN_POINT ( 'NONE',  ( -50.00000000000000000, -20.00000000000000355, 3.999999999999972466 ) ) ;
#497 = VERTEX_POINT ( 'NONE', #31 ) ;
#498 = CARTESIAN_POINT ( 'NONE',  ( 80.49999999999995737, -2.000000000000971223, 10.00000000000000355 ) ) ;
#499 = ORIENTED_EDGE ( 'NONE', *, *, #355, .F. ) ;
#500 = FACE_BOUND ( 'NONE', #335, .T. ) ;
#501 = EDGE_LOOP ( 'NONE', ( #900, #645 ) ) ;
#502 = LINE ( 'NONE', #221, #257 ) ;
#503 = DIRECTION ( 'NONE',  ( 0.000000000000000000, 0.000000000000000000, 1.000000000000000000 ) ) ;
#504 = ORIENTED_EDGE ( 'NONE', *, *, #670, .F. ) ;
#505 = LINE ( 'NONE', #809, #42 ) ;
#506 = VERTEX_POINT ( 'NONE', #259 ) ;
#507 = VECTOR ( 'NONE', #370, 1000.000000000000000 ) ;
#508 = ADVANCED_FACE ( 'NONE', ( #328 ), #899, .F. ) ;
#509 = AXIS2_PLACEMENT_3D ( 'NONE', #619, #378, #436 ) ;
#510 = EDGE_CURVE ( 'NONE', #656, #387, #903, .T. ) ;
#511 = CARTESIAN_POINT ( 'NONE',  ( 57.49999999999999289, -18.00000000000000355, 0.000000000000000000 ) ) ;
#512 = DIRECTION ( 'NONE',  ( -0.000000000000000000, -0.000000000000000000, 1.000000000000000000 ) ) ;
#513 = CARTESIAN_POINT ( 'NONE',  ( -57.50000000000000711, 19.99999999999999645, 21.99999999999995026 ) ) ;
#514 = DIRECTION ( 'NONE',  ( 1.000000000000000000, 0.000000000000000000, 0.000000000000000000 ) ) ;
#515 = ORIENTED_EDGE ( 'NONE', *, *, #773, .F. ) ;
#516 = PLANE ( 'NONE',  #650 ) ;
#517 = EDGE_CURVE ( 'NONE', #262, #363, #59, .T. ) ;
#518 = LINE ( 'NONE', #13, #80 ) ;
#519 = EDGE_LOOP ( 'NONE', ( #251, #534 ) ) ;
#520 = AXIS2_PLACEMENT_3D ( 'NONE', #540, #280, #547 ) ;
#521 = FACE_BOUND ( 'NONE', #296, .T. ) ;
#522 = AXIS2_PLACEMENT_3D ( 'NONE', #386, #443, #297 ) ;
#523 = FACE_OUTER_BOUND ( 'NONE', #6, .T. ) ;
#524 = DIRECTION ( 'NONE',  ( -1.000000000000000000, -0.000000000000000000, -0.000000000000000000 ) ) ;
#525 = DIRECTION ( 'NONE',  ( -6.938893903907229955E-15, -1.000000000000000000, 0.000000000000000000 ) ) ;
#526 = ORIENTED_EDGE ( 'NONE', *, *, #195, .T. ) ;
#527 = DIRECTION ( 'NONE',  ( -0.000000000000000000, -0.000000000000000000, 1.000000000000000000 ) ) ;
#528 = EDGE_LOOP ( 'NONE', ( #663, #349, #14, #819 ) ) ;
#529 = CARTESIAN_POINT ( 'NONE',  ( -57.50000000000000711, 19.99999999999999645, 2.000000000000001776 ) ) ;
#530 = ADVANCED_FACE ( 'NONE', ( #459 ), #25, .F. ) ;
#531 = AXIS2_PLACEMENT_3D ( 'NONE', #398, #253, #767 ) ;
#532 = AXIS2_PLACEMENT_3D ( 'NONE', #687, #463, #748 ) ;
#533 = AXIS2_PLACEMENT_3D ( 'NONE', #236, #171, #514 ) ;
#534 = ORIENTED_EDGE ( 'NONE', *, *, #621, .F. ) ;
#535 = CARTESIAN_POINT ( 'NONE',  ( 25.00000000000002132, 1.752350985488479226E-14, -4.999999999999940492 ) ) ;
#536 = CARTESIAN_POINT ( 'NONE',  ( -20.99999999999999289, -3.293171856836892877E-15, 4.000000000000081712 ) ) ;
#537 = VERTEX_POINT ( 'NONE', #556 ) ;
#538 = DIRECTION ( 'NONE',  ( 1.000000000000000000, 0.000000000000000000, 0.000000000000000000 ) ) ;
#539 = PRODUCT_CONTEXT ( 'NONE', #66, 'mechanical' ) ;
#540 = CARTESIAN_POINT ( 'NONE',  ( -50.00000000000000000, -6.024660644621313875E-14, 10.00000000000000355 ) ) ;
#541 = APPLICATION_CONTEXT ( 'automotive_design' ) ;
#542 = ORIENTED_EDGE ( 'NONE', *, *, #625, .F. ) ;
#543 = ADVANCED_FACE ( 'NONE', ( #592 ), #347, .T. ) ;
#544 = SURFACE_STYLE_USAGE ( .BOTH. , #268 ) ;
#545 = APPLICATION_PROTOCOL_DEFINITION ( 'draft international standard', 'automotive_design', 1998, #719 ) ;
#546 = AXIS2_PLACEMENT_3D ( 'NONE', #455, #582, #376 ) ;
#547 = DIRECTION ( 'NONE',  ( 0.000000000000000000, 0.000000000000000000, 1.000000000000000000 ) ) ;
#548 = ORIENTED_EDGE ( 'NONE', *, *, #237, .F. ) ;
#549 = VECTOR ( 'NONE', #861, 1000.000000000000000 ) ;
#550 = AXIS2_PLACEMENT_3D ( 'NONE', #833, #118, #909 ) ;
#551 = DIRECTION ( 'NONE',  ( 1.000000000000000000, 0.000000000000000000, 0.000000000000000000 ) ) ;
#552 = DIRECTION ( 'NONE',  ( 1.000000000000000000, 0.000000000000000000, 0.000000000000000000 ) ) ;
#553 = DIRECTION ( 'NONE',  ( -0.000000000000000000, -0.000000000000000000, -1.000000000000000000 ) ) ;
#554 = ORIENTED_EDGE ( 'NONE', *, *, #327, .T. ) ;
#555 = CARTESIAN_POINT ( 'NONE',  ( -57.50000000000000711, -18.00000000000000355, 0.000000000000000000 ) ) ;
#556 = CARTESIAN_POINT ( 'NONE',  ( -20.99999999999999289, -3.293171856836892877E-15, 0.000000000000000000 ) ) ;
#557 = ADVANCED_FACE ( 'NONE', ( #348 ), #261, .F. ) ;
#558 = CARTESIAN_POINT ( 'NONE',  ( -57.50000000000000711, 17.99999999999999645, 0.000000000000000000 ) ) ;
#559 = EDGE_LOOP ( 'NONE', ( #114, #400 ) ) ;
#560 = LINE ( 'NONE', #209, #825 ) ;
#561 = ORIENTED_EDGE ( 'NONE', *, *, #169, .F. ) ;
#562 = CARTESIAN_POINT ( 'NONE',  ( -57.50000000000000711, 19.99999999999999645, 25.00000000000001421 ) ) ;
#563 = ORIENTED_EDGE ( 'NONE', *, *, #278, .T. ) ;
#564 = AXIS2_PLACEMENT_3D ( 'NONE', #706, #721, #872 ) ;
#565 = CARTESIAN_POINT ( 'NONE',  ( 57.49999999999999289, -20.00000000000000355, 25.00000000000001421 ) ) ;
#566 = CIRCLE ( 'NONE', #764, 4.000000000000000000 ) ;
#567 = CARTESIAN_POINT ( 'NONE',  ( 2.000000000000000000, 2.449293598294706414E-16, 20.00000000000000000 ) ) ;
#568 = ORIENTED_EDGE ( 'NONE', *, *, #804, .F. ) ;
#569 = FACE_BOUND ( 'NONE', #709, .T. ) ;
#570 = DIRECTION ( 'NONE',  ( -0.000000000000000000, -0.000000000000000000, -1.000000000000000000 ) ) ;
#571 = ORIENTED_EDGE ( 'NONE', *, *, #829, .F. ) ;
#572 = CARTESIAN_POINT ( 'NONE',  ( -50.00000000000000000, -20.00000000000000355, 3.999999999999972466 ) ) ;
#573 = EDGE_CURVE ( 'NONE', #483, #591, #158, .T. ) ;
#574 = LINE ( 'NONE', #351, #215 ) ;
#575 = DIRECTION ( 'NONE',  ( -1.000000000000000000, 6.982962677686266711E-15, -0.000000000000000000 ) ) ;
#576 = VECTOR ( 'NONE', #578, 1000.000000000000000 ) ;
#577 = VECTOR ( 'NONE', #145, 1000.000000000000000 ) ;
#578 = DIRECTION ( 'NONE',  ( -0.000000000000000000, -0.000000000000000000, -1.000000000000000000 ) ) ;
#579 = CARTESIAN_POINT ( 'NONE',  ( 57.49999999999999289, 17.99999999999999645, 0.000000000000000000 ) ) ;
#580 = ORIENTED_EDGE ( 'NONE', *, *, #667, .T. ) ;
#581 = ADVANCED_FACE ( 'NONE', ( #690 ), #774, .F. ) ;
#582 = DIRECTION ( 'NONE',  ( 0.000000000000000000, 0.000000000000000000, -1.000000000000000000 ) ) ;
#583 = LINE ( 'NONE', #579, #461 ) ;
#584 = PRODUCT_DEFINITION_SHAPE ( 'NONE', 'NONE',  #846 ) ;
#585 = DIRECTION ( 'NONE',  ( -1.000000000000000000, 0.000000000000000000, 0.000000000000000000 ) ) ;
#586 = DIRECTION ( 'NONE',  ( -1.000000000000000000, 0.000000000000000000, 0.000000000000000000 ) ) ;
#587 = EDGE_LOOP ( 'NONE', ( #838, #96, #775, #542 ) ) ;
#588 = AXIS2_PLACEMENT_3D ( 'NONE', #434, #146, #142 ) ;
#589 =( NAMED_UNIT ( * ) PLANE_ANGLE_UNIT ( ) SI_UNIT ( $, .RADIAN. ) );
#590 = CIRCLE ( 'NONE', #533, 15.00000000000000000 ) ;
#591 = VERTEX_POINT ( 'NONE', #342 ) ;
#592 = FACE_OUTER_BOUND ( 'NONE', #352, .T. ) ;
#593 = ORIENTED_EDGE ( 'NONE', *, *, #510, .T. ) ;
#594 = EDGE_CURVE ( 'NONE', #787, #913, #408, .T. ) ;
#595 = ADVANCED_FACE ( 'NONE', ( #399 ), #338, .T. ) ;
#596 = SHAPE_DEFINITION_REPRESENTATION ( #827, #88 ) ;
#597 = DIRECTION ( 'NONE',  ( -0.000000000000000000, 0.000000000000000000, 1.000000000000000000 ) ) ;
#598 = EDGE_LOOP ( 'NONE', ( #137, #526, #79, #382 ) ) ;
#599 = CARTESIAN_POINT ( 'NONE',  ( 50.00000000000000000, -2.000000000000758060, 10.00000000000000355 ) ) ;
#600 = AXIS2_PLACEMENT_3D ( 'NONE', #849, #485, #646 ) ;
#601 = DIRECTION ( 'NONE',  ( 0.000000000000000000, 0.000000000000000000, 1.000000000000000000 ) ) ;
#602 = MECHANICAL_DESIGN_GEOMETRIC_PRESENTATION_REPRESENTATION (  '', ( #841 ), #433 ) ;
#603 = CARTESIAN_POINT ( 'NONE',  ( 80.49999999999997158, -9.715232358842708309E-13, 10.00000000000000355 ) ) ;
#604 = DIRECTION ( 'NONE',  ( 1.000000000000000000, -0.000000000000000000, 0.000000000000000000 ) ) ;
#605 = ORIENTED_EDGE ( 'NONE', *, *, #424, .F. ) ;
#606 = PLANE ( 'NONE',  #170 ) ;
#607 = PRODUCT_DEFINITION_CONTEXT ( 'detailed design', #719, 'design' ) ;
#608 = DIRECTION ( 'NONE',  ( 0.000000000000000000, -0.000000000000000000, 1.000000000000000000 ) ) ;
#609 = EDGE_LOOP ( 'NONE', ( #284, #660, #715, #780 ) ) ;
#610 = DIRECTION ( 'NONE',  ( 0.000000000000000000, 0.000000000000000000, 1.000000000000000000 ) ) ;
#611 = DIRECTION ( 'NONE',  ( 0.000000000000000000, 1.000000000000000000, 0.000000000000000000 ) ) ;
#612 = ORIENTED_EDGE ( 'NONE', *, *, #143, .F. ) ;
#613 = SURFACE_STYLE_FILL_AREA ( #673 ) ;
#614 = ITEM_DEFINED_TRANSFORMATION ( 'NONE', 'NONE', #254,  #12 ) ;
#615 = AXIS2_PLACEMENT_3D ( 'NONE', #249, #106, #731 ) ;
#616 = CARTESIAN_POINT ( 'NONE',  ( -50.00000000000000000, 1.999999999999939382, 10.00000000000000355 ) ) ;
#617 = CLOSED_SHELL ( 'NONE', ( #557, #595, #931, #914, #638, #722 ) ) ;
#618 = VERTEX_POINT ( 'NONE', #558 ) ;
#619 = CARTESIAN_POINT ( 'NONE',  ( -24.99999999999999289, -3.293171856836892877E-15, 0.000000000000000000 ) ) ;
#620 = ORIENTED_EDGE ( 'NONE', *, *, #396, .F. ) ;
#621 = EDGE_CURVE ( 'NONE', #591, #483, #666, .T. ) ;
#622 = DIRECTION ( 'NONE',  ( -1.000000000000000000, 6.982962677686266711E-15, -0.000000000000000000 ) ) ;
#623 = CARTESIAN_POINT ( 'NONE',  ( 50.00000000000000000, -7.585428742148397593E-13, 10.00000000000000355 ) ) ;
#624 = ORIENTED_EDGE ( 'NONE', *, *, #222, .T. ) ;
#625 = EDGE_CURVE ( 'NONE', #913, #74, #393, .T. ) ;
#626 = VERTEX_POINT ( 'NONE', #536 ) ;
#627 = EDGE_CURVE ( 'NONE', #74, #913, #777, .T. ) ;
#628 = CARTESIAN_POINT ( 'NONE',  ( 15.00000000000000000, 1.836970198721029589E-15, 0.000000000000000000 ) ) ;
#629 = VERTEX_POINT ( 'NONE', #616 ) ;
#630 = CARTESIAN_POINT ( 'NONE',  ( 29.00000000000001776, 1.752350985488479226E-14, -4.999999999999940492 ) ) ;
#631 = CYLINDRICAL_SURFACE ( 'NONE', #432, 2.000000000000000000 ) ;
#632 = ORIENTED_EDGE ( 'NONE', *, *, #710, .F. ) ;
#633 = CIRCLE ( 'NONE', #699, 3.999999999999996447 ) ;
#634 =( NAMED_UNIT ( * ) SI_UNIT ( $, .STERADIAN. ) SOLID_ANGLE_UNIT ( ) );
#635 = ORIENTED_EDGE ( 'NONE', *, *, #870, .F. ) ;
#636 = CIRCLE ( 'NONE', #781, 3.999999999999996447 ) ;
#637 = LINE ( 'NONE', #82, #330 ) ;
#638 = ADVANCED_FACE ( 'NONE', ( #50 ), #757, .T. ) ;
#639 = ORIENTED_EDGE ( 'NONE', *, *, #864, .T. ) ;
#640 = DIRECTION ( 'NONE',  ( 1.000000000000000000, -0.000000000000000000, -0.000000000000000000 ) ) ;
#641 = EDGE_LOOP ( 'NONE', ( #76, #392, #865, #208 ) ) ;
#642 = CARTESIAN_POINT ( 'NONE',  ( -24.99999999999999289, -3.293171856836892877E-15, 4.000000000000081712 ) ) ;
#643 = FACE_OUTER_BOUND ( 'NONE', #58, .T. ) ;
#644 = CARTESIAN_POINT ( 'NONE',  ( -50.00000000000000000, -6.024660644621313875E-14, 10.00000000000000355 ) ) ;
#645 = ORIENTED_EDGE ( 'NONE', *, *, #788, .F. ) ;
#646 = DIRECTION ( 'NONE',  ( -6.938893903907229955E-15, -1.000000000000000000, 0.000000000000000000 ) ) ;
#647 = CARTESIAN_POINT ( 'NONE',  ( -57.50000000000000711, -20.00000000000000355, 25.00000000000001421 ) ) ;
#648 = CARTESIAN_POINT ( 'NONE',  ( 25.00000000000002132, 1.752350985488479226E-14, 4.000000000000081712 ) ) ;
#649 = ORIENTED_EDGE ( 'NONE', *, *, #480, .T. ) ;
#650 = AXIS2_PLACEMENT_3D ( 'NONE', #661, #241, #445 ) ;
#651 =( GEOMETRIC_REPRESENTATION_CONTEXT ( 3 ) GLOBAL_UNCERTAINTY_ASSIGNED_CONTEXT ( ( #439 ) ) GLOBAL_UNIT_ASSIGNED_CONTEXT ( ( #263, #326, #40 ) ) REPRESENTATION_CONTEXT ( 'NONE', 'WORKASPACE' ) );
#652 = EDGE_CURVE ( 'NONE', #506, #363, #242, .T. ) ;
#653 = CIRCLE ( 'NONE', #15, 2.000000000000000000 ) ;
#654 = FACE_OUTER_BOUND ( 'NONE', #255, .T. ) ;
#655 = DIRECTION ( 'NONE',  ( -0.000000000000000000, -0.000000000000000000, 1.000000000000000000 ) ) ;
#656 = VERTEX_POINT ( 'NONE', #476 ) ;
#657 = EDGE_CURVE ( 'NONE', #910, #629, #312, .T. ) ;
#658 = DIRECTION ( 'NONE',  ( -1.000000000000000000, 0.000000000000000000, 0.000000000000000000 ) ) ;
#659 = DIRECTION ( 'NONE',  ( 1.000000000000000000, 0.000000000000000000, 0.000000000000000000 ) ) ;
#660 = ORIENTED_EDGE ( 'NONE', *, *, #594, .T. ) ;
#661 = CARTESIAN_POINT ( 'NONE',  ( 0.000000000000000000, 0.000000000000000000, 20.00000000000000000 ) ) ;
#662 = DIRECTION ( 'NONE',  ( -1.000000000000000000, 0.000000000000000000, 0.000000000000000000 ) ) ;
#663 = ORIENTED_EDGE ( 'NONE', *, *, #333, .F. ) ;
#664 = VECTOR ( 'NONE', #845, 1000.000000000000000 ) ;
#665 = FACE_OUTER_BOUND ( 'NONE', #100, .T. ) ;
#666 = CIRCLE ( 'NONE', #799, 2.000000000000000000 ) ;
#667 = EDGE_CURVE ( 'NONE', #704, #453, #285, .T. ) ;
#668 =( REPRESENTATION_RELATIONSHIP ('NONE','NONE', #886, #88 ) REPRESENTATION_RELATIONSHIP_WITH_TRANSFORMATION ( #160 )SHAPE_REPRESENTATION_RELATIONSHIP( ) );
#669 = CARTESIAN_POINT ( 'NONE',  ( 57.49999999999999289, 19.99999999999999645, 2.000000000000001776 ) ) ;
#670 = EDGE_CURVE ( 'NONE', #629, #497, #853, .T. ) ;
#671 = PLANE ( 'NONE',  #346 ) ;
#672 = ORIENTED_EDGE ( 'NONE', *, *, #738, .F. ) ;
#673 = FILL_AREA_STYLE ('',( #336 ) ) ;
#674 = LINE ( 'NONE', #176, #741 ) ;
#675 = ORIENTED_EDGE ( 'NONE', *, *, #694, .T. ) ;
#676 = SURFACE_STYLE_USAGE ( .BOTH. , #681 ) ;
#677 = PRODUCT_DEFINITION_SHAPE ( 'NONE', 'NONE',  #937 ) ;
#678 = CARTESIAN_POINT ( 'NONE',  ( 0.000000000000000000, 0.000000000000000000, 0.000000000000000000 ) ) ;
#679 = CARTESIAN_POINT ( 'NONE',  ( 0.000000000000000000, 0.000000000000000000, 20.00000000000000000 ) ) ;
#680 = EDGE_LOOP ( 'NONE', ( #859, #220, #593, #357 ) ) ;
#681 = SURFACE_SIDE_STYLE ('',( #109 ) ) ;
#682 = ADVANCED_FACE ( 'NONE', ( #55, #768 ), #750, .F. ) ;
#683 = AXIS2_PLACEMENT_3D ( 'NONE', #698, #601, #755 ) ;
#684 = CARTESIAN_POINT ( 'NONE',  ( 0.000000000000000000, 0.000000000000000000, 20.00000000000000000 ) ) ;
#685 = VECTOR ( 'NONE', #294, 1000.000000000000000 ) ;
#686 = ORIENTED_EDGE ( 'NONE', *, *, #165, .F. ) ;
#687 = CARTESIAN_POINT ( 'NONE',  ( 80.49999999999997158, -9.715232358842708309E-13, 10.00000000000000355 ) ) ;
#688 = PRODUCT_RELATED_PRODUCT_CATEGORY ( 'part', '', ( #187 ) ) ;
#689 = UNCERTAINTY_MEASURE_WITH_UNIT (LENGTH_MEASURE( 1.000000000000000082E-05 ), #116, 'distance_accuracy_value', 'NONE');
#690 = FACE_OUTER_BOUND ( 'NONE', #133, .T. ) ;
#691 = ORIENTED_EDGE ( 'NONE', *, *, #65, .F. ) ;
#692 = APPLICATION_PROTOCOL_DEFINITION ( 'draft international standard', 'automotive_design', 1998, #541 ) ;
#693 = DIRECTION ( 'NONE',  ( 1.000000000000000000, 0.000000000000000000, 0.000000000000000000 ) ) ;
#694 = EDGE_CURVE ( 'NONE', #854, #497, #200, .T. ) ;
#695 = ORIENTED_EDGE ( 'NONE', *, *, #694, .F. ) ;
#696 = CARTESIAN_POINT ( 'NONE',  ( -57.50000000000000711, -20.00000000000000355, 21.99999999999995026 ) ) ;
#697 = CARTESIAN_POINT ( 'NONE',  ( 50.00000000000000000, -20.00000000000000355, 3.999999999999972466 ) ) ;
#698 = CARTESIAN_POINT ( 'NONE',  ( 1056.861028363227888, 1027.995993653543565, 1021.644277451480889 ) ) ;
#699 = AXIS2_PLACEMENT_3D ( 'NONE', #362, #155, #67 ) ;
#700 = DIRECTION ( 'NONE',  ( 1.000000000000000000, -0.000000000000000000, 0.000000000000000000 ) ) ;
#701 = ORIENTED_EDGE ( 'NONE', *, *, #788, .T. ) ;
#702 = DIRECTION ( 'NONE',  ( -1.000000000000000000, 0.000000000000000000, 0.000000000000000000 ) ) ;
#703 = CARTESIAN_POINT ( 'NONE',  ( 57.49999999999999289, -2.000000000000810463, 10.00000000000000355 ) ) ;
#704 = VERTEX_POINT ( 'NONE', #275 ) ;
#705 = LINE ( 'NONE', #866, #813 ) ;
#706 = CARTESIAN_POINT ( 'NONE',  ( -50.00000000000000000, -20.00000000000000355, 3.999999999999972466 ) ) ;
#707 = ORIENTED_EDGE ( 'NONE', *, *, #817, .F. ) ;
#708 = DIRECTION ( 'NONE',  ( -1.000000000000000000, 6.982962677686266711E-15, -0.000000000000000000 ) ) ;
#709 = EDGE_LOOP ( 'NONE', ( #568, #620 ) ) ;
#710 = EDGE_CURVE ( 'NONE', #497, #854, #77, .T. ) ;
#711 = DIRECTION ( 'NONE',  ( 1.000000000000000000, 0.000000000000000000, 0.000000000000000000 ) ) ;
#712 = VECTOR ( 'NONE', #867, 1000.000000000000000 ) ;
#713 = ORIENTED_EDGE ( 'NONE', *, *, #897, .F. ) ;
#714 = DIRECTION ( 'NONE',  ( -1.000000000000000000, 0.000000000000000000, -0.000000000000000000 ) ) ;
#715 = ORIENTED_EDGE ( 'NONE', *, *, #627, .F. ) ;
#716 = PRODUCT_DEFINITION_SHAPE ( 'NONE', 'NONE',  #935 ) ;
#717 = DIRECTION ( 'NONE',  ( 0.000000000000000000, 0.000000000000000000, 1.000000000000000000 ) ) ;
#718 = ORIENTED_EDGE ( 'NONE', *, *, #299, .F. ) ;
#719 = APPLICATION_CONTEXT ( 'automotive_design' ) ;
#720 = DIRECTION ( 'NONE',  ( 0.000000000000000000, 0.000000000000000000, 1.000000000000000000 ) ) ;
#721 = DIRECTION ( 'NONE',  ( -1.000000000000000000, 0.000000000000000000, 0.000000000000000000 ) ) ;
#722 = ADVANCED_FACE ( 'NONE', ( #857 ), #295, .F. ) ;
#723 = CARTESIAN_POINT ( 'NONE',  ( -24.99999999999999289, -3.293171856836892877E-15, -4.999999999999940492 ) ) ;
#724 = ORIENTED_EDGE ( 'NONE', *, *, #878, .T. ) ;
#725 = EDGE_CURVE ( 'NONE', #233, #194, #223, .T. ) ;
#726 = DIRECTION ( 'NONE',  ( -6.938893903907229955E-15, -1.000000000000000000, 0.000000000000000000 ) ) ;
#727 = VERTEX_POINT ( 'NONE', #511 ) ;
#728 = AXIS2_PLACEMENT_3D ( 'NONE', #642, #421, #365 ) ;
#729 = EDGE_CURVE ( 'NONE', #591, #426, #11, .T. ) ;
#730 = AXIS2_PLACEMENT_3D ( 'NONE', #177, #892, #525 ) ;
#731 = DIRECTION ( 'NONE',  ( 1.000000000000000000, 0.000000000000000000, -0.000000000000000000 ) ) ;
#732 = DIRECTION ( 'NONE',  ( -0.000000000000000000, -0.000000000000000000, 1.000000000000000000 ) ) ;
#733 = VERTEX_POINT ( 'NONE', #933 ) ;
#734 = FACE_OUTER_BOUND ( 'NONE', #501, .T. ) ;
#735 = CARTESIAN_POINT ( 'NONE',  ( 57.49999999999999289, -8.109150942974866713E-13, 10.00000000000000355 ) ) ;
#736 = FACE_OUTER_BOUND ( 'NONE', #680, .T. ) ;
#737 = ORIENTED_EDGE ( 'NONE', *, *, #411, .T. ) ;
#738 = EDGE_CURVE ( 'NONE', #810, #844, #216, .T. ) ;
#739 = CARTESIAN_POINT ( 'NONE',  ( 0.000000000000000000, 0.000000000000000000, 0.000000000000000000 ) ) ;
#740 = ORIENTED_EDGE ( 'NONE', *, *, #154, .T. ) ;
#741 = VECTOR ( 'NONE', #457, 1000.000000000000000 ) ;
#742 = MECHANICAL_DESIGN_GEOMETRIC_PRESENTATION_REPRESENTATION (  '', ( #286 ), #651 ) ;
#743 = CIRCLE ( 'NONE', #509, 4.000000000000000000 ) ;
#744 = CARTESIAN_POINT ( 'NONE',  ( -50.00000000000000000, 19.99999999999999645, 3.999999999999972466 ) ) ;
#745 = VECTOR ( 'NONE', #334, 1000.000000000000000 ) ;
#746 = LINE ( 'NONE', #451, #797 ) ;
#747 = ORIENTED_EDGE ( 'NONE', *, *, #371, .T. ) ;
#748 = DIRECTION ( 'NONE',  ( -6.938893903907229955E-15, -1.000000000000000000, 0.000000000000000000 ) ) ;
#749 = DIRECTION ( 'NONE',  ( 0.000000000000000000, 0.000000000000000000, -1.000000000000000000 ) ) ;
#750 = PLANE ( 'NONE',  #840 ) ;
#751 = VERTEX_POINT ( 'NONE', #438 ) ;
#752 = ADVANCED_FACE ( 'NONE', ( #800 ), #631, .T. ) ;
#753 = DIRECTION ( 'NONE',  ( -0.000000000000000000, -0.000000000000000000, 1.000000000000000000 ) ) ;
#754 = ORIENTED_EDGE ( 'NONE', *, *, #248, .T. ) ;
#755 = DIRECTION ( 'NONE',  ( 1.000000000000000000, 0.000000000000000000, 0.000000000000000000 ) ) ;
#756 = ADVANCED_BREP_SHAPE_REPRESENTATION ( '', ( #98, #12 ), #168 ) ;
#757 = CYLINDRICAL_SURFACE ( 'NONE', #824, 15.00000000000000000 ) ;
#758 = FACE_OUTER_BOUND ( 'NONE', #247, .T. ) ;
#759 = ORIENTED_EDGE ( 'NONE', *, *, #725, .T. ) ;
#760 = EDGE_CURVE ( 'NONE', #704, #834, #301, .T. ) ;
#761 = CARTESIAN_POINT ( 'NONE',  ( -2.000000000000000000, 0.000000000000000000, 20.00000000000000000 ) ) ;
#762 = AXIS2_PLACEMENT_3D ( 'NONE', #204, #62, #482 ) ;
#763 = DIRECTION ( 'NONE',  ( -1.000000000000000000, 0.000000000000000000, 0.000000000000000000 ) ) ;
#764 = AXIS2_PLACEMENT_3D ( 'NONE', #239, #805, #381 ) ;
#765 = VERTEX_POINT ( 'NONE', #73 ) ;
#766 = DIRECTION ( 'NONE',  ( 0.000000000000000000, -1.000000000000000000, 0.000000000000000000 ) ) ;
#767 = DIRECTION ( 'NONE',  ( 1.000000000000000000, 0.000000000000000000, 0.000000000000000000 ) ) ;
#768 = FACE_OUTER_BOUND ( 'NONE', #157, .T. ) ;
#769 = EDGE_LOOP ( 'NONE', ( #605, #107, #3, #175 ) ) ;
#770 = DIRECTION ( 'NONE',  ( 0.000000000000000000, 0.000000000000000000, 1.000000000000000000 ) ) ;
#771 = APPLICATION_CONTEXT ( 'automotive_design' ) ;
#772 = EDGE_CURVE ( 'NONE', #2, #537, #404, .T. ) ;
#773 = EDGE_CURVE ( 'NONE', #194, #930, #212, .T. ) ;
#774 = PLANE ( 'NONE',  #230 ) ;
#775 = ORIENTED_EDGE ( 'NONE', *, *, #316, .T. ) ;
#776 = CARTESIAN_POINT ( 'NONE',  ( 57.49999999999999289, 17.99999999999999645, 2.000000000000001776 ) ) ;
#777 = CIRCLE ( 'NONE', #873, 2.000000000000000000 ) ;
#778 = DIRECTION ( 'NONE',  ( -1.000000000000000000, 0.000000000000000000, 0.000000000000000000 ) ) ;
#779 = PRESENTATION_LAYER_ASSIGNMENT (  '', '', ( #286 ) ) ;
#780 = ORIENTED_EDGE ( 'NONE', *, *, #316, .F. ) ;
#781 = AXIS2_PLACEMENT_3D ( 'NONE', #648, #720, #586 ) ;
#782 = CARTESIAN_POINT ( 'NONE',  ( -57.50000000000000711, -20.00000000000000355, 21.99999999999995026 ) ) ;
#783 = FACE_OUTER_BOUND ( 'NONE', #769, .T. ) ;
#784 = ORIENTED_EDGE ( 'NONE', *, *, #299, .T. ) ;
#785 = SHAPE_REPRESENTATION ( '\X2\6267884c94fe63a5\X0\', ( #12 ), #300 ) ;
#786 = CARTESIAN_POINT ( 'NONE',  ( 57.49999999999999289, 17.99999999999999645, 0.000000000000000000 ) ) ;
#787 = VERTEX_POINT ( 'NONE', #429 ) ;
#788 = EDGE_CURVE ( 'NONE', #834, #395, #477, .T. ) ;
#789 = DIRECTION ( 'NONE',  ( -0.000000000000000000, 1.000000000000000000, -0.000000000000000000 ) ) ;
#790 = ORIENTED_EDGE ( 'NONE', *, *, #344, .F. ) ;
#791 = CARTESIAN_POINT ( 'NONE',  ( 0.000000000000000000, 0.000000000000000000, 20.00000000000000000 ) ) ;
#792 = CARTESIAN_POINT ( 'NONE',  ( -24.99999999999999289, -3.293171856836892877E-15, 0.000000000000000000 ) ) ;
#793 = VECTOR ( 'NONE', #524, 1000.000000000000000 ) ;
#794 = PLANE ( 'NONE',  #203 ) ;
#795 = CYLINDRICAL_SURFACE ( 'NONE', #446, 4.000000000000000000 ) ;
#796 = EDGE_LOOP ( 'NONE', ( #331, #724, #740, #784 ) ) ;
#797 = VECTOR ( 'NONE', #37, 1000.000000000000000 ) ;
#798 = PRODUCT ( '\X2\6267884c94fe63a5\X0\', '\X2\6267884c94fe63a5\X0\', '', ( #341 ) ) ;
#799 = AXIS2_PLACEMENT_3D ( 'NONE', #679, #121, #416 ) ;
#800 = FACE_OUTER_BOUND ( 'NONE', #122, .T. ) ;
#801 = CARTESIAN_POINT ( 'NONE',  ( 29.00000000000001776, 1.752350985488479226E-14, 4.000000000000081712 ) ) ;
#802 = ORIENTED_EDGE ( 'NONE', *, *, #667, .F. ) ;
#803 = CARTESIAN_POINT ( 'NONE',  ( 57.49999999999999289, -8.109150942974866713E-13, 10.00000000000000355 ) ) ;
#804 = EDGE_CURVE ( 'NONE', #626, #751, #139, .T. ) ;
#805 = DIRECTION ( 'NONE',  ( 0.000000000000000000, 0.000000000000000000, 1.000000000000000000 ) ) ;
#806 = ORIENTED_EDGE ( 'NONE', *, *, #652, .T. ) ;
#807 = DIRECTION ( 'NONE',  ( 0.000000000000000000, 0.000000000000000000, -1.000000000000000000 ) ) ;
#808 = UNCERTAINTY_MEASURE_WITH_UNIT (LENGTH_MEASURE( 1.000000000000000082E-05 ), #34, 'distance_accuracy_value', 'NONE');
#809 = CARTESIAN_POINT ( 'NONE',  ( 50.00000000000000000, 19.99999999999999645, 3.999999999999972466 ) ) ;
#810 = VERTEX_POINT ( 'NONE', #161 ) ;
#811 = VECTOR ( 'NONE', #789, 1000.000000000000000 ) ;
#812 = COLOUR_RGB ( '',0.7921568627450980005, 0.8196078431372548767, 0.9333333333333333481 ) ;
#813 = VECTOR ( 'NONE', #81, 1000.000000000000000 ) ;
#814 = DIRECTION ( 'NONE',  ( -0.000000000000000000, -1.000000000000000000, -0.000000000000000000 ) ) ;
#815 = CARTESIAN_POINT ( 'NONE',  ( -15.00000000000000000, 0.000000000000000000, 0.000000000000000000 ) ) ;
#816 = ORIENTED_EDGE ( 'NONE', *, *, #264, .T. ) ;
#817 = EDGE_CURVE ( 'NONE', #194, #486, #574, .T. ) ;
#818 = DIRECTION ( 'NONE',  ( 0.000000000000000000, 0.000000000000000000, 1.000000000000000000 ) ) ;
#819 = ORIENTED_EDGE ( 'NONE', *, *, #264, .F. ) ;
#820 = CARTESIAN_POINT ( 'NONE',  ( -57.50000000000000711, 17.99999999999999645, 2.000000000000001776 ) ) ;
#821 = FACE_BOUND ( 'NONE', #281, .T. ) ;
#822 = VERTEX_POINT ( 'NONE', #703 ) ;
#823 = DIRECTION ( 'NONE',  ( 0.000000000000000000, 0.000000000000000000, -1.000000000000000000 ) ) ;
#824 = AXIS2_PLACEMENT_3D ( 'NONE', #684, #265, #329 ) ;
#825 = VECTOR ( 'NONE', #702, 1000.000000000000000 ) ;
#826 = CARTESIAN_POINT ( 'NONE',  ( 1006.861028363228002, 1027.995993653543565, 1021.644277451480889 ) ) ;
#827 = PRODUCT_DEFINITION_SHAPE ( 'NONE', 'NONE',  #211 ) ;
#828 = UNCERTAINTY_MEASURE_WITH_UNIT (LENGTH_MEASURE( 1.000000000000000082E-05 ), #54, 'distance_accuracy_value', 'NONE');
#829 = EDGE_CURVE ( 'NONE', #896, #51, #425, .T. ) ;
#830 = ORIENTED_EDGE ( 'NONE', *, *, #289, .F. ) ;
#831 = DIRECTION ( 'NONE',  ( -0.000000000000000000, -0.000000000000000000, -1.000000000000000000 ) ) ;
#832 = EDGE_CURVE ( 'NONE', #765, #205, #633, .T. ) ;
#833 = CARTESIAN_POINT ( 'NONE',  ( 0.000000000000000000, 0.000000000000000000, 20.00000000000000000 ) ) ;
#834 = VERTEX_POINT ( 'NONE', #628 ) ;
#835 = DIRECTION ( 'NONE',  ( 0.000000000000000000, -0.000000000000000000, -1.000000000000000000 ) ) ;
#836 =( GEOMETRIC_REPRESENTATION_CONTEXT ( 3 ) GLOBAL_UNCERTAINTY_ASSIGNED_CONTEXT ( ( #689 ) ) GLOBAL_UNIT_ASSIGNED_CONTEXT ( ( #116, #188, #464 ) ) REPRESENTATION_CONTEXT ( 'NONE', 'WORKASPACE' ) );
#837 = CARTESIAN_POINT ( 'NONE',  ( 80.49999999999998579, 1.999999999999028111, 10.00000000000000355 ) ) ;
#838 = ORIENTED_EDGE ( 'NONE', *, *, #594, .F. ) ;
#839 = LINE ( 'NONE', #498, #332 ) ;
#840 = AXIS2_PLACEMENT_3D ( 'NONE', #132, #604, #412 ) ;
#841 = STYLED_ITEM ( 'NONE', ( #52 ), #105 ) ;
#842 = CARTESIAN_POINT ( 'NONE',  ( 0.000000000000000000, 0.000000000000000000, 20.00000000000000000 ) ) ;
#843 = CIRCLE ( 'NONE', #141, 2.000000000000000000 ) ;
#844 = VERTEX_POINT ( 'NONE', #219 ) ;
#845 = DIRECTION ( 'NONE',  ( -0.000000000000000000, -0.000000000000000000, -1.000000000000000000 ) ) ;
#846 = PRODUCT_DEFINITION ( '鏈', '', #267, #191 ) ;
#847 = ADVANCED_FACE ( 'NONE', ( #500, #783 ), #78, .F. ) ;
#848 = DIRECTION ( 'NONE',  ( 1.000000000000000000, 0.000000000000000000, 0.000000000000000000 ) ) ;
#849 = CARTESIAN_POINT ( 'NONE',  ( -57.50000000000009237, -7.874386363565467892E-15, 10.00000000000000355 ) ) ;
#850 = EDGE_LOOP ( 'NONE', ( #462, #84, #491, #18 ) ) ;
#851 = CARTESIAN_POINT ( 'NONE',  ( 21.00000000000002487, 1.801336857454373285E-14, 0.000000000000000000 ) ) ;
#852 = PRODUCT_DEFINITION_FORMATION_WITH_SPECIFIED_SOURCE ( '浠', '', #798, .NOT_KNOWN. ) ;
#853 = LINE ( 'NONE', #465, #226 ) ;
#854 = VERTEX_POINT ( 'NONE', #356 ) ;
#855 = DIRECTION ( 'NONE',  ( -1.000000000000000000, -0.000000000000000000, -0.000000000000000000 ) ) ;
#856 = AXIS2_PLACEMENT_3D ( 'NONE', #803, #585, #181 ) ;
#857 = FACE_OUTER_BOUND ( 'NONE', #641, .T. ) ;
#858 = EDGE_CURVE ( 'NONE', #363, #862, #637, .T. ) ;
#859 = ORIENTED_EDGE ( 'NONE', *, *, #832, .T. ) ;
#860 = AXIS2_PLACEMENT_3D ( 'NONE', #776, #640, #770 ) ;
#861 = DIRECTION ( 'NONE',  ( -1.000000000000000000, -0.000000000000000000, -0.000000000000000000 ) ) ;
#862 = VERTEX_POINT ( 'NONE', #292 ) ;
#863 = CARTESIAN_POINT ( 'NONE',  ( 0.000000000000000000, 0.000000000000000000, 0.000000000000000000 ) ) ;
#864 = EDGE_CURVE ( 'NONE', #822, #787, #26, .T. ) ;
#865 = ORIENTED_EDGE ( 'NONE', *, *, #113, .T. ) ;
#866 = CARTESIAN_POINT ( 'NONE',  ( -57.50000000000000711, -20.00000000000000355, 21.99999999999995026 ) ) ;
#867 = DIRECTION ( 'NONE',  ( 1.000000000000000000, 0.000000000000000000, 0.000000000000000000 ) ) ;
#868 = ORIENTED_EDGE ( 'NONE', *, *, #83, .F. ) ;
#869 = LINE ( 'NONE', #225, #72 ) ;
#870 = EDGE_CURVE ( 'NONE', #2, #751, #674, .T. ) ;
#871 =( REPRESENTATION_RELATIONSHIP ('NONE','NONE', #886, #785 ) REPRESENTATION_RELATIONSHIP_WITH_TRANSFORMATION ( #614 )SHAPE_REPRESENTATION_RELATIONSHIP( ) );
#872 = DIRECTION ( 'NONE',  ( 0.000000000000000000, 0.000000000000000000, 1.000000000000000000 ) ) ;
#873 = AXIS2_PLACEMENT_3D ( 'NONE', #623, #192, #471 ) ;
#874 = DIRECTION ( 'NONE',  ( -0.000000000000000000, -1.000000000000000000, -0.000000000000000000 ) ) ;
#875 = ORIENTED_EDGE ( 'NONE', *, *, #222, .F. ) ;
#876 = AXIS2_PLACEMENT_3D ( 'NONE', #647, #314, #749 ) ;
#877 = ADVANCED_FACE ( 'NONE', ( #91, #665 ), #894, .F. ) ;
#878 = EDGE_CURVE ( 'NONE', #205, #765, #444, .T. ) ;
#879 = CYLINDRICAL_SURFACE ( 'NONE', #153, 4.000000000000000000 ) ;
#880 = CARTESIAN_POINT ( 'NONE',  ( 50.00000000000000000, 19.99999999999999645, 3.999999999999972466 ) ) ;
#881 = ORIENTED_EDGE ( 'NONE', *, *, #305, .T. ) ;
#882 = PLANE ( 'NONE',  #615 ) ;
#883 = CARTESIAN_POINT ( 'NONE',  ( 80.49999999999997158, -9.715232358842708309E-13, 10.00000000000000355 ) ) ;
#884 = PRODUCT_DEFINITION_FORMATION_WITH_SPECIFIED_SOURCE ( '浠', '', #187, .NOT_KNOWN. ) ;
#885 = ORIENTED_EDGE ( 'NONE', *, *, #804, .T. ) ;
#886 = SHAPE_REPRESENTATION ( '\X2\52a8529b53555143\X0\', ( #324, #254, #492, #683 ), #836 ) ;
#887 = FACE_OUTER_BOUND ( 'NONE', #413, .T. ) ;
#888 = LINE ( 'NONE', #572, #61 ) ;
#889 = ORIENTED_EDGE ( 'NONE', *, *, #411, .F. ) ;
#890 = AXIS2_PLACEMENT_3D ( 'NONE', #792, #928, #778 ) ;
#891 = AXIS2_PLACEMENT_3D ( 'NONE', #603, #622, #250 ) ;
#892 = DIRECTION ( 'NONE',  ( -1.000000000000000000, 6.982962677686266711E-15, -0.000000000000000000 ) ) ;
#893 = ORIENTED_EDGE ( 'NONE', *, *, #517, .F. ) ;
#894 = PLANE ( 'NONE',  #375 ) ;
#895 = CARTESIAN_POINT ( 'NONE',  ( -2.000000000000000000, 0.000000000000000000, 20.00000000000000000 ) ) ;
#896 = VERTEX_POINT ( 'NONE', #513 ) ;
#897 = EDGE_CURVE ( 'NONE', #359, #293, #384, .T. ) ;
#898 = CONTEXT_DEPENDENT_SHAPE_REPRESENTATION ( #871, #716 ) ;
#899 = CYLINDRICAL_SURFACE ( 'NONE', #891, 1.999999999999999556 ) ;
#900 = ORIENTED_EDGE ( 'NONE', *, *, #371, .F. ) ;
#901 = DIRECTION ( 'NONE',  ( -1.000000000000000000, -0.000000000000000000, -0.000000000000000000 ) ) ;
#902 = PRODUCT_RELATED_PRODUCT_CATEGORY ( 'part', '', ( #323 ) ) ;
#903 = CIRCLE ( 'NONE', #495, 3.999999999999996447 ) ;
#904 = ADVANCED_FACE ( 'NONE', ( #654 ), #879, .F. ) ;
#905 = DIRECTION ( 'NONE',  ( -0.000000000000000000, -0.000000000000000000, -1.000000000000000000 ) ) ;
#906 = DIRECTION ( 'NONE',  ( -6.938893903907229955E-15, -1.000000000000000000, 0.000000000000000000 ) ) ;
#907 = ORIENTED_EDGE ( 'NONE', *, *, #165, .T. ) ;
#908 = APPLICATION_PROTOCOL_DEFINITION ( 'draft international standard', 'automotive_design', 1998, #66 ) ;
#909 = DIRECTION ( 'NONE',  ( -1.000000000000000000, 0.000000000000000000, 0.000000000000000000 ) ) ;
#910 = VERTEX_POINT ( 'NONE', #442 ) ;
#911 = LINE ( 'NONE', #190, #458 ) ;
#912 = DIRECTION ( 'NONE',  ( -1.000000000000000000, -0.000000000000000000, -0.000000000000000000 ) ) ;
#913 = VERTEX_POINT ( 'NONE', #21 ) ;
#914 = ADVANCED_FACE ( 'NONE', ( #734, #30 ), #882, .F. ) ;
#915 = CARTESIAN_POINT ( 'NONE',  ( -15.00000000000000000, 0.000000000000000000, 20.00000000000000000 ) ) ;
#916 = AXIS2_PLACEMENT_3D ( 'NONE', #535, #753, #178 ) ;
#917 = AXIS2_PLACEMENT_3D ( 'NONE', #414, #64, #714 ) ;
#918 = DIRECTION ( 'NONE',  ( -1.000000000000000000, 6.982962677686266711E-15, 0.000000000000000000 ) ) ;
#919 = AXIS2_PLACEMENT_3D ( 'NONE', #922, #112, #279 ) ;
#920 = ORIENTED_EDGE ( 'NONE', *, *, #248, .F. ) ;
#921 = CARTESIAN_POINT ( 'NONE',  ( 50.00000000000000000, -20.00000000000000355, 21.99999999999995026 ) ) ;
#922 = CARTESIAN_POINT ( 'NONE',  ( -57.50000000000000711, 17.99999999999999645, 2.000000000000001776 ) ) ;
#923 = CARTESIAN_POINT ( 'NONE',  ( -57.50000000000000711, -18.00000000000000355, 2.000000000000001776 ) ) ;
#924 = EDGE_LOOP ( 'NONE', ( #473, #199, #889, #409 ) ) ;
#925 = DIRECTION ( 'NONE',  ( 0.000000000000000000, 0.000000000000000000, 1.000000000000000000 ) ) ;
#926 = EDGE_LOOP ( 'NONE', ( #504, #325, #816, #675 ) ) ;
#927 = ADVANCED_FACE ( 'NONE', ( #821, #521, #238 ), #319, .T. ) ;
#928 = DIRECTION ( 'NONE',  ( 0.000000000000000000, 0.000000000000000000, -1.000000000000000000 ) ) ;
#929 = ORIENTED_EDGE ( 'NONE', *, *, #355, .T. ) ;
#930 = VERTEX_POINT ( 'NONE', #173 ) ;
#931 = ADVANCED_FACE ( 'NONE', ( #887, #450 ), #516, .T. ) ;
#932 = EDGE_CURVE ( 'NONE', #293, #810, #313, .T. ) ;
#933 = CARTESIAN_POINT ( 'NONE',  ( -2.000000000000000000, 0.000000000000000000, 0.000000000000000000 ) ) ;
#934 = EDGE_LOOP ( 'NONE', ( #515, #290, #624, #571, #435, #790, #713, #929 ) ) ;
#935 = NEXT_ASSEMBLY_USAGE_OCCURRENCE ( 'NAUO1', ' ', ' ', #846, #24, $ ) ;
#936 = NEXT_ASSEMBLY_USAGE_OCCURRENCE ( 'NAUO2', ' ', ' ', #846, #211, $ ) ;
#937 = NEXT_ASSEMBLY_USAGE_OCCURRENCE ( 'NAUO3', ' ', ' ', #846, #211, $ ) ;
ENDSEC;
END-ISO-10303-21;
