ISO-10303-21;
HEADER;
FILE_DESCRIPTION (( 'STEP AP214' ),
    '1' );
FILE_NAME ('´óÍÈ.STEP',
    '2026-09-16T15:36:54',
    ( '' ),
    ( '' ),
    'SwSTEP 2.0',
    'SolidWorks 2026',
    '' );
FILE_SCHEMA (( 'AUTOMOTIVE_DESIGN' ));
ENDSEC;

DATA;
#1 = DIRECTION ( 'NONE',  ( -0.000000000000000000, -0.000000000000000000, 1.000000000000000000 ) ) ;
#2 = FACE_BOUND ( 'NONE', #111, .T. ) ;
#3 = AXIS2_PLACEMENT_3D ( 'NONE', #216, #29, #56 ) ;
#4 = LINE ( 'NONE', #287, #211 ) ;
#5 = AXIS2_PLACEMENT_3D ( 'NONE', #209, #344, #272 ) ;
#6 = DIRECTION ( 'NONE',  ( -1.000000000000000000, 8.881784197001256268E-16, 0.000000000000000000 ) ) ;
#7 = PRODUCT_RELATED_PRODUCT_CATEGORY ( 'part', '', ( #265 ) ) ;
#8 = DIRECTION ( 'NONE',  ( -0.000000000000000000, -0.000000000000000000, -1.000000000000000000 ) ) ;
#9 = CARTESIAN_POINT ( 'NONE',  ( -44.99999999999999289, 5.000000000000000000, 3.000000000000000000 ) ) ;
#10 = ORIENTED_EDGE ( 'NONE', *, *, #312, .F. ) ;
#11 = CLOSED_SHELL ( 'NONE', ( #363, #353, #397, #30, #45, #121, #63, #135, #333, #196, #17, #142 ) ) ;
#12 = DIRECTION ( 'NONE',  ( 1.000000000000000000, 0.000000000000000000, 0.000000000000000000 ) ) ;
#13 = ORIENTED_EDGE ( 'NONE', *, *, #282, .T. ) ;
#14 = EDGE_CURVE ( 'NONE', #361, #396, #248, .T. ) ;
#15 = ORIENTED_EDGE ( 'NONE', *, *, #355, .T. ) ;
#16 = DIRECTION ( 'NONE',  ( -1.000000000000000000, 0.000000000000000000, 0.000000000000000000 ) ) ;
#17 = ADVANCED_FACE ( 'NONE', ( #245 ), #157, .T. ) ;
#18 = EDGE_LOOP ( 'NONE', ( #331, #340, #401, #231 ) ) ;
#19 = CARTESIAN_POINT ( 'NONE',  ( -44.99999999999999289, 0.000000000000000000, 3.000000000000000000 ) ) ;
#20 = AXIS2_PLACEMENT_3D ( 'NONE', #350, #342, #69 ) ;
#21 = ORIENTED_EDGE ( 'NONE', *, *, #88, .F. ) ;
#22 = AXIS2_PLACEMENT_3D ( 'NONE', #221, #185, #323 ) ;
#23 = CARTESIAN_POINT ( 'NONE',  ( 45.00000000000001421, 0.000000000000000000, 3.000000000000000000 ) ) ;
#24 = ORIENTED_EDGE ( 'NONE', *, *, #101, .T. ) ;
#25 = ORIENTED_EDGE ( 'NONE', *, *, #293, .F. ) ;
#26 = CARTESIAN_POINT ( 'NONE',  ( -42.99999999999999289, 2.449293598294710359E-16, 3.000000000000000000 ) ) ;
#27 = CARTESIAN_POINT ( 'NONE',  ( -44.99999999999999289, -5.000000000000000000, 0.000000000000000000 ) ) ;
#28 = CARTESIAN_POINT ( 'NONE',  ( -44.99999999999999289, 0.000000000000000000, 3.000000000000000000 ) ) ;
#29 = DIRECTION ( 'NONE',  ( 0.000000000000000000, 1.000000000000000000, 0.000000000000000000 ) ) ;
#30 = ADVANCED_FACE ( 'NONE', ( #2, #155, #284 ), #124, .T. ) ;
#31 = ORIENTED_EDGE ( 'NONE', *, *, #386, .T. ) ;
#32 = EDGE_CURVE ( 'NONE', #103, #236, #252, .T. ) ;
#33 = DIRECTION ( 'NONE',  ( -0.000000000000000000, -0.000000000000000000, 1.000000000000000000 ) ) ;
#34 = VECTOR ( 'NONE', #192, 1000.000000000000000 ) ;
#35 = CARTESIAN_POINT ( 'NONE',  ( 47.00000000000002132, -3.673940397442055924E-16, 3.000000000000000000 ) ) ;
#36 = CARTESIAN_POINT ( 'NONE',  ( 50.00000000000001421, 0.000000000000000000, 0.000000000000000000 ) ) ;
#37 = DIRECTION ( 'NONE',  ( 1.000000000000000000, 0.000000000000000000, 0.000000000000000000 ) ) ;
#38 = APPLICATION_PROTOCOL_DEFINITION ( 'draft international standard', 'automotive_design', 1998, #226 ) ;
#39 = AXIS2_PLACEMENT_3D ( 'NONE', #90, #96, #317 ) ;
#40 = CYLINDRICAL_SURFACE ( 'NONE', #60, 4.999999999999997335 ) ;
#41 = AXIS2_PLACEMENT_3D ( 'NONE', #376, #277, #406 ) ;
#42 = DIRECTION ( 'NONE',  ( -1.000000000000000000, 0.000000000000000000, 0.000000000000000000 ) ) ;
#43 = ORIENTED_EDGE ( 'NONE', *, *, #104, .F. ) ;
#44 = VECTOR ( 'NONE', #384, 1000.000000000000000 ) ;
#45 = ADVANCED_FACE ( 'NONE', ( #250 ), #65, .F. ) ;
#46 = VERTEX_POINT ( 'NONE', #186 ) ;
#47 = CARTESIAN_POINT ( 'NONE',  ( 45.00000000000002132, 0.000000000000000000, 3.000000000000000000 ) ) ;
#48 = ORIENTED_EDGE ( 'NONE', *, *, #293, .T. ) ;
#49 = DIRECTION ( 'NONE',  ( 1.000000000000000000, 0.000000000000000000, 0.000000000000000000 ) ) ;
#50 = CIRCLE ( 'NONE', #76, 4.999999999999997335 ) ;
#51 = ORIENTED_EDGE ( 'NONE', *, *, #32, .T. ) ;
#52 = COLOUR_RGB ( '',0.7921568627450980005, 0.8196078431372548767, 0.9333333333333333481 ) ;
#53 = DIRECTION ( 'NONE',  ( -1.000000000000000000, 0.000000000000000000, 0.000000000000000000 ) ) ;
#54 = EDGE_LOOP ( 'NONE', ( #334, #202, #223, #206 ) ) ;
#55 = CARTESIAN_POINT ( 'NONE',  ( -44.99999999999999289, 0.000000000000000000, 3.000000000000000000 ) ) ;
#56 = DIRECTION ( 'NONE',  ( 0.000000000000000000, -0.000000000000000000, 1.000000000000000000 ) ) ;
#57 = CARTESIAN_POINT ( 'NONE',  ( 47.00000000000002132, -3.673940397442054445E-16, 3.000000000000000000 ) ) ;
#58 = EDGE_CURVE ( 'NONE', #385, #266, #183, .T. ) ;
#59 = CARTESIAN_POINT ( 'NONE',  ( 43.00000000000001421, -6.123233995736766282E-16, 0.000000000000000000 ) ) ;
#60 = AXIS2_PLACEMENT_3D ( 'NONE', #19, #257, #327 ) ;
#61 = FILL_AREA_STYLE ('',( #366 ) ) ;
#62 = AXIS2_PLACEMENT_3D ( 'NONE', #28, #1, #53 ) ;
#63 = ADVANCED_FACE ( 'NONE', ( #378 ), #151, .F. ) ;
#64 = VECTOR ( 'NONE', #120, 1000.000000000000000 ) ;
#65 = PLANE ( 'NONE',  #125 ) ;
#66 = APPLICATION_CONTEXT ( 'automotive_design' ) ;
#67 = DIRECTION ( 'NONE',  ( 0.000000000000000000, -0.000000000000000000, -1.000000000000000000 ) ) ;
#68 = APPLICATION_PROTOCOL_DEFINITION ( 'draft international standard', 'automotive_design', 1998, #66 ) ;
#69 = DIRECTION ( 'NONE',  ( -1.000000000000000000, 0.000000000000000000, 0.000000000000000000 ) ) ;
#70 = AXIS2_PLACEMENT_3D ( 'NONE', #369, #339, #375 ) ;
#71 = DIRECTION ( 'NONE',  ( 1.000000000000000000, 0.000000000000000000, 0.000000000000000000 ) ) ;
#72 = DIRECTION ( 'NONE',  ( 0.000000000000000000, 0.000000000000000000, 1.000000000000000000 ) ) ;
#73 = EDGE_CURVE ( 'NONE', #225, #361, #193, .T. ) ;
#74 = CARTESIAN_POINT ( 'NONE',  ( -49.99999999999998579, 5.000000000000000000, 3.000000000000000000 ) ) ;
#75 = ORIENTED_EDGE ( 'NONE', *, *, #246, .T. ) ;
#76 = AXIS2_PLACEMENT_3D ( 'NONE', #180, #281, #408 ) ;
#77 = CARTESIAN_POINT ( 'NONE',  ( -49.99999999999998579, 0.000000000000000000, 0.000000000000000000 ) ) ;
#78 = VERTEX_POINT ( 'NONE', #316 ) ;
#79 = EDGE_LOOP ( 'NONE', ( #365, #228, #273, #116 ) ) ;
#80 = FACE_OUTER_BOUND ( 'NONE', #271, .T. ) ;
#81 = ORIENTED_EDGE ( 'NONE', *, *, #367, .T. ) ;
#82 = ORIENTED_EDGE ( 'NONE', *, *, #279, .F. ) ;
#83 = FACE_BOUND ( 'NONE', #306, .T. ) ;
#84 = ORIENTED_EDGE ( 'NONE', *, *, #159, .T. ) ;
#85 = VECTOR ( 'NONE', #37, 1000.000000000000000 ) ;
#86 = LINE ( 'NONE', #179, #187 ) ;
#87 = ORIENTED_EDGE ( 'NONE', *, *, #32, .F. ) ;
#88 = EDGE_CURVE ( 'NONE', #385, #242, #164, .T. ) ;
#89 = CYLINDRICAL_SURFACE ( 'NONE', #70, 4.999999999999997335 ) ;
#90 = CARTESIAN_POINT ( 'NONE',  ( -44.99999999999999289, 0.000000000000000000, 3.000000000000000000 ) ) ;
#91 = EDGE_CURVE ( 'NONE', #93, #131, #4, .T. ) ;
#92 = LINE ( 'NONE', #26, #337 ) ;
#93 = VERTEX_POINT ( 'NONE', #381 ) ;
#94 = CIRCLE ( 'NONE', #377, 4.999999999999997335 ) ;
#95 = MECHANICAL_DESIGN_GEOMETRIC_PRESENTATION_REPRESENTATION (  '', ( #251 ), #360 ) ;
#96 = DIRECTION ( 'NONE',  ( -0.000000000000000000, -0.000000000000000000, -1.000000000000000000 ) ) ;
#97 = CARTESIAN_POINT ( 'NONE',  ( -44.99999999999999289, 0.000000000000000000, 3.000000000000000000 ) ) ;
#98 = DIRECTION ( 'NONE',  ( 0.000000000000000000, -1.000000000000000000, 0.000000000000000000 ) ) ;
#99 = VECTOR ( 'NONE', #71, 1000.000000000000000 ) ;
#100 = DIRECTION ( 'NONE',  ( 0.000000000000000000, 0.000000000000000000, -1.000000000000000000 ) ) ;
#101 = EDGE_CURVE ( 'NONE', #396, #392, #343, .T. ) ;
#102 = DIRECTION ( 'NONE',  ( -0.000000000000000000, -0.000000000000000000, -1.000000000000000000 ) ) ;
#103 = VERTEX_POINT ( 'NONE', #208 ) ;
#104 = EDGE_CURVE ( 'NONE', #225, #392, #215, .T. ) ;
#105 = DIRECTION ( 'NONE',  ( -1.000000000000000000, 0.000000000000000000, 0.000000000000000000 ) ) ;
#106 = ORIENTED_EDGE ( 'NONE', *, *, #88, .T. ) ;
#107 = CIRCLE ( 'NONE', #138, 2.000000000000001776 ) ;
#108 = VERTEX_POINT ( 'NONE', #59 ) ;
#109 = DIRECTION ( 'NONE',  ( -0.000000000000000000, -0.000000000000000000, -1.000000000000000000 ) ) ;
#110 = AXIS2_PLACEMENT_3D ( 'NONE', #313, #285, #158 ) ;
#111 = EDGE_LOOP ( 'NONE', ( #13, #15 ) ) ;
#112 = CIRCLE ( 'NONE', #346, 2.000000000000001776 ) ;
#113 = LINE ( 'NONE', #162, #85 ) ;
#114 = ORIENTED_EDGE ( 'NONE', *, *, #279, .T. ) ;
#115 = CARTESIAN_POINT ( 'NONE',  ( 45.00000000000001421, -5.000000000000000000, 3.000000000000000000 ) ) ;
#116 = ORIENTED_EDGE ( 'NONE', *, *, #210, .F. ) ;
#117 = DIRECTION ( 'NONE',  ( 1.000000000000000000, 0.000000000000000000, 0.000000000000000000 ) ) ;
#118 = ORIENTED_EDGE ( 'NONE', *, *, #199, .F. ) ;
#119 = VECTOR ( 'NONE', #100, 1000.000000000000000 ) ;
#120 = DIRECTION ( 'NONE',  ( -0.000000000000000000, -0.000000000000000000, 1.000000000000000000 ) ) ;
#121 = ADVANCED_FACE ( 'NONE', ( #253 ), #182, .F. ) ;
#122 = CARTESIAN_POINT ( 'NONE',  ( -44.99999999999999289, 0.000000000000000000, 3.000000000000000000 ) ) ;
#123 = CARTESIAN_POINT ( 'NONE',  ( 45.00000000000001421, -5.000000000000000000, 3.000000000000000000 ) ) ;
#124 = PLANE ( 'NONE',  #41 ) ;
#125 = AXIS2_PLACEMENT_3D ( 'NONE', #348, #98, #67 ) ;
#126 = PRESENTATION_LAYER_ASSIGNMENT (  '', '', ( #251 ) ) ;
#127 = CARTESIAN_POINT ( 'NONE',  ( 50.00000000000001421, 0.000000000000000000, 3.000000000000000000 ) ) ;
#128 = DIRECTION ( 'NONE',  ( 0.000000000000000000, 0.000000000000000000, -1.000000000000000000 ) ) ;
#129 = CARTESIAN_POINT ( 'NONE',  ( 45.00000000000001421, 5.000000000000000000, 3.000000000000000000 ) ) ;
#130 = EDGE_CURVE ( 'NONE', #78, #46, #50, .T. ) ;
#131 = VERTEX_POINT ( 'NONE', #27 ) ;
#132 = DIRECTION ( 'NONE',  ( -1.000000000000000000, 0.000000000000000000, -0.000000000000000000 ) ) ;
#133 = CARTESIAN_POINT ( 'NONE',  ( 45.00000000000001421, 0.000000000000000000, 0.000000000000000000 ) ) ;
#134 = ORIENTED_EDGE ( 'NONE', *, *, #130, .T. ) ;
#135 = ADVANCED_FACE ( 'NONE', ( #80 ), #194, .F. ) ;
#136 = CARTESIAN_POINT ( 'NONE',  ( -42.99999999999999289, 2.449293598294711345E-16, 0.000000000000000000 ) ) ;
#137 = ORIENTED_EDGE ( 'NONE', *, *, #326, .T. ) ;
#138 = AXIS2_PLACEMENT_3D ( 'NONE', #325, #295, #12 ) ;
#139 = EDGE_LOOP ( 'NONE', ( #25, #359, #275, #370 ) ) ;
#140 = CARTESIAN_POINT ( 'NONE',  ( -49.99999999999998579, 0.000000000000000000, 3.000000000000000000 ) ) ;
#141 = ORIENTED_EDGE ( 'NONE', *, *, #73, .T. ) ;
#142 = ADVANCED_FACE ( 'NONE', ( #358 ), #40, .T. ) ;
#143 = DIRECTION ( 'NONE',  ( 0.000000000000000000, 0.000000000000000000, -1.000000000000000000 ) ) ;
#144 = VECTOR ( 'NONE', #354, 1000.000000000000000 ) ;
#145 = ORIENTED_EDGE ( 'NONE', *, *, #229, .F. ) ;
#146 = AXIS2_PLACEMENT_3D ( 'NONE', #23, #147, #400 ) ;
#147 = DIRECTION ( 'NONE',  ( -0.000000000000000000, -0.000000000000000000, 1.000000000000000000 ) ) ;
#148 = ORIENTED_EDGE ( 'NONE', *, *, #320, .F. ) ;
#149 = CARTESIAN_POINT ( 'NONE',  ( 45.00000000000002132, -6.123233995736766282E-16, 0.000000000000000000 ) ) ;
#150 = ORIENTED_EDGE ( 'NONE', *, *, #58, .F. ) ;
#151 = CYLINDRICAL_SURFACE ( 'NONE', #39, 2.000000000000001776 ) ;
#152 = CARTESIAN_POINT ( 'NONE',  ( 0.000000000000000000, 0.000000000000000000, 3.000000000000000000 ) ) ;
#153 = ORIENTED_EDGE ( 'NONE', *, *, #296, .T. ) ;
#154 = DIRECTION ( 'NONE',  ( -0.000000000000000000, -0.000000000000000000, -1.000000000000000000 ) ) ;
#155 = FACE_OUTER_BOUND ( 'NONE', #335, .T. ) ;
#156 = DIRECTION ( 'NONE',  ( 0.000000000000000000, 0.000000000000000000, 1.000000000000000000 ) ) ;
#157 = CYLINDRICAL_SURFACE ( 'NONE', #347, 4.999999999999997335 ) ;
#158 = DIRECTION ( 'NONE',  ( 1.000000000000000000, 0.000000000000000000, 0.000000000000000000 ) ) ;
#159 = EDGE_CURVE ( 'NONE', #197, #204, #303, .T. ) ;
#160 = UNCERTAINTY_MEASURE_WITH_UNIT (LENGTH_MEASURE( 1.000000000000000082E-05 ), #241, 'distance_accuracy_value', 'NONE');
#161 = CARTESIAN_POINT ( 'NONE',  ( -44.99999999999999289, 0.000000000000000000, 0.000000000000000000 ) ) ;
#162 = CARTESIAN_POINT ( 'NONE',  ( -49.99999999999998579, -5.000000000000000000, 0.000000000000000000 ) ) ;
#163 = EDGE_CURVE ( 'NONE', #204, #78, #166, .T. ) ;
#164 = CIRCLE ( 'NONE', #110, 2.000000000000001776 ) ;
#165 = ADVANCED_BREP_SHAPE_REPRESENTATION ( '\X2\5927817f\X0\', ( #390, #22 ), #379 ) ;
#166 = LINE ( 'NONE', #9, #144 ) ;
#167 = CARTESIAN_POINT ( 'NONE',  ( -46.99999999999999289, 0.000000000000000000, 0.000000000000000000 ) ) ;
#168 = AXIS2_PLACEMENT_3D ( 'NONE', #288, #72, #292 ) ;
#169 = ORIENTED_EDGE ( 'NONE', *, *, #282, .F. ) ;
#170 = EDGE_CURVE ( 'NONE', #131, #197, #94, .T. ) ;
#171 = EDGE_LOOP ( 'NONE', ( #153, #137 ) ) ;
#172 = LINE ( 'NONE', #129, #44 ) ;
#173 = EDGE_CURVE ( 'NONE', #264, #262, #172, .T. ) ;
#174 = VERTEX_POINT ( 'NONE', #167 ) ;
#175 = VECTOR ( 'NONE', #380, 1000.000000000000000 ) ;
#176 = ORIENTED_EDGE ( 'NONE', *, *, #326, .F. ) ;
#177 = PRESENTATION_STYLE_ASSIGNMENT (( #309 ) ) ;
#178 = EDGE_LOOP ( 'NONE', ( #51, #195, #169, #393 ) ) ;
#179 = CARTESIAN_POINT ( 'NONE',  ( -49.99999999999998579, 5.000000000000000000, 0.000000000000000000 ) ) ;
#180 = CARTESIAN_POINT ( 'NONE',  ( -44.99999999999999289, 0.000000000000000000, 3.000000000000000000 ) ) ;
#181 = FACE_BOUND ( 'NONE', #240, .T. ) ;
#182 = PLANE ( 'NONE',  #3 ) ;
#183 = LINE ( 'NONE', #35, #175 ) ;
#184 = DIRECTION ( 'NONE',  ( -1.000000000000000000, 0.000000000000000000, 0.000000000000000000 ) ) ;
#185 = DIRECTION ( 'NONE',  ( 0.000000000000000000, 0.000000000000000000, 1.000000000000000000 ) ) ;
#186 = CARTESIAN_POINT ( 'NONE',  ( -49.99999999999998579, 0.000000000000000000, 3.000000000000000000 ) ) ;
#187 = VECTOR ( 'NONE', #373, 1000.000000000000000 ) ;
#188 = CARTESIAN_POINT ( 'NONE',  ( 43.00000000000001421, -6.123233995736766282E-16, 3.000000000000000000 ) ) ;
#189 = UNCERTAINTY_MEASURE_WITH_UNIT (LENGTH_MEASURE( 1.000000000000000082E-05 ), #191, 'distance_accuracy_value', 'NONE');
#190 = CARTESIAN_POINT ( 'NONE',  ( 45.00000000000001421, 5.000000000000000000, 0.000000000000000000 ) ) ;
#191 =( LENGTH_UNIT ( ) NAMED_UNIT ( * ) SI_UNIT ( .MILLI., .METRE. ) );
#192 = DIRECTION ( 'NONE',  ( -1.000000000000000000, -0.000000000000000000, -0.000000000000000000 ) ) ;
#193 = CIRCLE ( 'NONE', #20, 4.999999999999997335 ) ;
#194 = CYLINDRICAL_SURFACE ( 'NONE', #233, 2.000000000000001776 ) ;
#195 = ORIENTED_EDGE ( 'NONE', *, *, #312, .T. ) ;
#196 = ADVANCED_FACE ( 'NONE', ( #261 ), #299, .T. ) ;
#197 = VERTEX_POINT ( 'NONE', #77 ) ;
#198 = CARTESIAN_POINT ( 'NONE',  ( -42.99999999999999289, 2.449293598294711345E-16, 3.000000000000000000 ) ) ;
#199 = EDGE_CURVE ( 'NONE', #46, #197, #321, .T. ) ;
#200 = ORIENTED_EDGE ( 'NONE', *, *, #386, .F. ) ;
#201 = CARTESIAN_POINT ( 'NONE',  ( -44.99999999999999289, 0.000000000000000000, 0.000000000000000000 ) ) ;
#202 = ORIENTED_EDGE ( 'NONE', *, *, #14, .F. ) ;
#203 = DIRECTION ( 'NONE',  ( 0.000000000000000000, 0.000000000000000000, -1.000000000000000000 ) ) ;
#204 = VERTEX_POINT ( 'NONE', #224 ) ;
#205 = FACE_OUTER_BOUND ( 'NONE', #260, .T. ) ;
#206 = ORIENTED_EDGE ( 'NONE', *, *, #104, .T. ) ;
#207 = SURFACE_STYLE_FILL_AREA ( #61 ) ;
#208 = CARTESIAN_POINT ( 'NONE',  ( -46.99999999999999289, 0.000000000000000000, 3.000000000000000000 ) ) ;
#209 = CARTESIAN_POINT ( 'NONE',  ( 45.00000000000002132, -6.123233995736766282E-16, 3.000000000000000000 ) ) ;
#210 = EDGE_CURVE ( 'NONE', #242, #108, #267, .T. ) ;
#211 = VECTOR ( 'NONE', #128, 1000.000000000000000 ) ;
#212 = CARTESIAN_POINT ( 'NONE',  ( -44.99999999999999289, 0.000000000000000000, 3.000000000000000000 ) ) ;
#213 = AXIS2_PLACEMENT_3D ( 'NONE', #55, #336, #117 ) ;
#214 = CARTESIAN_POINT ( 'NONE',  ( 45.00000000000002132, 0.000000000000000000, 3.000000000000000000 ) ) ;
#215 = LINE ( 'NONE', #127, #249 ) ;
#216 = CARTESIAN_POINT ( 'NONE',  ( -49.99999999999998579, -5.000000000000000000, 3.000000000000000000 ) ) ;
#217 = PRODUCT_CONTEXT ( 'NONE', #226, 'mechanical' ) ;
#218 = AXIS2_PLACEMENT_3D ( 'NONE', #47, #364, #105 ) ;
#219 = CARTESIAN_POINT ( 'NONE',  ( 43.00000000000001421, -6.123233995736766282E-16, 3.000000000000000000 ) ) ;
#220 = ORIENTED_EDGE ( 'NONE', *, *, #173, .F. ) ;
#221 = CARTESIAN_POINT ( 'NONE',  ( 0.000000000000000000, 0.000000000000000000, 0.000000000000000000 ) ) ;
#222 = LINE ( 'NONE', #387, #99 ) ;
#223 = ORIENTED_EDGE ( 'NONE', *, *, #73, .F. ) ;
#224 = CARTESIAN_POINT ( 'NONE',  ( -44.99999999999999289, 5.000000000000000000, 0.000000000000000000 ) ) ;
#225 = VERTEX_POINT ( 'NONE', #36 ) ;
#226 = APPLICATION_CONTEXT ( 'automotive_design' ) ;
#227 = CIRCLE ( 'NONE', #213, 2.000000000000001776 ) ;
#228 = ORIENTED_EDGE ( 'NONE', *, *, #58, .T. ) ;
#229 = EDGE_CURVE ( 'NONE', #131, #361, #113, .T. ) ;
#230 = PRODUCT_DEFINITION ( 'æœ', '', #383, #256 ) ;
#231 = ORIENTED_EDGE ( 'NONE', *, *, #91, .T. ) ;
#232 = PRODUCT_DEFINITION_SHAPE ( 'NONE', 'NONE',  #230 ) ;
#233 = AXIS2_PLACEMENT_3D ( 'NONE', #332, #8, #16 ) ;
#234 = EDGE_CURVE ( 'NONE', #103, #174, #395, .T. ) ;
#235 = CARTESIAN_POINT ( 'NONE',  ( 45.00000000000001421, 5.000000000000000000, 3.000000000000000000 ) ) ;
#236 = VERTEX_POINT ( 'NONE', #198 ) ;
#237 = DIRECTION ( 'NONE',  ( 0.000000000000000000, 0.000000000000000000, 1.000000000000000000 ) ) ;
#238 = ORIENTED_EDGE ( 'NONE', *, *, #170, .T. ) ;
#239 = DIRECTION ( 'NONE',  ( 0.000000000000000000, 0.000000000000000000, 1.000000000000000000 ) ) ;
#240 = EDGE_LOOP ( 'NONE', ( #322, #21 ) ) ;
#241 =( LENGTH_UNIT ( ) NAMED_UNIT ( * ) SI_UNIT ( .MILLI., .METRE. ) );
#242 = VERTEX_POINT ( 'NONE', #188 ) ;
#243 = CIRCLE ( 'NONE', #405, 2.000000000000001776 ) ;
#244 = PLANE ( 'NONE',  #270 ) ;
#245 = FACE_OUTER_BOUND ( 'NONE', #329, .T. ) ;
#246 = EDGE_CURVE ( 'NONE', #93, #396, #222, .T. ) ;
#247 = CYLINDRICAL_SURFACE ( 'NONE', #5, 2.000000000000001776 ) ;
#248 = LINE ( 'NONE', #123, #64 ) ;
#249 = VECTOR ( 'NONE', #254, 1000.000000000000000 ) ;
#250 = FACE_OUTER_BOUND ( 'NONE', #139, .T. ) ;
#251 = STYLED_ITEM ( 'NONE', ( #177 ), #390 ) ;
#252 = CIRCLE ( 'NONE', #357, 2.000000000000001776 ) ;
#253 = FACE_OUTER_BOUND ( 'NONE', #18, .T. ) ;
#254 = DIRECTION ( 'NONE',  ( -0.000000000000000000, -0.000000000000000000, 1.000000000000000000 ) ) ;
#255 =( NAMED_UNIT ( * ) SI_UNIT ( $, .STERADIAN. ) SOLID_ANGLE_UNIT ( ) );
#256 = PRODUCT_DEFINITION_CONTEXT ( 'detailed design', #66, 'design' ) ;
#257 = DIRECTION ( 'NONE',  ( 0.000000000000000000, 0.000000000000000000, -1.000000000000000000 ) ) ;
#258 = ORIENTED_EDGE ( 'NONE', *, *, #210, .T. ) ;
#259 = LINE ( 'NONE', #74, #34 ) ;
#260 = EDGE_LOOP ( 'NONE', ( #220, #388, #43, #82 ) ) ;
#261 = FACE_OUTER_BOUND ( 'NONE', #54, .T. ) ;
#262 = VERTEX_POINT ( 'NONE', #190 ) ;
#263 = AXIS2_PLACEMENT_3D ( 'NONE', #149, #239, #402 ) ;
#264 = VERTEX_POINT ( 'NONE', #235 ) ;
#265 = PRODUCT ( '\X2\5927817f\X0\', '\X2\5927817f\X0\', '', ( #217 ) ) ;
#266 = VERTEX_POINT ( 'NONE', #301 ) ;
#267 = LINE ( 'NONE', #219, #391 ) ;
#268 = ORIENTED_EDGE ( 'NONE', *, *, #159, .F. ) ;
#269 = DIRECTION ( 'NONE',  ( -1.000000000000000000, 0.000000000000000000, 0.000000000000000000 ) ) ;
#270 = AXIS2_PLACEMENT_3D ( 'NONE', #152, #203, #132 ) ;
#271 = EDGE_LOOP ( 'NONE', ( #150, #106, #258, #176 ) ) ;
#272 = DIRECTION ( 'NONE',  ( -1.000000000000000000, 0.000000000000000000, 0.000000000000000000 ) ) ;
#273 = ORIENTED_EDGE ( 'NONE', *, *, #296, .F. ) ;
#274 = FACE_OUTER_BOUND ( 'NONE', #79, .T. ) ;
#275 = ORIENTED_EDGE ( 'NONE', *, *, #320, .T. ) ;
#276 = CARTESIAN_POINT ( 'NONE',  ( 50.00000000000001421, 0.000000000000000000, 3.000000000000000000 ) ) ;
#277 = DIRECTION ( 'NONE',  ( 0.000000000000000000, 0.000000000000000000, -1.000000000000000000 ) ) ;
#278 = AXIS2_PLACEMENT_3D ( 'NONE', #133, #356, #319 ) ;
#279 = EDGE_CURVE ( 'NONE', #262, #225, #330, .T. ) ;
#280 =( NAMED_UNIT ( * ) SI_UNIT ( $, .STERADIAN. ) SOLID_ANGLE_UNIT ( ) );
#281 = DIRECTION ( 'NONE',  ( -0.000000000000000000, -0.000000000000000000, 1.000000000000000000 ) ) ;
#282 = EDGE_CURVE ( 'NONE', #174, #298, #352, .T. ) ;
#283 = SURFACE_SIDE_STYLE ('',( #207 ) ) ;
#284 = FACE_BOUND ( 'NONE', #171, .T. ) ;
#285 = DIRECTION ( 'NONE',  ( 0.000000000000000000, 0.000000000000000000, 1.000000000000000000 ) ) ;
#286 = CARTESIAN_POINT ( 'NONE',  ( 45.00000000000002132, -6.123233995736766282E-16, 3.000000000000000000 ) ) ;
#287 = CARTESIAN_POINT ( 'NONE',  ( -44.99999999999999289, -5.000000000000000000, 3.000000000000000000 ) ) ;
#288 = CARTESIAN_POINT ( 'NONE',  ( -44.99999999999999289, 0.000000000000000000, 0.000000000000000000 ) ) ;
#289 = ORIENTED_EDGE ( 'NONE', *, *, #170, .F. ) ;
#290 = SHAPE_DEFINITION_REPRESENTATION ( #232, #165 ) ;
#291 = AXIS2_PLACEMENT_3D ( 'NONE', #161, #143, #269 ) ;
#292 = DIRECTION ( 'NONE',  ( 1.000000000000000000, 0.000000000000000000, 0.000000000000000000 ) ) ;
#293 = EDGE_CURVE ( 'NONE', #264, #78, #259, .T. ) ;
#294 = CIRCLE ( 'NONE', #146, 4.999999999999997335 ) ;
#295 = DIRECTION ( 'NONE',  ( 0.000000000000000000, 0.000000000000000000, 1.000000000000000000 ) ) ;
#296 = EDGE_CURVE ( 'NONE', #108, #266, #107, .T. ) ;
#297 = AXIS2_PLACEMENT_3D ( 'NONE', #122, #154, #307 ) ;
#298 = VERTEX_POINT ( 'NONE', #136 ) ;
#299 = CYLINDRICAL_SURFACE ( 'NONE', #218, 4.999999999999997335 ) ;
#300 = ORIENTED_EDGE ( 'NONE', *, *, #199, .T. ) ;
#301 = CARTESIAN_POINT ( 'NONE',  ( 47.00000000000002132, -3.673940397442054445E-16, 0.000000000000000000 ) ) ;
#302 = EDGE_LOOP ( 'NONE', ( #10, #81, #399, #368 ) ) ;
#303 = CIRCLE ( 'NONE', #291, 4.999999999999997335 ) ;
#304 = DIRECTION ( 'NONE',  ( -0.000000000000000000, -0.000000000000000000, -1.000000000000000000 ) ) ;
#305 = CIRCLE ( 'NONE', #62, 4.999999999999997335 ) ;
#306 = EDGE_LOOP ( 'NONE', ( #87, #328 ) ) ;
#307 = DIRECTION ( 'NONE',  ( -1.000000000000000000, 0.000000000000000000, 0.000000000000000000 ) ) ;
#308 = ORIENTED_EDGE ( 'NONE', *, *, #394, .T. ) ;
#309 = SURFACE_STYLE_USAGE ( .BOTH. , #283 ) ;
#310 = DIRECTION ( 'NONE',  ( 0.000000000000000000, 0.000000000000000000, -1.000000000000000000 ) ) ;
#311 = CARTESIAN_POINT ( 'NONE',  ( 45.00000000000001421, -5.000000000000000000, 0.000000000000000000 ) ) ;
#312 = EDGE_CURVE ( 'NONE', #236, #298, #92, .T. ) ;
#313 = CARTESIAN_POINT ( 'NONE',  ( 45.00000000000002132, -6.123233995736766282E-16, 3.000000000000000000 ) ) ;
#314 =( NAMED_UNIT ( * ) PLANE_ANGLE_UNIT ( ) SI_UNIT ( $, .RADIAN. ) );
#315 = ORIENTED_EDGE ( 'NONE', *, *, #130, .F. ) ;
#316 = CARTESIAN_POINT ( 'NONE',  ( -44.99999999999999289, 5.000000000000000000, 3.000000000000000000 ) ) ;
#317 = DIRECTION ( 'NONE',  ( -1.000000000000000000, 0.000000000000000000, 0.000000000000000000 ) ) ;
#318 = VECTOR ( 'NONE', #109, 1000.000000000000000 ) ;
#319 = DIRECTION ( 'NONE',  ( -1.000000000000000000, 0.000000000000000000, 0.000000000000000000 ) ) ;
#320 = EDGE_CURVE ( 'NONE', #262, #204, #86, .T. ) ;
#321 = LINE ( 'NONE', #140, #119 ) ;
#322 = ORIENTED_EDGE ( 'NONE', *, *, #409, .F. ) ;
#323 = DIRECTION ( 'NONE',  ( 1.000000000000000000, 0.000000000000000000, 0.000000000000000000 ) ) ;
#324 = AXIS2_PLACEMENT_3D ( 'NONE', #214, #33, #6 ) ;
#325 = CARTESIAN_POINT ( 'NONE',  ( 45.00000000000002132, -6.123233995736766282E-16, 0.000000000000000000 ) ) ;
#326 = EDGE_CURVE ( 'NONE', #266, #108, #371, .T. ) ;
#327 = DIRECTION ( 'NONE',  ( -1.000000000000000000, 0.000000000000000000, 0.000000000000000000 ) ) ;
#328 = ORIENTED_EDGE ( 'NONE', *, *, #367, .F. ) ;
#329 = EDGE_LOOP ( 'NONE', ( #118, #315, #338, #268 ) ) ;
#330 = CIRCLE ( 'NONE', #278, 4.999999999999997335 ) ;
#331 = ORIENTED_EDGE ( 'NONE', *, *, #229, .T. ) ;
#332 = CARTESIAN_POINT ( 'NONE',  ( 45.00000000000002132, -6.123233995736766282E-16, 3.000000000000000000 ) ) ;
#333 = ADVANCED_FACE ( 'NONE', ( #205 ), #89, .T. ) ;
#334 = ORIENTED_EDGE ( 'NONE', *, *, #101, .F. ) ;
#335 = EDGE_LOOP ( 'NONE', ( #114, #141, #145, #238, #84, #148 ) ) ;
#336 = DIRECTION ( 'NONE',  ( 0.000000000000000000, 0.000000000000000000, 1.000000000000000000 ) ) ;
#337 = VECTOR ( 'NONE', #304, 1000.000000000000000 ) ;
#338 = ORIENTED_EDGE ( 'NONE', *, *, #163, .F. ) ;
#339 = DIRECTION ( 'NONE',  ( 0.000000000000000000, 0.000000000000000000, -1.000000000000000000 ) ) ;
#340 = ORIENTED_EDGE ( 'NONE', *, *, #14, .T. ) ;
#341 = FACE_OUTER_BOUND ( 'NONE', #178, .T. ) ;
#342 = DIRECTION ( 'NONE',  ( 0.000000000000000000, 0.000000000000000000, -1.000000000000000000 ) ) ;
#343 = CIRCLE ( 'NONE', #324, 4.999999999999997335 ) ;
#344 = DIRECTION ( 'NONE',  ( -0.000000000000000000, -0.000000000000000000, -1.000000000000000000 ) ) ;
#345 = DIRECTION ( 'NONE',  ( 0.000000000000000000, 0.000000000000000000, 1.000000000000000000 ) ) ;
#346 = AXIS2_PLACEMENT_3D ( 'NONE', #286, #156, #349 ) ;
#347 = AXIS2_PLACEMENT_3D ( 'NONE', #97, #310, #184 ) ;
#348 = CARTESIAN_POINT ( 'NONE',  ( -49.99999999999998579, 5.000000000000000000, 3.000000000000000000 ) ) ;
#349 = DIRECTION ( 'NONE',  ( 1.000000000000000000, 0.000000000000000000, 0.000000000000000000 ) ) ;
#350 = CARTESIAN_POINT ( 'NONE',  ( 45.00000000000002132, 0.000000000000000000, 0.000000000000000000 ) ) ;
#351 = CARTESIAN_POINT ( 'NONE',  ( -46.99999999999999289, 0.000000000000000000, 3.000000000000000000 ) ) ;
#352 = CIRCLE ( 'NONE', #168, 2.000000000000001776 ) ;
#353 = ADVANCED_FACE ( 'NONE', ( #341 ), #407, .F. ) ;
#354 = DIRECTION ( 'NONE',  ( -0.000000000000000000, -0.000000000000000000, 1.000000000000000000 ) ) ;
#355 = EDGE_CURVE ( 'NONE', #298, #174, #243, .T. ) ;
#356 = DIRECTION ( 'NONE',  ( 0.000000000000000000, 0.000000000000000000, -1.000000000000000000 ) ) ;
#357 = AXIS2_PLACEMENT_3D ( 'NONE', #212, #345, #374 ) ;
#358 = FACE_OUTER_BOUND ( 'NONE', #403, .T. ) ;
#359 = ORIENTED_EDGE ( 'NONE', *, *, #173, .T. ) ;
#360 =( GEOMETRIC_REPRESENTATION_CONTEXT ( 3 ) GLOBAL_UNCERTAINTY_ASSIGNED_CONTEXT ( ( #160 ) ) GLOBAL_UNIT_ASSIGNED_CONTEXT ( ( #241, #314, #280 ) ) REPRESENTATION_CONTEXT ( 'NONE', 'WORKASPACE' ) );
#361 = VERTEX_POINT ( 'NONE', #311 ) ;
#362 = EDGE_LOOP ( 'NONE', ( #75, #24, #308, #48, #134, #31 ) ) ;
#363 = ADVANCED_FACE ( 'NONE', ( #274 ), #247, .F. ) ;
#364 = DIRECTION ( 'NONE',  ( 0.000000000000000000, 0.000000000000000000, -1.000000000000000000 ) ) ;
#365 = ORIENTED_EDGE ( 'NONE', *, *, #409, .T. ) ;
#366 = FILL_AREA_STYLE_COLOUR ( '', #52 ) ;
#367 = EDGE_CURVE ( 'NONE', #236, #103, #227, .T. ) ;
#368 = ORIENTED_EDGE ( 'NONE', *, *, #355, .F. ) ;
#369 = CARTESIAN_POINT ( 'NONE',  ( 45.00000000000001421, 0.000000000000000000, 3.000000000000000000 ) ) ;
#370 = ORIENTED_EDGE ( 'NONE', *, *, #163, .T. ) ;
#371 = CIRCLE ( 'NONE', #263, 2.000000000000001776 ) ;
#372 = ORIENTED_EDGE ( 'NONE', *, *, #91, .F. ) ;
#373 = DIRECTION ( 'NONE',  ( -1.000000000000000000, -0.000000000000000000, -0.000000000000000000 ) ) ;
#374 = DIRECTION ( 'NONE',  ( 1.000000000000000000, 0.000000000000000000, 0.000000000000000000 ) ) ;
#375 = DIRECTION ( 'NONE',  ( -1.000000000000000000, 0.000000000000000000, 0.000000000000000000 ) ) ;
#376 = CARTESIAN_POINT ( 'NONE',  ( 0.000000000000000000, 0.000000000000000000, 0.000000000000000000 ) ) ;
#377 = AXIS2_PLACEMENT_3D ( 'NONE', #398, #389, #42 ) ;
#378 = FACE_OUTER_BOUND ( 'NONE', #302, .T. ) ;
#379 =( GEOMETRIC_REPRESENTATION_CONTEXT ( 3 ) GLOBAL_UNCERTAINTY_ASSIGNED_CONTEXT ( ( #189 ) ) GLOBAL_UNIT_ASSIGNED_CONTEXT ( ( #191, #382, #255 ) ) REPRESENTATION_CONTEXT ( 'NONE', 'WORKASPACE' ) );
#380 = DIRECTION ( 'NONE',  ( -0.000000000000000000, -0.000000000000000000, -1.000000000000000000 ) ) ;
#381 = CARTESIAN_POINT ( 'NONE',  ( -44.99999999999999289, -5.000000000000000000, 3.000000000000000000 ) ) ;
#382 =( NAMED_UNIT ( * ) PLANE_ANGLE_UNIT ( ) SI_UNIT ( $, .RADIAN. ) );
#383 = PRODUCT_DEFINITION_FORMATION_WITH_SPECIFIED_SOURCE ( 'ä»', '', #265, .NOT_KNOWN. ) ;
#384 = DIRECTION ( 'NONE',  ( 0.000000000000000000, 0.000000000000000000, -1.000000000000000000 ) ) ;
#385 = VERTEX_POINT ( 'NONE', #57 ) ;
#386 = EDGE_CURVE ( 'NONE', #46, #93, #305, .T. ) ;
#387 = CARTESIAN_POINT ( 'NONE',  ( -49.99999999999998579, -5.000000000000000000, 3.000000000000000000 ) ) ;
#388 = ORIENTED_EDGE ( 'NONE', *, *, #394, .F. ) ;
#389 = DIRECTION ( 'NONE',  ( 0.000000000000000000, 0.000000000000000000, -1.000000000000000000 ) ) ;
#390 = MANIFOLD_SOLID_BREP ( '\X2\570689d2\X0\1', #11 ) ;
#391 = VECTOR ( 'NONE', #102, 1000.000000000000000 ) ;
#392 = VERTEX_POINT ( 'NONE', #276 ) ;
#393 = ORIENTED_EDGE ( 'NONE', *, *, #234, .F. ) ;
#394 = EDGE_CURVE ( 'NONE', #392, #264, #294, .T. ) ;
#395 = LINE ( 'NONE', #351, #318 ) ;
#396 = VERTEX_POINT ( 'NONE', #115 ) ;
#397 = ADVANCED_FACE ( 'NONE', ( #404, #83, #181 ), #244, .F. ) ;
#398 = CARTESIAN_POINT ( 'NONE',  ( -44.99999999999999289, 0.000000000000000000, 0.000000000000000000 ) ) ;
#399 = ORIENTED_EDGE ( 'NONE', *, *, #234, .T. ) ;
#400 = DIRECTION ( 'NONE',  ( -1.000000000000000000, 0.000000000000000000, 0.000000000000000000 ) ) ;
#401 = ORIENTED_EDGE ( 'NONE', *, *, #246, .F. ) ;
#402 = DIRECTION ( 'NONE',  ( 1.000000000000000000, 0.000000000000000000, 0.000000000000000000 ) ) ;
#403 = EDGE_LOOP ( 'NONE', ( #200, #300, #289, #372 ) ) ;
#404 = FACE_OUTER_BOUND ( 'NONE', #362, .T. ) ;
#405 = AXIS2_PLACEMENT_3D ( 'NONE', #201, #237, #49 ) ;
#406 = DIRECTION ( 'NONE',  ( -1.000000000000000000, 0.000000000000000000, -0.000000000000000000 ) ) ;
#407 = CYLINDRICAL_SURFACE ( 'NONE', #297, 2.000000000000001776 ) ;
#408 = DIRECTION ( 'NONE',  ( -1.000000000000000000, 0.000000000000000000, 0.000000000000000000 ) ) ;
#409 = EDGE_CURVE ( 'NONE', #242, #385, #112, .T. ) ;
ENDSEC;
END-ISO-10303-21;
