ISO-10303-21;
HEADER;
FILE_DESCRIPTION (( 'STEP AP214' ),
    '1' );
FILE_NAME ('ะกอศ.STEP',
    '2026-09-16T15:41:43',
    ( '' ),
    ( '' ),
    'SwSTEP 2.0',
    'SolidWorks 2026',
    '' );
FILE_SCHEMA (( 'AUTOMOTIVE_DESIGN' ));
ENDSEC;

DATA;
#1 = AXIS2_PLACEMENT_3D ( 'NONE', #422, #119, #652 ) ;
#2 = AXIS2_PLACEMENT_3D ( 'NONE', #637, #559, #328 ) ;
#3 = CARTESIAN_POINT ( 'NONE',  ( -42.13848759532738342, -1.163414459189985012E-14, 3.000000000000000000 ) ) ;
#4 =( NAMED_UNIT ( * ) PLANE_ANGLE_UNIT ( ) SI_UNIT ( $, .RADIAN. ) );
#5 = DIRECTION ( 'NONE',  ( -1.000000000000000000, 0.000000000000000000, 0.000000000000000000 ) ) ;
#6 = ORIENTED_EDGE ( 'NONE', *, *, #59, .T. ) ;
#7 =( LENGTH_UNIT ( ) NAMED_UNIT ( * ) SI_UNIT ( .MILLI., .METRE. ) );
#8 = EDGE_CURVE ( 'NONE', #623, #564, #587, .T. ) ;
#9 = VERTEX_POINT ( 'NONE', #847 ) ;
#10 = SHAPE_DEFINITION_REPRESENTATION ( #501, #181 ) ;
#11 = FACE_OUTER_BOUND ( 'NONE', #238, .T. ) ;
#12 = ORIENTED_EDGE ( 'NONE', *, *, #116, .F. ) ;
#13 = SURFACE_SIDE_STYLE ('',( #312 ) ) ;
#14 = EDGE_LOOP ( 'NONE', ( #466, #29 ) ) ;
#15 = CARTESIAN_POINT ( 'NONE',  ( 55.00000000000002842, -4.999999999999999112, 3.000000000000000000 ) ) ;
#16 = ORIENTED_EDGE ( 'NONE', *, *, #241, .F. ) ;
#17 = CARTESIAN_POINT ( 'NONE',  ( 55.00000000000002842, 10.00000000000000000, 0.000000000000000000 ) ) ;
#18 = AXIS2_PLACEMENT_3D ( 'NONE', #533, #465, #417 ) ;
#19 = VERTEX_POINT ( 'NONE', #475 ) ;
#20 = CIRCLE ( 'NONE', #773, 1.999999999999994893 ) ;
#21 = CARTESIAN_POINT ( 'NONE',  ( 55.00000000000002842, 10.00000000000000000, 3.000000000000000000 ) ) ;
#22 = ORIENTED_EDGE ( 'NONE', *, *, #713, .F. ) ;
#23 = EDGE_CURVE ( 'NONE', #180, #799, #777, .T. ) ;
#24 = EDGE_LOOP ( 'NONE', ( #776, #459 ) ) ;
#25 = AXIS2_PLACEMENT_3D ( 'NONE', #857, #726, #39 ) ;
#26 = PLANE ( 'NONE',  #305 ) ;
#27 = ORIENTED_EDGE ( 'NONE', *, *, #372, .F. ) ;
#28 = ADVANCED_FACE ( 'NONE', ( #577 ), #421, .F. ) ;
#29 = ORIENTED_EDGE ( 'NONE', *, *, #192, .T. ) ;
#30 = DIRECTION ( 'NONE',  ( 0.000000000000000000, 0.000000000000000000, 1.000000000000000000 ) ) ;
#31 = EDGE_LOOP ( 'NONE', ( #406, #436 ) ) ;
#32 = UNCERTAINTY_MEASURE_WITH_UNIT (LENGTH_MEASURE( 1.000000000000000082E-05 ), #872, 'distance_accuracy_value', 'NONE');
#33 = DIRECTION ( 'NONE',  ( -1.000000000000000000, 0.000000000000000000, 0.000000000000000000 ) ) ;
#34 = CIRCLE ( 'NONE', #582, 4.999999999999997335 ) ;
#35 = ADVANCED_FACE ( 'NONE', ( #942 ), #200, .F. ) ;
#36 = LINE ( 'NONE', #335, #270 ) ;
#37 = EDGE_LOOP ( 'NONE', ( #27, #620, #156, #250 ) ) ;
#38 = CARTESIAN_POINT ( 'NONE',  ( 0.000000000000000000, 0.000000000000000000, 0.000000000000000000 ) ) ;
#39 = DIRECTION ( 'NONE',  ( -1.000000000000000000, 0.000000000000000000, 0.000000000000000000 ) ) ;
#40 = CARTESIAN_POINT ( 'NONE',  ( 0.000000000000000000, 0.000000000000000000, 0.000000000000000000 ) ) ;
#41 = PRESENTATION_STYLE_ASSIGNMENT (( #783 ) ) ;
#42 = PLANE ( 'NONE',  #746 ) ;
#43 = ADVANCED_FACE ( 'NONE', ( #932, #51, #861, #492 ), #408, .F. ) ;
#44 = LINE ( 'NONE', #724, #142 ) ;
#45 = VERTEX_POINT ( 'NONE', #785 ) ;
#46 = DIRECTION ( 'NONE',  ( 0.000000000000000000, 0.000000000000000000, -1.000000000000000000 ) ) ;
#47 = AXIS2_PLACEMENT_3D ( 'NONE', #694, #386, #931 ) ;
#48 = CARTESIAN_POINT ( 'NONE',  ( -40.13848759532738342, -1.163414459189985012E-14, 3.000000000000000000 ) ) ;
#49 = CARTESIAN_POINT ( 'NONE',  ( 50.00000000000002132, 4.906538933386795664E-15, 0.000000000000000000 ) ) ;
#50 = ORIENTED_EDGE ( 'NONE', *, *, #843, .F. ) ;
#51 = FACE_BOUND ( 'NONE', #31, .T. ) ;
#52 = EDGE_CURVE ( 'NONE', #538, #877, #704, .T. ) ;
#53 = ORIENTED_EDGE ( 'NONE', *, *, #105, .F. ) ;
#54 = PRODUCT_DEFINITION_SHAPE ( 'NONE', 'NONE',  #965 ) ;
#55 = DIRECTION ( 'NONE',  ( 0.000000000000000000, 0.000000000000000000, 1.000000000000000000 ) ) ;
#56 =( NAMED_UNIT ( * ) PLANE_ANGLE_UNIT ( ) SI_UNIT ( $, .RADIAN. ) );
#57 = CARTESIAN_POINT ( 'NONE',  ( 52.00000000000002132, 5.151468293216265961E-15, 3.000000000000000000 ) ) ;
#58 = DIRECTION ( 'NONE',  ( 1.000000000000000000, 0.000000000000000000, 0.000000000000000000 ) ) ;
#59 = EDGE_CURVE ( 'NONE', #61, #629, #190, .T. ) ;
#60 = DIRECTION ( 'NONE',  ( 0.000000000000000000, 0.000000000000000000, -1.000000000000000000 ) ) ;
#61 = VERTEX_POINT ( 'NONE', #356 ) ;
#62 = VECTOR ( 'NONE', #117, 1000.000000000000000 ) ;
#63 = CARTESIAN_POINT ( 'NONE',  ( 15.00000000000000000, 1.836970198721029589E-15, 0.000000000000000000 ) ) ;
#64 = CARTESIAN_POINT ( 'NONE',  ( 55.00000000000002842, -4.999999999999999112, 3.000000000000000000 ) ) ;
#65 = ORIENTED_EDGE ( 'NONE', *, *, #957, .T. ) ;
#66 = DIRECTION ( 'NONE',  ( -0.000000000000000000, 1.000000000000000000, -0.000000000000000000 ) ) ;
#67 = DIRECTION ( 'NONE',  ( -0.000000000000000000, -0.000000000000000000, -1.000000000000000000 ) ) ;
#68 = ORIENTED_EDGE ( 'NONE', *, *, #106, .T. ) ;
#69 =( REPRESENTATION_RELATIONSHIP ('NONE','NONE', #416, #181 ) REPRESENTATION_RELATIONSHIP_WITH_TRANSFORMATION ( #434 )SHAPE_REPRESENTATION_RELATIONSHIP( ) );
#70 = DIRECTION ( 'NONE',  ( -0.000000000000000000, -0.000000000000000000, 1.000000000000000000 ) ) ;
#71 = LINE ( 'NONE', #237, #937 ) ;
#72 = CARTESIAN_POINT ( 'NONE',  ( 0.000000000000000000, 0.000000000000000000, 20.00000000000000000 ) ) ;
#73 = ORIENTED_EDGE ( 'NONE', *, *, #452, .F. ) ;
#74 = ADVANCED_FACE ( 'NONE', ( #339 ), #124, .T. ) ;
#75 = AXIS2_PLACEMENT_3D ( 'NONE', #38, #557, #622 ) ;
#76 = AXIS2_PLACEMENT_3D ( 'NONE', #72, #149, #676 ) ;
#77 = FACE_OUTER_BOUND ( 'NONE', #528, .T. ) ;
#78 = ORIENTED_EDGE ( 'NONE', *, *, #684, .T. ) ;
#79 = CARTESIAN_POINT ( 'NONE',  ( 1021.657526746327449, 1025.014795793212443, 1023.330117588766370 ) ) ;
#80 = CARTESIAN_POINT ( 'NONE',  ( 55.00000000000002842, -10.00000000000000000, 3.000000000000000000 ) ) ;
#81 = EDGE_LOOP ( 'NONE', ( #382, #16 ) ) ;
#82 = LINE ( 'NONE', #235, #112 ) ;
#83 = ORIENTED_EDGE ( 'NONE', *, *, #715, .T. ) ;
#84 = VECTOR ( 'NONE', #959, 1000.000000000000000 ) ;
#85 = ADVANCED_FACE ( 'NONE', ( #259, #568 ), #42, .T. ) ;
#86 = FACE_OUTER_BOUND ( 'NONE', #37, .T. ) ;
#87 = EDGE_LOOP ( 'NONE', ( #322, #758, #347, #826, #712, #68, #497, #388, #178, #94, #258, #318, #90 ) ) ;
#88 = PRODUCT_DEFINITION_CONTEXT ( 'detailed design', #748, 'design' ) ;
#89 = DIRECTION ( 'NONE',  ( 0.000000000000000000, 0.000000000000000000, 1.000000000000000000 ) ) ;
#90 = ORIENTED_EDGE ( 'NONE', *, *, #513, .T. ) ;
#91 = CARTESIAN_POINT ( 'NONE',  ( 60.00000000000002842, -4.999999999999999112, 3.000000000000000000 ) ) ;
#92 = APPLICATION_CONTEXT ( 'automotive_design' ) ;
#93 = EDGE_CURVE ( 'NONE', #815, #540, #152, .T. ) ;
#94 = ORIENTED_EDGE ( 'NONE', *, *, #323, .T. ) ;
#95 = CIRCLE ( 'NONE', #805, 1.999999999999994893 ) ;
#96 = ORIENTED_EDGE ( 'NONE', *, *, #545, .F. ) ;
#97 = AXIS2_PLACEMENT_3D ( 'NONE', #48, #353, #340 ) ;
#98 = EDGE_CURVE ( 'NONE', #815, #877, #120, .T. ) ;
#99 = CARTESIAN_POINT ( 'NONE',  ( -54.99999999999995737, 4.999999999999999112, 0.000000000000000000 ) ) ;
#100 = VERTEX_POINT ( 'NONE', #572 ) ;
#101 = VERTEX_POINT ( 'NONE', #115 ) ;
#102 = DIRECTION ( 'NONE',  ( 0.000000000000000000, 0.000000000000000000, 1.000000000000000000 ) ) ;
#103 = CIRCLE ( 'NONE', #464, 1.999999999999994893 ) ;
#104 = VERTEX_POINT ( 'NONE', #111 ) ;
#105 = EDGE_CURVE ( 'NONE', #251, #320, #447, .T. ) ;
#106 = EDGE_CURVE ( 'NONE', #410, #19, #403, .T. ) ;
#107 = FACE_OUTER_BOUND ( 'NONE', #915, .T. ) ;
#108 = LINE ( 'NONE', #768, #699 ) ;
#109 = VERTEX_POINT ( 'NONE', #489 ) ;
#110 = CYLINDRICAL_SURFACE ( 'NONE', #788, 1.999999999999994893 ) ;
#111 = CARTESIAN_POINT ( 'NONE',  ( -54.99999999999994316, -5.000000000000000000, 0.000000000000000000 ) ) ;
#112 = VECTOR ( 'NONE', #231, 1000.000000000000000 ) ;
#113 = DIRECTION ( 'NONE',  ( -0.000000000000000000, -0.000000000000000000, -1.000000000000000000 ) ) ;
#114 = ORIENTED_EDGE ( 'NONE', *, *, #98, .F. ) ;
#115 = CARTESIAN_POINT ( 'NONE',  ( -53.13848759532739052, -1.322618543079141020E-14, 0.000000000000000000 ) ) ;
#116 = EDGE_CURVE ( 'NONE', #9, #172, #900, .T. ) ;
#117 = DIRECTION ( 'NONE',  ( -1.000000000000000000, -0.000000000000000000, -0.000000000000000000 ) ) ;
#118 = ADVANCED_FACE ( 'NONE', ( #107 ), #498, .F. ) ;
#119 = DIRECTION ( 'NONE',  ( 0.000000000000000000, 0.000000000000000000, -1.000000000000000000 ) ) ;
#120 = LINE ( 'NONE', #350, #279 ) ;
#121 = CARTESIAN_POINT ( 'NONE',  ( 50.00000000000002132, 4.906538933386795664E-15, 0.000000000000000000 ) ) ;
#122 = FACE_BOUND ( 'NONE', #463, .T. ) ;
#123 = EDGE_CURVE ( 'NONE', #329, #109, #334, .T. ) ;
#124 = CYLINDRICAL_SURFACE ( 'NONE', #824, 4.999999999999997335 ) ;
#125 = PRODUCT_DEFINITION_SHAPE ( 'NONE', 'NONE',  #128 ) ;
#126 = AXIS2_PLACEMENT_3D ( 'NONE', #798, #808, #876 ) ;
#127 =( NAMED_UNIT ( * ) SI_UNIT ( $, .STERADIAN. ) SOLID_ANGLE_UNIT ( ) );
#128 = PRODUCT_DEFINITION ( 'ๆ', '', #665, #88 ) ;
#129 = CIRCLE ( 'NONE', #271, 2.000000000000001776 ) ;
#130 = ORIENTED_EDGE ( 'NONE', *, *, #843, .T. ) ;
#131 = FILL_AREA_STYLE ('',( #945 ) ) ;
#132 = EDGE_CURVE ( 'NONE', #956, #101, #103, .T. ) ;
#133 = ORIENTED_EDGE ( 'NONE', *, *, #894, .F. ) ;
#134 = CARTESIAN_POINT ( 'NONE',  ( 39.33012701892222651, 7.500000000000000000, 3.000000000000000000 ) ) ;
#135 = DIRECTION ( 'NONE',  ( 1.000000000000000000, 0.000000000000000000, 0.000000000000000000 ) ) ;
#136 = DIRECTION ( 'NONE',  ( -0.000000000000000000, -0.000000000000000000, -1.000000000000000000 ) ) ;
#137 = VERTEX_POINT ( 'NONE', #581 ) ;
#138 = LINE ( 'NONE', #292, #321 ) ;
#139 = CARTESIAN_POINT ( 'NONE',  ( 43.66025403784441750, 10.00000000000000000, 0.000000000000000000 ) ) ;
#140 = EDGE_LOOP ( 'NONE', ( #700, #701, #615, #924, #963, #638, #547, #78, #882, #133, #400, #448, #114 ) ) ;
#141 = DIRECTION ( 'NONE',  ( -1.000000000000000000, 0.000000000000000000, 0.000000000000000000 ) ) ;
#142 = VECTOR ( 'NONE', #210, 1000.000000000000000 ) ;
#143 = DIRECTION ( 'NONE',  ( -0.000000000000000000, -0.000000000000000000, -1.000000000000000000 ) ) ;
#144 = CIRCLE ( 'NONE', #126, 1.999999999999994893 ) ;
#145 = ORIENTED_EDGE ( 'NONE', *, *, #197, .T. ) ;
#146 = AXIS2_PLACEMENT_3D ( 'NONE', #297, #749, #457 ) ;
#147 = EDGE_CURVE ( 'NONE', #469, #799, #657, .T. ) ;
#148 = LINE ( 'NONE', #888, #393 ) ;
#149 = DIRECTION ( 'NONE',  ( -0.000000000000000000, -0.000000000000000000, -1.000000000000000000 ) ) ;
#150 = VERTEX_POINT ( 'NONE', #817 ) ;
#151 = PRODUCT_DEFINITION_CONTEXT ( 'detailed design', #92, 'design' ) ;
#152 = CIRCLE ( 'NONE', #869, 5.000000000000000888 ) ;
#153 = DIRECTION ( 'NONE',  ( 1.000000000000000000, 0.000000000000000000, 0.000000000000000000 ) ) ;
#154 = ITEM_DEFINED_TRANSFORMATION ( 'NONE', 'NONE', #550,  #205 ) ;
#155 = LINE ( 'NONE', #365, #926 ) ;
#156 = ORIENTED_EDGE ( 'NONE', *, *, #684, .F. ) ;
#157 = DIRECTION ( 'NONE',  ( 1.000000000000000000, 0.000000000000000000, 0.000000000000000000 ) ) ;
#158 =( NAMED_UNIT ( * ) PLANE_ANGLE_UNIT ( ) SI_UNIT ( $, .RADIAN. ) );
#159 = CYLINDRICAL_SURFACE ( 'NONE', #634, 4.999999999999997335 ) ;
#160 = VERTEX_POINT ( 'NONE', #295 ) ;
#161 = AXIS2_PLACEMENT_3D ( 'NONE', #731, #507, #420 ) ;
#162 = AXIS2_PLACEMENT_3D ( 'NONE', #858, #319, #850 ) ;
#163 = DIRECTION ( 'NONE',  ( 0.000000000000000000, 0.000000000000000000, -1.000000000000000000 ) ) ;
#164 = EDGE_CURVE ( 'NONE', #180, #703, #856, .T. ) ;
#165 = ORIENTED_EDGE ( 'NONE', *, *, #59, .F. ) ;
#166 = FACE_OUTER_BOUND ( 'NONE', #516, .T. ) ;
#167 = ORIENTED_EDGE ( 'NONE', *, *, #574, .T. ) ;
#168 = VECTOR ( 'NONE', #630, 1000.000000000000000 ) ;
#169 = ORIENTED_EDGE ( 'NONE', *, *, #603, .F. ) ;
#170 = EDGE_CURVE ( 'NONE', #19, #469, #733, .T. ) ;
#171 = CARTESIAN_POINT ( 'NONE',  ( -40.13848759532738342, -1.163414459189985012E-14, 3.000000000000000000 ) ) ;
#172 = VERTEX_POINT ( 'NONE', #674 ) ;
#173 = UNCERTAINTY_MEASURE_WITH_UNIT (LENGTH_MEASURE( 1.000000000000000082E-05 ), #430, 'distance_accuracy_value', 'NONE');
#174 = ORIENTED_EDGE ( 'NONE', *, *, #874, .F. ) ;
#175 = LINE ( 'NONE', #91, #667 ) ;
#176 = ORIENTED_EDGE ( 'NONE', *, *, #792, .F. ) ;
#177 = PRESENTATION_LAYER_ASSIGNMENT (  '', '', ( #412 ) ) ;
#178 = ORIENTED_EDGE ( 'NONE', *, *, #372, .T. ) ;
#179 = FACE_OUTER_BOUND ( 'NONE', #617, .T. ) ;
#180 = VERTEX_POINT ( 'NONE', #896 ) ;
#181 = SHAPE_REPRESENTATION ( '\X2\5c0f817f\X0\', ( #205 ), #348 ) ;
#182 = ORIENTED_EDGE ( 'NONE', *, *, #874, .T. ) ;
#183 = CARTESIAN_POINT ( 'NONE',  ( -57.13848759532737631, -1.347111479062088050E-14, 3.000000000000000000 ) ) ;
#184 = EDGE_LOOP ( 'NONE', ( #543, #836, #554, #852 ) ) ;
#185 = DIRECTION ( 'NONE',  ( 0.000000000000000000, 0.000000000000000000, -1.000000000000000000 ) ) ;
#186 = DIRECTION ( 'NONE',  ( -0.000000000000000000, -0.000000000000000000, -1.000000000000000000 ) ) ;
#187 = DIRECTION ( 'NONE',  ( -0.000000000000000000, -0.000000000000000000, 1.000000000000000000 ) ) ;
#188 =( NAMED_UNIT ( * ) PLANE_ANGLE_UNIT ( ) SI_UNIT ( $, .RADIAN. ) );
#189 = AXIS2_PLACEMENT_3D ( 'NONE', #79, #514, #227 ) ;
#190 = LINE ( 'NONE', #873, #573 ) ;
#191 = VECTOR ( 'NONE', #66, 1000.000000000000000 ) ;
#192 = EDGE_CURVE ( 'NONE', #172, #9, #589, .T. ) ;
#193 = AXIS2_PLACEMENT_3D ( 'NONE', #378, #829, #5 ) ;
#194 = ORIENTED_EDGE ( 'NONE', *, *, #170, .F. ) ;
#195 = APPLICATION_CONTEXT ( 'automotive_design' ) ;
#196 = DIRECTION ( 'NONE',  ( 0.000000000000000000, 0.000000000000000000, 1.000000000000000000 ) ) ;
#197 = EDGE_CURVE ( 'NONE', #623, #45, #429, .T. ) ;
#198 = FACE_BOUND ( 'NONE', #612, .T. ) ;
#199 = ORIENTED_EDGE ( 'NONE', *, *, #370, .F. ) ;
#200 = CYLINDRICAL_SURFACE ( 'NONE', #478, 4.999999999999997335 ) ;
#201 = CYLINDRICAL_SURFACE ( 'NONE', #940, 1.999999999999994893 ) ;
#202 = EDGE_CURVE ( 'NONE', #398, #556, #509, .T. ) ;
#203 = DIRECTION ( 'NONE',  ( -1.000000000000000000, 0.000000000000000000, 0.000000000000000000 ) ) ;
#204 = CARTESIAN_POINT ( 'NONE',  ( 60.00000000000002842, 10.00000000000000000, 0.000000000000000000 ) ) ;
#205 = AXIS2_PLACEMENT_3D ( 'NONE', #490, #358, #578 ) ;
#206 = PRODUCT_DEFINITION_SHAPE ( 'NONE', 'NONE',  #964 ) ;
#207 = VECTOR ( 'NONE', #720, 1000.000000000000000 ) ;
#208 = CARTESIAN_POINT ( 'NONE',  ( -57.13848759532737631, -1.347111479062088050E-14, 3.000000000000000000 ) ) ;
#209 = CIRCLE ( 'NONE', #504, 1.999999999999994893 ) ;
#210 = DIRECTION ( 'NONE',  ( -0.000000000000000000, -0.000000000000000000, -1.000000000000000000 ) ) ;
#211 = ORIENTED_EDGE ( 'NONE', *, *, #433, .F. ) ;
#212 = DIRECTION ( 'NONE',  ( 1.000000000000000000, 0.000000000000000000, 0.000000000000000000 ) ) ;
#213 = DIRECTION ( 'NONE',  ( 1.000000000000000000, -0.000000000000000000, -0.000000000000000000 ) ) ;
#214 = CARTESIAN_POINT ( 'NONE',  ( 60.00000000000002842, -4.999999999999999112, 3.000000000000000000 ) ) ;
#215 = ORIENTED_EDGE ( 'NONE', *, *, #943, .T. ) ;
#216 = PLANE ( 'NONE',  #772 ) ;
#217 = DIRECTION ( 'NONE',  ( 0.000000000000000000, 0.000000000000000000, 1.000000000000000000 ) ) ;
#218 = VERTEX_POINT ( 'NONE', #299 ) ;
#219 = DIRECTION ( 'NONE',  ( 0.000000000000000000, -0.000000000000000000, -1.000000000000000000 ) ) ;
#220 = APPLICATION_PROTOCOL_DEFINITION ( 'draft international standard', 'automotive_design', 1998, #247 ) ;
#221 = AXIS2_PLACEMENT_3D ( 'NONE', #449, #55, #58 ) ;
#222 = LINE ( 'NONE', #742, #379 ) ;
#223 = AXIS2_PLACEMENT_3D ( 'NONE', #609, #143, #901 ) ;
#224 = ORIENTED_EDGE ( 'NONE', *, *, #427, .T. ) ;
#225 = CIRCLE ( 'NONE', #775, 1.999999999999994893 ) ;
#226 = CARTESIAN_POINT ( 'NONE',  ( 0.000000000000000000, 0.000000000000000000, 0.000000000000000000 ) ) ;
#227 = DIRECTION ( 'NONE',  ( 1.000000000000000000, 0.000000000000000000, 0.000000000000000000 ) ) ;
#228 = CYLINDRICAL_SURFACE ( 'NONE', #193, 4.999999999999997335 ) ;
#229 = ORIENTED_EDGE ( 'NONE', *, *, #392, .T. ) ;
#230 = AXIS2_PLACEMENT_3D ( 'NONE', #947, #269, #479 ) ;
#231 = DIRECTION ( 'NONE',  ( -0.000000000000000000, -0.000000000000000000, 1.000000000000000000 ) ) ;
#232 = SHAPE_REPRESENTATION_RELATIONSHIP ( 'NONE' , 'NONE' ,  #784, #958 ) ;
#233 = DIRECTION ( 'NONE',  ( -1.000000000000000000, 0.000000000000000000, 0.000000000000000000 ) ) ;
#234 = VERTEX_POINT ( 'NONE', #809 ) ;
#235 = CARTESIAN_POINT ( 'NONE',  ( 60.00000000000002842, 5.000000000000000000, 3.000000000000000000 ) ) ;
#236 = ORIENTED_EDGE ( 'NONE', *, *, #467, .T. ) ;
#237 = CARTESIAN_POINT ( 'NONE',  ( -54.99999999999995737, 4.999999999999999112, 3.000000000000000000 ) ) ;
#238 = EDGE_LOOP ( 'NONE', ( #96, #451, #130, #839 ) ) ;
#239 = AXIS2_PLACEMENT_3D ( 'NONE', #793, #952, #500 ) ;
#240 = AXIS2_PLACEMENT_3D ( 'NONE', #480, #249, #391 ) ;
#241 = EDGE_CURVE ( 'NONE', #317, #248, #816, .T. ) ;
#242 = DIRECTION ( 'NONE',  ( -1.000000000000000000, 1.734723475976808080E-15, 0.000000000000000000 ) ) ;
#243 = ORIENTED_EDGE ( 'NONE', *, *, #715, .F. ) ;
#244 = CARTESIAN_POINT ( 'NONE',  ( 40.00000000000002842, -5.000000000000000000, 3.000000000000000000 ) ) ;
#245 = ORIENTED_EDGE ( 'NONE', *, *, #902, .F. ) ;
#246 = DIRECTION ( 'NONE',  ( 0.000000000000000000, 0.000000000000000000, 1.000000000000000000 ) ) ;
#247 = APPLICATION_CONTEXT ( 'automotive_design' ) ;
#248 = VERTEX_POINT ( 'NONE', #595 ) ;
#249 = DIRECTION ( 'NONE',  ( -0.000000000000000000, -0.000000000000000000, -1.000000000000000000 ) ) ;
#250 = ORIENTED_EDGE ( 'NONE', *, *, #574, .F. ) ;
#251 = VERTEX_POINT ( 'NONE', #134 ) ;
#252 = CARTESIAN_POINT ( 'NONE',  ( 52.00000000000002132, 5.151468293216265961E-15, 0.000000000000000000 ) ) ;
#253 = EDGE_LOOP ( 'NONE', ( #599, #256, #6, #579 ) ) ;
#254 = CIRCLE ( 'NONE', #161, 2.000000000000000000 ) ;
#255 = EDGE_CURVE ( 'NONE', #904, #564, #148, .T. ) ;
#256 = ORIENTED_EDGE ( 'NONE', *, *, #598, .T. ) ;
#257 = CARTESIAN_POINT ( 'NONE',  ( -15.00000000000000000, 0.000000000000000000, 20.00000000000000000 ) ) ;
#258 = ORIENTED_EDGE ( 'NONE', *, *, #713, .T. ) ;
#259 = FACE_OUTER_BOUND ( 'NONE', #811, .T. ) ;
#260 = AXIS2_PLACEMENT_3D ( 'NONE', #752, #70, #141 ) ;
#261 = CYLINDRICAL_SURFACE ( 'NONE', #2, 4.999999999999997335 ) ;
#262 = FACE_OUTER_BOUND ( 'NONE', #294, .T. ) ;
#263 = CARTESIAN_POINT ( 'NONE',  ( 0.000000000000000000, 0.000000000000000000, 3.000000000000000000 ) ) ;
#264 = FACE_BOUND ( 'NONE', #14, .T. ) ;
#265 = CARTESIAN_POINT ( 'NONE',  ( 2.000000000000000000, 2.449293598294706414E-16, 20.00000000000000000 ) ) ;
#266 = EDGE_LOOP ( 'NONE', ( #750, #369, #845, #851 ) ) ;
#267 = EDGE_CURVE ( 'NONE', #291, #903, #535, .T. ) ;
#268 = VECTOR ( 'NONE', #586, 1000.000000000000000 ) ;
#269 = DIRECTION ( 'NONE',  ( -0.000000000000000000, -0.000000000000000000, -1.000000000000000000 ) ) ;
#270 = VECTOR ( 'NONE', #916, 1000.000000000000000 ) ;
#271 = AXIS2_PLACEMENT_3D ( 'NONE', #171, #102, #546 ) ;
#272 = LINE ( 'NONE', #415, #458 ) ;
#273 = CARTESIAN_POINT ( 'NONE',  ( -42.13848759532738342, -1.163414459189985012E-14, 3.000000000000000000 ) ) ;
#274 = EDGE_CURVE ( 'NONE', #703, #469, #138, .T. ) ;
#275 = ORIENTED_EDGE ( 'NONE', *, *, #570, .F. ) ;
#276 = CARTESIAN_POINT ( 'NONE',  ( -54.99999999999995737, -8.673617379884035472E-16, 3.000000000000000000 ) ) ;
#277 = EDGE_CURVE ( 'NONE', #511, #100, #822, .T. ) ;
#278 = DIRECTION ( 'NONE',  ( 1.000000000000000000, 0.000000000000000000, 0.000000000000000000 ) ) ;
#279 = VECTOR ( 'NONE', #642, 1000.000000000000000 ) ;
#280 = SURFACE_STYLE_USAGE ( .BOTH. , #428 ) ;
#281 = ORIENTED_EDGE ( 'NONE', *, *, #570, .T. ) ;
#282 = CARTESIAN_POINT ( 'NONE',  ( 35.00000000000002842, 9.999999999999998224, 0.000000000000000000 ) ) ;
#283 = CARTESIAN_POINT ( 'NONE',  ( 0.000000000000000000, 0.000000000000000000, 20.00000000000000000 ) ) ;
#284 = EDGE_CURVE ( 'NONE', #481, #769, #739, .T. ) ;
#285 = DIRECTION ( 'NONE',  ( -1.000000000000000000, 0.000000000000000000, 0.000000000000000000 ) ) ;
#286 = DIRECTION ( 'NONE',  ( 1.000000000000000000, 0.000000000000000000, 0.000000000000000000 ) ) ;
#287 = AXIS2_PLACEMENT_3D ( 'NONE', #562, #735, #203 ) ;
#288 = DIRECTION ( 'NONE',  ( 0.000000000000000000, 0.000000000000000000, 1.000000000000000000 ) ) ;
#289 = AXIS2_PLACEMENT_3D ( 'NONE', #820, #591, #233 ) ;
#290 = DIRECTION ( 'NONE',  ( 0.000000000000000000, 0.000000000000000000, 1.000000000000000000 ) ) ;
#291 = VERTEX_POINT ( 'NONE', #63 ) ;
#292 = CARTESIAN_POINT ( 'NONE',  ( 35.00000000000003553, -5.000000000000000000, 3.000000000000000000 ) ) ;
#293 = FACE_OUTER_BOUND ( 'NONE', #374, .T. ) ;
#294 = EDGE_LOOP ( 'NONE', ( #707, #83, #669, #229 ) ) ;
#295 = CARTESIAN_POINT ( 'NONE',  ( 43.66025403784442460, -10.00000000000000000, 3.000000000000000000 ) ) ;
#296 = APPLICATION_PROTOCOL_DEFINITION ( 'draft international standard', 'automotive_design', 1998, #195 ) ;
#297 = CARTESIAN_POINT ( 'NONE',  ( -54.99999999999997158, 0.000000000000000000, 3.000000000000000000 ) ) ;
#298 = ORIENTED_EDGE ( 'NONE', *, *, #517, .T. ) ;
#299 = CARTESIAN_POINT ( 'NONE',  ( 43.66025403784441750, 10.00000000000000000, 3.000000000000000000 ) ) ;
#300 = EDGE_CURVE ( 'NONE', #104, #538, #804, .T. ) ;
#301 = APPLICATION_PROTOCOL_DEFINITION ( 'draft international standard', 'automotive_design', 1998, #647 ) ;
#302 = PRODUCT_DEFINITION_FORMATION_WITH_SPECIFIED_SOURCE ( 'ไป', '', #946, .NOT_KNOWN. ) ;
#303 = CIRCLE ( 'NONE', #848, 15.00000000000000000 ) ;
#304 = DIRECTION ( 'NONE',  ( 0.000000000000000000, 0.000000000000000000, 1.000000000000000000 ) ) ;
#305 = AXIS2_PLACEMENT_3D ( 'NONE', #555, #468, #399 ) ;
#306 = ORIENTED_EDGE ( 'NONE', *, *, #663, .T. ) ;
#307 = CARTESIAN_POINT ( 'NONE',  ( 2.000000000000000000, 2.449293598294706414E-16, 20.00000000000000000 ) ) ;
#308 = CARTESIAN_POINT ( 'NONE',  ( -54.99999999999995737, 4.999999999999999112, 3.000000000000000000 ) ) ;
#309 = EDGE_LOOP ( 'NONE', ( #169, #761, #625, #281 ) ) ;
#310 = UNCERTAINTY_MEASURE_WITH_UNIT (LENGTH_MEASURE( 1.000000000000000082E-05 ), #871, 'distance_accuracy_value', 'NONE');
#311 = AXIS2_PLACEMENT_3D ( 'NONE', #561, #870, #719 ) ;
#312 = SURFACE_STYLE_FILL_AREA ( #460 ) ;
#313 =( REPRESENTATION_RELATIONSHIP ('NONE','NONE', #416, #784 ) REPRESENTATION_RELATIONSHIP_WITH_TRANSFORMATION ( #154 )SHAPE_REPRESENTATION_RELATIONSHIP( ) );
#314 = ORIENTED_EDGE ( 'NONE', *, *, #376, .F. ) ;
#315 = APPLICATION_PROTOCOL_DEFINITION ( 'draft international standard', 'automotive_design', 1998, #396 ) ;
#316 = DIRECTION ( 'NONE',  ( 0.000000000000000000, 0.000000000000000000, -1.000000000000000000 ) ) ;
#317 = VERTEX_POINT ( 'NONE', #307 ) ;
#318 = ORIENTED_EDGE ( 'NONE', *, *, #277, .T. ) ;
#319 = DIRECTION ( 'NONE',  ( 0.000000000000000000, 0.000000000000000000, -1.000000000000000000 ) ) ;
#320 = VERTEX_POINT ( 'NONE', #503 ) ;
#321 = VECTOR ( 'NONE', #437, 1000.000000000000000 ) ;
#322 = ORIENTED_EDGE ( 'NONE', *, *, #897, .T. ) ;
#323 = EDGE_CURVE ( 'NONE', #160, #705, #949, .T. ) ;
#324 = DIRECTION ( 'NONE',  ( -0.000000000000000000, -0.000000000000000000, -1.000000000000000000 ) ) ;
#325 = ORIENTED_EDGE ( 'NONE', *, *, #284, .F. ) ;
#326 = AXIS2_PLACEMENT_3D ( 'NONE', #414, #791, #714 ) ;
#327 = VERTEX_POINT ( 'NONE', #670 ) ;
#328 = DIRECTION ( 'NONE',  ( 1.000000000000000000, 0.000000000000000000, 0.000000000000000000 ) ) ;
#329 = VERTEX_POINT ( 'NONE', #745 ) ;
#330 = DIRECTION ( 'NONE',  ( -1.000000000000000000, 0.000000000000000000, 0.000000000000000000 ) ) ;
#331 = CARTESIAN_POINT ( 'NONE',  ( 0.000000000000000000, 0.000000000000000000, 20.00000000000000000 ) ) ;
#332 = EDGE_LOOP ( 'NONE', ( #802, #182, #145, #524 ) ) ;
#333 = CIRCLE ( 'NONE', #364, 15.00000000000000000 ) ;
#334 = LINE ( 'NONE', #636, #529 ) ;
#335 = CARTESIAN_POINT ( 'NONE',  ( -2.000000000000000000, 0.000000000000000000, 20.00000000000000000 ) ) ;
#336 = ADVANCED_FACE ( 'NONE', ( #954 ), #216, .F. ) ;
#337 = ORIENTED_EDGE ( 'NONE', *, *, #123, .F. ) ;
#338 = FACE_OUTER_BOUND ( 'NONE', #253, .T. ) ;
#339 = FACE_OUTER_BOUND ( 'NONE', #887, .T. ) ;
#340 = DIRECTION ( 'NONE',  ( 1.000000000000000000, 0.000000000000000000, 0.000000000000000000 ) ) ;
#341 = ADVANCED_FACE ( 'NONE', ( #338 ), #110, .F. ) ;
#342 = ORIENTED_EDGE ( 'NONE', *, *, #123, .T. ) ;
#343 = CARTESIAN_POINT ( 'NONE',  ( 0.000000000000000000, 0.000000000000000000, 20.00000000000000000 ) ) ;
#344 = CARTESIAN_POINT ( 'NONE',  ( 40.00000000000003553, 10.00000000000000000, 3.000000000000000000 ) ) ;
#345 = CARTESIAN_POINT ( 'NONE',  ( -59.99999999999995737, 2.602085213965210642E-15, 3.000000000000000000 ) ) ;
#346 = EDGE_CURVE ( 'NONE', #218, #251, #439, .T. ) ;
#347 = ORIENTED_EDGE ( 'NONE', *, *, #105, .T. ) ;
#348 =( GEOMETRIC_REPRESENTATION_CONTEXT ( 3 ) GLOBAL_UNCERTAINTY_ASSIGNED_CONTEXT ( ( #310 ) ) GLOBAL_UNIT_ASSIGNED_CONTEXT ( ( #871, #56, #127 ) ) REPRESENTATION_CONTEXT ( 'NONE', 'WORKASPACE' ) );
#349 = MECHANICAL_DESIGN_GEOMETRIC_PRESENTATION_REPRESENTATION (  '', ( #412 ), #953 ) ;
#350 = CARTESIAN_POINT ( 'NONE',  ( -59.99999999999995737, 4.999999999999999112, 0.000000000000000000 ) ) ;
#351 = STYLED_ITEM ( 'NONE', ( #644 ), #541 ) ;
#352 = VECTOR ( 'NONE', #575, 1000.000000000000000 ) ;
#353 = DIRECTION ( 'NONE',  ( 0.000000000000000000, 0.000000000000000000, 1.000000000000000000 ) ) ;
#354 = MANIFOLD_SOLID_BREP ( '\X2\570689d2\X0\4', #402 ) ;
#355 = LINE ( 'NONE', #57, #207 ) ;
#356 = CARTESIAN_POINT ( 'NONE',  ( 48.00000000000002842, 4.906538933386795664E-15, 3.000000000000000000 ) ) ;
#357 = AXIS2_PLACEMENT_3D ( 'NONE', #263, #722, #418 ) ;
#358 = DIRECTION ( 'NONE',  ( 0.000000000000000000, 0.000000000000000000, 1.000000000000000000 ) ) ;
#359 = CARTESIAN_POINT ( 'NONE',  ( -40.13848759532738342, -1.163414459189985012E-14, 3.000000000000000000 ) ) ;
#360 = ORIENTED_EDGE ( 'NONE', *, *, #106, .F. ) ;
#361 = CARTESIAN_POINT ( 'NONE',  ( -54.99999999999997158, 0.000000000000000000, 0.000000000000000000 ) ) ;
#362 = CARTESIAN_POINT ( 'NONE',  ( 60.00000000000002842, 10.00000000000000000, 3.000000000000000000 ) ) ;
#363 = VECTOR ( 'NONE', #756, 1000.000000000000000 ) ;
#364 = AXIS2_PLACEMENT_3D ( 'NONE', #331, #702, #631 ) ;
#365 = CARTESIAN_POINT ( 'NONE',  ( 43.66025403784442460, -10.00000000000000000, 3.000000000000000000 ) ) ;
#366 = ORIENTED_EDGE ( 'NONE', *, *, #539, .T. ) ;
#367 = DIRECTION ( 'NONE',  ( 0.000000000000000000, -1.000000000000000000, 0.000000000000000000 ) ) ;
#368 = DIRECTION ( 'NONE',  ( -0.000000000000000000, -0.000000000000000000, 1.000000000000000000 ) ) ;
#369 = ORIENTED_EDGE ( 'NONE', *, *, #23, .T. ) ;
#370 = EDGE_CURVE ( 'NONE', #45, #100, #82, .T. ) ;
#371 = DIRECTION ( 'NONE',  ( -1.000000000000000000, 0.000000000000000000, 0.000000000000000000 ) ) ;
#372 = EDGE_CURVE ( 'NONE', #799, #160, #552, .T. ) ;
#373 = DIRECTION ( 'NONE',  ( 0.000000000000000000, 0.000000000000000000, 1.000000000000000000 ) ) ;
#374 = EDGE_LOOP ( 'NONE', ( #22, #892, #736, #174 ) ) ;
#375 = CARTESIAN_POINT ( 'NONE',  ( 40.00000000000003553, 10.00000000000000000, 0.000000000000000000 ) ) ;
#376 = EDGE_CURVE ( 'NONE', #109, #769, #893, .T. ) ;
#377 = AXIS2_PLACEMENT_3D ( 'NONE', #49, #290, #431 ) ;
#378 = CARTESIAN_POINT ( 'NONE',  ( 55.00000000000002842, 5.000000000000000000, 3.000000000000000000 ) ) ;
#379 = VECTOR ( 'NONE', #536, 1000.000000000000000 ) ;
#380 = ORIENTED_EDGE ( 'NONE', *, *, #889, .F. ) ;
#381 = CYLINDRICAL_SURFACE ( 'NONE', #580, 2.000000000000001776 ) ;
#382 = ORIENTED_EDGE ( 'NONE', *, *, #508, .F. ) ;
#383 = ADVANCED_FACE ( 'NONE', ( #831 ), #389, .F. ) ;
#384 = FACE_OUTER_BOUND ( 'NONE', #653, .T. ) ;
#385 = ORIENTED_EDGE ( 'NONE', *, *, #786, .T. ) ;
#386 = DIRECTION ( 'NONE',  ( -0.000000000000000000, -0.000000000000000000, -1.000000000000000000 ) ) ;
#387 = CARTESIAN_POINT ( 'NONE',  ( 43.66025403784442460, -5.000000000000000000, 3.000000000000000000 ) ) ;
#388 = ORIENTED_EDGE ( 'NONE', *, *, #147, .T. ) ;
#389 = CYLINDRICAL_SURFACE ( 'NONE', #47, 2.000000000000001776 ) ;
#390 = ORIENTED_EDGE ( 'NONE', *, *, #506, .T. ) ;
#391 = DIRECTION ( 'NONE',  ( -1.000000000000000000, 0.000000000000000000, 0.000000000000000000 ) ) ;
#392 = EDGE_CURVE ( 'NONE', #728, #398, #530, .T. ) ;
#393 = VECTOR ( 'NONE', #525, 1000.000000000000000 ) ;
#394 = EDGE_LOOP ( 'NONE', ( #360, #298, #821, #841 ) ) ;
#395 = COLOUR_RGB ( '',0.7921568627450980005, 0.8196078431372548767, 0.9333333333333333481 ) ;
#396 = APPLICATION_CONTEXT ( 'automotive_design' ) ;
#397 = AXIS2_PLACEMENT_3D ( 'NONE', #716, #933, #135 ) ;
#398 = VERTEX_POINT ( 'NONE', #17 ) ;
#399 = DIRECTION ( 'NONE',  ( 0.000000000000000000, 0.000000000000000000, 1.000000000000000000 ) ) ;
#400 = ORIENTED_EDGE ( 'NONE', *, *, #300, .T. ) ;
#401 = EDGE_CURVE ( 'NONE', #903, #291, #601, .T. ) ;
#402 = CLOSED_SHELL ( 'NONE', ( #118, #453, #922, #43, #472, #708, #655, #441, #336, #860, #28, #383, #341, #74, #692, #649, #621, #751, #35, #590, #807 ) ) ;
#403 = CIRCLE ( 'NONE', #311, 4.999999999999997335 ) ;
#404 = CARTESIAN_POINT ( 'NONE',  ( 39.33012701892223362, -7.500000000000000000, 3.000000000000000000 ) ) ;
#405 = LINE ( 'NONE', #911, #910 ) ;
#406 = ORIENTED_EDGE ( 'NONE', *, *, #663, .F. ) ;
#407 = UNCERTAINTY_MEASURE_WITH_UNIT (LENGTH_MEASURE( 1.000000000000000082E-05 ), #7, 'distance_accuracy_value', 'NONE');
#408 = PLANE ( 'NONE',  #357 ) ;
#409 = CARTESIAN_POINT ( 'NONE',  ( -42.13848759532738342, -1.163414459189985012E-14, 0.000000000000000000 ) ) ;
#410 = VERTEX_POINT ( 'NONE', #827 ) ;
#411 = FILL_AREA_STYLE_COLOUR ( '', #757 ) ;
#412 = STYLED_ITEM ( 'NONE', ( #41 ), #354 ) ;
#413 = VECTOR ( 'NONE', #614, 1000.000000000000000 ) ;
#414 = CARTESIAN_POINT ( 'NONE',  ( 35.00000000000002842, 9.999999999999998224, 3.000000000000000000 ) ) ;
#415 = CARTESIAN_POINT ( 'NONE',  ( 40.00000000000002842, -5.000000000000000000, 0.000000000000000000 ) ) ;
#416 = SHAPE_REPRESENTATION ( '\X2\5c0f817f\X0\', ( #951, #189, #550 ), #737 ) ;
#417 = DIRECTION ( 'NONE',  ( -1.000000000000000000, 0.000000000000000000, 0.000000000000000000 ) ) ;
#418 = DIRECTION ( 'NONE',  ( -1.000000000000000000, 0.000000000000000000, -0.000000000000000000 ) ) ;
#419 = DIRECTION ( 'NONE',  ( -0.000000000000000000, -0.000000000000000000, -1.000000000000000000 ) ) ;
#420 = DIRECTION ( 'NONE',  ( 1.000000000000000000, 0.000000000000000000, 0.000000000000000000 ) ) ;
#421 = CYLINDRICAL_SURFACE ( 'NONE', #230, 1.999999999999994893 ) ;
#422 = CARTESIAN_POINT ( 'NONE',  ( 0.000000000000000000, 0.000000000000000000, 0.000000000000000000 ) ) ;
#423 = AXIS2_PLACEMENT_3D ( 'NONE', #560, #859, #789 ) ;
#424 = DIRECTION ( 'NONE',  ( 1.000000000000000000, 0.000000000000000000, 0.000000000000000000 ) ) ;
#425 = VECTOR ( 'NONE', #853, 1000.000000000000000 ) ;
#426 = DIRECTION ( 'NONE',  ( -0.000000000000000000, -0.000000000000000000, -1.000000000000000000 ) ) ;
#427 = EDGE_CURVE ( 'NONE', #137, #327, #303, .T. ) ;
#428 = SURFACE_SIDE_STYLE ('',( #641 ) ) ;
#429 = LINE ( 'NONE', #204, #268 ) ;
#430 =( LENGTH_UNIT ( ) NAMED_UNIT ( * ) SI_UNIT ( .MILLI., .METRE. ) );
#431 = DIRECTION ( 'NONE',  ( 1.000000000000000000, 0.000000000000000000, 0.000000000000000000 ) ) ;
#432 = CARTESIAN_POINT ( 'NONE',  ( 60.00000000000002842, -10.00000000000000000, 3.000000000000000000 ) ) ;
#433 = EDGE_CURVE ( 'NONE', #320, #815, #855, .T. ) ;
#434 = ITEM_DEFINED_TRANSFORMATION ( 'NONE', 'NONE', #189,  #205 ) ;
#435 = FACE_OUTER_BOUND ( 'NONE', #140, .T. ) ;
#436 = ORIENTED_EDGE ( 'NONE', *, *, #467, .F. ) ;
#437 = DIRECTION ( 'NONE',  ( -0.000000000000000000, -0.000000000000000000, 1.000000000000000000 ) ) ;
#438 = PRODUCT ( '\X2\6267884c5668\X0\', '\X2\6267884c5668\X0\', '', ( #608 ) ) ;
#439 = CIRCLE ( 'NONE', #487, 4.999999999999997335 ) ;
#440 = AXIS2_PLACEMENT_3D ( 'NONE', #868, #955, #886 ) ;
#441 = ADVANCED_FACE ( 'NONE', ( #262 ), #482, .F. ) ;
#442 = CARTESIAN_POINT ( 'NONE',  ( 43.66025403784441750, 5.000000000000000000, 3.000000000000000000 ) ) ;
#443 = ORIENTED_EDGE ( 'NONE', *, *, #513, .F. ) ;
#444 = DIRECTION ( 'NONE',  ( -1.000000000000000000, 0.000000000000000000, 0.000000000000000000 ) ) ;
#445 = SHAPE_DEFINITION_REPRESENTATION ( #656, #416 ) ;
#446 = DIRECTION ( 'NONE',  ( 1.000000000000000000, 0.000000000000000000, 0.000000000000000000 ) ) ;
#447 = CIRCLE ( 'NONE', #326, 5.000000000000000888 ) ;
#448 = ORIENTED_EDGE ( 'NONE', *, *, #52, .T. ) ;
#449 = CARTESIAN_POINT ( 'NONE',  ( 0.000000000000000000, 0.000000000000000000, 0.000000000000000000 ) ) ;
#450 = CARTESIAN_POINT ( 'NONE',  ( 48.00000000000002842, 4.906538933386795664E-15, 0.000000000000000000 ) ) ;
#451 = ORIENTED_EDGE ( 'NONE', *, *, #241, .T. ) ;
#452 = EDGE_CURVE ( 'NONE', #251, #540, #718, .T. ) ;
#453 = ADVANCED_FACE ( 'NONE', ( #77 ), #381, .F. ) ;
#454 = CARTESIAN_POINT ( 'NONE',  ( 39.33012701892222651, 7.500000000000000000, 3.000000000000000000 ) ) ;
#455 = PRODUCT_CONTEXT ( 'NONE', #647, 'mechanical' ) ;
#456 = CIRCLE ( 'NONE', #239, 2.000000000000001776 ) ;
#457 = DIRECTION ( 'NONE',  ( -1.000000000000000000, 0.000000000000000000, 0.000000000000000000 ) ) ;
#458 = VECTOR ( 'NONE', #213, 1000.000000000000000 ) ;
#459 = ORIENTED_EDGE ( 'NONE', *, *, #770, .F. ) ;
#460 = FILL_AREA_STYLE ('',( #411 ) ) ;
#461 = ORIENTED_EDGE ( 'NONE', *, *, #919, .F. ) ;
#462 = CYLINDRICAL_SURFACE ( 'NONE', #76, 2.000000000000000000 ) ;
#463 = EDGE_LOOP ( 'NONE', ( #390, #65 ) ) ;
#464 = AXIS2_PLACEMENT_3D ( 'NONE', #607, #879, #286 ) ;
#465 = DIRECTION ( 'NONE',  ( -0.000000000000000000, -0.000000000000000000, 1.000000000000000000 ) ) ;
#466 = ORIENTED_EDGE ( 'NONE', *, *, #116, .T. ) ;
#467 = EDGE_CURVE ( 'NONE', #234, #833, #144, .T. ) ;
#468 = DIRECTION ( 'NONE',  ( 0.000000000000000000, 1.000000000000000000, -0.000000000000000000 ) ) ;
#469 = VERTEX_POINT ( 'NONE', #659 ) ;
#470 = ORIENTED_EDGE ( 'NONE', *, *, #274, .T. ) ;
#471 = DIRECTION ( 'NONE',  ( 0.000000000000000000, 0.000000000000000000, -1.000000000000000000 ) ) ;
#472 = ADVANCED_FACE ( 'NONE', ( #198, #435, #496, #122 ), #803, .T. ) ;
#473 = ORIENTED_EDGE ( 'NONE', *, *, #934, .F. ) ;
#474 = CIRCLE ( 'NONE', #440, 4.999999999999997335 ) ;
#475 = CARTESIAN_POINT ( 'NONE',  ( -54.99999999999994316, -5.000000000000000000, 3.000000000000000000 ) ) ;
#476 = FACE_OUTER_BOUND ( 'NONE', #266, .T. ) ;
#477 = EDGE_LOOP ( 'NONE', ( #337, #677, #688, #314 ) ) ;
#478 = AXIS2_PLACEMENT_3D ( 'NONE', #650, #558, #424 ) ;
#479 = DIRECTION ( 'NONE',  ( -1.000000000000000000, 0.000000000000000000, 0.000000000000000000 ) ) ;
#480 = CARTESIAN_POINT ( 'NONE',  ( 0.000000000000000000, 0.000000000000000000, 20.00000000000000000 ) ) ;
#481 = VERTEX_POINT ( 'NONE', #273 ) ;
#482 = PLANE ( 'NONE',  #423 ) ;
#483 = DIRECTION ( 'NONE',  ( 0.000000000000000000, 0.000000000000000000, 1.000000000000000000 ) ) ;
#484 = DIRECTION ( 'NONE',  ( 0.000000000000000000, 0.000000000000000000, 1.000000000000000000 ) ) ;
#485 = CARTESIAN_POINT ( 'NONE',  ( -40.13848759532738342, -1.163414459189985012E-14, 0.000000000000000000 ) ) ;
#486 = PRODUCT_DEFINITION ( 'ๆ', '', #875, #616 ) ;
#487 = AXIS2_PLACEMENT_3D ( 'NONE', #838, #689, #242 ) ;
#488 = CIRCLE ( 'NONE', #397, 1.999999999999994893 ) ;
#489 = CARTESIAN_POINT ( 'NONE',  ( -38.13848759532738342, -1.138921523207037824E-14, 0.000000000000000000 ) ) ;
#490 = CARTESIAN_POINT ( 'NONE',  ( 0.000000000000000000, 0.000000000000000000, 0.000000000000000000 ) ) ;
#491 = CARTESIAN_POINT ( 'NONE',  ( 55.00000000000002842, -10.00000000000000000, 0.000000000000000000 ) ) ;
#492 = FACE_BOUND ( 'NONE', #606, .T. ) ;
#493 = AXIS2_PLACEMENT_3D ( 'NONE', #767, #549, #330 ) ;
#494 = DIRECTION ( 'NONE',  ( -1.000000000000000000, 0.000000000000000000, 0.000000000000000000 ) ) ;
#495 = EDGE_CURVE ( 'NONE', #137, #291, #44, .T. ) ;
#496 = FACE_BOUND ( 'NONE', #627, .T. ) ;
#497 = ORIENTED_EDGE ( 'NONE', *, *, #170, .T. ) ;
#498 = CYLINDRICAL_SURFACE ( 'NONE', #510, 1.999999999999994893 ) ;
#499 = CYLINDRICAL_SURFACE ( 'NONE', #818, 15.00000000000000000 ) ;
#500 = DIRECTION ( 'NONE',  ( 1.000000000000000000, 0.000000000000000000, 0.000000000000000000 ) ) ;
#501 = PRODUCT_DEFINITION_SHAPE ( 'NONE', 'NONE',  #837 ) ;
#502 = VECTOR ( 'NONE', #185, 1000.000000000000000 ) ;
#503 = CARTESIAN_POINT ( 'NONE',  ( 35.00000000000002842, 4.999999999999999112, 3.000000000000000000 ) ) ;
#504 = AXIS2_PLACEMENT_3D ( 'NONE', #619, #840, #778 ) ;
#505 = SHAPE_REPRESENTATION_RELATIONSHIP ( 'NONE' , 'NONE' ,  #181, #521 ) ;
#506 = EDGE_CURVE ( 'NONE', #629, #732, #680, .T. ) ;
#507 = DIRECTION ( 'NONE',  ( 0.000000000000000000, 0.000000000000000000, 1.000000000000000000 ) ) ;
#508 = EDGE_CURVE ( 'NONE', #248, #317, #254, .T. ) ;
#509 = LINE ( 'NONE', #375, #618 ) ;
#510 = AXIS2_PLACEMENT_3D ( 'NONE', #800, #709, #33 ) ;
#511 = VERTEX_POINT ( 'NONE', #214 ) ;
#512 = CARTESIAN_POINT ( 'NONE',  ( -59.99999999999995737, 4.999999999999999112, 3.000000000000000000 ) ) ;
#513 = EDGE_CURVE ( 'NONE', #100, #728, #925, .T. ) ;
#514 = DIRECTION ( 'NONE',  ( 0.000000000000000000, 0.000000000000000000, 1.000000000000000000 ) ) ;
#515 = PLANE ( 'NONE',  #567 ) ;
#516 = EDGE_LOOP ( 'NONE', ( #779, #167, #854, #690 ) ) ;
#517 = EDGE_CURVE ( 'NONE', #410, #538, #664, .T. ) ;
#518 = CARTESIAN_POINT ( 'NONE',  ( 0.000000000000000000, 0.000000000000000000, 20.00000000000000000 ) ) ;
#519 = VECTOR ( 'NONE', #812, 1000.000000000000000 ) ;
#520 = EDGE_CURVE ( 'NONE', #150, #732, #355, .T. ) ;
#521 = ADVANCED_BREP_SHAPE_REPRESENTATION ( '', ( #354, #205 ), #348 ) ;
#522 = AXIS2_PLACEMENT_3D ( 'NONE', #40, #651, #571 ) ;
#523 = DIRECTION ( 'NONE',  ( -1.000000000000000000, 0.000000000000000000, 0.000000000000000000 ) ) ;
#524 = ORIENTED_EDGE ( 'NONE', *, *, #370, .T. ) ;
#525 = DIRECTION ( 'NONE',  ( 1.000000000000000000, -0.000000000000000000, -0.000000000000000000 ) ) ;
#526 = DIRECTION ( 'NONE',  ( 1.000000000000000000, 0.000000000000000000, 0.000000000000000000 ) ) ;
#527 = CARTESIAN_POINT ( 'NONE',  ( 50.00000000000002132, 4.906538933386795664E-15, 3.000000000000000000 ) ) ;
#528 = EDGE_LOOP ( 'NONE', ( #215, #342, #755, #325 ) ) ;
#529 = VECTOR ( 'NONE', #929, 1000.000000000000000 ) ;
#530 = LINE ( 'NONE', #908, #565 ) ;
#531 = CYLINDRICAL_SURFACE ( 'NONE', #223, 2.000000000000000000 ) ;
#532 = ORIENTED_EDGE ( 'NONE', *, *, #721, .T. ) ;
#533 = CARTESIAN_POINT ( 'NONE',  ( 43.66025403784442460, -5.000000000000000000, 3.000000000000000000 ) ) ;
#534 = ORIENTED_EDGE ( 'NONE', *, *, #392, .F. ) ;
#535 = CIRCLE ( 'NONE', #221, 15.00000000000000000 ) ;
#536 = DIRECTION ( 'NONE',  ( -1.000000000000000000, -0.000000000000000000, -0.000000000000000000 ) ) ;
#537 = VECTOR ( 'NONE', #324, 1000.000000000000000 ) ;
#538 = VERTEX_POINT ( 'NONE', #863 ) ;
#539 = EDGE_CURVE ( 'NONE', #769, #109, #456, .T. ) ;
#540 = VERTEX_POINT ( 'NONE', #584 ) ;
#541 = MANIFOLD_SOLID_BREP ( '\X2\51f853f0\X0\-\X2\62c94f38\X0\1', #823 ) ;
#542 = DIRECTION ( 'NONE',  ( 0.000000000000000000, 0.000000000000000000, 1.000000000000000000 ) ) ;
#543 = ORIENTED_EDGE ( 'NONE', *, *, #427, .F. ) ;
#544 = ORIENTED_EDGE ( 'NONE', *, *, #744, .F. ) ;
#545 = EDGE_CURVE ( 'NONE', #317, #172, #810, .T. ) ;
#546 = DIRECTION ( 'NONE',  ( 1.000000000000000000, 0.000000000000000000, 0.000000000000000000 ) ) ;
#547 = ORIENTED_EDGE ( 'NONE', *, *, #255, .F. ) ;
#548 = PRODUCT_RELATED_PRODUCT_CATEGORY ( 'part', '', ( #438 ) ) ;
#549 = DIRECTION ( 'NONE',  ( 0.000000000000000000, 0.000000000000000000, -1.000000000000000000 ) ) ;
#550 = AXIS2_PLACEMENT_3D ( 'NONE', #890, #813, #526 ) ;
#551 = DIRECTION ( 'NONE',  ( 1.000000000000000000, 0.000000000000000000, 0.000000000000000000 ) ) ;
#552 = CIRCLE ( 'NONE', #18, 4.999999999999997335 ) ;
#553 = ORIENTED_EDGE ( 'NONE', *, *, #452, .T. ) ;
#554 = ORIENTED_EDGE ( 'NONE', *, *, #267, .T. ) ;
#555 = CARTESIAN_POINT ( 'NONE',  ( 60.00000000000002842, -10.00000000000000000, 3.000000000000000000 ) ) ;
#556 = VERTEX_POINT ( 'NONE', #139 ) ;
#557 = DIRECTION ( 'NONE',  ( 0.000000000000000000, 0.000000000000000000, 1.000000000000000000 ) ) ;
#558 = DIRECTION ( 'NONE',  ( 0.000000000000000000, 0.000000000000000000, 1.000000000000000000 ) ) ;
#559 = DIRECTION ( 'NONE',  ( 0.000000000000000000, 0.000000000000000000, 1.000000000000000000 ) ) ;
#560 = CARTESIAN_POINT ( 'NONE',  ( 40.00000000000003553, 10.00000000000000000, 3.000000000000000000 ) ) ;
#561 = CARTESIAN_POINT ( 'NONE',  ( -54.99999999999997158, 0.000000000000000000, 3.000000000000000000 ) ) ;
#562 = CARTESIAN_POINT ( 'NONE',  ( 55.00000000000002842, 5.000000000000000000, 3.000000000000000000 ) ) ;
#563 = AXIS2_PLACEMENT_3D ( 'NONE', #518, #883, #153 ) ;
#564 = VERTEX_POINT ( 'NONE', #491 ) ;
#565 = VECTOR ( 'NONE', #163, 1000.000000000000000 ) ;
#566 = EDGE_CURVE ( 'NONE', #683, #410, #474, .T. ) ;
#567 = AXIS2_PLACEMENT_3D ( 'NONE', #898, #754, #217 ) ;
#568 = FACE_BOUND ( 'NONE', #81, .T. ) ;
#569 = ADVANCED_FACE ( 'NONE', ( #384 ), #531, .F. ) ;
#570 = EDGE_CURVE ( 'NONE', #877, #683, #71, .T. ) ;
#571 = DIRECTION ( 'NONE',  ( 1.000000000000000000, 0.000000000000000000, -0.000000000000000000 ) ) ;
#572 = CARTESIAN_POINT ( 'NONE',  ( 60.00000000000002842, 5.000000000000000000, 3.000000000000000000 ) ) ;
#573 = VECTOR ( 'NONE', #186, 1000.000000000000000 ) ;
#574 = EDGE_CURVE ( 'NONE', #160, #904, #155, .T. ) ;
#575 = DIRECTION ( 'NONE',  ( -0.000000000000000000, -0.000000000000000000, -1.000000000000000000 ) ) ;
#576 = ORIENTED_EDGE ( 'NONE', *, *, #792, .T. ) ;
#577 = FACE_OUTER_BOUND ( 'NONE', #917, .T. ) ;
#578 = DIRECTION ( 'NONE',  ( 1.000000000000000000, 0.000000000000000000, 0.000000000000000000 ) ) ;
#579 = ORIENTED_EDGE ( 'NONE', *, *, #957, .F. ) ;
#580 = AXIS2_PLACEMENT_3D ( 'NONE', #359, #136, #285 ) ;
#581 = CARTESIAN_POINT ( 'NONE',  ( 15.00000000000000000, 1.836970198721029589E-15, 20.00000000000000000 ) ) ;
#582 = AXIS2_PLACEMENT_3D ( 'NONE', #797, #583, #643 ) ;
#583 = DIRECTION ( 'NONE',  ( 0.000000000000000000, 0.000000000000000000, -1.000000000000000000 ) ) ;
#584 = CARTESIAN_POINT ( 'NONE',  ( 39.33012701892222651, 7.500000000000000000, 0.000000000000000000 ) ) ;
#585 = ORIENTED_EDGE ( 'NONE', *, *, #889, .T. ) ;
#586 = DIRECTION ( 'NONE',  ( -0.000000000000000000, 1.000000000000000000, -0.000000000000000000 ) ) ;
#587 = CIRCLE ( 'NONE', #493, 4.999999999999997335 ) ;
#588 = DIRECTION ( 'NONE',  ( 0.000000000000000000, 0.000000000000000000, 1.000000000000000000 ) ) ;
#589 = CIRCLE ( 'NONE', #738, 2.000000000000000000 ) ;
#590 = ADVANCED_FACE ( 'NONE', ( #814 ), #891, .T. ) ;
#591 = DIRECTION ( 'NONE',  ( 0.000000000000000000, 0.000000000000000000, -1.000000000000000000 ) ) ;
#592 = PRODUCT ( '\X2\5c0f817f\X0\', '\X2\5c0f817f\X0\', '', ( #596 ) ) ;
#593 = ORIENTED_EDGE ( 'NONE', *, *, #267, .F. ) ;
#594 = ADVANCED_FACE ( 'NONE', ( #11 ), #462, .F. ) ;
#595 = CARTESIAN_POINT ( 'NONE',  ( -2.000000000000000000, 0.000000000000000000, 20.00000000000000000 ) ) ;
#596 = PRODUCT_CONTEXT ( 'NONE', #195, 'mechanical' ) ;
#597 = DIRECTION ( 'NONE',  ( 1.000000000000000000, 0.000000000000000000, 0.000000000000000000 ) ) ;
#598 = EDGE_CURVE ( 'NONE', #150, #61, #20, .T. ) ;
#599 = ORIENTED_EDGE ( 'NONE', *, *, #520, .F. ) ;
#600 = DIRECTION ( 'NONE',  ( 0.000000000000000000, 0.000000000000000000, -1.000000000000000000 ) ) ;
#601 = CIRCLE ( 'NONE', #75, 15.00000000000000000 ) ;
#602 = VECTOR ( 'NONE', #948, 1000.000000000000000 ) ;
#603 = EDGE_CURVE ( 'NONE', #320, #683, #222, .T. ) ;
#604 = APPLICATION_PROTOCOL_DEFINITION ( 'draft international standard', 'automotive_design', 1998, #92 ) ;
#605 = CARTESIAN_POINT ( 'NONE',  ( 60.00000000000002842, -4.999999999999999112, 0.000000000000000000 ) ) ;
#606 = EDGE_LOOP ( 'NONE', ( #544, #695 ) ) ;
#607 = CARTESIAN_POINT ( 'NONE',  ( -55.13848759532738342, -1.347111479062088050E-14, 0.000000000000000000 ) ) ;
#608 = PRODUCT_CONTEXT ( 'NONE', #396, 'mechanical' ) ;
#609 = CARTESIAN_POINT ( 'NONE',  ( 0.000000000000000000, 0.000000000000000000, 20.00000000000000000 ) ) ;
#610 = AXIS2_PLACEMENT_3D ( 'NONE', #729, #600, #371 ) ;
#611 = CARTESIAN_POINT ( 'NONE',  ( 50.00000000000002132, 4.906538933386795664E-15, 3.000000000000000000 ) ) ;
#612 = EDGE_LOOP ( 'NONE', ( #366, #771 ) ) ;
#613 = CONTEXT_DEPENDENT_SHAPE_REPRESENTATION ( #69, #206 ) ;
#614 = DIRECTION ( 'NONE',  ( -0.000000000000000000, 0.000000000000000000, 1.000000000000000000 ) ) ;
#615 = ORIENTED_EDGE ( 'NONE', *, *, #202, .F. ) ;
#616 = PRODUCT_DEFINITION_CONTEXT ( 'detailed design', #247, 'design' ) ;
#617 = EDGE_LOOP ( 'NONE', ( #633, #470, #194, #385 ) ) ;
#618 = VECTOR ( 'NONE', #806, 1000.000000000000000 ) ;
#619 = CARTESIAN_POINT ( 'NONE',  ( 50.00000000000002132, 4.906538933386795664E-15, 3.000000000000000000 ) ) ;
#620 = ORIENTED_EDGE ( 'NONE', *, *, #23, .F. ) ;
#621 = ADVANCED_FACE ( 'NONE', ( #825 ), #228, .T. ) ;
#622 = DIRECTION ( 'NONE',  ( 1.000000000000000000, 0.000000000000000000, 0.000000000000000000 ) ) ;
#623 = VERTEX_POINT ( 'NONE', #605 ) ;
#624 = DIRECTION ( 'NONE',  ( 0.000000000000000000, 1.000000000000000000, -0.000000000000000000 ) ) ;
#625 = ORIENTED_EDGE ( 'NONE', *, *, #98, .T. ) ;
#626 = UNCERTAINTY_MEASURE_WITH_UNIT (LENGTH_MEASURE( 1.000000000000000082E-05 ), #675, 'distance_accuracy_value', 'NONE');
#627 = EDGE_LOOP ( 'NONE', ( #646, #673 ) ) ;
#628 = DIRECTION ( 'NONE',  ( -1.000000000000000000, 0.000000000000000000, 0.000000000000000000 ) ) ;
#629 = VERTEX_POINT ( 'NONE', #450 ) ;
#630 = DIRECTION ( 'NONE',  ( 0.000000000000000000, 0.000000000000000000, 1.000000000000000000 ) ) ;
#631 = DIRECTION ( 'NONE',  ( 1.000000000000000000, 0.000000000000000000, 0.000000000000000000 ) ) ;
#632 = VECTOR ( 'NONE', #60, 1000.000000000000000 ) ;
#633 = ORIENTED_EDGE ( 'NONE', *, *, #894, .T. ) ;
#634 = AXIS2_PLACEMENT_3D ( 'NONE', #64, #316, #523 ) ;
#635 = PRODUCT_RELATED_PRODUCT_CATEGORY ( 'part', '', ( #946 ) ) ;
#636 = CARTESIAN_POINT ( 'NONE',  ( -38.13848759532738342, -1.138921523207037824E-14, 3.000000000000000000 ) ) ;
#637 = CARTESIAN_POINT ( 'NONE',  ( 35.00000000000003553, -10.00000000000000000, 3.000000000000000000 ) ) ;
#638 = ORIENTED_EDGE ( 'NONE', *, *, #8, .T. ) ;
#639 = CARTESIAN_POINT ( 'NONE',  ( 35.00000000000002842, 4.999999999999999112, 0.000000000000000000 ) ) ;
#640 = DIRECTION ( 'NONE',  ( 1.000000000000000000, 0.000000000000000000, 0.000000000000000000 ) ) ;
#641 = SURFACE_STYLE_FILL_AREA ( #131 ) ;
#642 = DIRECTION ( 'NONE',  ( -1.000000000000000000, -0.000000000000000000, -0.000000000000000000 ) ) ;
#643 = DIRECTION ( 'NONE',  ( -1.000000000000000000, 0.000000000000000000, 0.000000000000000000 ) ) ;
#644 = PRESENTATION_STYLE_ASSIGNMENT (( #280 ) ) ;
#645 = AXIS2_PLACEMENT_3D ( 'NONE', #361, #661, #444 ) ;
#646 = ORIENTED_EDGE ( 'NONE', *, *, #132, .T. ) ;
#647 = APPLICATION_CONTEXT ( 'automotive_design' ) ;
#648 = CIRCLE ( 'NONE', #97, 2.000000000000001776 ) ;
#649 = ADVANCED_FACE ( 'NONE', ( #293 ), #159, .T. ) ;
#650 = CARTESIAN_POINT ( 'NONE',  ( 35.00000000000002842, 9.999999999999998224, 3.000000000000000000 ) ) ;
#651 = DIRECTION ( 'NONE',  ( 0.000000000000000000, 0.000000000000000000, 1.000000000000000000 ) ) ;
#652 = DIRECTION ( 'NONE',  ( -1.000000000000000000, 0.000000000000000000, -0.000000000000000000 ) ) ;
#653 = EDGE_LOOP ( 'NONE', ( #842, #935, #12, #50 ) ) ;
#654 = DIRECTION ( 'NONE',  ( -1.000000000000000000, 0.000000000000000000, 0.000000000000000000 ) ) ;
#655 = ADVANCED_FACE ( 'NONE', ( #672 ), #515, .F. ) ;
#656 = PRODUCT_DEFINITION_SHAPE ( 'NONE', 'NONE',  #486 ) ;
#657 = CIRCLE ( 'NONE', #610, 5.000000000000000888 ) ;
#658 = CARTESIAN_POINT ( 'NONE',  ( 0.000000000000000000, 0.000000000000000000, 0.000000000000000000 ) ) ;
#659 = CARTESIAN_POINT ( 'NONE',  ( 35.00000000000003553, -5.000000000000000000, 3.000000000000000000 ) ) ;
#660 = ORIENTED_EDGE ( 'NONE', *, *, #495, .F. ) ;
#661 = DIRECTION ( 'NONE',  ( 0.000000000000000000, 0.000000000000000000, -1.000000000000000000 ) ) ;
#662 = PLANE ( 'NONE',  #522 ) ;
#663 = EDGE_CURVE ( 'NONE', #833, #234, #95, .T. ) ;
#664 = LINE ( 'NONE', #345, #632 ) ;
#665 = PRODUCT_DEFINITION_FORMATION_WITH_SPECIFIED_SOURCE ( 'ไป', '', #438, .NOT_KNOWN. ) ;
#666 = DIRECTION ( 'NONE',  ( -0.000000000000000000, -0.000000000000000000, -1.000000000000000000 ) ) ;
#667 = VECTOR ( 'NONE', #471, 1000.000000000000000 ) ;
#668 = FACE_OUTER_BOUND ( 'NONE', #394, .T. ) ;
#669 = ORIENTED_EDGE ( 'NONE', *, *, #897, .F. ) ;
#670 = CARTESIAN_POINT ( 'NONE',  ( -15.00000000000000000, 0.000000000000000000, 20.00000000000000000 ) ) ;
#671 = DIRECTION ( 'NONE',  ( 0.000000000000000000, 0.000000000000000000, 1.000000000000000000 ) ) ;
#672 = FACE_OUTER_BOUND ( 'NONE', #332, .T. ) ;
#673 = ORIENTED_EDGE ( 'NONE', *, *, #919, .T. ) ;
#674 = CARTESIAN_POINT ( 'NONE',  ( 2.000000000000000000, 2.449293598294706414E-16, 0.000000000000000000 ) ) ;
#675 =( LENGTH_UNIT ( ) NAMED_UNIT ( * ) SI_UNIT ( .MILLI., .METRE. ) );
#676 = DIRECTION ( 'NONE',  ( -1.000000000000000000, 0.000000000000000000, 0.000000000000000000 ) ) ;
#677 = ORIENTED_EDGE ( 'NONE', *, *, #770, .T. ) ;
#678 = DIRECTION ( 'NONE',  ( 0.000000000000000000, 0.000000000000000000, 1.000000000000000000 ) ) ;
#679 = CARTESIAN_POINT ( 'NONE',  ( 40.00000000000002842, -5.000000000000000000, 3.000000000000000000 ) ) ;
#680 = CIRCLE ( 'NONE', #377, 1.999999999999994893 ) ;
#681 = AXIS2_PLACEMENT_3D ( 'NONE', #244, #624, #542 ) ;
#682 = DIRECTION ( 'NONE',  ( 0.000000000000000000, 0.000000000000000000, 1.000000000000000000 ) ) ;
#683 = VERTEX_POINT ( 'NONE', #308 ) ;
#684 = EDGE_CURVE ( 'NONE', #904, #180, #725, .T. ) ;
#685 = DIRECTION ( 'NONE',  ( -1.000000000000000000, 0.000000000000000000, 0.000000000000000000 ) ) ;
#686 = ORIENTED_EDGE ( 'NONE', *, *, #401, .F. ) ;
#687 = DIRECTION ( 'NONE',  ( 1.000000000000000000, 0.000000000000000000, 0.000000000000000000 ) ) ;
#688 = ORIENTED_EDGE ( 'NONE', *, *, #284, .T. ) ;
#689 = DIRECTION ( 'NONE',  ( -0.000000000000000000, -0.000000000000000000, 1.000000000000000000 ) ) ;
#690 = ORIENTED_EDGE ( 'NONE', *, *, #696, .T. ) ;
#691 = PLANE ( 'NONE',  #681 ) ;
#692 = ADVANCED_FACE ( 'NONE', ( #668 ), #961, .T. ) ;
#693 = ORIENTED_EDGE ( 'NONE', *, *, #346, .F. ) ;
#694 = CARTESIAN_POINT ( 'NONE',  ( -40.13848759532738342, -1.163414459189985012E-14, 3.000000000000000000 ) ) ;
#695 = ORIENTED_EDGE ( 'NONE', *, *, #598, .F. ) ;
#696 = EDGE_CURVE ( 'NONE', #564, #705, #760, .T. ) ;
#697 = CIRCLE ( 'NONE', #834, 4.999999999999997335 ) ;
#698 = FACE_OUTER_BOUND ( 'NONE', #962, .T. ) ;
#699 = VECTOR ( 'NONE', #484, 1000.000000000000000 ) ;
#700 = ORIENTED_EDGE ( 'NONE', *, *, #93, .T. ) ;
#701 = ORIENTED_EDGE ( 'NONE', *, *, #902, .T. ) ;
#702 = DIRECTION ( 'NONE',  ( 0.000000000000000000, 0.000000000000000000, 1.000000000000000000 ) ) ;
#703 = VERTEX_POINT ( 'NONE', #906 ) ;
#704 = CIRCLE ( 'NONE', #25, 4.999999999999997335 ) ;
#705 = VERTEX_POINT ( 'NONE', #835 ) ;
#706 = DIRECTION ( 'NONE',  ( 0.000000000000000000, -0.000000000000000000, -1.000000000000000000 ) ) ;
#707 = ORIENTED_EDGE ( 'NONE', *, *, #202, .T. ) ;
#708 = ADVANCED_FACE ( 'NONE', ( #166 ), #26, .F. ) ;
#709 = DIRECTION ( 'NONE',  ( -0.000000000000000000, -0.000000000000000000, -1.000000000000000000 ) ) ;
#710 = CARTESIAN_POINT ( 'NONE',  ( 35.00000000000002842, 4.999999999999999112, 0.000000000000000000 ) ) ;
#711 = VECTOR ( 'NONE', #666, 1000.000000000000000 ) ;
#712 = ORIENTED_EDGE ( 'NONE', *, *, #566, .T. ) ;
#713 = EDGE_CURVE ( 'NONE', #705, #511, #697, .T. ) ;
#714 = DIRECTION ( 'NONE',  ( -1.000000000000000000, 0.000000000000000000, 0.000000000000000000 ) ) ;
#715 = EDGE_CURVE ( 'NONE', #556, #218, #108, .T. ) ;
#716 = CARTESIAN_POINT ( 'NONE',  ( -55.13848759532738342, -1.347111479062088050E-14, 0.000000000000000000 ) ) ;
#717 = ADVANCED_FACE ( 'NONE', ( #698 ), #920, .T. ) ;
#718 = LINE ( 'NONE', #454, #363 ) ;
#719 = DIRECTION ( 'NONE',  ( -1.000000000000000000, 0.000000000000000000, 0.000000000000000000 ) ) ;
#720 = DIRECTION ( 'NONE',  ( -0.000000000000000000, -0.000000000000000000, -1.000000000000000000 ) ) ;
#721 = EDGE_CURVE ( 'NONE', #327, #903, #930, .T. ) ;
#722 = DIRECTION ( 'NONE',  ( 0.000000000000000000, 0.000000000000000000, -1.000000000000000000 ) ) ;
#723 = CARTESIAN_POINT ( 'NONE',  ( -15.00000000000000000, 0.000000000000000000, 0.000000000000000000 ) ) ;
#724 = CARTESIAN_POINT ( 'NONE',  ( 15.00000000000000000, 1.836970198721029589E-15, 20.00000000000000000 ) ) ;
#725 = CIRCLE ( 'NONE', #289, 4.999999999999997335 ) ;
#726 = DIRECTION ( 'NONE',  ( 0.000000000000000000, 0.000000000000000000, -1.000000000000000000 ) ) ;
#727 = LINE ( 'NONE', #208, #352 ) ;
#728 = VERTEX_POINT ( 'NONE', #21 ) ;
#729 = CARTESIAN_POINT ( 'NONE',  ( 35.00000000000003553, -10.00000000000000000, 3.000000000000000000 ) ) ;
#730 = FACE_OUTER_BOUND ( 'NONE', #184, .T. ) ;
#731 = CARTESIAN_POINT ( 'NONE',  ( 0.000000000000000000, 0.000000000000000000, 20.00000000000000000 ) ) ;
#732 = VERTEX_POINT ( 'NONE', #252 ) ;
#733 = LINE ( 'NONE', #679, #84 ) ;
#734 =( NAMED_UNIT ( * ) SI_UNIT ( $, .STERADIAN. ) SOLID_ANGLE_UNIT ( ) );
#735 = DIRECTION ( 'NONE',  ( -0.000000000000000000, -0.000000000000000000, 1.000000000000000000 ) ) ;
#736 = ORIENTED_EDGE ( 'NONE', *, *, #8, .F. ) ;
#737 =( GEOMETRIC_REPRESENTATION_CONTEXT ( 3 ) GLOBAL_UNCERTAINTY_ASSIGNED_CONTEXT ( ( #626 ) ) GLOBAL_UNIT_ASSIGNED_CONTEXT ( ( #675, #158, #734 ) ) REPRESENTATION_CONTEXT ( 'NONE', 'WORKASPACE' ) );
#738 = AXIS2_PLACEMENT_3D ( 'NONE', #226, #678, #212 ) ;
#739 = LINE ( 'NONE', #3, #711 ) ;
#740 = CIRCLE ( 'NONE', #162, 4.999999999999997335 ) ;
#741 = DIRECTION ( 'NONE',  ( 1.000000000000000000, 0.000000000000000000, 0.000000000000000000 ) ) ;
#742 = CARTESIAN_POINT ( 'NONE',  ( -59.99999999999995737, 4.999999999999999112, 3.000000000000000000 ) ) ;
#743 = EDGE_LOOP ( 'NONE', ( #53, #553, #912, #211 ) ) ;
#744 = EDGE_CURVE ( 'NONE', #61, #150, #209, .T. ) ;
#745 = CARTESIAN_POINT ( 'NONE',  ( -38.13848759532738342, -1.138921523207037824E-14, 3.000000000000000000 ) ) ;
#746 = AXIS2_PLACEMENT_3D ( 'NONE', #343, #483, #936 ) ;
#747 = SHAPE_DEFINITION_REPRESENTATION ( #125, #784 ) ;
#748 = APPLICATION_CONTEXT ( 'automotive_design' ) ;
#749 = DIRECTION ( 'NONE',  ( 0.000000000000000000, 0.000000000000000000, -1.000000000000000000 ) ) ;
#750 = ORIENTED_EDGE ( 'NONE', *, *, #164, .F. ) ;
#751 = ADVANCED_FACE ( 'NONE', ( #476 ), #261, .F. ) ;
#752 = CARTESIAN_POINT ( 'NONE',  ( 35.00000000000003553, -10.00000000000000000, 0.000000000000000000 ) ) ;
#753 = CONTEXT_DEPENDENT_SHAPE_REPRESENTATION ( #313, #54 ) ;
#754 = DIRECTION ( 'NONE',  ( -1.000000000000000000, 0.000000000000000000, 0.000000000000000000 ) ) ;
#755 = ORIENTED_EDGE ( 'NONE', *, *, #539, .F. ) ;
#756 = DIRECTION ( 'NONE',  ( -0.000000000000000000, -0.000000000000000000, -1.000000000000000000 ) ) ;
#757 = COLOUR_RGB ( '',0.7921568627450980005, 0.8196078431372548767, 0.9333333333333333481 ) ;
#758 = ORIENTED_EDGE ( 'NONE', *, *, #346, .T. ) ;
#759 = AXIS2_PLACEMENT_3D ( 'NONE', #387, #30, #551 ) ;
#760 = LINE ( 'NONE', #80, #413 ) ;
#761 = ORIENTED_EDGE ( 'NONE', *, *, #433, .T. ) ;
#762 =( NAMED_UNIT ( * ) SI_UNIT ( $, .STERADIAN. ) SOLID_ANGLE_UNIT ( ) );
#763 = ORIENTED_EDGE ( 'NONE', *, *, #52, .F. ) ;
#764 = CARTESIAN_POINT ( 'NONE',  ( -55.13848759532738342, -1.347111479062088050E-14, 3.000000000000000000 ) ) ;
#765 = ORIENTED_EDGE ( 'NONE', *, *, #520, .T. ) ;
#766 = DIRECTION ( 'NONE',  ( 1.000000000000000000, 0.000000000000000000, 0.000000000000000000 ) ) ;
#767 = CARTESIAN_POINT ( 'NONE',  ( 55.00000000000002842, -4.999999999999999112, 0.000000000000000000 ) ) ;
#768 = CARTESIAN_POINT ( 'NONE',  ( 43.66025403784441750, 10.00000000000000000, 3.000000000000000000 ) ) ;
#769 = VERTEX_POINT ( 'NONE', #409 ) ;
#770 = EDGE_CURVE ( 'NONE', #329, #481, #129, .T. ) ;
#771 = ORIENTED_EDGE ( 'NONE', *, *, #376, .T. ) ;
#772 = AXIS2_PLACEMENT_3D ( 'NONE', #512, #367, #219 ) ;
#773 = AXIS2_PLACEMENT_3D ( 'NONE', #527, #304, #597 ) ;
#774 = CARTESIAN_POINT ( 'NONE',  ( 39.33012701892223362, -7.500000000000000000, 3.000000000000000000 ) ) ;
#775 = AXIS2_PLACEMENT_3D ( 'NONE', #121, #288, #278 ) ;
#776 = ORIENTED_EDGE ( 'NONE', *, *, #943, .F. ) ;
#777 = LINE ( 'NONE', #404, #168 ) ;
#778 = DIRECTION ( 'NONE',  ( 1.000000000000000000, 0.000000000000000000, 0.000000000000000000 ) ) ;
#779 = ORIENTED_EDGE ( 'NONE', *, *, #323, .F. ) ;
#780 = DIRECTION ( 'NONE',  ( -0.000000000000000000, -0.000000000000000000, 1.000000000000000000 ) ) ;
#781 = CYLINDRICAL_SURFACE ( 'NONE', #759, 4.999999999999997335 ) ;
#782 = EDGE_LOOP ( 'NONE', ( #686, #593 ) ) ;
#783 = SURFACE_STYLE_USAGE ( .BOTH. , #13 ) ;
#784 = SHAPE_REPRESENTATION ( '\X2\6267884c5668\X0\', ( #205 ), #846 ) ;
#785 = CARTESIAN_POINT ( 'NONE',  ( 60.00000000000002842, 5.000000000000000000, 0.000000000000000000 ) ) ;
#786 = EDGE_CURVE ( 'NONE', #19, #104, #405, .T. ) ;
#787 = CARTESIAN_POINT ( 'NONE',  ( -55.13848759532738342, -1.347111479062088050E-14, 3.000000000000000000 ) ) ;
#788 = AXIS2_PLACEMENT_3D ( 'NONE', #611, #113, #685 ) ;
#789 = DIRECTION ( 'NONE',  ( 0.000000000000000000, -0.000000000000000000, -1.000000000000000000 ) ) ;
#790 = ORIENTED_EDGE ( 'NONE', *, *, #517, .F. ) ;
#791 = DIRECTION ( 'NONE',  ( 0.000000000000000000, 0.000000000000000000, -1.000000000000000000 ) ) ;
#792 = EDGE_CURVE ( 'NONE', #234, #101, #844, .T. ) ;
#793 = CARTESIAN_POINT ( 'NONE',  ( -40.13848759532738342, -1.163414459189985012E-14, 0.000000000000000000 ) ) ;
#794 = ORIENTED_EDGE ( 'NONE', *, *, #132, .F. ) ;
#795 = PRODUCT_RELATED_PRODUCT_CATEGORY ( 'part', '', ( #592 ) ) ;
#796 = DIRECTION ( 'NONE',  ( -1.000000000000000000, 0.000000000000000000, 0.000000000000000000 ) ) ;
#797 = CARTESIAN_POINT ( 'NONE',  ( 43.66025403784441750, 5.000000000000000000, 0.000000000000000000 ) ) ;
#798 = CARTESIAN_POINT ( 'NONE',  ( -55.13848759532738342, -1.347111479062088050E-14, 3.000000000000000000 ) ) ;
#799 = VERTEX_POINT ( 'NONE', #774 ) ;
#800 = CARTESIAN_POINT ( 'NONE',  ( 50.00000000000002132, 4.906538933386795664E-15, 3.000000000000000000 ) ) ;
#801 = CARTESIAN_POINT ( 'NONE',  ( -57.13848759532737631, -1.347111479062088050E-14, 0.000000000000000000 ) ) ;
#802 = ORIENTED_EDGE ( 'NONE', *, *, #277, .F. ) ;
#803 = PLANE ( 'NONE',  #1 ) ;
#804 = CIRCLE ( 'NONE', #645, 4.999999999999997335 ) ;
#805 = AXIS2_PLACEMENT_3D ( 'NONE', #764, #682, #446 ) ;
#806 = DIRECTION ( 'NONE',  ( -1.000000000000000000, -0.000000000000000000, -0.000000000000000000 ) ) ;
#807 = ADVANCED_FACE ( 'NONE', ( #86 ), #781, .T. ) ;
#808 = DIRECTION ( 'NONE',  ( 0.000000000000000000, 0.000000000000000000, 1.000000000000000000 ) ) ;
#809 = CARTESIAN_POINT ( 'NONE',  ( -53.13848759532739052, -1.322618543079141020E-14, 3.000000000000000000 ) ) ;
#810 = LINE ( 'NONE', #265, #602 ) ;
#811 = EDGE_LOOP ( 'NONE', ( #585, #224 ) ) ;
#812 = DIRECTION ( 'NONE',  ( 1.000000000000000000, -0.000000000000000000, -0.000000000000000000 ) ) ;
#813 = DIRECTION ( 'NONE',  ( 0.000000000000000000, 0.000000000000000000, 1.000000000000000000 ) ) ;
#814 = FACE_OUTER_BOUND ( 'NONE', #909, .T. ) ;
#815 = VERTEX_POINT ( 'NONE', #710 ) ;
#816 = CIRCLE ( 'NONE', #563, 2.000000000000000000 ) ;
#817 = CARTESIAN_POINT ( 'NONE',  ( 52.00000000000002132, 5.151468293216265961E-15, 3.000000000000000000 ) ) ;
#818 = AXIS2_PLACEMENT_3D ( 'NONE', #283, #426, #867 ) ;
#819 = EDGE_CURVE ( 'NONE', #398, #45, #740, .T. ) ;
#820 = CARTESIAN_POINT ( 'NONE',  ( 43.66025403784442460, -5.000000000000000000, 0.000000000000000000 ) ) ;
#821 = ORIENTED_EDGE ( 'NONE', *, *, #300, .F. ) ;
#822 = LINE ( 'NONE', #362, #191 ) ;
#823 = CLOSED_SHELL ( 'NONE', ( #569, #913, #85, #938, #717, #594 ) ) ;
#824 = AXIS2_PLACEMENT_3D ( 'NONE', #276, #46, #654 ) ;
#825 = FACE_OUTER_BOUND ( 'NONE', #907, .T. ) ;
#826 = ORIENTED_EDGE ( 'NONE', *, *, #603, .T. ) ;
#827 = CARTESIAN_POINT ( 'NONE',  ( -59.99999999999995737, 2.602085213965210642E-15, 3.000000000000000000 ) ) ;
#828 = DIRECTION ( 'NONE',  ( 1.000000000000000000, 0.000000000000000000, 0.000000000000000000 ) ) ;
#829 = DIRECTION ( 'NONE',  ( 0.000000000000000000, 0.000000000000000000, -1.000000000000000000 ) ) ;
#830 = ORIENTED_EDGE ( 'NONE', *, *, #401, .T. ) ;
#831 = FACE_OUTER_BOUND ( 'NONE', #477, .T. ) ;
#832 = AXIS2_PLACEMENT_3D ( 'NONE', #485, #89, #766 ) ;
#833 = VERTEX_POINT ( 'NONE', #183 ) ;
#834 = AXIS2_PLACEMENT_3D ( 'NONE', #15, #187, #628 ) ;
#835 = CARTESIAN_POINT ( 'NONE',  ( 55.00000000000002842, -10.00000000000000000, 3.000000000000000000 ) ) ;
#836 = ORIENTED_EDGE ( 'NONE', *, *, #495, .T. ) ;
#837 = PRODUCT_DEFINITION ( 'ๆ', '', #302, #151 ) ;
#838 = CARTESIAN_POINT ( 'NONE',  ( 43.66025403784441750, 5.000000000000000000, 3.000000000000000000 ) ) ;
#839 = ORIENTED_EDGE ( 'NONE', *, *, #192, .F. ) ;
#840 = DIRECTION ( 'NONE',  ( 0.000000000000000000, 0.000000000000000000, 1.000000000000000000 ) ) ;
#841 = ORIENTED_EDGE ( 'NONE', *, *, #786, .F. ) ;
#842 = ORIENTED_EDGE ( 'NONE', *, *, #508, .T. ) ;
#843 = EDGE_CURVE ( 'NONE', #248, #9, #36, .T. ) ;
#844 = LINE ( 'NONE', #927, #537 ) ;
#845 = ORIENTED_EDGE ( 'NONE', *, *, #147, .F. ) ;
#846 =( GEOMETRIC_REPRESENTATION_CONTEXT ( 3 ) GLOBAL_UNCERTAINTY_ASSIGNED_CONTEXT ( ( #173 ) ) GLOBAL_UNIT_ASSIGNED_CONTEXT ( ( #430, #4, #885 ) ) REPRESENTATION_CONTEXT ( 'NONE', 'WORKASPACE' ) );
#847 = CARTESIAN_POINT ( 'NONE',  ( -2.000000000000000000, 0.000000000000000000, 0.000000000000000000 ) ) ;
#848 = AXIS2_PLACEMENT_3D ( 'NONE', #914, #246, #157 ) ;
#849 = AXIS2_PLACEMENT_3D ( 'NONE', #442, #373, #687 ) ;
#850 = DIRECTION ( 'NONE',  ( -1.000000000000000000, 0.000000000000000000, 0.000000000000000000 ) ) ;
#851 = ORIENTED_EDGE ( 'NONE', *, *, #274, .F. ) ;
#852 = ORIENTED_EDGE ( 'NONE', *, *, #721, .F. ) ;
#853 = DIRECTION ( 'NONE',  ( -0.000000000000000000, -0.000000000000000000, -1.000000000000000000 ) ) ;
#854 = ORIENTED_EDGE ( 'NONE', *, *, #255, .T. ) ;
#855 = LINE ( 'NONE', #639, #502 ) ;
#856 = CIRCLE ( 'NONE', #260, 5.000000000000000888 ) ;
#857 = CARTESIAN_POINT ( 'NONE',  ( -54.99999999999995737, -8.673617379884035472E-16, 0.000000000000000000 ) ) ;
#858 = CARTESIAN_POINT ( 'NONE',  ( 55.00000000000002842, 5.000000000000000000, 0.000000000000000000 ) ) ;
#859 = DIRECTION ( 'NONE',  ( 0.000000000000000000, -1.000000000000000000, 0.000000000000000000 ) ) ;
#860 = ADVANCED_FACE ( 'NONE', ( #179 ), #691, .F. ) ;
#861 = FACE_BOUND ( 'NONE', #24, .T. ) ;
#862 = FACE_OUTER_BOUND ( 'NONE', #941, .T. ) ;
#863 = CARTESIAN_POINT ( 'NONE',  ( -59.99999999999995737, 2.602085213965210642E-15, 0.000000000000000000 ) ) ;
#864 = MECHANICAL_DESIGN_GEOMETRIC_PRESENTATION_REPRESENTATION (  '', ( #351 ), #895 ) ;
#865 = ORIENTED_EDGE ( 'NONE', *, *, #506, .F. ) ;
#866 = CARTESIAN_POINT ( 'NONE',  ( 0.000000000000000000, 0.000000000000000000, 0.000000000000000000 ) ) ;
#867 = DIRECTION ( 'NONE',  ( -1.000000000000000000, 0.000000000000000000, 0.000000000000000000 ) ) ;
#868 = CARTESIAN_POINT ( 'NONE',  ( -54.99999999999995737, -8.673617379884035472E-16, 3.000000000000000000 ) ) ;
#869 = AXIS2_PLACEMENT_3D ( 'NONE', #282, #780, #796 ) ;
#870 = DIRECTION ( 'NONE',  ( -0.000000000000000000, -0.000000000000000000, 1.000000000000000000 ) ) ;
#871 =( LENGTH_UNIT ( ) NAMED_UNIT ( * ) SI_UNIT ( .MILLI., .METRE. ) );
#872 =( LENGTH_UNIT ( ) NAMED_UNIT ( * ) SI_UNIT ( .MILLI., .METRE. ) );
#873 = CARTESIAN_POINT ( 'NONE',  ( 48.00000000000002842, 4.906538933386795664E-15, 3.000000000000000000 ) ) ;
#874 = EDGE_CURVE ( 'NONE', #511, #623, #175, .T. ) ;
#875 = PRODUCT_DEFINITION_FORMATION_WITH_SPECIFIED_SOURCE ( 'ไป', '', #592, .NOT_KNOWN. ) ;
#876 = DIRECTION ( 'NONE',  ( 1.000000000000000000, 0.000000000000000000, 0.000000000000000000 ) ) ;
#877 = VERTEX_POINT ( 'NONE', #99 ) ;
#878 = PRESENTATION_LAYER_ASSIGNMENT (  '', '', ( #351 ) ) ;
#879 = DIRECTION ( 'NONE',  ( 0.000000000000000000, 0.000000000000000000, 1.000000000000000000 ) ) ;
#880 = FACE_OUTER_BOUND ( 'NONE', #782, .T. ) ;
#881 =( NAMED_UNIT ( * ) PLANE_ANGLE_UNIT ( ) SI_UNIT ( $, .RADIAN. ) );
#882 = ORIENTED_EDGE ( 'NONE', *, *, #164, .T. ) ;
#883 = DIRECTION ( 'NONE',  ( 0.000000000000000000, 0.000000000000000000, 1.000000000000000000 ) ) ;
#884 = AXIS2_PLACEMENT_3D ( 'NONE', #866, #196, #640 ) ;
#885 =( NAMED_UNIT ( * ) SI_UNIT ( $, .STERADIAN. ) SOLID_ANGLE_UNIT ( ) );
#886 = DIRECTION ( 'NONE',  ( -1.000000000000000000, -1.776356839400251254E-15, 0.000000000000000000 ) ) ;
#887 = EDGE_LOOP ( 'NONE', ( #790, #899, #275, #763 ) ) ;
#888 = CARTESIAN_POINT ( 'NONE',  ( 60.00000000000002842, -10.00000000000000000, 0.000000000000000000 ) ) ;
#889 = EDGE_CURVE ( 'NONE', #327, #137, #333, .T. ) ;
#890 = CARTESIAN_POINT ( 'NONE',  ( 1071.657526746327449, 1025.014795793212443, 1026.330117588766143 ) ) ;
#891 = CYLINDRICAL_SURFACE ( 'NONE', #849, 4.999999999999997335 ) ;
#892 = ORIENTED_EDGE ( 'NONE', *, *, #696, .F. ) ;
#893 = CIRCLE ( 'NONE', #832, 2.000000000000001776 ) ;
#894 = EDGE_CURVE ( 'NONE', #104, #703, #272, .T. ) ;
#895 =( GEOMETRIC_REPRESENTATION_CONTEXT ( 3 ) GLOBAL_UNCERTAINTY_ASSIGNED_CONTEXT ( ( #32 ) ) GLOBAL_UNIT_ASSIGNED_CONTEXT ( ( #872, #881, #939 ) ) REPRESENTATION_CONTEXT ( 'NONE', 'WORKASPACE' ) );
#896 = CARTESIAN_POINT ( 'NONE',  ( 39.33012701892223362, -7.500000000000000000, 0.000000000000000000 ) ) ;
#897 = EDGE_CURVE ( 'NONE', #728, #218, #950, .T. ) ;
#898 = CARTESIAN_POINT ( 'NONE',  ( 60.00000000000002842, 10.00000000000000000, 3.000000000000000000 ) ) ;
#899 = ORIENTED_EDGE ( 'NONE', *, *, #566, .F. ) ;
#900 = CIRCLE ( 'NONE', #884, 2.000000000000000000 ) ;
#901 = DIRECTION ( 'NONE',  ( -1.000000000000000000, 0.000000000000000000, 0.000000000000000000 ) ) ;
#902 = EDGE_CURVE ( 'NONE', #540, #556, #34, .T. ) ;
#903 = VERTEX_POINT ( 'NONE', #723 ) ;
#904 = VERTEX_POINT ( 'NONE', #944 ) ;
#905 = APPLICATION_PROTOCOL_DEFINITION ( 'draft international standard', 'automotive_design', 1998, #748 ) ;
#906 = CARTESIAN_POINT ( 'NONE',  ( 35.00000000000003553, -5.000000000000000000, 0.000000000000000000 ) ) ;
#907 = EDGE_LOOP ( 'NONE', ( #443, #199, #928, #534 ) ) ;
#908 = CARTESIAN_POINT ( 'NONE',  ( 55.00000000000002842, 10.00000000000000000, 3.000000000000000000 ) ) ;
#909 = EDGE_LOOP ( 'NONE', ( #693, #243, #245, #73 ) ) ;
#910 = VECTOR ( 'NONE', #706, 1000.000000000000000 ) ;
#911 = CARTESIAN_POINT ( 'NONE',  ( -54.99999999999997158, -5.000000000000000000, 3.000000000000000000 ) ) ;
#912 = ORIENTED_EDGE ( 'NONE', *, *, #93, .F. ) ;
#913 = ADVANCED_FACE ( 'NONE', ( #730 ), #499, .T. ) ;
#914 = CARTESIAN_POINT ( 'NONE',  ( 0.000000000000000000, 0.000000000000000000, 20.00000000000000000 ) ) ;
#915 = EDGE_LOOP ( 'NONE', ( #918, #765, #865, #165 ) ) ;
#916 = DIRECTION ( 'NONE',  ( -0.000000000000000000, -0.000000000000000000, -1.000000000000000000 ) ) ;
#917 = EDGE_LOOP ( 'NONE', ( #176, #236, #921, #461 ) ) ;
#918 = ORIENTED_EDGE ( 'NONE', *, *, #744, .T. ) ;
#919 = EDGE_CURVE ( 'NONE', #101, #956, #488, .T. ) ;
#920 = CYLINDRICAL_SURFACE ( 'NONE', #240, 15.00000000000000000 ) ;
#921 = ORIENTED_EDGE ( 'NONE', *, *, #934, .T. ) ;
#922 = ADVANCED_FACE ( 'NONE', ( #862 ), #201, .F. ) ;
#923 = AXIS2_PLACEMENT_3D ( 'NONE', #960, #588, #828 ) ;
#924 = ORIENTED_EDGE ( 'NONE', *, *, #819, .T. ) ;
#925 = CIRCLE ( 'NONE', #287, 4.999999999999997335 ) ;
#926 = VECTOR ( 'NONE', #67, 1000.000000000000000 ) ;
#927 = CARTESIAN_POINT ( 'NONE',  ( -53.13848759532739052, -1.322618543079141020E-14, 3.000000000000000000 ) ) ;
#928 = ORIENTED_EDGE ( 'NONE', *, *, #819, .F. ) ;
#929 = DIRECTION ( 'NONE',  ( -0.000000000000000000, -0.000000000000000000, -1.000000000000000000 ) ) ;
#930 = LINE ( 'NONE', #257, #425 ) ;
#931 = DIRECTION ( 'NONE',  ( -1.000000000000000000, 0.000000000000000000, 0.000000000000000000 ) ) ;
#932 = FACE_OUTER_BOUND ( 'NONE', #87, .T. ) ;
#933 = DIRECTION ( 'NONE',  ( 0.000000000000000000, 0.000000000000000000, 1.000000000000000000 ) ) ;
#934 = EDGE_CURVE ( 'NONE', #833, #956, #727, .T. ) ;
#935 = ORIENTED_EDGE ( 'NONE', *, *, #545, .T. ) ;
#936 = DIRECTION ( 'NONE',  ( 1.000000000000000000, 0.000000000000000000, -0.000000000000000000 ) ) ;
#937 = VECTOR ( 'NONE', #368, 1000.000000000000000 ) ;
#938 = ADVANCED_FACE ( 'NONE', ( #880, #264 ), #662, .F. ) ;
#939 =( NAMED_UNIT ( * ) SI_UNIT ( $, .STERADIAN. ) SOLID_ANGLE_UNIT ( ) );
#940 = AXIS2_PLACEMENT_3D ( 'NONE', #787, #419, #494 ) ;
#941 = EDGE_LOOP ( 'NONE', ( #306, #576, #794, #473 ) ) ;
#942 = FACE_OUTER_BOUND ( 'NONE', #743, .T. ) ;
#943 = EDGE_CURVE ( 'NONE', #481, #329, #648, .T. ) ;
#944 = CARTESIAN_POINT ( 'NONE',  ( 43.66025403784442460, -10.00000000000000000, 0.000000000000000000 ) ) ;
#945 = FILL_AREA_STYLE_COLOUR ( '', #395 ) ;
#946 = PRODUCT ( '\X2\5c0f817f\X0\', '\X2\5c0f817f\X0\', '', ( #455 ) ) ;
#947 = CARTESIAN_POINT ( 'NONE',  ( -55.13848759532738342, -1.347111479062088050E-14, 3.000000000000000000 ) ) ;
#948 = DIRECTION ( 'NONE',  ( -0.000000000000000000, -0.000000000000000000, -1.000000000000000000 ) ) ;
#949 = LINE ( 'NONE', #432, #519 ) ;
#950 = LINE ( 'NONE', #344, #62 ) ;
#951 = AXIS2_PLACEMENT_3D ( 'NONE', #658, #671, #741 ) ;
#952 = DIRECTION ( 'NONE',  ( 0.000000000000000000, 0.000000000000000000, 1.000000000000000000 ) ) ;
#953 =( GEOMETRIC_REPRESENTATION_CONTEXT ( 3 ) GLOBAL_UNCERTAINTY_ASSIGNED_CONTEXT ( ( #407 ) ) GLOBAL_UNIT_ASSIGNED_CONTEXT ( ( #7, #188, #762 ) ) REPRESENTATION_CONTEXT ( 'NONE', 'WORKASPACE' ) );
#954 = FACE_OUTER_BOUND ( 'NONE', #309, .T. ) ;
#955 = DIRECTION ( 'NONE',  ( -0.000000000000000000, -0.000000000000000000, 1.000000000000000000 ) ) ;
#956 = VERTEX_POINT ( 'NONE', #801 ) ;
#957 = EDGE_CURVE ( 'NONE', #732, #629, #225, .T. ) ;
#958 = ADVANCED_BREP_SHAPE_REPRESENTATION ( '', ( #541, #205 ), #846 ) ;
#959 = DIRECTION ( 'NONE',  ( 1.000000000000000000, -0.000000000000000000, -0.000000000000000000 ) ) ;
#960 = CARTESIAN_POINT ( 'NONE',  ( 0.000000000000000000, 0.000000000000000000, 0.000000000000000000 ) ) ;
#961 = CYLINDRICAL_SURFACE ( 'NONE', #146, 4.999999999999997335 ) ;
#962 = EDGE_LOOP ( 'NONE', ( #660, #380, #532, #830 ) ) ;
#963 = ORIENTED_EDGE ( 'NONE', *, *, #197, .F. ) ;
#964 = NEXT_ASSEMBLY_USAGE_OCCURRENCE ( 'NAUO1', ' ', ' ', #486, #837, $ ) ;
#965 = NEXT_ASSEMBLY_USAGE_OCCURRENCE ( 'NAUO2', ' ', ' ', #486, #128, $ ) ;
ENDSEC;
END-ISO-10303-21;
