ISO-10303-21;
HEADER;
FILE_DESCRIPTION (( 'STEP AP214' ),
    '1' );
FILE_NAME ('ÉíÌå.STEP',
    '2026-09-16T15:36:09',
    ( '' ),
    ( '' ),
    'SwSTEP 2.0',
    'SolidWorks 2026',
    '' );
FILE_SCHEMA (( 'AUTOMOTIVE_DESIGN' ));
ENDSEC;

DATA;
#1 = EDGE_LOOP ( 'NONE', ( #75, #367 ) ) ;
#2 = DIRECTION ( 'NONE',  ( 0.000000000000000000, 0.000000000000000000, -1.000000000000000000 ) ) ;
#3 = CARTESIAN_POINT ( 'NONE',  ( -60.00000000000000711, 70.00000000000001421, 0.000000000000000000 ) ) ;
#4 = LINE ( 'NONE', #88, #588 ) ;
#5 = CARTESIAN_POINT ( 'NONE',  ( 100.0000000000000000, 70.00000000000001421, 60.00000000000000000 ) ) ;
#6 = DIRECTION ( 'NONE',  ( 0.000000000000000000, 0.000000000000000000, -1.000000000000000000 ) ) ;
#7 = CIRCLE ( 'NONE', #40, 2.000000000000000000 ) ;
#8 = EDGE_LOOP ( 'NONE', ( #155, #599, #888, #16 ) ) ;
#9 = CARTESIAN_POINT ( 'NONE',  ( -2.000000000000000000, 0.000000000000000000, 0.000000000000000000 ) ) ;
#10 = VECTOR ( 'NONE', #114, 1000.000000000000000 ) ;
#11 = DIRECTION ( 'NONE',  ( 0.000000000000000000, 0.000000000000000000, -1.000000000000000000 ) ) ;
#12 = DIRECTION ( 'NONE',  ( 1.000000000000000000, 0.000000000000000000, 0.000000000000000000 ) ) ;
#13 = DIRECTION ( 'NONE',  ( 0.000000000000000000, 1.000000000000000000, -0.000000000000000000 ) ) ;
#14 = DIRECTION ( 'NONE',  ( 0.000000000000000000, 0.000000000000000000, -1.000000000000000000 ) ) ;
#15 = ADVANCED_FACE ( 'NONE', ( #380 ), #369, .F. ) ;
#16 = ORIENTED_EDGE ( 'NONE', *, *, #547, .F. ) ;
#17 = CARTESIAN_POINT ( 'NONE',  ( -80.00000000000000000, -74.99999999999998579, 30.00000000000000000 ) ) ;
#18 = CIRCLE ( 'NONE', #213, 4.000000000000003553 ) ;
#19 = DIRECTION ( 'NONE',  ( 0.000000000000000000, 1.000000000000000000, -0.000000000000000000 ) ) ;
#20 = CARTESIAN_POINT ( 'NONE',  ( -80.00000000000000000, 123.0000000000001137, 29.99999999999861444 ) ) ;
#21 = CARTESIAN_POINT ( 'NONE',  ( 100.0000000000000000, -69.99999999999998579, 60.00000000000000000 ) ) ;
#22 = ORIENTED_EDGE ( 'NONE', *, *, #279, .T. ) ;
#23 = DIRECTION ( 'NONE',  ( 1.000000000000000000, -0.000000000000000000, -0.000000000000000000 ) ) ;
#24 = LINE ( 'NONE', #945, #784 ) ;
#25 = EDGE_CURVE ( 'NONE', #679, #208, #303, .T. ) ;
#26 = ORIENTED_EDGE ( 'NONE', *, *, #569, .T. ) ;
#27 = DIRECTION ( 'NONE',  ( 0.000000000000000000, -6.938893903907222067E-15, -1.000000000000000000 ) ) ;
#28 = DIRECTION ( 'NONE',  ( 0.000000000000000000, 0.000000000000000000, 1.000000000000000000 ) ) ;
#29 = CARTESIAN_POINT ( 'NONE',  ( -99.99999999999998579, 70.00000000000001421, 60.00000000000000000 ) ) ;
#30 = FACE_OUTER_BOUND ( 'NONE', #791, .T. ) ;
#31 = EDGE_LOOP ( 'NONE', ( #219, #610, #292, #683 ) ) ;
#32 = DIRECTION ( 'NONE',  ( -2.775557561562904367E-15, 1.000000000000000000, 0.000000000000000000 ) ) ;
#33 = EDGE_CURVE ( 'NONE', #575, #761, #611, .T. ) ;
#34 = VERTEX_POINT ( 'NONE', #5 ) ;
#35 = DIRECTION ( 'NONE',  ( 0.000000000000000000, 1.000000000000000000, -0.000000000000000000 ) ) ;
#36 = FACE_OUTER_BOUND ( 'NONE', #754, .T. ) ;
#37 = AXIS2_PLACEMENT_3D ( 'NONE', #390, #469, #783 ) ;
#38 = VERTEX_POINT ( 'NONE', #925 ) ;
#39 = DIRECTION ( 'NONE',  ( 0.000000000000000000, 0.000000000000000000, -1.000000000000000000 ) ) ;
#40 = AXIS2_PLACEMENT_3D ( 'NONE', #454, #314, #12 ) ;
#41 = EDGE_CURVE ( 'NONE', #235, #911, #146, .T. ) ;
#42 = VERTEX_POINT ( 'NONE', #864 ) ;
#43 = FACE_BOUND ( 'NONE', #1, .T. ) ;
#44 = DIRECTION ( 'NONE',  ( 0.000000000000000000, 6.938893903907222067E-15, 1.000000000000000000 ) ) ;
#45 = FACE_OUTER_BOUND ( 'NONE', #851, .T. ) ;
#46 = DIRECTION ( 'NONE',  ( 1.000000000000000000, -0.000000000000000000, -0.000000000000000000 ) ) ;
#47 = PRODUCT_DEFINITION_CONTEXT ( 'detailed design', #348, 'design' ) ;
#48 = CARTESIAN_POINT ( 'NONE',  ( -80.00000000000000000, 75.00000000000000000, 29.99999999999895195 ) ) ;
#49 = DIRECTION ( 'NONE',  ( -0.000000000000000000, -0.000000000000000000, -1.000000000000000000 ) ) ;
#50 = EDGE_CURVE ( 'NONE', #366, #176, #7, .T. ) ;
#51 = VECTOR ( 'NONE', #780, 1000.000000000000000 ) ;
#52 = VECTOR ( 'NONE', #275, 1000.000000000000000 ) ;
#53 = SURFACE_STYLE_USAGE ( .BOTH. , #765 ) ;
#54 = ORIENTED_EDGE ( 'NONE', *, *, #41, .T. ) ;
#55 = ORIENTED_EDGE ( 'NONE', *, *, #118, .T. ) ;
#56 = ADVANCED_FACE ( 'NONE', ( #626 ), #940, .T. ) ;
#57 = AXIS2_PLACEMENT_3D ( 'NONE', #984, #67, #432 ) ;
#58 = CARTESIAN_POINT ( 'NONE',  ( -80.00000000000000000, -75.00000000000001421, 25.99999999999999645 ) ) ;
#59 = EDGE_LOOP ( 'NONE', ( #787, #328 ) ) ;
#60 = AXIS2_PLACEMENT_3D ( 'NONE', #354, #425, #831 ) ;
#61 = ORIENTED_EDGE ( 'NONE', *, *, #760, .F. ) ;
#62 = PRESENTATION_STYLE_ASSIGNMENT (( #53 ) ) ;
#63 = ORIENTED_EDGE ( 'NONE', *, *, #232, .T. ) ;
#64 = EDGE_CURVE ( 'NONE', #471, #211, #409, .T. ) ;
#65 = ORIENTED_EDGE ( 'NONE', *, *, #512, .T. ) ;
#66 = CYLINDRICAL_SURFACE ( 'NONE', #191, 4.000000000000007105 ) ;
#67 = DIRECTION ( 'NONE',  ( -0.000000000000000000, -1.000000000000000000, 6.982962677686267499E-15 ) ) ;
#68 = EDGE_CURVE ( 'NONE', #384, #484, #891, .T. ) ;
#69 = ORIENTED_EDGE ( 'NONE', *, *, #189, .T. ) ;
#70 = ORIENTED_EDGE ( 'NONE', *, *, #939, .F. ) ;
#71 = CARTESIAN_POINT ( 'NONE',  ( -100.0000000000000000, -75.00000000000000000, 0.000000000000000000 ) ) ;
#72 = LINE ( 'NONE', #3, #270 ) ;
#73 = VERTEX_POINT ( 'NONE', #728 ) ;
#74 = FACE_OUTER_BOUND ( 'NONE', #8, .T. ) ;
#75 = ORIENTED_EDGE ( 'NONE', *, *, #25, .T. ) ;
#76 = DIRECTION ( 'NONE',  ( 1.000000000000000000, 0.000000000000000000, -0.000000000000000000 ) ) ;
#77 = ORIENTED_EDGE ( 'NONE', *, *, #710, .T. ) ;
#78 = AXIS2_PLACEMENT_3D ( 'NONE', #21, #321, #253 ) ;
#79 = ORIENTED_EDGE ( 'NONE', *, *, #795, .T. ) ;
#80 = ADVANCED_FACE ( 'NONE', ( #714, #882 ), #487, .F. ) ;
#81 = DIRECTION ( 'NONE',  ( -1.000000000000000000, 0.000000000000000000, 0.000000000000000000 ) ) ;
#82 = CLOSED_SHELL ( 'NONE', ( #976, #56, #872, #336, #905, #602 ) ) ;
#83 = ADVANCED_BREP_SHAPE_REPRESENTATION ( '', ( #671, #119 ), #746 ) ;
#84 =( LENGTH_UNIT ( ) NAMED_UNIT ( * ) SI_UNIT ( .MILLI., .METRE. ) );
#85 = EDGE_LOOP ( 'NONE', ( #932, #848, #703, #217 ) ) ;
#86 = CARTESIAN_POINT ( 'NONE',  ( 80.00000000000000000, -70.00000000000000000, 29.99999999999996092 ) ) ;
#87 = VECTOR ( 'NONE', #712, 1000.000000000000000 ) ;
#88 = CARTESIAN_POINT ( 'NONE',  ( 59.99999999999998579, -69.99999999999998579, 60.00000000000000000 ) ) ;
#89 = ORIENTED_EDGE ( 'NONE', *, *, #924, .F. ) ;
#90 = DIRECTION ( 'NONE',  ( 0.000000000000000000, -6.938893903907222067E-15, -1.000000000000000000 ) ) ;
#91 = VECTOR ( 'NONE', #116, 1000.000000000000000 ) ;
#92 = DIRECTION ( 'NONE',  ( -0.000000000000000000, -1.000000000000000000, 6.982962677686267499E-15 ) ) ;
#93 = FACE_OUTER_BOUND ( 'NONE', #742, .T. ) ;
#94 = ITEM_DEFINED_TRANSFORMATION ( 'NONE', 'NONE', #374,  #119 ) ;
#95 = VERTEX_POINT ( 'NONE', #29 ) ;
#96 = DIRECTION ( 'NONE',  ( -1.000000000000000000, -0.000000000000000000, -0.000000000000000000 ) ) ;
#97 = LINE ( 'NONE', #871, #341 ) ;
#98 = SHAPE_REPRESENTATION_RELATIONSHIP ( 'NONE' , 'NONE' ,  #386, #218 ) ;
#99 = ORIENTED_EDGE ( 'NONE', *, *, #579, .T. ) ;
#100 = DIRECTION ( 'NONE',  ( 1.000000000000000000, 2.775557561562904367E-15, -0.000000000000000000 ) ) ;
#101 = ADVANCED_FACE ( 'NONE', ( #36 ), #950, .F. ) ;
#102 = VECTOR ( 'NONE', #92, 1000.000000000000000 ) ;
#103 = ADVANCED_FACE ( 'NONE', ( #340 ), #258, .F. ) ;
#104 = DIRECTION ( 'NONE',  ( -0.000000000000000000, -1.000000000000000000, 6.982962677686267499E-15 ) ) ;
#105 = CARTESIAN_POINT ( 'NONE',  ( 100.0000000000000000, -69.99999999999998579, 0.000000000000000000 ) ) ;
#106 = VERTEX_POINT ( 'NONE', #414 ) ;
#107 = CARTESIAN_POINT ( 'NONE',  ( 80.00000000000000000, 75.00000000000000000, 25.99999999999894840 ) ) ;
#108 = VECTOR ( 'NONE', #49, 1000.000000000000000 ) ;
#109 = EDGE_CURVE ( 'NONE', #106, #758, #734, .T. ) ;
#110 = EDGE_LOOP ( 'NONE', ( #645, #298, #132, #372 ) ) ;
#111 = LINE ( 'NONE', #586, #707 ) ;
#112 = VECTOR ( 'NONE', #894, 1000.000000000000000 ) ;
#113 = ORIENTED_EDGE ( 'NONE', *, *, #590, .F. ) ;
#114 = DIRECTION ( 'NONE',  ( -0.000000000000000000, -1.000000000000000000, 6.982962677686267499E-15 ) ) ;
#115 = FACE_OUTER_BOUND ( 'NONE', #970, .T. ) ;
#116 = DIRECTION ( 'NONE',  ( -0.000000000000000000, -0.000000000000000000, -1.000000000000000000 ) ) ;
#117 = LINE ( 'NONE', #274, #763 ) ;
#118 = EDGE_CURVE ( 'NONE', #605, #159, #961, .T. ) ;
#119 = AXIS2_PLACEMENT_3D ( 'NONE', #845, #536, #140 ) ;
#120 = PRODUCT_DEFINITION_SHAPE ( 'NONE', 'NONE',  #272 ) ;
#121 = CARTESIAN_POINT ( 'NONE',  ( -99.99999999999998579, -69.99999999999998579, 0.000000000000000000 ) ) ;
#122 = LINE ( 'NONE', #750, #718 ) ;
#123 = EDGE_CURVE ( 'NONE', #776, #230, #243, .T. ) ;
#124 = ORIENTED_EDGE ( 'NONE', *, *, #914, .F. ) ;
#125 = AXIS2_PLACEMENT_3D ( 'NONE', #918, #373, #299 ) ;
#126 = EDGE_CURVE ( 'NONE', #176, #366, #600, .T. ) ;
#127 = FACE_OUTER_BOUND ( 'NONE', #110, .T. ) ;
#128 = ORIENTED_EDGE ( 'NONE', *, *, #286, .F. ) ;
#129 = VECTOR ( 'NONE', #490, 1000.000000000000000 ) ;
#130 = FILL_AREA_STYLE_COLOUR ( '', #190 ) ;
#131 = ORIENTED_EDGE ( 'NONE', *, *, #33, .F. ) ;
#132 = ORIENTED_EDGE ( 'NONE', *, *, #752, .F. ) ;
#133 = VECTOR ( 'NONE', #510, 1000.000000000000000 ) ;
#134 = SHAPE_REPRESENTATION_RELATIONSHIP ( 'NONE' , 'NONE' ,  #352, #83 ) ;
#135 = EDGE_CURVE ( 'NONE', #973, #947, #717, .T. ) ;
#136 = ORIENTED_EDGE ( 'NONE', *, *, #862, .F. ) ;
#137 = CIRCLE ( 'NONE', #941, 4.000000000000003553 ) ;
#138 = ORIENTED_EDGE ( 'NONE', *, *, #123, .T. ) ;
#139 = LINE ( 'NONE', #276, #108 ) ;
#140 = DIRECTION ( 'NONE',  ( 1.000000000000000000, 0.000000000000000000, 0.000000000000000000 ) ) ;
#141 = ORIENTED_EDGE ( 'NONE', *, *, #924, .T. ) ;
#142 = ORIENTED_EDGE ( 'NONE', *, *, #319, .F. ) ;
#143 = PLANE ( 'NONE',  #902 ) ;
#144 = FILL_AREA_STYLE ('',( #130 ) ) ;
#145 = ORIENTED_EDGE ( 'NONE', *, *, #547, .T. ) ;
#146 = LINE ( 'NONE', #305, #574 ) ;
#147 = DIRECTION ( 'NONE',  ( 1.000000000000000000, 0.000000000000000000, 0.000000000000000000 ) ) ;
#148 = SHAPE_DEFINITION_REPRESENTATION ( #673, #352 ) ;
#149 = VERTEX_POINT ( 'NONE', #411 ) ;
#150 = EDGE_CURVE ( 'NONE', #159, #761, #557, .T. ) ;
#151 = CARTESIAN_POINT ( 'NONE',  ( 80.00000000000000000, -70.00000000000000000, 29.99999999999996092 ) ) ;
#152 = EDGE_LOOP ( 'NONE', ( #413, #61, #689, #985 ) ) ;
#153 = CARTESIAN_POINT ( 'NONE',  ( -60.00000000000000711, -69.99999999999998579, 0.000000000000000000 ) ) ;
#154 = DIRECTION ( 'NONE',  ( -0.000000000000000000, -1.000000000000000000, 6.982962677686267499E-15 ) ) ;
#155 = ORIENTED_EDGE ( 'NONE', *, *, #738, .F. ) ;
#156 = LINE ( 'NONE', #121, #52 ) ;
#157 = SURFACE_STYLE_USAGE ( .BOTH. , #876 ) ;
#158 = VECTOR ( 'NONE', #670, 1000.000000000000000 ) ;
#159 = VERTEX_POINT ( 'NONE', #238 ) ;
#160 = DIRECTION ( 'NONE',  ( -0.000000000000000000, -1.000000000000000000, -0.000000000000000000 ) ) ;
#161 = AXIS2_PLACEMENT_3D ( 'NONE', #168, #737, #887 ) ;
#162 = CONTEXT_DEPENDENT_SHAPE_REPRESENTATION ( #920, #198 ) ;
#163 = CARTESIAN_POINT ( 'NONE',  ( 80.00000000000000000, 123.0000000000001421, 33.99999999999862155 ) ) ;
#164 = ORIENTED_EDGE ( 'NONE', *, *, #150, .T. ) ;
#165 = CYLINDRICAL_SURFACE ( 'NONE', #792, 4.000000000000007105 ) ;
#166 = PRODUCT_RELATED_PRODUCT_CATEGORY ( 'part', '', ( #355 ) ) ;
#167 = PRESENTATION_STYLE_ASSIGNMENT (( #157 ) ) ;
#168 = CARTESIAN_POINT ( 'NONE',  ( 0.000000000000000000, 0.000000000000000000, 20.00000000000000000 ) ) ;
#169 = CARTESIAN_POINT ( 'NONE',  ( 100.0000000000000000, 75.00000000000000000, 60.00000000000000000 ) ) ;
#170 = DIRECTION ( 'NONE',  ( 0.000000000000000000, 0.000000000000000000, 1.000000000000000000 ) ) ;
#171 = ORIENTED_EDGE ( 'NONE', *, *, #927, .F. ) ;
#172 = DIRECTION ( 'NONE',  ( -0.000000000000000000, -1.000000000000000000, 6.982962677686267499E-15 ) ) ;
#173 = DIRECTION ( 'NONE',  ( -1.000000000000000000, -0.000000000000000000, -0.000000000000000000 ) ) ;
#174 = DIRECTION ( 'NONE',  ( -1.000000000000000000, 0.000000000000000000, 0.000000000000000000 ) ) ;
#175 = EDGE_CURVE ( 'NONE', #215, #293, #483, .T. ) ;
#176 = VERTEX_POINT ( 'NONE', #952 ) ;
#177 = CARTESIAN_POINT ( 'NONE',  ( 59.99999999999998579, -69.99999999999998579, 0.000000000000000000 ) ) ;
#178 = CARTESIAN_POINT ( 'NONE',  ( 0.000000000000000000, 0.000000000000000000, 0.000000000000000000 ) ) ;
#179 = PRODUCT_DEFINITION_CONTEXT ( 'detailed design', #790, 'design' ) ;
#180 = DIRECTION ( 'NONE',  ( 0.000000000000000000, -1.000000000000000000, 0.000000000000000000 ) ) ;
#181 = VECTOR ( 'NONE', #644, 1000.000000000000000 ) ;
#182 = ORIENTED_EDGE ( 'NONE', *, *, #207, .F. ) ;
#183 = DIRECTION ( 'NONE',  ( 0.000000000000000000, -1.000000000000000000, 6.982962677686266711E-15 ) ) ;
#184 = CIRCLE ( 'NONE', #676, 4.000000000000007105 ) ;
#185 = AXIS2_PLACEMENT_3D ( 'NONE', #231, #546, #868 ) ;
#186 = CARTESIAN_POINT ( 'NONE',  ( -80.00000000000000000, 75.00000000000000000, 29.99999999999895195 ) ) ;
#187 = ORIENTED_EDGE ( 'NONE', *, *, #668, .T. ) ;
#188 = CARTESIAN_POINT ( 'NONE',  ( -100.0000000000000000, 75.00000000000000000, 60.00000000000000000 ) ) ;
#189 = EDGE_CURVE ( 'NONE', #149, #719, #415, .T. ) ;
#190 = COLOUR_RGB ( '',0.7921568627450980005, 0.8196078431372548767, 0.9333333333333333481 ) ;
#191 = AXIS2_PLACEMENT_3D ( 'NONE', #197, #530, #300 ) ;
#192 = ORIENTED_EDGE ( 'NONE', *, *, #468, .T. ) ;
#193 = FACE_BOUND ( 'NONE', #224, .T. ) ;
#194 = CARTESIAN_POINT ( 'NONE',  ( 59.99999999999998579, 70.00000000000001421, 60.00000000000000000 ) ) ;
#195 = EDGE_CURVE ( 'NONE', #775, #239, #204, .T. ) ;
#196 = CARTESIAN_POINT ( 'NONE',  ( 0.000000000000000000, 0.000000000000000000, 20.00000000000000000 ) ) ;
#197 = CARTESIAN_POINT ( 'NONE',  ( 80.00000000000000000, 123.0000000000001137, 29.99999999999861444 ) ) ;
#198 = PRODUCT_DEFINITION_SHAPE ( 'NONE', 'NONE',  #997 ) ;
#199 = DIRECTION ( 'NONE',  ( 0.000000000000000000, 0.000000000000000000, 1.000000000000000000 ) ) ;
#200 = ADVANCED_FACE ( 'NONE', ( #552 ), #470, .F. ) ;
#201 = ORIENTED_EDGE ( 'NONE', *, *, #135, .T. ) ;
#202 = EDGE_LOOP ( 'NONE', ( #900, #692, #69, #821 ) ) ;
#203 = DIRECTION ( 'NONE',  ( -0.000000000000000000, -1.000000000000000000, 6.982962677686267499E-15 ) ) ;
#204 = CIRCLE ( 'NONE', #385, 4.000000000000007105 ) ;
#205 = ORIENTED_EDGE ( 'NONE', *, *, #377, .F. ) ;
#206 = AXIS2_PLACEMENT_3D ( 'NONE', #497, #180, #816 ) ;
#207 = EDGE_CURVE ( 'NONE', #285, #522, #637, .T. ) ;
#208 = VERTEX_POINT ( 'NONE', #493 ) ;
#209 = CIRCLE ( 'NONE', #518, 2.000000000000000000 ) ;
#210 = DIRECTION ( 'NONE',  ( 0.000000000000000000, -6.938893903907215756E-15, -1.000000000000000000 ) ) ;
#211 = VERTEX_POINT ( 'NONE', #481 ) ;
#212 = CARTESIAN_POINT ( 'NONE',  ( 100.0000000000000000, -69.99999999999998579, 60.00000000000000000 ) ) ;
#213 = AXIS2_PLACEMENT_3D ( 'NONE', #48, #834, #39 ) ;
#214 = EDGE_LOOP ( 'NONE', ( #520, #416 ) ) ;
#215 = VERTEX_POINT ( 'NONE', #236 ) ;
#216 = LINE ( 'NONE', #535, #847 ) ;
#217 = ORIENTED_EDGE ( 'NONE', *, *, #890, .T. ) ;
#218 = ADVANCED_BREP_SHAPE_REPRESENTATION ( '', ( #992, #119 ), #295 ) ;
#219 = ORIENTED_EDGE ( 'NONE', *, *, #939, .T. ) ;
#220 = FACE_BOUND ( 'NONE', #500, .T. ) ;
#221 = PRODUCT_DEFINITION_FORMATION_WITH_SPECIFIED_SOURCE ( 'ä»', '', #277, .NOT_KNOWN. ) ;
#222 = VECTOR ( 'NONE', #23, 1000.000000000000000 ) ;
#223 = CIRCLE ( 'NONE', #930, 4.000000000000003553 ) ;
#224 = EDGE_LOOP ( 'NONE', ( #942, #913 ) ) ;
#225 = FACE_OUTER_BOUND ( 'NONE', #781, .T. ) ;
#226 = EDGE_LOOP ( 'NONE', ( #99, #987 ) ) ;
#227 = FACE_BOUND ( 'NONE', #879, .T. ) ;
#228 = DIRECTION ( 'NONE',  ( 1.000000000000000000, 0.000000000000000000, 0.000000000000000000 ) ) ;
#229 = VECTOR ( 'NONE', #855, 1000.000000000000000 ) ;
#230 = VERTEX_POINT ( 'NONE', #793 ) ;
#231 = CARTESIAN_POINT ( 'NONE',  ( -100.0000000000000000, -75.00000000000000000, 60.00000000000000000 ) ) ;
#232 = EDGE_CURVE ( 'NONE', #691, #534, #873, .T. ) ;
#233 = SURFACE_STYLE_FILL_AREA ( #931 ) ;
#234 = CIRCLE ( 'NONE', #820, 15.00000000000000000 ) ;
#235 = VERTEX_POINT ( 'NONE', #715 ) ;
#236 = CARTESIAN_POINT ( 'NONE',  ( 80.00000000000000000, -70.00000000000000000, 33.99999999999996447 ) ) ;
#237 = DIRECTION ( 'NONE',  ( 1.059569099126630460E-14, 1.000000000000000000, -3.315680992257065245E-29 ) ) ;
#238 = CARTESIAN_POINT ( 'NONE',  ( 100.0000000000000000, -75.00000000000000000, 0.000000000000000000 ) ) ;
#239 = VERTEX_POINT ( 'NONE', #883 ) ;
#240 = CARTESIAN_POINT ( 'NONE',  ( 0.000000000000000000, 0.000000000000000000, 0.000000000000000000 ) ) ;
#241 = LINE ( 'NONE', #408, #449 ) ;
#242 = AXIS2_PLACEMENT_3D ( 'NONE', #398, #957, #147 ) ;
#243 = LINE ( 'NONE', #503, #387 ) ;
#244 = ADVANCED_FACE ( 'NONE', ( #550 ), #320, .F. ) ;
#245 = ITEM_DEFINED_TRANSFORMATION ( 'NONE', 'NONE', #256,  #119 ) ;
#246 = CARTESIAN_POINT ( 'NONE',  ( -99.99999999999998579, 70.00000000000001421, 0.000000000000000000 ) ) ;
#247 = PRODUCT_DEFINITION_FORMATION_WITH_SPECIFIED_SOURCE ( 'ä»', '', #355, .NOT_KNOWN. ) ;
#248 = ORIENTED_EDGE ( 'NONE', *, *, #838, .F. ) ;
#249 = LINE ( 'NONE', #875, #129 ) ;
#250 = CARTESIAN_POINT ( 'NONE',  ( 0.000000000000000000, 0.000000000000000000, 0.000000000000000000 ) ) ;
#251 = LINE ( 'NONE', #777, #989 ) ;
#252 =( NAMED_UNIT ( * ) SI_UNIT ( $, .STERADIAN. ) SOLID_ANGLE_UNIT ( ) );
#253 = DIRECTION ( 'NONE',  ( 0.000000000000000000, 0.000000000000000000, 1.000000000000000000 ) ) ;
#254 = EDGE_LOOP ( 'NONE', ( #205, #853, #917, #681 ) ) ;
#255 = DIRECTION ( 'NONE',  ( 1.000000000000000000, 0.000000000000000000, 0.000000000000000000 ) ) ;
#256 = AXIS2_PLACEMENT_3D ( 'NONE', #308, #237, #551 ) ;
#257 = LINE ( 'NONE', #944, #51 ) ;
#258 = CYLINDRICAL_SURFACE ( 'NONE', #433, 4.000000000000007105 ) ;
#259 = DIRECTION ( 'NONE',  ( 0.000000000000000000, -1.000000000000000000, 0.000000000000000000 ) ) ;
#260 = APPLICATION_PROTOCOL_DEFINITION ( 'draft international standard', 'automotive_design', 1998, #359 ) ;
#261 = EDGE_LOOP ( 'NONE', ( #664, #450 ) ) ;
#262 = AXIS2_PLACEMENT_3D ( 'NONE', #169, #174, #729 ) ;
#263 = AXIS2_PLACEMENT_3D ( 'NONE', #186, #641, #968 ) ;
#264 = EDGE_LOOP ( 'NONE', ( #711, #514, #995, #545 ) ) ;
#265 = CARTESIAN_POINT ( 'NONE',  ( -99.99999999999998579, 70.00000000000001421, 0.000000000000000000 ) ) ;
#266 = EDGE_CURVE ( 'NONE', #208, #679, #685, .T. ) ;
#267 = VECTOR ( 'NONE', #971, 1000.000000000000000 ) ;
#268 = ORIENTED_EDGE ( 'NONE', *, *, #109, .F. ) ;
#269 = CARTESIAN_POINT ( 'NONE',  ( -80.00000000000000000, 70.00000000000001421, 29.99999999999898748 ) ) ;
#270 = VECTOR ( 'NONE', #594, 1000.000000000000000 ) ;
#271 = UNCERTAINTY_MEASURE_WITH_UNIT (LENGTH_MEASURE( 1.000000000000000082E-05 ), #361, 'distance_accuracy_value', 'NONE');
#272 = PRODUCT_DEFINITION ( 'æœ', '', #221, #47 ) ;
#273 = CARTESIAN_POINT ( 'NONE',  ( 100.0000000000000000, 75.00000000000000000, 60.00000000000000000 ) ) ;
#274 = CARTESIAN_POINT ( 'NONE',  ( -2.000000000000000000, 0.000000000000000000, 20.00000000000000000 ) ) ;
#275 = DIRECTION ( 'NONE',  ( -1.000000000000000000, -0.000000000000000000, -0.000000000000000000 ) ) ;
#276 = CARTESIAN_POINT ( 'NONE',  ( -60.00000000000000711, -69.99999999999998579, 60.00000000000000000 ) ) ;
#277 = PRODUCT ( '\X2\8eab4f53\X0\', '\X2\8eab4f53\X0\', '', ( #391 ) ) ;
#278 = MECHANICAL_DESIGN_GEOMETRIC_PRESENTATION_REPRESENTATION (  '', ( #755 ), #412 ) ;
#279 = EDGE_CURVE ( 'NONE', #870, #285, #97, .T. ) ;
#280 = EDGE_CURVE ( 'NONE', #719, #293, #554, .T. ) ;
#281 = DIRECTION ( 'NONE',  ( -1.000000000000000000, -0.000000000000000000, -0.000000000000000000 ) ) ;
#282 = DIRECTION ( 'NONE',  ( 1.000000000000000000, -0.000000000000000000, -0.000000000000000000 ) ) ;
#283 = ORIENTED_EDGE ( 'NONE', *, *, #189, .F. ) ;
#284 = DIRECTION ( 'NONE',  ( 0.000000000000000000, 0.000000000000000000, 1.000000000000000000 ) ) ;
#285 = VERTEX_POINT ( 'NONE', #805 ) ;
#286 = EDGE_CURVE ( 'NONE', #679, #73, #24, .T. ) ;
#287 = EDGE_LOOP ( 'NONE', ( #603, #182, #400, #311 ) ) ;
#288 = CYLINDRICAL_SURFACE ( 'NONE', #937, 4.000000000000007105 ) ;
#289 = VECTOR ( 'NONE', #154, 1000.000000000000000 ) ;
#290 = EDGE_LOOP ( 'NONE', ( #923, #895 ) ) ;
#291 = EDGE_CURVE ( 'NONE', #235, #739, #251, .T. ) ;
#292 = ORIENTED_EDGE ( 'NONE', *, *, #589, .F. ) ;
#293 = VERTEX_POINT ( 'NONE', #315 ) ;
#294 = DIRECTION ( 'NONE',  ( -0.000000000000000000, -0.000000000000000000, -1.000000000000000000 ) ) ;
#295 =( GEOMETRIC_REPRESENTATION_CONTEXT ( 3 ) GLOBAL_UNCERTAINTY_ASSIGNED_CONTEXT ( ( #663 ) ) GLOBAL_UNIT_ASSIGNED_CONTEXT ( ( #731, #778, #252 ) ) REPRESENTATION_CONTEXT ( 'NONE', 'WORKASPACE' ) );
#296 = CARTESIAN_POINT ( 'NONE',  ( 100.0000000000000000, 70.00000000000001421, 60.00000000000000000 ) ) ;
#297 = ADVANCED_FACE ( 'NONE', ( #93 ), #541, .F. ) ;
#298 = ORIENTED_EDGE ( 'NONE', *, *, #738, .T. ) ;
#299 = DIRECTION ( 'NONE',  ( 0.000000000000000000, 0.000000000000000000, -1.000000000000000000 ) ) ;
#300 = DIRECTION ( 'NONE',  ( 0.000000000000000000, -6.938893903907215756E-15, -1.000000000000000000 ) ) ;
#301 = FACE_OUTER_BOUND ( 'NONE', #202, .T. ) ;
#302 = ORIENTED_EDGE ( 'NONE', *, *, #579, .F. ) ;
#303 = CIRCLE ( 'NONE', #125, 4.000000000000003553 ) ;
#304 = CARTESIAN_POINT ( 'NONE',  ( 100.0000000000000000, 70.00000000000001421, 0.000000000000000000 ) ) ;
#305 = CARTESIAN_POINT ( 'NONE',  ( -60.00000000000000711, 70.00000000000001421, 60.00000000000000000 ) ) ;
#306 = DIRECTION ( 'NONE',  ( -2.775557561562888984E-15, -1.000000000000000000, -0.000000000000000000 ) ) ;
#307 = VECTOR ( 'NONE', #173, 1000.000000000000000 ) ;
#308 = CARTESIAN_POINT ( 'NONE',  ( 1031.287521317175560, 1048.026038984207389, 1035.456881692272191 ) ) ;
#309 = AXIS2_PLACEMENT_3D ( 'NONE', #395, #100, #32 ) ;
#310 = ADVANCED_FACE ( 'NONE', ( #933 ), #404, .F. ) ;
#311 = ORIENTED_EDGE ( 'NONE', *, *, #760, .T. ) ;
#312 = FACE_OUTER_BOUND ( 'NONE', #287, .T. ) ;
#313 = DIRECTION ( 'NONE',  ( 0.000000000000000000, 0.000000000000000000, 1.000000000000000000 ) ) ;
#314 = DIRECTION ( 'NONE',  ( 0.000000000000000000, 0.000000000000000000, 1.000000000000000000 ) ) ;
#315 = CARTESIAN_POINT ( 'NONE',  ( 80.00000000000000000, -74.99999999999995737, 34.00000000000000000 ) ) ;
#316 = VECTOR ( 'NONE', #964, 1000.000000000000000 ) ;
#317 = ORIENTED_EDGE ( 'NONE', *, *, #890, .F. ) ;
#318 = DIRECTION ( 'NONE',  ( 0.000000000000000000, 0.000000000000000000, 1.000000000000000000 ) ) ;
#319 = EDGE_CURVE ( 'NONE', #758, #973, #708, .T. ) ;
#320 = PLANE ( 'NONE',  #657 ) ;
#321 = DIRECTION ( 'NONE',  ( -1.000000000000000000, 0.000000000000000000, 0.000000000000000000 ) ) ;
#322 = ORIENTED_EDGE ( 'NONE', *, *, #499, .T. ) ;
#323 = CARTESIAN_POINT ( 'NONE',  ( 80.00000000000000000, -75.00000000000001421, 25.99999999999999645 ) ) ;
#324 = LINE ( 'NONE', #640, #617 ) ;
#325 = DIRECTION ( 'NONE',  ( -0.000000000000000000, 1.000000000000000000, -0.000000000000000000 ) ) ;
#326 = CARTESIAN_POINT ( 'NONE',  ( -15.00000000000000000, 0.000000000000000000, 0.000000000000000000 ) ) ;
#327 = SHAPE_DEFINITION_REPRESENTATION ( #979, #386 ) ;
#328 = ORIENTED_EDGE ( 'NONE', *, *, #68, .T. ) ;
#329 =( NAMED_UNIT ( * ) PLANE_ANGLE_UNIT ( ) SI_UNIT ( $, .RADIAN. ) );
#330 = FACE_OUTER_BOUND ( 'NONE', #389, .T. ) ;
#331 = DIRECTION ( 'NONE',  ( -1.000000000000000000, 0.000000000000000000, 0.000000000000000000 ) ) ;
#332 = CARTESIAN_POINT ( 'NONE',  ( 0.000000000000000000, 0.000000000000000000, 0.000000000000000000 ) ) ;
#333 = EDGE_LOOP ( 'NONE', ( #596, #124, #652, #171 ) ) ;
#334 = DIRECTION ( 'NONE',  ( 0.000000000000000000, 0.000000000000000000, 1.000000000000000000 ) ) ;
#335 = DIRECTION ( 'NONE',  ( -0.000000000000000000, 1.000000000000000000, -0.000000000000000000 ) ) ;
#336 = ADVANCED_FACE ( 'NONE', ( #797, #227 ), #722, .F. ) ;
#337 = VERTEX_POINT ( 'NONE', #153 ) ;
#338 = LINE ( 'NONE', #655, #316 ) ;
#339 = CARTESIAN_POINT ( 'NONE',  ( -2.000000000000000000, 0.000000000000000000, 20.00000000000000000 ) ) ;
#340 = FACE_OUTER_BOUND ( 'NONE', #448, .T. ) ;
#341 = VECTOR ( 'NONE', #306, 1000.000000000000000 ) ;
#342 = ORIENTED_EDGE ( 'NONE', *, *, #662, .T. ) ;
#343 = DIRECTION ( 'NONE',  ( 0.000000000000000000, -1.000000000000000000, 0.000000000000000000 ) ) ;
#344 = PRODUCT_DEFINITION ( 'æœ', '', #247, #179 ) ;
#345 = VERTEX_POINT ( 'NONE', #326 ) ;
#346 = CARTESIAN_POINT ( 'NONE',  ( 80.00000000000000000, 123.0000000000001421, 33.99999999999862155 ) ) ;
#347 = LINE ( 'NONE', #375, #544 ) ;
#348 = APPLICATION_CONTEXT ( 'automotive_design' ) ;
#349 =( GEOMETRIC_REPRESENTATION_CONTEXT ( 3 ) GLOBAL_UNCERTAINTY_ASSIGNED_CONTEXT ( ( #751 ) ) GLOBAL_UNIT_ASSIGNED_CONTEXT ( ( #84, #878, #405 ) ) REPRESENTATION_CONTEXT ( 'NONE', 'WORKASPACE' ) );
#350 = LINE ( 'NONE', #194, #133 ) ;
#351 = FACE_BOUND ( 'NONE', #214, .T. ) ;
#352 = SHAPE_REPRESENTATION ( 'body', ( #119 ), #746 ) ;
#353 = DIRECTION ( 'NONE',  ( -0.000000000000000000, -0.000000000000000000, -1.000000000000000000 ) ) ;
#354 = CARTESIAN_POINT ( 'NONE',  ( 100.0000000000000000, -75.00000000000000000, 60.00000000000000000 ) ) ;
#355 = PRODUCT ( '\X2\6267884c5668\X0\', '\X2\6267884c5668\X0\', '', ( #884 ) ) ;
#356 = VECTOR ( 'NONE', #647, 1000.000000000000000 ) ;
#357 = AXIS2_PLACEMENT_3D ( 'NONE', #908, #199, #981 ) ;
#358 = VERTEX_POINT ( 'NONE', #642 ) ;
#359 = APPLICATION_CONTEXT ( 'automotive_design' ) ;
#360 = ADVANCED_FACE ( 'NONE', ( #563, #30 ), #650, .F. ) ;
#361 =( LENGTH_UNIT ( ) NAMED_UNIT ( * ) SI_UNIT ( .MILLI., .METRE. ) );
#362 = AXIS2_PLACEMENT_3D ( 'NONE', #431, #675, #2 ) ;
#363 = DIRECTION ( 'NONE',  ( 0.000000000000000000, 0.000000000000000000, 1.000000000000000000 ) ) ;
#364 = ORIENTED_EDGE ( 'NONE', *, *, #745, .T. ) ;
#365 = CARTESIAN_POINT ( 'NONE',  ( 100.0000000000000000, -69.99999999999998579, 60.00000000000000000 ) ) ;
#366 = VERTEX_POINT ( 'NONE', #339 ) ;
#367 = ORIENTED_EDGE ( 'NONE', *, *, #266, .T. ) ;
#368 = EDGE_CURVE ( 'NONE', #605, #575, #585, .T. ) ;
#369 = CYLINDRICAL_SURFACE ( 'NONE', #753, 4.000000000000007105 ) ;
#370 = DIRECTION ( 'NONE',  ( 0.000000000000000000, -6.938893903907215756E-15, -1.000000000000000000 ) ) ;
#371 = CARTESIAN_POINT ( 'NONE',  ( 0.000000000000000000, 0.000000000000000000, 20.00000000000000000 ) ) ;
#372 = ORIENTED_EDGE ( 'NONE', *, *, #396, .F. ) ;
#373 = DIRECTION ( 'NONE',  ( 0.000000000000000000, -1.000000000000000000, 0.000000000000000000 ) ) ;
#374 = AXIS2_PLACEMENT_3D ( 'NONE', #700, #542, #461 ) ;
#375 = CARTESIAN_POINT ( 'NONE',  ( -100.0000000000000000, 75.00000000000000000, 60.00000000000000000 ) ) ;
#376 = CARTESIAN_POINT ( 'NONE',  ( 0.000000000000000000, 0.000000000000000000, 20.00000000000000000 ) ) ;
#377 = EDGE_CURVE ( 'NONE', #775, #42, #525, .T. ) ;
#378 = EDGE_LOOP ( 'NONE', ( #489, #445, #26, #113 ) ) ;
#379 = CARTESIAN_POINT ( 'NONE',  ( 0.000000000000000000, 0.000000000000000000, 20.00000000000000000 ) ) ;
#380 = FACE_OUTER_BOUND ( 'NONE', #254, .T. ) ;
#381 = EDGE_CURVE ( 'NONE', #885, #522, #849, .T. ) ;
#382 = CARTESIAN_POINT ( 'NONE',  ( -60.00000000000000711, 70.00000000000001421, 60.00000000000000000 ) ) ;
#383 = SHAPE_DEFINITION_REPRESENTATION ( #120, #597 ) ;
#384 = VERTEX_POINT ( 'NONE', #451 ) ;
#385 = AXIS2_PLACEMENT_3D ( 'NONE', #801, #392, #14 ) ;
#386 = SHAPE_REPRESENTATION ( '\X2\6267884c5668\X0\', ( #119 ), #295 ) ;
#387 = VECTOR ( 'NONE', #824, 1000.000000000000000 ) ;
#388 = DIRECTION ( 'NONE',  ( -1.000000000000000000, 0.000000000000000000, 0.000000000000000000 ) ) ;
#389 = EDGE_LOOP ( 'NONE', ( #268, #807, #766, #935, #842, #70, #839, #654, #802, #607, #638, #142 ) ) ;
#390 = CARTESIAN_POINT ( 'NONE',  ( 80.00000000000000000, -74.99999999999998579, 30.00000000000000000 ) ) ;
#391 = PRODUCT_CONTEXT ( 'NONE', #769, 'mechanical' ) ;
#392 = DIRECTION ( 'NONE',  ( 0.000000000000000000, -1.000000000000000000, 0.000000000000000000 ) ) ;
#393 = CIRCLE ( 'NONE', #969, 15.00000000000000000 ) ;
#394 = ORIENTED_EDGE ( 'NONE', *, *, #858, .T. ) ;
#395 = CARTESIAN_POINT ( 'NONE',  ( -99.99999999999998579, 70.00000000000001421, 60.00000000000000000 ) ) ;
#396 = EDGE_CURVE ( 'NONE', #366, #813, #117, .T. ) ;
#397 = PLANE ( 'NONE',  #730 ) ;
#398 = CARTESIAN_POINT ( 'NONE',  ( 0.000000000000000000, 0.000000000000000000, 20.00000000000000000 ) ) ;
#399 = APPLICATION_PROTOCOL_DEFINITION ( 'draft international standard', 'automotive_design', 1998, #790 ) ;
#400 = ORIENTED_EDGE ( 'NONE', *, *, #279, .F. ) ;
#401 = DIRECTION ( 'NONE',  ( 0.000000000000000000, 1.000000000000000000, -0.000000000000000000 ) ) ;
#402 = DIRECTION ( 'NONE',  ( -1.000000000000000000, 0.000000000000000000, 0.000000000000000000 ) ) ;
#403 = AXIS2_PLACEMENT_3D ( 'NONE', #748, #744, #370 ) ;
#404 = PLANE ( 'NONE',  #262 ) ;
#405 =( NAMED_UNIT ( * ) SI_UNIT ( $, .STERADIAN. ) SOLID_ANGLE_UNIT ( ) );
#406 = CARTESIAN_POINT ( 'NONE',  ( -100.0000000000000000, -75.00000000000000000, 60.00000000000000000 ) ) ;
#407 = ORIENTED_EDGE ( 'NONE', *, *, #280, .F. ) ;
#408 = CARTESIAN_POINT ( 'NONE',  ( -15.00000000000000000, 0.000000000000000000, 20.00000000000000000 ) ) ;
#409 = LINE ( 'NONE', #809, #702 ) ;
#410 = DIRECTION ( 'NONE',  ( 0.000000000000000000, 0.000000000000000000, -1.000000000000000000 ) ) ;
#411 = CARTESIAN_POINT ( 'NONE',  ( 80.00000000000000000, -70.00000000000000000, 25.99999999999995381 ) ) ;
#412 =( GEOMETRIC_REPRESENTATION_CONTEXT ( 3 ) GLOBAL_UNCERTAINTY_ASSIGNED_CONTEXT ( ( #570 ) ) GLOBAL_UNIT_ASSIGNED_CONTEXT ( ( #624, #329, #646 ) ) REPRESENTATION_CONTEXT ( 'NONE', 'WORKASPACE' ) );
#413 = ORIENTED_EDGE ( 'NONE', *, *, #827, .T. ) ;
#414 = CARTESIAN_POINT ( 'NONE',  ( 100.0000000000000000, 70.00000000000001421, 0.000000000000000000 ) ) ;
#415 = LINE ( 'NONE', #476, #289 ) ;
#416 = ORIENTED_EDGE ( 'NONE', *, *, #795, .F. ) ;
#417 = PLANE ( 'NONE',  #893 ) ;
#418 = AXIS2_PLACEMENT_3D ( 'NONE', #975, #982, #44 ) ;
#419 = EDGE_CURVE ( 'NONE', #239, #775, #630, .T. ) ;
#420 = ORIENTED_EDGE ( 'NONE', *, *, #499, .F. ) ;
#421 = DIRECTION ( 'NONE',  ( -0.000000000000000000, -0.000000000000000000, -1.000000000000000000 ) ) ;
#422 = VECTOR ( 'NONE', #565, 1000.000000000000000 ) ;
#423 = ORIENTED_EDGE ( 'NONE', *, *, #590, .T. ) ;
#424 = CARTESIAN_POINT ( 'NONE',  ( -99.99999999999998579, 70.00000000000001421, 60.00000000000000000 ) ) ;
#425 = DIRECTION ( 'NONE',  ( 0.000000000000000000, 1.000000000000000000, -0.000000000000000000 ) ) ;
#426 = EDGE_CURVE ( 'NONE', #921, #973, #347, .T. ) ;
#427 = LINE ( 'NONE', #424, #619 ) ;
#428 = CARTESIAN_POINT ( 'NONE',  ( 59.99999999999998579, -69.99999999999998579, 60.00000000000000000 ) ) ;
#429 = AXIS2_PLACEMENT_3D ( 'NONE', #723, #556, #482 ) ;
#430 = LINE ( 'NONE', #749, #267 ) ;
#431 = CARTESIAN_POINT ( 'NONE',  ( -80.00000000000000000, -70.00000000000000000, 29.99999999999996092 ) ) ;
#432 = DIRECTION ( 'NONE',  ( 0.000000000000000000, -6.938893903907215756E-15, -1.000000000000000000 ) ) ;
#433 = AXIS2_PLACEMENT_3D ( 'NONE', #20, #104, #658 ) ;
#434 = PRESENTATION_LAYER_ASSIGNMENT (  '', '', ( #755 ) ) ;
#435 = VECTOR ( 'NONE', #281, 1000.000000000000000 ) ;
#436 = EDGE_CURVE ( 'NONE', #739, #337, #139, .T. ) ;
#437 = EDGE_LOOP ( 'NONE', ( #77, #527 ) ) ;
#438 = ORIENTED_EDGE ( 'NONE', *, *, #512, .F. ) ;
#439 = CIRCLE ( 'NONE', #798, 4.000000000000003553 ) ;
#440 = ORIENTED_EDGE ( 'NONE', *, *, #488, .F. ) ;
#441 = DIRECTION ( 'NONE',  ( 1.000000000000000000, 0.000000000000000000, 0.000000000000000000 ) ) ;
#442 = AXIS2_PLACEMENT_3D ( 'NONE', #178, #318, #457 ) ;
#443 = ORIENTED_EDGE ( 'NONE', *, *, #175, .T. ) ;
#444 = EDGE_CURVE ( 'NONE', #239, #996, #693, .T. ) ;
#445 = ORIENTED_EDGE ( 'NONE', *, *, #897, .T. ) ;
#446 = DIRECTION ( 'NONE',  ( -0.000000000000000000, -1.000000000000000000, 6.982962677686267499E-15 ) ) ;
#447 = DIRECTION ( 'NONE',  ( -0.000000000000000000, -0.000000000000000000, -1.000000000000000000 ) ) ;
#448 = EDGE_LOOP ( 'NONE', ( #462, #615, #861, #136 ) ) ;
#449 = VECTOR ( 'NONE', #616, 1000.000000000000000 ) ;
#450 = ORIENTED_EDGE ( 'NONE', *, *, #126, .F. ) ;
#451 = CARTESIAN_POINT ( 'NONE',  ( -80.00000000000000000, 75.00000000000000000, 33.99999999999895550 ) ) ;
#452 =( NAMED_UNIT ( * ) SI_UNIT ( $, .STERADIAN. ) SOLID_ANGLE_UNIT ( ) );
#453 = EDGE_LOOP ( 'NONE', ( #201, #844, #248, #528 ) ) ;
#454 = CARTESIAN_POINT ( 'NONE',  ( 0.000000000000000000, 0.000000000000000000, 20.00000000000000000 ) ) ;
#455 = DIRECTION ( 'NONE',  ( 1.000000000000000000, 0.000000000000000000, 0.000000000000000000 ) ) ;
#456 = VERTEX_POINT ( 'NONE', #909 ) ;
#457 = DIRECTION ( 'NONE',  ( 1.000000000000000000, 0.000000000000000000, 0.000000000000000000 ) ) ;
#458 = ORIENTED_EDGE ( 'NONE', *, *, #752, .T. ) ;
#459 = CARTESIAN_POINT ( 'NONE',  ( 80.00000000000000000, 75.00000000000000000, 29.99999999999895195 ) ) ;
#460 = ADVANCED_FACE ( 'NONE', ( #584 ), #66, .F. ) ;
#461 = DIRECTION ( 'NONE',  ( 3.087807787238828252E-15, 1.059569099126626358E-14, 1.000000000000000000 ) ) ;
#462 = ORIENTED_EDGE ( 'NONE', *, *, #68, .F. ) ;
#463 = FACE_OUTER_BOUND ( 'NONE', #453, .T. ) ;
#464 = AXIS2_PLACEMENT_3D ( 'NONE', #332, #865, #76 ) ;
#465 = VECTOR ( 'NONE', #634, 1000.000000000000000 ) ;
#466 = CYLINDRICAL_SURFACE ( 'NONE', #582, 4.000000000000007105 ) ;
#467 = ORIENTED_EDGE ( 'NONE', *, *, #25, .F. ) ;
#468 = EDGE_CURVE ( 'NONE', #211, #34, #216, .T. ) ;
#469 = DIRECTION ( 'NONE',  ( 0.000000000000000000, -1.000000000000000000, 6.982962677686266711E-15 ) ) ;
#470 = PLANE ( 'NONE',  #78 ) ;
#471 = VERTEX_POINT ( 'NONE', #428 ) ;
#472 = DIRECTION ( 'NONE',  ( 0.000000000000000000, 0.000000000000000000, 1.000000000000000000 ) ) ;
#473 = CARTESIAN_POINT ( 'NONE',  ( 15.00000000000000000, 1.836970198721029589E-15, 0.000000000000000000 ) ) ;
#474 = CARTESIAN_POINT ( 'NONE',  ( -100.0000000000000000, 75.00000000000000000, 0.000000000000000000 ) ) ;
#475 = AXIS2_PLACEMENT_3D ( 'NONE', #621, #709, #651 ) ;
#476 = CARTESIAN_POINT ( 'NONE',  ( 80.00000000000000000, 123.0000000000000853, 25.99999999999860734 ) ) ;
#477 = EDGE_LOOP ( 'NONE', ( #601, #767, #302, #128 ) ) ;
#478 = DIRECTION ( 'NONE',  ( 0.000000000000000000, -6.938893903907215756E-15, -1.000000000000000000 ) ) ;
#479 = CARTESIAN_POINT ( 'NONE',  ( 0.000000000000000000, 0.000000000000000000, 0.000000000000000000 ) ) ;
#480 = ADVANCED_FACE ( 'NONE', ( #115 ), #507, .F. ) ;
#481 = CARTESIAN_POINT ( 'NONE',  ( 59.99999999999998579, 70.00000000000001421, 60.00000000000000000 ) ) ;
#482 = DIRECTION ( 'NONE',  ( 1.000000000000000000, 0.000000000000000000, 0.000000000000000000 ) ) ;
#483 = LINE ( 'NONE', #163, #513 ) ;
#484 = VERTEX_POINT ( 'NONE', #612 ) ;
#485 = CARTESIAN_POINT ( 'NONE',  ( -80.00000000000000000, 70.00000000000001421, 29.99999999999898748 ) ) ;
#486 = CARTESIAN_POINT ( 'NONE',  ( 100.0000000000000000, -75.00000000000000000, 60.00000000000000000 ) ) ;
#487 = PLANE ( 'NONE',  #206 ) ;
#488 = EDGE_CURVE ( 'NONE', #358, #73, #137, .T. ) ;
#489 = ORIENTED_EDGE ( 'NONE', *, *, #232, .F. ) ;
#490 = DIRECTION ( 'NONE',  ( -0.000000000000000000, -0.000000000000000000, -1.000000000000000000 ) ) ;
#491 = VECTOR ( 'NONE', #704, 1000.000000000000000 ) ;
#492 = ADVANCED_FACE ( 'NONE', ( #351, #220, #587 ), #854, .F. ) ;
#493 = CARTESIAN_POINT ( 'NONE',  ( 80.00000000000000000, 75.00000000000000000, 33.99999999999895550 ) ) ;
#494 = ORIENTED_EDGE ( 'NONE', *, *, #291, .F. ) ;
#495 = FACE_BOUND ( 'NONE', #261, .T. ) ;
#496 = CIRCLE ( 'NONE', #716, 15.00000000000000000 ) ;
#497 = CARTESIAN_POINT ( 'NONE',  ( 59.99999999999998579, -69.99999999999998579, 60.00000000000000000 ) ) ;
#498 = CIRCLE ( 'NONE', #442, 2.000000000000000000 ) ;
#499 = EDGE_CURVE ( 'NONE', #293, #719, #866, .T. ) ;
#500 = EDGE_LOOP ( 'NONE', ( #407, #420 ) ) ;
#501 = FACE_OUTER_BOUND ( 'NONE', #152, .T. ) ;
#502 = APPLICATION_CONTEXT ( 'automotive_design' ) ;
#503 = CARTESIAN_POINT ( 'NONE',  ( 59.99999999999998579, 70.00000000000001421, 0.000000000000000000 ) ) ;
#504 = DIRECTION ( 'NONE',  ( -0.000000000000000000, -0.000000000000000000, -1.000000000000000000 ) ) ;
#505 = FACE_BOUND ( 'NONE', #226, .T. ) ;
#506 = FACE_BOUND ( 'NONE', #59, .T. ) ;
#507 = CYLINDRICAL_SURFACE ( 'NONE', #403, 4.000000000000007105 ) ;
#508 = PRODUCT_DEFINITION_SHAPE ( 'NONE', 'NONE',  #998 ) ;
#509 = PRODUCT_DEFINITION_CONTEXT ( 'detailed design', #502, 'design' ) ;
#510 = DIRECTION ( 'NONE',  ( -0.000000000000000000, -0.000000000000000000, -1.000000000000000000 ) ) ;
#511 = ORIENTED_EDGE ( 'NONE', *, *, #648, .T. ) ;
#512 = EDGE_CURVE ( 'NONE', #95, #235, #122, .T. ) ;
#513 = VECTOR ( 'NONE', #543, 1000.000000000000000 ) ;
#514 = ORIENTED_EDGE ( 'NONE', *, *, #858, .F. ) ;
#515 = LINE ( 'NONE', #840, #229 ) ;
#516 = VECTOR ( 'NONE', #294, 1000.000000000000000 ) ;
#517 = VERTEX_POINT ( 'NONE', #727 ) ;
#518 = AXIS2_PLACEMENT_3D ( 'NONE', #240, #472, #960 ) ;
#519 = ADVANCED_FACE ( 'NONE', ( #505, #604 ), #143, .F. ) ;
#520 = ORIENTED_EDGE ( 'NONE', *, *, #677, .F. ) ;
#521 =( NAMED_UNIT ( * ) PLANE_ANGLE_UNIT ( ) SI_UNIT ( $, .RADIAN. ) );
#522 = VERTEX_POINT ( 'NONE', #833 ) ;
#523 = STYLED_ITEM ( 'NONE', ( #62 ), #992 ) ;
#524 = EDGE_LOOP ( 'NONE', ( #164, #131, #531, #55 ) ) ;
#525 = LINE ( 'NONE', #826, #741 ) ;
#526 = FACE_OUTER_BOUND ( 'NONE', #540, .T. ) ;
#527 = ORIENTED_EDGE ( 'NONE', *, *, #927, .T. ) ;
#528 = ORIENTED_EDGE ( 'NONE', *, *, #426, .T. ) ;
#529 = EDGE_CURVE ( 'NONE', #761, #776, #967, .T. ) ;
#530 = DIRECTION ( 'NONE',  ( -0.000000000000000000, -1.000000000000000000, 6.982962677686267499E-15 ) ) ;
#531 = ORIENTED_EDGE ( 'NONE', *, *, #368, .F. ) ;
#532 = PRODUCT_DEFINITION_FORMATION_WITH_SPECIFIED_SOURCE ( 'ä»', '', #832, .NOT_KNOWN. ) ;
#533 = AXIS2_PLACEMENT_3D ( 'NONE', #17, #733, #90 ) ;
#534 = VERTEX_POINT ( 'NONE', #956 ) ;
#535 = CARTESIAN_POINT ( 'NONE',  ( 100.0000000000000000, 70.00000000000001421, 60.00000000000000000 ) ) ;
#536 = DIRECTION ( 'NONE',  ( 0.000000000000000000, 0.000000000000000000, 1.000000000000000000 ) ) ;
#537 = ORIENTED_EDGE ( 'NONE', *, *, #291, .T. ) ;
#538 = APPLICATION_CONTEXT ( 'automotive_design' ) ;
#539 = CARTESIAN_POINT ( 'NONE',  ( 2.000000000000000000, 2.449293598294706414E-16, 0.000000000000000000 ) ) ;
#540 = EDGE_LOOP ( 'NONE', ( #835, #443, #322, #283 ) ) ;
#541 = PLANE ( 'NONE',  #699 ) ;
#542 = DIRECTION ( 'NONE',  ( -1.000000000000000000, 1.059569099126629671E-14, 3.087807787238715839E-15 ) ) ;
#543 = DIRECTION ( 'NONE',  ( -0.000000000000000000, -1.000000000000000000, 6.982962677686267499E-15 ) ) ;
#544 = VECTOR ( 'NONE', #666, 1000.000000000000000 ) ;
#545 = ORIENTED_EDGE ( 'NONE', *, *, #33, .T. ) ;
#546 = DIRECTION ( 'NONE',  ( 1.000000000000000000, -2.775557561562888984E-15, 0.000000000000000000 ) ) ;
#547 = EDGE_CURVE ( 'NONE', #659, #813, #498, .T. ) ;
#548 = CARTESIAN_POINT ( 'NONE',  ( 80.00000000000000000, 123.0000000000001137, 29.99999999999861444 ) ) ;
#549 = CARTESIAN_POINT ( 'NONE',  ( -80.00000000000000000, 123.0000000000001137, 29.99999999999861444 ) ) ;
#550 = FACE_OUTER_BOUND ( 'NONE', #732, .T. ) ;
#551 = DIRECTION ( 'NONE',  ( -3.087807787238716628E-15, 0.000000000000000000, -1.000000000000000222 ) ) ;
#552 = FACE_OUTER_BOUND ( 'NONE', #524, .T. ) ;
#553 = ORIENTED_EDGE ( 'NONE', *, *, #656, .T. ) ;
#554 = CIRCLE ( 'NONE', #37, 4.000000000000003553 ) ;
#555 = FILL_AREA_STYLE_COLOUR ( '', #810 ) ;
#556 = DIRECTION ( 'NONE',  ( 0.000000000000000000, 0.000000000000000000, 1.000000000000000000 ) ) ;
#557 = LINE ( 'NONE', #105, #422 ) ;
#558 = ORIENTED_EDGE ( 'NONE', *, *, #589, .T. ) ;
#559 = CARTESIAN_POINT ( 'NONE',  ( 100.0000000000000000, -69.99999999999998579, 0.000000000000000000 ) ) ;
#560 = ADVANCED_FACE ( 'NONE', ( #225 ), #466, .F. ) ;
#561 = CYLINDRICAL_SURFACE ( 'NONE', #929, 2.000000000000000000 ) ;
#562 = CARTESIAN_POINT ( 'NONE',  ( 59.99999999999998579, 70.00000000000001421, 60.00000000000000000 ) ) ;
#563 = FACE_BOUND ( 'NONE', #437, .T. ) ;
#564 = DIRECTION ( 'NONE',  ( -1.000000000000000000, 1.059569099126629671E-14, 3.087807787238715839E-15 ) ) ;
#565 = DIRECTION ( 'NONE',  ( -0.000000000000000000, 1.000000000000000000, -0.000000000000000000 ) ) ;
#566 = EDGE_LOOP ( 'NONE', ( #187, #991 ) ) ;
#567 = CARTESIAN_POINT ( 'NONE',  ( -80.00000000000000000, -70.00000000000000000, 33.99999999999996447 ) ) ;
#568 = DIRECTION ( 'NONE',  ( -0.000000000000000000, 1.000000000000000000, -0.000000000000000000 ) ) ;
#569 = EDGE_CURVE ( 'NONE', #580, #345, #234, .T. ) ;
#570 = UNCERTAINTY_MEASURE_WITH_UNIT (LENGTH_MEASURE( 1.000000000000000082E-05 ), #624, 'distance_accuracy_value', 'NONE');
#571 = EDGE_LOOP ( 'NONE', ( #963, #317, #916, #771 ) ) ;
#572 = CARTESIAN_POINT ( 'NONE',  ( 100.0000000000000000, 75.00000000000000000, 0.000000000000000000 ) ) ;
#573 = ADVANCED_FACE ( 'NONE', ( #330 ), #397, .T. ) ;
#574 = VECTOR ( 'NONE', #706, 1000.000000000000000 ) ;
#575 = VERTEX_POINT ( 'NONE', #863 ) ;
#576 = CARTESIAN_POINT ( 'NONE',  ( -60.00000000000000711, 70.00000000000001421, 0.000000000000000000 ) ) ;
#577 = AXIS2_PLACEMENT_3D ( 'NONE', #188, #581, #740 ) ;
#578 = CARTESIAN_POINT ( 'NONE',  ( 100.0000000000000000, 75.00000000000000000, 0.000000000000000000 ) ) ;
#579 = EDGE_CURVE ( 'NONE', #73, #358, #907, .T. ) ;
#580 = VERTEX_POINT ( 'NONE', #473 ) ;
#581 = DIRECTION ( 'NONE',  ( 0.000000000000000000, -1.000000000000000000, 0.000000000000000000 ) ) ;
#582 = AXIS2_PLACEMENT_3D ( 'NONE', #548, #949, #633 ) ;
#583 = CARTESIAN_POINT ( 'NONE',  ( 15.00000000000000000, 1.836970198721029589E-15, 20.00000000000000000 ) ) ;
#584 = FACE_OUTER_BOUND ( 'NONE', #477, .T. ) ;
#585 = LINE ( 'NONE', #365, #158 ) ;
#586 = CARTESIAN_POINT ( 'NONE',  ( 59.99999999999998579, -69.99999999999998579, 60.00000000000000000 ) ) ;
#587 = FACE_OUTER_BOUND ( 'NONE', #31, .T. ) ;
#588 = VECTOR ( 'NONE', #96, 1000.000000000000000 ) ;
#589 = EDGE_CURVE ( 'NONE', #285, #605, #796, .T. ) ;
#590 = EDGE_CURVE ( 'NONE', #534, #345, #241, .T. ) ;
#591 = LINE ( 'NONE', #583, #817 ) ;
#592 = CARTESIAN_POINT ( 'NONE',  ( 59.99999999999998579, -69.99999999999998579, 0.000000000000000000 ) ) ;
#593 = ORIENTED_EDGE ( 'NONE', *, *, #64, .F. ) ;
#594 = DIRECTION ( 'NONE',  ( 1.000000000000000000, -0.000000000000000000, -0.000000000000000000 ) ) ;
#595 = EDGE_CURVE ( 'NONE', #384, #517, #869, .T. ) ;
#596 = ORIENTED_EDGE ( 'NONE', *, *, #595, .F. ) ;
#597 = SHAPE_REPRESENTATION ( '\X2\8eab4f53\X0\', ( #475, #256, #828, #374 ), #349 ) ;
#598 = AXIS2_PLACEMENT_3D ( 'NONE', #382, #13, #627 ) ;
#599 = ORIENTED_EDGE ( 'NONE', *, *, #126, .T. ) ;
#600 = CIRCLE ( 'NONE', #614, 2.000000000000000000 ) ;
#601 = ORIENTED_EDGE ( 'NONE', *, *, #266, .F. ) ;
#602 = ADVANCED_FACE ( 'NONE', ( #74 ), #561, .F. ) ;
#603 = ORIENTED_EDGE ( 'NONE', *, *, #381, .T. ) ;
#604 = FACE_OUTER_BOUND ( 'NONE', #859, .T. ) ;
#605 = VERTEX_POINT ( 'NONE', #726 ) ;
#606 = EDGE_CURVE ( 'NONE', #456, #921, #789, .T. ) ;
#607 = ORIENTED_EDGE ( 'NONE', *, *, #972, .F. ) ;
#608 = DIRECTION ( 'NONE',  ( 0.000000000000000000, 1.000000000000000000, -0.000000000000000000 ) ) ;
#609 =( NAMED_UNIT ( * ) SI_UNIT ( $, .STERADIAN. ) SOLID_ANGLE_UNIT ( ) );
#610 = ORIENTED_EDGE ( 'NONE', *, *, #118, .F. ) ;
#611 = LINE ( 'NONE', #212, #516 ) ;
#612 = CARTESIAN_POINT ( 'NONE',  ( -80.00000000000000000, 75.00000000000000000, 25.99999999999894840 ) ) ;
#613 =( NAMED_UNIT ( * ) PLANE_ANGLE_UNIT ( ) SI_UNIT ( $, .RADIAN. ) );
#614 = AXIS2_PLACEMENT_3D ( 'NONE', #812, #170, #228 ) ;
#615 = ORIENTED_EDGE ( 'NONE', *, *, #595, .T. ) ;
#616 = DIRECTION ( 'NONE',  ( -0.000000000000000000, -0.000000000000000000, -1.000000000000000000 ) ) ;
#617 = VECTOR ( 'NONE', #568, 1000.000000000000000 ) ;
#618 = ORIENTED_EDGE ( 'NONE', *, *, #41, .F. ) ;
#619 = VECTOR ( 'NONE', #822, 1000.000000000000000 ) ;
#620 = CARTESIAN_POINT ( 'NONE',  ( -60.00000000000000711, -69.99999999999998579, 60.00000000000000000 ) ) ;
#621 = CARTESIAN_POINT ( 'NONE',  ( 0.000000000000000000, 0.000000000000000000, 0.000000000000000000 ) ) ;
#622 = EDGE_CURVE ( 'NONE', #95, #947, #257, .T. ) ;
#623 = ORIENTED_EDGE ( 'NONE', *, *, #843, .T. ) ;
#624 =( LENGTH_UNIT ( ) NAMED_UNIT ( * ) SI_UNIT ( .MILLI., .METRE. ) );
#625 = DIRECTION ( 'NONE',  ( -1.000000000000000000, -0.000000000000000000, -0.000000000000000000 ) ) ;
#626 = FACE_OUTER_BOUND ( 'NONE', #378, .T. ) ;
#627 = DIRECTION ( 'NONE',  ( 0.000000000000000000, 0.000000000000000000, 1.000000000000000000 ) ) ;
#628 = AXIS2_PLACEMENT_3D ( 'NONE', #376, #447, #912 ) ;
#629 = CARTESIAN_POINT ( 'NONE',  ( 981.2875213171836322, 1078.026038984218303, 1115.456881692254910 ) ) ;
#630 = CIRCLE ( 'NONE', #362, 4.000000000000007105 ) ;
#631 = ORIENTED_EDGE ( 'NONE', *, *, #368, .T. ) ;
#632 = DIRECTION ( 'NONE',  ( 0.000000000000000000, -1.000000000000000000, 0.000000000000000000 ) ) ;
#633 = DIRECTION ( 'NONE',  ( 0.000000000000000000, -6.938893903907215756E-15, -1.000000000000000000 ) ) ;
#634 = DIRECTION ( 'NONE',  ( -0.000000000000000000, -0.000000000000000000, -1.000000000000000000 ) ) ;
#635 = PRODUCT_RELATED_PRODUCT_CATEGORY ( 'part', '', ( #832 ) ) ;
#636 = APPLICATION_PROTOCOL_DEFINITION ( 'draft international standard', 'automotive_design', 1998, #538 ) ;
#637 = LINE ( 'NONE', #406, #112 ) ;
#638 = ORIENTED_EDGE ( 'NONE', *, *, #135, .F. ) ;
#639 = CARTESIAN_POINT ( 'NONE',  ( 0.000000000000000000, 0.000000000000000000, 0.000000000000000000 ) ) ;
#640 = CARTESIAN_POINT ( 'NONE',  ( 100.0000000000000000, 75.00000000000000000, 60.00000000000000000 ) ) ;
#641 = DIRECTION ( 'NONE',  ( 0.000000000000000000, -1.000000000000000000, 0.000000000000000000 ) ) ;
#642 = CARTESIAN_POINT ( 'NONE',  ( 80.00000000000000000, 70.00000000000001421, 33.99999999999899103 ) ) ;
#643 = ITEM_DEFINED_TRANSFORMATION ( 'NONE', 'NONE', #828,  #119 ) ;
#644 = DIRECTION ( 'NONE',  ( 2.775557561562904367E-15, -1.000000000000000000, -0.000000000000000000 ) ) ;
#645 = ORIENTED_EDGE ( 'NONE', *, *, #50, .T. ) ;
#646 =( NAMED_UNIT ( * ) SI_UNIT ( $, .STERADIAN. ) SOLID_ANGLE_UNIT ( ) );
#647 = DIRECTION ( 'NONE',  ( 1.000000000000000000, -0.000000000000000000, -0.000000000000000000 ) ) ;
#648 = EDGE_CURVE ( 'NONE', #575, #471, #4, .T. ) ;
#649 = DIRECTION ( 'NONE',  ( 0.000000000000000000, 0.000000000000000000, 1.000000000000000000 ) ) ;
#650 = PLANE ( 'NONE',  #598 ) ;
#651 = DIRECTION ( 'NONE',  ( 1.000000000000000000, 0.000000000000000000, 0.000000000000000000 ) ) ;
#652 = ORIENTED_EDGE ( 'NONE', *, *, #862, .T. ) ;
#653 = LINE ( 'NONE', #725, #87 ) ;
#654 = ORIENTED_EDGE ( 'NONE', *, *, #827, .F. ) ;
#655 = CARTESIAN_POINT ( 'NONE',  ( 100.0000000000000000, -75.00000000000000000, 0.000000000000000000 ) ) ;
#656 = EDGE_CURVE ( 'NONE', #230, #106, #705, .T. ) ;
#657 = AXIS2_PLACEMENT_3D ( 'NONE', #951, #860, #81 ) ;
#658 = DIRECTION ( 'NONE',  ( 0.000000000000000000, -6.938893903907215756E-15, -1.000000000000000000 ) ) ;
#659 = VERTEX_POINT ( 'NONE', #539 ) ;
#660 = FACE_OUTER_BOUND ( 'NONE', #85, .T. ) ;
#661 = CIRCLE ( 'NONE', #841, 4.000000000000007105 ) ;
#662 = EDGE_CURVE ( 'NONE', #34, #456, #324, .T. ) ;
#663 = UNCERTAINTY_MEASURE_WITH_UNIT (LENGTH_MEASURE( 1.000000000000000082E-05 ), #731, 'distance_accuracy_value', 'NONE');
#664 = ORIENTED_EDGE ( 'NONE', *, *, #50, .F. ) ;
#665 = CARTESIAN_POINT ( 'NONE',  ( -99.99999999999998579, -69.99999999999998579, 60.00000000000000000 ) ) ;
#666 = DIRECTION ( 'NONE',  ( -0.000000000000000000, -0.000000000000000000, -1.000000000000000000 ) ) ;
#667 = PRESENTATION_LAYER_ASSIGNMENT (  '', '', ( #523 ) ) ;
#668 = EDGE_CURVE ( 'NONE', #149, #215, #184, .T. ) ;
#669 = LINE ( 'NONE', #346, #10 ) ;
#670 = DIRECTION ( 'NONE',  ( -0.000000000000000000, 1.000000000000000000, -0.000000000000000000 ) ) ;
#671 = MANIFOLD_SOLID_BREP ( '\X2\52079664\X0\-\X2\62c94f38\X0\3', #786 ) ;
#672 = UNCERTAINTY_MEASURE_WITH_UNIT (LENGTH_MEASURE( 1.000000000000000082E-05 ), #850, 'distance_accuracy_value', 'NONE');
#673 = PRODUCT_DEFINITION_SHAPE ( 'NONE', 'NONE',  #823 ) ;
#674 = CARTESIAN_POINT ( 'NONE',  ( -99.99999999999998579, -69.99999999999998579, 0.000000000000000000 ) ) ;
#675 = DIRECTION ( 'NONE',  ( 0.000000000000000000, -1.000000000000000000, 0.000000000000000000 ) ) ;
#676 = AXIS2_PLACEMENT_3D ( 'NONE', #151, #713, #11 ) ;
#677 = EDGE_CURVE ( 'NONE', #996, #42, #980, .T. ) ;
#678 = CYLINDRICAL_SURFACE ( 'NONE', #57, 4.000000000000007105 ) ;
#679 = VERTEX_POINT ( 'NONE', #107 ) ;
#680 = VECTOR ( 'NONE', #625, 1000.000000000000000 ) ;
#681 = ORIENTED_EDGE ( 'NONE', *, *, #677, .T. ) ;
#682 =( REPRESENTATION_RELATIONSHIP ('NONE','NONE', #597, #386 ) REPRESENTATION_RELATIONSHIP_WITH_TRANSFORMATION ( #94 )SHAPE_REPRESENTATION_RELATIONSHIP( ) );
#683 = ORIENTED_EDGE ( 'NONE', *, *, #207, .T. ) ;
#684 = EDGE_CURVE ( 'NONE', #215, #149, #661, .T. ) ;
#685 = CIRCLE ( 'NONE', #962, 4.000000000000003553 ) ;
#686 = EDGE_LOOP ( 'NONE', ( #794, #63 ) ) ;
#687 = CARTESIAN_POINT ( 'NONE',  ( -100.0000000000000000, 75.00000000000000000, 0.000000000000000000 ) ) ;
#688 = ORIENTED_EDGE ( 'NONE', *, *, #838, .T. ) ;
#689 = ORIENTED_EDGE ( 'NONE', *, *, #843, .F. ) ;
#690 = DIRECTION ( 'NONE',  ( 0.000000000000000000, 1.000000000000000000, -0.000000000000000000 ) ) ;
#691 = VERTEX_POINT ( 'NONE', #720 ) ;
#692 = ORIENTED_EDGE ( 'NONE', *, *, #668, .F. ) ;
#693 = LINE ( 'NONE', #922, #986 ) ;
#694 = ORIENTED_EDGE ( 'NONE', *, *, #972, .T. ) ;
#695 = CARTESIAN_POINT ( 'NONE',  ( -100.0000000000000000, 75.00000000000000000, 60.00000000000000000 ) ) ;
#696 = DIRECTION ( 'NONE',  ( 0.000000000000000000, -6.938893903907215756E-15, -1.000000000000000000 ) ) ;
#697 = ADVANCED_FACE ( 'NONE', ( #463 ), #954, .F. ) ;
#698 = DIRECTION ( 'NONE',  ( -1.000000000000000000, -0.000000000000000000, -0.000000000000000000 ) ) ;
#699 = AXIS2_PLACEMENT_3D ( 'NONE', #620, #455, #410 ) ;
#700 = CARTESIAN_POINT ( 'NONE',  ( 981.2875213171755604, 1078.026038984206707, 955.4568816922727592 ) ) ;
#701 =( REPRESENTATION_RELATIONSHIP ('NONE','NONE', #597, #386 ) REPRESENTATION_RELATIONSHIP_WITH_TRANSFORMATION ( #643 )SHAPE_REPRESENTATION_RELATIONSHIP( ) );
#702 = VECTOR ( 'NONE', #325, 1000.000000000000000 ) ;
#703 = ORIENTED_EDGE ( 'NONE', *, *, #606, .F. ) ;
#704 = DIRECTION ( 'NONE',  ( -0.000000000000000000, -0.000000000000000000, -1.000000000000000000 ) ) ;
#705 = LINE ( 'NONE', #304, #222 ) ;
#706 = DIRECTION ( 'NONE',  ( -0.000000000000000000, -0.000000000000000000, -1.000000000000000000 ) ) ;
#707 = VECTOR ( 'NONE', #353, 1000.000000000000000 ) ;
#708 = LINE ( 'NONE', #474, #915 ) ;
#709 = DIRECTION ( 'NONE',  ( 0.000000000000000000, 0.000000000000000000, 1.000000000000000000 ) ) ;
#710 = EDGE_CURVE ( 'NONE', #38, #517, #811, .T. ) ;
#711 = ORIENTED_EDGE ( 'NONE', *, *, #529, .T. ) ;
#712 = DIRECTION ( 'NONE',  ( -0.000000000000000000, -0.000000000000000000, -1.000000000000000000 ) ) ;
#713 = DIRECTION ( 'NONE',  ( 0.000000000000000000, -1.000000000000000000, 0.000000000000000000 ) ) ;
#714 = FACE_BOUND ( 'NONE', #566, .T. ) ;
#715 = CARTESIAN_POINT ( 'NONE',  ( -60.00000000000000711, 70.00000000000001421, 60.00000000000000000 ) ) ;
#716 = AXIS2_PLACEMENT_3D ( 'NONE', #371, #284, #441 ) ;
#717 = LINE ( 'NONE', #246, #181 ) ;
#718 = VECTOR ( 'NONE', #282, 1000.000000000000000 ) ;
#719 = VERTEX_POINT ( 'NONE', #323 ) ;
#720 = CARTESIAN_POINT ( 'NONE',  ( 15.00000000000000000, 1.836970198721029589E-15, 20.00000000000000000 ) ) ;
#721 = DIRECTION ( 'NONE',  ( -0.000000000000000000, -0.000000000000000000, -1.000000000000000000 ) ) ;
#722 = PLANE ( 'NONE',  #464 ) ;
#723 = CARTESIAN_POINT ( 'NONE',  ( 0.000000000000000000, 0.000000000000000000, 0.000000000000000000 ) ) ;
#724 = ORIENTED_EDGE ( 'NONE', *, *, #468, .F. ) ;
#725 = CARTESIAN_POINT ( 'NONE',  ( 2.000000000000000000, 2.449293598294706414E-16, 20.00000000000000000 ) ) ;
#726 = CARTESIAN_POINT ( 'NONE',  ( 100.0000000000000000, -75.00000000000000000, 60.00000000000000000 ) ) ;
#727 = CARTESIAN_POINT ( 'NONE',  ( -80.00000000000000000, 70.00000000000001421, 33.99999999999899103 ) ) ;
#728 = CARTESIAN_POINT ( 'NONE',  ( 80.00000000000000000, 70.00000000000001421, 25.99999999999898392 ) ) ;
#729 = DIRECTION ( 'NONE',  ( 0.000000000000000000, 0.000000000000000000, 1.000000000000000000 ) ) ;
#730 = AXIS2_PLACEMENT_3D ( 'NONE', #250, #886, #402 ) ;
#731 =( LENGTH_UNIT ( ) NAMED_UNIT ( * ) SI_UNIT ( .MILLI., .METRE. ) );
#732 = EDGE_LOOP ( 'NONE', ( #342, #857, #688, #65, #537, #623, #22, #558, #631, #511, #764, #192 ) ) ;
#733 = DIRECTION ( 'NONE',  ( 0.000000000000000000, -1.000000000000000000, 6.982962677686266711E-15 ) ) ;
#734 = LINE ( 'NONE', #578, #837 ) ;
#735 = ORIENTED_EDGE ( 'NONE', *, *, #436, .F. ) ;
#736 = PLANE ( 'NONE',  #357 ) ;
#737 = DIRECTION ( 'NONE',  ( -0.000000000000000000, -0.000000000000000000, -1.000000000000000000 ) ) ;
#738 = EDGE_CURVE ( 'NONE', #176, #659, #653, .T. ) ;
#739 = VERTEX_POINT ( 'NONE', #943 ) ;
#740 = DIRECTION ( 'NONE',  ( 0.000000000000000000, -0.000000000000000000, -1.000000000000000000 ) ) ;
#741 = VECTOR ( 'NONE', #774, 1000.000000000000000 ) ;
#742 = EDGE_LOOP ( 'NONE', ( #988, #735, #494, #54 ) ) ;
#743 = LINE ( 'NONE', #830, #435 ) ;
#744 = DIRECTION ( 'NONE',  ( -0.000000000000000000, -1.000000000000000000, 6.982962677686267499E-15 ) ) ;
#745 = EDGE_CURVE ( 'NONE', #345, #580, #393, .T. ) ;
#746 =( GEOMETRIC_REPRESENTATION_CONTEXT ( 3 ) GLOBAL_UNCERTAINTY_ASSIGNED_CONTEXT ( ( #271 ) ) GLOBAL_UNIT_ASSIGNED_CONTEXT ( ( #361, #521, #452 ) ) REPRESENTATION_CONTEXT ( 'NONE', 'WORKASPACE' ) );
#747 = CARTESIAN_POINT ( 'NONE',  ( -99.99999999999998579, -69.99999999999998579, 60.00000000000000000 ) ) ;
#748 = CARTESIAN_POINT ( 'NONE',  ( -80.00000000000000000, 123.0000000000001137, 29.99999999999861444 ) ) ;
#749 = CARTESIAN_POINT ( 'NONE',  ( -80.00000000000000000, 123.0000000000000853, 25.99999999999860734 ) ) ;
#750 = CARTESIAN_POINT ( 'NONE',  ( -60.00000000000000711, 70.00000000000001421, 60.00000000000000000 ) ) ;
#751 = UNCERTAINTY_MEASURE_WITH_UNIT (LENGTH_MEASURE( 1.000000000000000082E-05 ), #84, 'distance_accuracy_value', 'NONE');
#752 = EDGE_CURVE ( 'NONE', #813, #659, #209, .T. ) ;
#753 = AXIS2_PLACEMENT_3D ( 'NONE', #549, #773, #696 ) ;
#754 = EDGE_LOOP ( 'NONE', ( #138, #89, #593, #394 ) ) ;
#755 = STYLED_ITEM ( 'NONE', ( #167 ), #671 ) ;
#756 = AXIS2_PLACEMENT_3D ( 'NONE', #485, #401, #334 ) ;
#757 = ORIENTED_EDGE ( 'NONE', *, *, #377, .T. ) ;
#758 = VERTEX_POINT ( 'NONE', #572 ) ;
#759 = SURFACE_STYLE_FILL_AREA ( #144 ) ;
#760 = EDGE_CURVE ( 'NONE', #870, #885, #249, .T. ) ;
#761 = VERTEX_POINT ( 'NONE', #559 ) ;
#762 = AXIS2_PLACEMENT_3D ( 'NONE', #196, #504, #910 ) ;
#763 = VECTOR ( 'NONE', #978, 1000.000000000000000 ) ;
#764 = ORIENTED_EDGE ( 'NONE', *, *, #64, .T. ) ;
#765 = SURFACE_SIDE_STYLE ('',( #759 ) ) ;
#766 = ORIENTED_EDGE ( 'NONE', *, *, #123, .F. ) ;
#767 = ORIENTED_EDGE ( 'NONE', *, *, #856, .T. ) ;
#768 = DIRECTION ( 'NONE',  ( -2.775557561562888984E-15, -1.000000000000000000, -0.000000000000000000 ) ) ;
#769 = APPLICATION_CONTEXT ( 'automotive_design' ) ;
#770 = CARTESIAN_POINT ( 'NONE',  ( 80.00000000000000000, 123.0000000000001137, 29.99999999999861444 ) ) ;
#771 = ORIENTED_EDGE ( 'NONE', *, *, #799, .T. ) ;
#772 = PRODUCT_RELATED_PRODUCT_CATEGORY ( 'part', '', ( #277 ) ) ;
#773 = DIRECTION ( 'NONE',  ( -0.000000000000000000, -1.000000000000000000, 6.982962677686267499E-15 ) ) ;
#774 = DIRECTION ( 'NONE',  ( -0.000000000000000000, -1.000000000000000000, 6.982962677686267499E-15 ) ) ;
#775 = VERTEX_POINT ( 'NONE', #567 ) ;
#776 = VERTEX_POINT ( 'NONE', #177 ) ;
#777 = CARTESIAN_POINT ( 'NONE',  ( -60.00000000000000711, -69.99999999999998579, 60.00000000000000000 ) ) ;
#778 =( NAMED_UNIT ( * ) PLANE_ANGLE_UNIT ( ) SI_UNIT ( $, .RADIAN. ) );
#779 = ORIENTED_EDGE ( 'NONE', *, *, #286, .T. ) ;
#780 = DIRECTION ( 'NONE',  ( -0.000000000000000000, -0.000000000000000000, -1.000000000000000000 ) ) ;
#781 = EDGE_LOOP ( 'NONE', ( #959, #467, #779, #440 ) ) ;
#782 = ADVANCED_FACE ( 'NONE', ( #880 ), #165, .F. ) ;
#783 = DIRECTION ( 'NONE',  ( 0.000000000000000000, 6.938893903907222067E-15, 1.000000000000000000 ) ) ;
#784 = VECTOR ( 'NONE', #877, 1000.000000000000000 ) ;
#785 = APPLICATION_PROTOCOL_DEFINITION ( 'draft international standard', 'automotive_design', 1998, #348 ) ;
#786 = CLOSED_SHELL ( 'NONE', ( #103, #480, #955, #460, #310, #852, #697, #360, #297, #829, #815, #492, #200, #80, #101, #519, #244, #573, #560, #983, #15, #782 ) ) ;
#787 = ORIENTED_EDGE ( 'NONE', *, *, #914, .T. ) ;
#788 = DIRECTION ( 'NONE',  ( 0.000000000000000000, 0.000000000000000000, -1.000000000000000000 ) ) ;
#789 = LINE ( 'NONE', #695, #307 ) ;
#790 = APPLICATION_CONTEXT ( 'automotive_design' ) ;
#791 = EDGE_LOOP ( 'NONE', ( #694, #618, #438, #867 ) ) ;
#792 = AXIS2_PLACEMENT_3D ( 'NONE', #889, #172, #478 ) ;
#793 = CARTESIAN_POINT ( 'NONE',  ( 59.99999999999998579, 70.00000000000001421, 0.000000000000000000 ) ) ;
#794 = ORIENTED_EDGE ( 'NONE', *, *, #965, .T. ) ;
#795 = EDGE_CURVE ( 'NONE', #42, #996, #223, .T. ) ;
#796 = LINE ( 'NONE', #486, #356 ) ;
#797 = FACE_OUTER_BOUND ( 'NONE', #290, .T. ) ;
#798 = AXIS2_PLACEMENT_3D ( 'NONE', #269, #35, #825 ) ;
#799 = EDGE_CURVE ( 'NONE', #34, #106, #808, .T. ) ;
#800 = CONTEXT_DEPENDENT_SHAPE_REPRESENTATION ( #701, #508 ) ;
#801 = CARTESIAN_POINT ( 'NONE',  ( -80.00000000000000000, -70.00000000000000000, 29.99999999999996092 ) ) ;
#802 = ORIENTED_EDGE ( 'NONE', *, *, #990, .F. ) ;
#803 = CARTESIAN_POINT ( 'NONE',  ( -80.00000000000000000, -74.99999999999998579, 30.00000000000000000 ) ) ;
#804 = CARTESIAN_POINT ( 'NONE',  ( 80.00000000000000000, 70.00000000000001421, 29.99999999999898748 ) ) ;
#805 = CARTESIAN_POINT ( 'NONE',  ( -100.0000000000000000, -75.00000000000000000, 60.00000000000000000 ) ) ;
#806 = DIRECTION ( 'NONE',  ( 3.087807787238828252E-15, 1.059569099126626358E-14, 1.000000000000000000 ) ) ;
#807 = ORIENTED_EDGE ( 'NONE', *, *, #656, .F. ) ;
#808 = LINE ( 'NONE', #814, #491 ) ;
#809 = CARTESIAN_POINT ( 'NONE',  ( 59.99999999999998579, 70.00000000000001421, 60.00000000000000000 ) ) ;
#810 = COLOUR_RGB ( '',0.7921568627450980005, 0.8196078431372548767, 0.9333333333333333481 ) ;
#811 = CIRCLE ( 'NONE', #756, 4.000000000000003553 ) ;
#812 = CARTESIAN_POINT ( 'NONE',  ( 0.000000000000000000, 0.000000000000000000, 20.00000000000000000 ) ) ;
#813 = VERTEX_POINT ( 'NONE', #9 ) ;
#814 = CARTESIAN_POINT ( 'NONE',  ( 100.0000000000000000, 70.00000000000001421, 60.00000000000000000 ) ) ;
#815 = ADVANCED_FACE ( 'NONE', ( #312 ), #936, .F. ) ;
#816 = DIRECTION ( 'NONE',  ( 0.000000000000000000, -0.000000000000000000, -1.000000000000000000 ) ) ;
#817 = VECTOR ( 'NONE', #421, 1000.000000000000000 ) ;
#818 = ORIENTED_EDGE ( 'NONE', *, *, #799, .F. ) ;
#819 = PLANE ( 'NONE',  #577 ) ;
#820 = AXIS2_PLACEMENT_3D ( 'NONE', #479, #28, #938 ) ;
#821 = ORIENTED_EDGE ( 'NONE', *, *, #280, .T. ) ;
#822 = DIRECTION ( 'NONE',  ( 2.775557561562904367E-15, -1.000000000000000000, -0.000000000000000000 ) ) ;
#823 = PRODUCT_DEFINITION ( 'æœ', '', #532, #509 ) ;
#824 = DIRECTION ( 'NONE',  ( -0.000000000000000000, 1.000000000000000000, -0.000000000000000000 ) ) ;
#825 = DIRECTION ( 'NONE',  ( 0.000000000000000000, 0.000000000000000000, 1.000000000000000000 ) ) ;
#826 = CARTESIAN_POINT ( 'NONE',  ( -80.00000000000000000, 123.0000000000001421, 33.99999999999862155 ) ) ;
#827 = EDGE_CURVE ( 'NONE', #337, #885, #156, .T. ) ;
#828 = AXIS2_PLACEMENT_3D ( 'NONE', #629, #564, #806 ) ;
#829 = ADVANCED_FACE ( 'NONE', ( #193, #501 ), #417, .F. ) ;
#830 = CARTESIAN_POINT ( 'NONE',  ( -99.99999999999998579, -69.99999999999998579, 60.00000000000000000 ) ) ;
#831 = DIRECTION ( 'NONE',  ( 0.000000000000000000, 0.000000000000000000, 1.000000000000000000 ) ) ;
#832 = PRODUCT ( 'body', 'body', '', ( #934 ) ) ;
#833 = CARTESIAN_POINT ( 'NONE',  ( -100.0000000000000000, -75.00000000000000000, 0.000000000000000000 ) ) ;
#834 = DIRECTION ( 'NONE',  ( 0.000000000000000000, -1.000000000000000000, 0.000000000000000000 ) ) ;
#835 = ORIENTED_EDGE ( 'NONE', *, *, #684, .F. ) ;
#836 = VECTOR ( 'NONE', #768, 1000.000000000000000 ) ;
#837 = VECTOR ( 'NONE', #335, 1000.000000000000000 ) ;
#838 = EDGE_CURVE ( 'NONE', #921, #95, #427, .T. ) ;
#839 = ORIENTED_EDGE ( 'NONE', *, *, #381, .F. ) ;
#840 = CARTESIAN_POINT ( 'NONE',  ( -60.00000000000000711, -69.99999999999998579, 0.000000000000000000 ) ) ;
#841 = AXIS2_PLACEMENT_3D ( 'NONE', #86, #632, #788 ) ;
#842 = ORIENTED_EDGE ( 'NONE', *, *, #150, .F. ) ;
#843 = EDGE_CURVE ( 'NONE', #739, #870, #743, .T. ) ;
#844 = ORIENTED_EDGE ( 'NONE', *, *, #622, .F. ) ;
#845 = CARTESIAN_POINT ( 'NONE',  ( 0.000000000000000000, 0.000000000000000000, 0.000000000000000000 ) ) ;
#846 = ORIENTED_EDGE ( 'NONE', *, *, #444, .F. ) ;
#847 = VECTOR ( 'NONE', #46, 1000.000000000000000 ) ;
#848 = ORIENTED_EDGE ( 'NONE', *, *, #426, .F. ) ;
#849 = LINE ( 'NONE', #71, #836 ) ;
#850 =( LENGTH_UNIT ( ) NAMED_UNIT ( * ) SI_UNIT ( .MILLI., .METRE. ) );
#851 = EDGE_LOOP ( 'NONE', ( #953, #928, #423, #364 ) ) ;
#852 = ADVANCED_FACE ( 'NONE', ( #506, #43, #660 ), #819, .F. ) ;
#853 = ORIENTED_EDGE ( 'NONE', *, *, #419, .F. ) ;
#854 = PLANE ( 'NONE',  #60 ) ;
#855 = DIRECTION ( 'NONE',  ( -0.000000000000000000, -1.000000000000000000, -0.000000000000000000 ) ) ;
#856 = EDGE_CURVE ( 'NONE', #208, #358, #669, .T. ) ;
#857 = ORIENTED_EDGE ( 'NONE', *, *, #606, .T. ) ;
#858 = EDGE_CURVE ( 'NONE', #471, #776, #111, .T. ) ;
#859 = EDGE_LOOP ( 'NONE', ( #553, #818, #724, #141 ) ) ;
#860 = DIRECTION ( 'NONE',  ( -0.000000000000000000, 0.000000000000000000, -1.000000000000000000 ) ) ;
#861 = ORIENTED_EDGE ( 'NONE', *, *, #710, .F. ) ;
#862 = EDGE_CURVE ( 'NONE', #484, #38, #430, .T. ) ;
#863 = CARTESIAN_POINT ( 'NONE',  ( 100.0000000000000000, -69.99999999999998579, 60.00000000000000000 ) ) ;
#864 = CARTESIAN_POINT ( 'NONE',  ( -80.00000000000000000, -74.99999999999995737, 34.00000000000000000 ) ) ;
#865 = DIRECTION ( 'NONE',  ( 0.000000000000000000, 0.000000000000000000, 1.000000000000000000 ) ) ;
#866 = CIRCLE ( 'NONE', #418, 4.000000000000003553 ) ;
#867 = ORIENTED_EDGE ( 'NONE', *, *, #622, .T. ) ;
#868 = DIRECTION ( 'NONE',  ( 2.775557561562888984E-15, 1.000000000000000000, 0.000000000000000000 ) ) ;
#869 = LINE ( 'NONE', #881, #102 ) ;
#870 = VERTEX_POINT ( 'NONE', #665 ) ;
#871 = CARTESIAN_POINT ( 'NONE',  ( -100.0000000000000000, -75.00000000000000000, 60.00000000000000000 ) ) ;
#872 = ADVANCED_FACE ( 'NONE', ( #974, #495 ), #736, .T. ) ;
#873 = CIRCLE ( 'NONE', #242, 15.00000000000000000 ) ;
#874 = ORIENTED_EDGE ( 'NONE', *, *, #195, .F. ) ;
#875 = CARTESIAN_POINT ( 'NONE',  ( -99.99999999999998579, -69.99999999999998579, 60.00000000000000000 ) ) ;
#876 = SURFACE_SIDE_STYLE ('',( #233 ) ) ;
#877 = DIRECTION ( 'NONE',  ( -0.000000000000000000, -1.000000000000000000, 6.982962677686267499E-15 ) ) ;
#878 =( NAMED_UNIT ( * ) PLANE_ANGLE_UNIT ( ) SI_UNIT ( $, .RADIAN. ) );
#879 = EDGE_LOOP ( 'NONE', ( #458, #145 ) ) ;
#880 = FACE_OUTER_BOUND ( 'NONE', #333, .T. ) ;
#881 = CARTESIAN_POINT ( 'NONE',  ( -80.00000000000000000, 123.0000000000001421, 33.99999999999862155 ) ) ;
#882 = FACE_OUTER_BOUND ( 'NONE', #264, .T. ) ;
#883 = CARTESIAN_POINT ( 'NONE',  ( -80.00000000000000000, -70.00000000000000000, 25.99999999999995381 ) ) ;
#884 = PRODUCT_CONTEXT ( 'NONE', #359, 'mechanical' ) ;
#885 = VERTEX_POINT ( 'NONE', #674 ) ;
#886 = DIRECTION ( 'NONE',  ( -0.000000000000000000, 0.000000000000000000, -1.000000000000000000 ) ) ;
#887 = DIRECTION ( 'NONE',  ( -1.000000000000000000, 0.000000000000000000, 0.000000000000000000 ) ) ;
#888 = ORIENTED_EDGE ( 'NONE', *, *, #396, .T. ) ;
#889 = CARTESIAN_POINT ( 'NONE',  ( -80.00000000000000000, 123.0000000000001137, 29.99999999999861444 ) ) ;
#890 = EDGE_CURVE ( 'NONE', #456, #758, #901, .T. ) ;
#891 = CIRCLE ( 'NONE', #263, 4.000000000000003553 ) ;
#892 = AXIS2_PLACEMENT_3D ( 'NONE', #804, #19, #313 ) ;
#893 = AXIS2_PLACEMENT_3D ( 'NONE', #747, #343, #977 ) ;
#894 = DIRECTION ( 'NONE',  ( -0.000000000000000000, -0.000000000000000000, -1.000000000000000000 ) ) ;
#895 = ORIENTED_EDGE ( 'NONE', *, *, #569, .F. ) ;
#896 = CARTESIAN_POINT ( 'NONE',  ( -100.0000000000000000, 75.00000000000000000, 60.00000000000000000 ) ) ;
#897 = EDGE_CURVE ( 'NONE', #691, #580, #591, .T. ) ;
#898 = CARTESIAN_POINT ( 'NONE',  ( 100.0000000000000000, -75.00000000000000000, 60.00000000000000000 ) ) ;
#899 = MECHANICAL_DESIGN_GEOMETRIC_PRESENTATION_REPRESENTATION (  '', ( #523 ), #919 ) ;
#900 = ORIENTED_EDGE ( 'NONE', *, *, #175, .F. ) ;
#901 = LINE ( 'NONE', #273, #91 ) ;
#902 = AXIS2_PLACEMENT_3D ( 'NONE', #296, #608, #363 ) ;
#903 = CYLINDRICAL_SURFACE ( 'NONE', #762, 15.00000000000000000 ) ;
#904 = DIRECTION ( 'NONE',  ( 0.000000000000000000, 0.000000000000000000, 1.000000000000000000 ) ) ;
#905 = ADVANCED_FACE ( 'NONE', ( #45 ), #903, .T. ) ;
#906 = CONTEXT_DEPENDENT_SHAPE_REPRESENTATION ( #682, #994 ) ;
#907 = CIRCLE ( 'NONE', #892, 4.000000000000003553 ) ;
#908 = CARTESIAN_POINT ( 'NONE',  ( 0.000000000000000000, 0.000000000000000000, 20.00000000000000000 ) ) ;
#909 = CARTESIAN_POINT ( 'NONE',  ( 100.0000000000000000, 75.00000000000000000, 60.00000000000000000 ) ) ;
#910 = DIRECTION ( 'NONE',  ( -1.000000000000000000, 0.000000000000000000, 0.000000000000000000 ) ) ;
#911 = VERTEX_POINT ( 'NONE', #576 ) ;
#912 = DIRECTION ( 'NONE',  ( -1.000000000000000000, 0.000000000000000000, 0.000000000000000000 ) ) ;
#913 = ORIENTED_EDGE ( 'NONE', *, *, #195, .T. ) ;
#914 = EDGE_CURVE ( 'NONE', #484, #384, #18, .T. ) ;
#915 = VECTOR ( 'NONE', #698, 1000.000000000000000 ) ;
#916 = ORIENTED_EDGE ( 'NONE', *, *, #662, .F. ) ;
#917 = ORIENTED_EDGE ( 'NONE', *, *, #444, .T. ) ;
#918 = CARTESIAN_POINT ( 'NONE',  ( 80.00000000000000000, 75.00000000000000000, 29.99999999999895195 ) ) ;
#919 =( GEOMETRIC_REPRESENTATION_CONTEXT ( 3 ) GLOBAL_UNCERTAINTY_ASSIGNED_CONTEXT ( ( #672 ) ) GLOBAL_UNIT_ASSIGNED_CONTEXT ( ( #850, #613, #609 ) ) REPRESENTATION_CONTEXT ( 'NONE', 'WORKASPACE' ) );
#920 =( REPRESENTATION_RELATIONSHIP ('NONE','NONE', #597, #352 ) REPRESENTATION_RELATIONSHIP_WITH_TRANSFORMATION ( #245 )SHAPE_REPRESENTATION_RELATIONSHIP( ) );
#921 = VERTEX_POINT ( 'NONE', #896 ) ;
#922 = CARTESIAN_POINT ( 'NONE',  ( -80.00000000000000000, 123.0000000000000853, 25.99999999999860734 ) ) ;
#923 = ORIENTED_EDGE ( 'NONE', *, *, #745, .F. ) ;
#924 = EDGE_CURVE ( 'NONE', #211, #230, #350, .T. ) ;
#925 = CARTESIAN_POINT ( 'NONE',  ( -80.00000000000000000, 70.00000000000001421, 25.99999999999898392 ) ) ;
#926 = CARTESIAN_POINT ( 'NONE',  ( 80.00000000000000000, 70.00000000000001421, 29.99999999999898748 ) ) ;
#927 = EDGE_CURVE ( 'NONE', #517, #38, #439, .T. ) ;
#928 = ORIENTED_EDGE ( 'NONE', *, *, #965, .F. ) ;
#929 = AXIS2_PLACEMENT_3D ( 'NONE', #379, #721, #388 ) ;
#930 = AXIS2_PLACEMENT_3D ( 'NONE', #803, #183, #27 ) ;
#931 = FILL_AREA_STYLE ('',( #555 ) ) ;
#932 = ORIENTED_EDGE ( 'NONE', *, *, #319, .T. ) ;
#933 = FACE_OUTER_BOUND ( 'NONE', #571, .T. ) ;
#934 = PRODUCT_CONTEXT ( 'NONE', #538, 'mechanical' ) ;
#935 = ORIENTED_EDGE ( 'NONE', *, *, #529, .F. ) ;
#936 = PLANE ( 'NONE',  #185 ) ;
#937 = AXIS2_PLACEMENT_3D ( 'NONE', #770, #203, #210 ) ;
#938 = DIRECTION ( 'NONE',  ( 1.000000000000000000, 0.000000000000000000, 0.000000000000000000 ) ) ;
#939 = EDGE_CURVE ( 'NONE', #522, #159, #338, .T. ) ;
#940 = CYLINDRICAL_SURFACE ( 'NONE', #161, 15.00000000000000000 ) ;
#941 = AXIS2_PLACEMENT_3D ( 'NONE', #926, #690, #904 ) ;
#942 = ORIENTED_EDGE ( 'NONE', *, *, #419, .T. ) ;
#943 = CARTESIAN_POINT ( 'NONE',  ( -60.00000000000000711, -69.99999999999998579, 60.00000000000000000 ) ) ;
#944 = CARTESIAN_POINT ( 'NONE',  ( -99.99999999999998579, 70.00000000000001421, 60.00000000000000000 ) ) ;
#945 = CARTESIAN_POINT ( 'NONE',  ( 80.00000000000000000, 123.0000000000000853, 25.99999999999860734 ) ) ;
#946 = APPLICATION_PROTOCOL_DEFINITION ( 'draft international standard', 'automotive_design', 1998, #502 ) ;
#947 = VERTEX_POINT ( 'NONE', #265 ) ;
#948 = DIRECTION ( 'NONE',  ( 0.000000000000000000, 0.000000000000000000, 1.000000000000000000 ) ) ;
#949 = DIRECTION ( 'NONE',  ( -0.000000000000000000, -1.000000000000000000, 6.982962677686267499E-15 ) ) ;
#950 = PLANE ( 'NONE',  #966 ) ;
#951 = CARTESIAN_POINT ( 'NONE',  ( 0.000000000000000000, 0.000000000000000000, 60.00000000000000000 ) ) ;
#952 = CARTESIAN_POINT ( 'NONE',  ( 2.000000000000000000, 2.449293598294706414E-16, 20.00000000000000000 ) ) ;
#953 = ORIENTED_EDGE ( 'NONE', *, *, #897, .F. ) ;
#954 = PLANE ( 'NONE',  #309 ) ;
#955 = ADVANCED_FACE ( 'NONE', ( #526 ), #678, .F. ) ;
#956 = CARTESIAN_POINT ( 'NONE',  ( -15.00000000000000000, 0.000000000000000000, 20.00000000000000000 ) ) ;
#957 = DIRECTION ( 'NONE',  ( 0.000000000000000000, 0.000000000000000000, 1.000000000000000000 ) ) ;
#958 = APPLICATION_PROTOCOL_DEFINITION ( 'draft international standard', 'automotive_design', 1998, #769 ) ;
#959 = ORIENTED_EDGE ( 'NONE', *, *, #856, .F. ) ;
#960 = DIRECTION ( 'NONE',  ( 1.000000000000000000, 0.000000000000000000, 0.000000000000000000 ) ) ;
#961 = LINE ( 'NONE', #898, #465 ) ;
#962 = AXIS2_PLACEMENT_3D ( 'NONE', #459, #259, #6 ) ;
#963 = ORIENTED_EDGE ( 'NONE', *, *, #109, .T. ) ;
#964 = DIRECTION ( 'NONE',  ( 1.000000000000000000, -0.000000000000000000, -0.000000000000000000 ) ) ;
#965 = EDGE_CURVE ( 'NONE', #534, #691, #496, .T. ) ;
#966 = AXIS2_PLACEMENT_3D ( 'NONE', #562, #331, #649 ) ;
#967 = LINE ( 'NONE', #592, #680 ) ;
#968 = DIRECTION ( 'NONE',  ( 0.000000000000000000, 0.000000000000000000, -1.000000000000000000 ) ) ;
#969 = AXIS2_PLACEMENT_3D ( 'NONE', #639, #948, #255 ) ;
#970 = EDGE_LOOP ( 'NONE', ( #874, #757, #79, #846 ) ) ;
#971 = DIRECTION ( 'NONE',  ( -0.000000000000000000, -1.000000000000000000, 6.982962677686267499E-15 ) ) ;
#972 = EDGE_CURVE ( 'NONE', #947, #911, #72, .T. ) ;
#973 = VERTEX_POINT ( 'NONE', #687 ) ;
#974 = FACE_OUTER_BOUND ( 'NONE', #686, .T. ) ;
#975 = CARTESIAN_POINT ( 'NONE',  ( 80.00000000000000000, -74.99999999999998579, 30.00000000000000000 ) ) ;
#976 = ADVANCED_FACE ( 'NONE', ( #127 ), #993, .F. ) ;
#977 = DIRECTION ( 'NONE',  ( 0.000000000000000000, -0.000000000000000000, -1.000000000000000000 ) ) ;
#978 = DIRECTION ( 'NONE',  ( -0.000000000000000000, -0.000000000000000000, -1.000000000000000000 ) ) ;
#979 = PRODUCT_DEFINITION_SHAPE ( 'NONE', 'NONE',  #344 ) ;
#980 = CIRCLE ( 'NONE', #533, 4.000000000000003553 ) ;
#981 = DIRECTION ( 'NONE',  ( 1.000000000000000000, 0.000000000000000000, -0.000000000000000000 ) ) ;
#982 = DIRECTION ( 'NONE',  ( 0.000000000000000000, -1.000000000000000000, 6.982962677686266711E-15 ) ) ;
#983 = ADVANCED_FACE ( 'NONE', ( #301 ), #288, .F. ) ;
#984 = CARTESIAN_POINT ( 'NONE',  ( 80.00000000000000000, 123.0000000000001137, 29.99999999999861444 ) ) ;
#985 = ORIENTED_EDGE ( 'NONE', *, *, #436, .T. ) ;
#986 = VECTOR ( 'NONE', #446, 1000.000000000000000 ) ;
#987 = ORIENTED_EDGE ( 'NONE', *, *, #488, .T. ) ;
#988 = ORIENTED_EDGE ( 'NONE', *, *, #990, .T. ) ;
#989 = VECTOR ( 'NONE', #160, 1000.000000000000000 ) ;
#990 = EDGE_CURVE ( 'NONE', #911, #337, #515, .T. ) ;
#991 = ORIENTED_EDGE ( 'NONE', *, *, #684, .T. ) ;
#992 = MANIFOLD_SOLID_BREP ( '\X2\51f853f0\X0\-\X2\62c94f38\X0\1', #82 ) ;
#993 = CYLINDRICAL_SURFACE ( 'NONE', #628, 2.000000000000000000 ) ;
#994 = PRODUCT_DEFINITION_SHAPE ( 'NONE', 'NONE',  #999 ) ;
#995 = ORIENTED_EDGE ( 'NONE', *, *, #648, .F. ) ;
#996 = VERTEX_POINT ( 'NONE', #58 ) ;
#997 = NEXT_ASSEMBLY_USAGE_OCCURRENCE ( 'NAUO1', ' ', ' ', #272, #823, $ ) ;
#998 = NEXT_ASSEMBLY_USAGE_OCCURRENCE ( 'NAUO2', ' ', ' ', #272, #344, $ ) ;
#999 = NEXT_ASSEMBLY_USAGE_OCCURRENCE ( 'NAUO3', ' ', ' ', #272, #344, $ ) ;
ENDSEC;
END-ISO-10303-21;
