ISO-10303-21;
HEADER;
FILE_DESCRIPTION (( 'STEP AP214' ),
    '1' );
FILE_NAME ('ÂÖ×Ó.STEP',
    '2026-09-16T15:39:20',
    ( '' ),
    ( '' ),
    'SwSTEP 2.0',
    'SolidWorks 2026',
    '' );
FILE_SCHEMA (( 'AUTOMOTIVE_DESIGN' ));
ENDSEC;

DATA;
#1 = EDGE_CURVE ( 'NONE', #34, #191, #213, .T. ) ;
#2 = TOROIDAL_SURFACE ( 'NONE', #17, 24.99999999999999645, 5.000000000000000000 ) ;
#3 = CARTESIAN_POINT ( 'NONE',  ( 0.000000000000000000, 0.000000000000000000, 15.00000000000000000 ) ) ;
#4 =( LENGTH_UNIT ( ) NAMED_UNIT ( * ) SI_UNIT ( .MILLI., .METRE. ) );
#5 = ORIENTED_EDGE ( 'NONE', *, *, #202, .T. ) ;
#6 = VERTEX_POINT ( 'NONE', #16 ) ;
#7 = AXIS2_PLACEMENT_3D ( 'NONE', #158, #126, #347 ) ;
#8 = COLOUR_RGB ( '',0.7921568627450980005, 0.8196078431372548767, 0.9333333333333333481 ) ;
#9 = ORIENTED_EDGE ( 'NONE', *, *, #327, .F. ) ;
#10 = CARTESIAN_POINT ( 'NONE',  ( 25.00000000000000000, 0.000000000000000000, 3.999999999999972466 ) ) ;
#11 = AXIS2_PLACEMENT_3D ( 'NONE', #140, #84, #118 ) ;
#12 = EDGE_CURVE ( 'NONE', #164, #86, #288, .T. ) ;
#13 = DIRECTION ( 'NONE',  ( -1.000000000000000000, 1.224646799147352714E-16, 0.000000000000000000 ) ) ;
#14 = EDGE_CURVE ( 'NONE', #164, #28, #248, .T. ) ;
#15 = DIRECTION ( 'NONE',  ( -0.000000000000000000, -0.000000000000000000, -1.000000000000000000 ) ) ;
#16 = CARTESIAN_POINT ( 'NONE',  ( 25.00000000000000000, 0.000000000000000000, 3.999999999999972466 ) ) ;
#17 = AXIS2_PLACEMENT_3D ( 'NONE', #211, #152, #101 ) ;
#18 = DIRECTION ( 'NONE',  ( -0.000000000000000000, -0.000000000000000000, -1.000000000000000000 ) ) ;
#19 = DIRECTION ( 'NONE',  ( 1.000000000000000000, 0.000000000000000000, 0.000000000000000000 ) ) ;
#20 = DIRECTION ( 'NONE',  ( 0.000000000000000000, 0.000000000000000000, 1.000000000000000000 ) ) ;
#21 = AXIS2_PLACEMENT_3D ( 'NONE', #205, #230, #290 ) ;
#22 =( GEOMETRIC_REPRESENTATION_CONTEXT ( 3 ) GLOBAL_UNCERTAINTY_ASSIGNED_CONTEXT ( ( #293 ) ) GLOBAL_UNIT_ASSIGNED_CONTEXT ( ( #115, #59, #227 ) ) REPRESENTATION_CONTEXT ( 'NONE', 'WORKASPACE' ) );
#23 = CARTESIAN_POINT ( 'NONE',  ( 0.000000000000000000, 0.000000000000000000, 19.99999999999996447 ) ) ;
#24 = FACE_OUTER_BOUND ( 'NONE', #255, .T. ) ;
#25 = DIRECTION ( 'NONE',  ( -1.000000000000000000, 1.224646799147352714E-16, 0.000000000000000000 ) ) ;
#26 = AXIS2_PLACEMENT_3D ( 'NONE', #345, #20, #96 ) ;
#27 = FILL_AREA_STYLE_COLOUR ( '', #8 ) ;
#28 = VERTEX_POINT ( 'NONE', #109 ) ;
#29 = EDGE_CURVE ( 'NONE', #194, #245, #120, .T. ) ;
#30 = DIRECTION ( 'NONE',  ( 0.000000000000000000, 0.000000000000000000, 1.000000000000000000 ) ) ;
#31 = ORIENTED_EDGE ( 'NONE', *, *, #12, .T. ) ;
#32 = CARTESIAN_POINT ( 'NONE',  ( -4.000000000000000000, 0.000000000000000000, 0.000000000000000000 ) ) ;
#33 = AXIS2_PLACEMENT_3D ( 'NONE', #119, #339, #85 ) ;
#34 = VERTEX_POINT ( 'NONE', #222 ) ;
#35 = ORIENTED_EDGE ( 'NONE', *, *, #276, .F. ) ;
#36 = ORIENTED_EDGE ( 'NONE', *, *, #250, .T. ) ;
#37 = DIRECTION ( 'NONE',  ( 1.224646799147353207E-16, 1.000000000000000000, -0.000000000000000000 ) ) ;
#38 = APPLICATION_PROTOCOL_DEFINITION ( 'draft international standard', 'automotive_design', 1998, #238 ) ;
#39 = ORIENTED_EDGE ( 'NONE', *, *, #135, .T. ) ;
#40 = ORIENTED_EDGE ( 'NONE', *, *, #276, .T. ) ;
#41 = EDGE_CURVE ( 'NONE', #195, #138, #177, .T. ) ;
#42 = ORIENTED_EDGE ( 'NONE', *, *, #123, .T. ) ;
#43 = EDGE_LOOP ( 'NONE', ( #200, #9, #36, #269 ) ) ;
#44 = CARTESIAN_POINT ( 'NONE',  ( 30.00000000000000000, 3.673940397442059178E-15, 5.000000000000000888 ) ) ;
#45 = CIRCLE ( 'NONE', #261, 4.000000000000000000 ) ;
#46 = CARTESIAN_POINT ( 'NONE',  ( -25.00000000000000000, 3.061616997868383043E-15, 3.999999999999972466 ) ) ;
#47 = CARTESIAN_POINT ( 'NONE',  ( -30.00000000000000000, 0.000000000000000000, 15.00000000000000000 ) ) ;
#48 = DIRECTION ( 'NONE',  ( 1.000000000000000000, 0.000000000000000000, 0.000000000000000000 ) ) ;
#49 = DIRECTION ( 'NONE',  ( 1.000000000000000000, 0.000000000000000000, 0.000000000000000000 ) ) ;
#50 = DIRECTION ( 'NONE',  ( 1.000000000000000000, 0.000000000000000000, 0.000000000000000000 ) ) ;
#51 = EDGE_CURVE ( 'NONE', #171, #191, #329, .T. ) ;
#52 = CIRCLE ( 'NONE', #295, 25.00000000000000000 ) ;
#53 = CIRCLE ( 'NONE', #300, 30.00000000000000000 ) ;
#54 = DIRECTION ( 'NONE',  ( -0.000000000000000000, -0.000000000000000000, -1.000000000000000000 ) ) ;
#55 = DIRECTION ( 'NONE',  ( 1.000000000000000000, 0.000000000000000000, 0.000000000000000000 ) ) ;
#56 = DIRECTION ( 'NONE',  ( 1.224646799147353207E-16, 1.000000000000000000, -0.000000000000000000 ) ) ;
#57 = ORIENTED_EDGE ( 'NONE', *, *, #51, .T. ) ;
#58 = CIRCLE ( 'NONE', #219, 30.00000000000000000 ) ;
#59 =( NAMED_UNIT ( * ) PLANE_ANGLE_UNIT ( ) SI_UNIT ( $, .RADIAN. ) );
#60 = ORIENTED_EDGE ( 'NONE', *, *, #202, .F. ) ;
#61 = ORIENTED_EDGE ( 'NONE', *, *, #142, .F. ) ;
#62 = ORIENTED_EDGE ( 'NONE', *, *, #232, .T. ) ;
#63 = EDGE_CURVE ( 'NONE', #245, #147, #331, .T. ) ;
#64 = CIRCLE ( 'NONE', #208, 4.000000000000000000 ) ;
#65 = CARTESIAN_POINT ( 'NONE',  ( 24.99999999999999645, 0.000000000000000000, 5.000000000000000888 ) ) ;
#66 = EDGE_LOOP ( 'NONE', ( #62, #199 ) ) ;
#67 = PRODUCT_DEFINITION_SHAPE ( 'NONE', 'NONE',  #285 ) ;
#68 = TOROIDAL_SURFACE ( 'NONE', #299, 24.99999999999999645, 5.000000000000000000 ) ;
#69 = CYLINDRICAL_SURFACE ( 'NONE', #111, 25.00000000000000000 ) ;
#70 = AXIS2_PLACEMENT_3D ( 'NONE', #353, #79, #220 ) ;
#71 = ADVANCED_BREP_SHAPE_REPRESENTATION ( '\X2\8f6e5b50\X0\', ( #352, #11 ), #233 ) ;
#72 = CARTESIAN_POINT ( 'NONE',  ( 0.000000000000000000, 0.000000000000000000, 3.999999999999972466 ) ) ;
#73 = CARTESIAN_POINT ( 'NONE',  ( 4.000000000000000000, 4.898587196589412829E-16, 3.999999999999972466 ) ) ;
#74 = EDGE_CURVE ( 'NONE', #6, #147, #89, .T. ) ;
#75 = FACE_OUTER_BOUND ( 'NONE', #282, .T. ) ;
#76 = VECTOR ( 'NONE', #15, 1000.000000000000000 ) ;
#77 = CARTESIAN_POINT ( 'NONE',  ( -25.00000000000000000, 3.061616997868383043E-15, 19.99999999999996447 ) ) ;
#78 = CARTESIAN_POINT ( 'NONE',  ( 0.000000000000000000, 0.000000000000000000, 20.00000000000000000 ) ) ;
#79 = DIRECTION ( 'NONE',  ( 0.000000000000000000, 0.000000000000000000, 1.000000000000000000 ) ) ;
#80 = ORIENTED_EDGE ( 'NONE', *, *, #260, .F. ) ;
#81 = AXIS2_PLACEMENT_3D ( 'NONE', #311, #37, #13 ) ;
#82 = FACE_OUTER_BOUND ( 'NONE', #172, .T. ) ;
#83 = DIRECTION ( 'NONE',  ( 0.000000000000000000, 0.000000000000000000, 1.000000000000000000 ) ) ;
#84 = DIRECTION ( 'NONE',  ( 0.000000000000000000, 0.000000000000000000, 1.000000000000000000 ) ) ;
#85 = DIRECTION ( 'NONE',  ( 1.000000000000000000, 0.000000000000000000, 0.000000000000000000 ) ) ;
#86 = VERTEX_POINT ( 'NONE', #94 ) ;
#87 = DIRECTION ( 'NONE',  ( 0.000000000000000000, 0.000000000000000000, 1.000000000000000000 ) ) ;
#88 = ADVANCED_FACE ( 'NONE', ( #315, #316 ), #184, .T. ) ;
#89 = LINE ( 'NONE', #10, #340 ) ;
#90 = CARTESIAN_POINT ( 'NONE',  ( -25.00000000000000000, 3.061616997868383043E-15, 3.999999999999972466 ) ) ;
#91 = CIRCLE ( 'NONE', #223, 4.000000000000000000 ) ;
#92 = PRESENTATION_LAYER_ASSIGNMENT (  '', '', ( #346 ) ) ;
#93 = EDGE_LOOP ( 'NONE', ( #302, #5 ) ) ;
#94 = CARTESIAN_POINT ( 'NONE',  ( -4.000000000000000000, 0.000000000000000000, 3.999999999999972466 ) ) ;
#95 = CARTESIAN_POINT ( 'NONE',  ( 0.000000000000000000, 0.000000000000000000, 3.999999999999972466 ) ) ;
#96 = DIRECTION ( 'NONE',  ( 1.000000000000000000, 0.000000000000000000, -0.000000000000000000 ) ) ;
#97 = AXIS2_PLACEMENT_3D ( 'NONE', #105, #218, #49 ) ;
#98 = DIRECTION ( 'NONE',  ( -0.000000000000000000, -0.000000000000000000, -1.000000000000000000 ) ) ;
#99 = CIRCLE ( 'NONE', #70, 25.00000000000000000 ) ;
#100 = ADVANCED_FACE ( 'NONE', ( #258 ), #2, .T. ) ;
#101 = DIRECTION ( 'NONE',  ( 1.000000000000000000, 0.000000000000000000, 0.000000000000000000 ) ) ;
#102 = DIRECTION ( 'NONE',  ( -0.000000000000000000, -0.000000000000000000, -1.000000000000000000 ) ) ;
#103 = AXIS2_PLACEMENT_3D ( 'NONE', #122, #98, #157 ) ;
#104 = CYLINDRICAL_SURFACE ( 'NONE', #161, 4.000000000000000000 ) ;
#105 = CARTESIAN_POINT ( 'NONE',  ( 0.000000000000000000, 0.000000000000000000, 5.000000000000000888 ) ) ;
#106 = LINE ( 'NONE', #301, #107 ) ;
#107 = VECTOR ( 'NONE', #188, 1000.000000000000000 ) ;
#108 = SURFACE_STYLE_USAGE ( .BOTH. , #136 ) ;
#109 = CARTESIAN_POINT ( 'NONE',  ( 4.000000000000000000, 4.898587196589412829E-16, 0.000000000000000000 ) ) ;
#110 = ADVANCED_FACE ( 'NONE', ( #75, #262 ), #322, .F. ) ;
#111 = AXIS2_PLACEMENT_3D ( 'NONE', #72, #294, #19 ) ;
#112 = AXIS2_PLACEMENT_3D ( 'NONE', #193, #167, #55 ) ;
#113 = EDGE_LOOP ( 'NONE', ( #309, #134, #80, #226 ) ) ;
#114 = ORIENTED_EDGE ( 'NONE', *, *, #14, .T. ) ;
#115 =( LENGTH_UNIT ( ) NAMED_UNIT ( * ) SI_UNIT ( .MILLI., .METRE. ) );
#116 = ORIENTED_EDGE ( 'NONE', *, *, #74, .T. ) ;
#117 = DIRECTION ( 'NONE',  ( -0.000000000000000000, -0.000000000000000000, -1.000000000000000000 ) ) ;
#118 = DIRECTION ( 'NONE',  ( 1.000000000000000000, 0.000000000000000000, 0.000000000000000000 ) ) ;
#119 = CARTESIAN_POINT ( 'NONE',  ( 0.000000000000000000, 0.000000000000000000, 19.99999999999996447 ) ) ;
#120 = LINE ( 'NONE', #90, #156 ) ;
#121 = CARTESIAN_POINT ( 'NONE',  ( 25.00000000000000000, 0.000000000000000000, 19.99999999999996447 ) ) ;
#122 = CARTESIAN_POINT ( 'NONE',  ( 0.000000000000000000, 0.000000000000000000, 0.000000000000000000 ) ) ;
#123 = EDGE_CURVE ( 'NONE', #86, #337, #259, .T. ) ;
#124 = UNCERTAINTY_MEASURE_WITH_UNIT (LENGTH_MEASURE( 1.000000000000000082E-05 ), #4, 'distance_accuracy_value', 'NONE');
#125 = CIRCLE ( 'NONE', #181, 25.00000000000000000 ) ;
#126 = DIRECTION ( 'NONE',  ( 0.000000000000000000, 0.000000000000000000, 1.000000000000000000 ) ) ;
#127 = CARTESIAN_POINT ( 'NONE',  ( 0.000000000000000000, 0.000000000000000000, 3.999999999999972466 ) ) ;
#128 = CYLINDRICAL_SURFACE ( 'NONE', #209, 30.00000000000000000 ) ;
#129 = CARTESIAN_POINT ( 'NONE',  ( 24.99999999999999645, 0.000000000000000000, 15.00000000000000000 ) ) ;
#130 = AXIS2_PLACEMENT_3D ( 'NONE', #65, #254, #333 ) ;
#131 = SURFACE_STYLE_FILL_AREA ( #349 ) ;
#132 = ORIENTED_EDGE ( 'NONE', *, *, #142, .T. ) ;
#133 = DIRECTION ( 'NONE',  ( 0.000000000000000000, 0.000000000000000000, 1.000000000000000000 ) ) ;
#134 = ORIENTED_EDGE ( 'NONE', *, *, #1, .T. ) ;
#135 = EDGE_CURVE ( 'NONE', #171, #178, #58, .T. ) ;
#136 = SURFACE_SIDE_STYLE ('',( #131 ) ) ;
#137 = VECTOR ( 'NONE', #117, 1000.000000000000000 ) ;
#138 = VERTEX_POINT ( 'NONE', #44 ) ;
#139 = ORIENTED_EDGE ( 'NONE', *, *, #190, .T. ) ;
#140 = CARTESIAN_POINT ( 'NONE',  ( 0.000000000000000000, 0.000000000000000000, 0.000000000000000000 ) ) ;
#141 = DIRECTION ( 'NONE',  ( 1.000000000000000000, 0.000000000000000000, 0.000000000000000000 ) ) ;
#142 = EDGE_CURVE ( 'NONE', #195, #34, #283, .T. ) ;
#143 = ORIENTED_EDGE ( 'NONE', *, *, #29, .T. ) ;
#144 = DIRECTION ( 'NONE',  ( -0.000000000000000000, -0.000000000000000000, 1.000000000000000000 ) ) ;
#145 = AXIS2_PLACEMENT_3D ( 'NONE', #215, #56, #25 ) ;
#146 = APPLICATION_PROTOCOL_DEFINITION ( 'draft international standard', 'automotive_design', 1998, #243 ) ;
#147 = VERTEX_POINT ( 'NONE', #121 ) ;
#148 = ORIENTED_EDGE ( 'NONE', *, *, #154, .T. ) ;
#149 = EDGE_LOOP ( 'NONE', ( #279, #275, #57, #40 ) ) ;
#150 = ORIENTED_EDGE ( 'NONE', *, *, #63, .T. ) ;
#151 = TOROIDAL_SURFACE ( 'NONE', #21, 24.99999999999999645, 5.000000000000000000 ) ;
#152 = DIRECTION ( 'NONE',  ( 0.000000000000000000, 0.000000000000000000, 1.000000000000000000 ) ) ;
#153 = DIRECTION ( 'NONE',  ( 1.000000000000000000, 0.000000000000000000, 0.000000000000000000 ) ) ;
#154 = EDGE_CURVE ( 'NONE', #86, #164, #64, .T. ) ;
#155 = CARTESIAN_POINT ( 'NONE',  ( 24.99999999999999645, 0.000000000000000000, 0.000000000000000000 ) ) ;
#156 = VECTOR ( 'NONE', #144, 1000.000000000000000 ) ;
#157 = DIRECTION ( 'NONE',  ( 1.000000000000000000, 0.000000000000000000, 0.000000000000000000 ) ) ;
#158 = CARTESIAN_POINT ( 'NONE',  ( 0.000000000000000000, 0.000000000000000000, 3.999999999999972466 ) ) ;
#159 = FACE_OUTER_BOUND ( 'NONE', #306, .T. ) ;
#160 = DIRECTION ( 'NONE',  ( -1.000000000000000000, 0.000000000000000000, 0.000000000000000000 ) ) ;
#161 = AXIS2_PLACEMENT_3D ( 'NONE', #303, #192, #239 ) ;
#162 = ORIENTED_EDGE ( 'NONE', *, *, #135, .F. ) ;
#163 = FACE_OUTER_BOUND ( 'NONE', #149, .T. ) ;
#164 = VERTEX_POINT ( 'NONE', #73 ) ;
#165 = ADVANCED_FACE ( 'NONE', ( #185 ), #69, .F. ) ;
#166 = DIRECTION ( 'NONE',  ( 1.000000000000000000, 0.000000000000000000, 0.000000000000000000 ) ) ;
#167 = DIRECTION ( 'NONE',  ( -0.000000000000000000, -0.000000000000000000, 1.000000000000000000 ) ) ;
#168 = ORIENTED_EDGE ( 'NONE', *, *, #260, .T. ) ;
#169 = CLOSED_SHELL ( 'NONE', ( #292, #100, #308, #330, #206, #280, #110, #344, #165, #88, #225, #216 ) ) ;
#170 = PRODUCT_DEFINITION_FORMATION_WITH_SPECIFIED_SOURCE ( 'ä»', '', #289, .NOT_KNOWN. ) ;
#171 = VERTEX_POINT ( 'NONE', #47 ) ;
#172 = EDGE_LOOP ( 'NONE', ( #162, #284, #286, #244 ) ) ;
#173 = ORIENTED_EDGE ( 'NONE', *, *, #154, .F. ) ;
#174 =( NAMED_UNIT ( * ) SI_UNIT ( $, .STERADIAN. ) SOLID_ANGLE_UNIT ( ) );
#175 = ORIENTED_EDGE ( 'NONE', *, *, #12, .F. ) ;
#176 = EDGE_LOOP ( 'NONE', ( #148, #114, #252, #251 ) ) ;
#177 = CIRCLE ( 'NONE', #130, 5.000000000000000000 ) ;
#178 = VERTEX_POINT ( 'NONE', #291 ) ;
#179 = ORIENTED_EDGE ( 'NONE', *, *, #74, .F. ) ;
#180 = DIRECTION ( 'NONE',  ( 0.000000000000000000, 0.000000000000000000, 1.000000000000000000 ) ) ;
#181 = AXIS2_PLACEMENT_3D ( 'NONE', #127, #231, #235 ) ;
#182 = EDGE_CURVE ( 'NONE', #34, #195, #256, .T. ) ;
#183 = FACE_OUTER_BOUND ( 'NONE', #43, .T. ) ;
#184 = PLANE ( 'NONE',  #7 ) ;
#185 = FACE_OUTER_BOUND ( 'NONE', #224, .T. ) ;
#186 = AXIS2_PLACEMENT_3D ( 'NONE', #277, #87, #141 ) ;
#187 = CYLINDRICAL_SURFACE ( 'NONE', #203, 4.000000000000000000 ) ;
#188 = DIRECTION ( 'NONE',  ( -0.000000000000000000, -0.000000000000000000, -1.000000000000000000 ) ) ;
#189 = DIRECTION ( 'NONE',  ( 0.000000000000000000, 0.000000000000000000, -1.000000000000000000 ) ) ;
#190 = EDGE_CURVE ( 'NONE', #147, #245, #52, .T. ) ;
#191 = VERTEX_POINT ( 'NONE', #343 ) ;
#192 = DIRECTION ( 'NONE',  ( -0.000000000000000000, -0.000000000000000000, -1.000000000000000000 ) ) ;
#193 = CARTESIAN_POINT ( 'NONE',  ( 0.000000000000000000, 0.000000000000000000, 3.999999999999972466 ) ) ;
#194 = VERTEX_POINT ( 'NONE', #46 ) ;
#195 = VERTEX_POINT ( 'NONE', #155 ) ;
#196 = ORIENTED_EDGE ( 'NONE', *, *, #14, .F. ) ;
#197 = AXIS2_PLACEMENT_3D ( 'NONE', #129, #270, #189 ) ;
#198 = ORIENTED_EDGE ( 'NONE', *, *, #51, .F. ) ;
#199 = ORIENTED_EDGE ( 'NONE', *, *, #265, .T. ) ;
#200 = ORIENTED_EDGE ( 'NONE', *, *, #319, .F. ) ;
#201 = EDGE_LOOP ( 'NONE', ( #196, #31, #42, #313 ) ) ;
#202 = EDGE_CURVE ( 'NONE', #194, #6, #125, .T. ) ;
#203 = AXIS2_PLACEMENT_3D ( 'NONE', #348, #102, #212 ) ;
#204 = DIRECTION ( 'NONE',  ( -0.000000000000000000, -0.000000000000000000, 1.000000000000000000 ) ) ;
#205 = CARTESIAN_POINT ( 'NONE',  ( 0.000000000000000000, 0.000000000000000000, 15.00000000000000000 ) ) ;
#206 = ADVANCED_FACE ( 'NONE', ( #296 ), #187, .F. ) ;
#207 = CARTESIAN_POINT ( 'NONE',  ( 0.000000000000000000, 0.000000000000000000, 15.00000000000000000 ) ) ;
#208 = AXIS2_PLACEMENT_3D ( 'NONE', #95, #263, #48 ) ;
#209 = AXIS2_PLACEMENT_3D ( 'NONE', #78, #298, #160 ) ;
#210 = CARTESIAN_POINT ( 'NONE',  ( -4.000000000000000000, 0.000000000000000000, 20.00000000000000000 ) ) ;
#211 = CARTESIAN_POINT ( 'NONE',  ( 0.000000000000000000, 0.000000000000000000, 5.000000000000000888 ) ) ;
#212 = DIRECTION ( 'NONE',  ( -1.000000000000000000, 0.000000000000000000, 0.000000000000000000 ) ) ;
#213 = CIRCLE ( 'NONE', #81, 5.000000000000000888 ) ;
#214 = DIRECTION ( 'NONE',  ( 1.000000000000000000, 0.000000000000000000, 0.000000000000000000 ) ) ;
#215 = CARTESIAN_POINT ( 'NONE',  ( -24.99999999999999645, 3.061616997868382648E-15, 15.00000000000000000 ) ) ;
#216 = ADVANCED_FACE ( 'NONE', ( #183 ), #151, .T. ) ;
#217 = CARTESIAN_POINT ( 'NONE',  ( 0.000000000000000000, 0.000000000000000000, 5.000000000000000888 ) ) ;
#218 = DIRECTION ( 'NONE',  ( 0.000000000000000000, 0.000000000000000000, 1.000000000000000000 ) ) ;
#219 = AXIS2_PLACEMENT_3D ( 'NONE', #207, #18, #321 ) ;
#220 = DIRECTION ( 'NONE',  ( 1.000000000000000000, 0.000000000000000000, 0.000000000000000000 ) ) ;
#221 = PRODUCT_RELATED_PRODUCT_CATEGORY ( 'part', '', ( #289 ) ) ;
#222 = CARTESIAN_POINT ( 'NONE',  ( -24.99999999999999645, 3.367778697655220913E-15, 0.000000000000000000 ) ) ;
#223 = AXIS2_PLACEMENT_3D ( 'NONE', #297, #351, #328 ) ;
#224 = EDGE_LOOP ( 'NONE', ( #281, #307, #116, #139 ) ) ;
#225 = ADVANCED_FACE ( 'NONE', ( #24 ), #312, .T. ) ;
#226 = ORIENTED_EDGE ( 'NONE', *, *, #41, .F. ) ;
#227 =( NAMED_UNIT ( * ) SI_UNIT ( $, .STERADIAN. ) SOLID_ANGLE_UNIT ( ) );
#228 = ORIENTED_EDGE ( 'NONE', *, *, #182, .T. ) ;
#229 = VECTOR ( 'NONE', #257, 1000.000000000000000 ) ;
#230 = DIRECTION ( 'NONE',  ( 0.000000000000000000, 0.000000000000000000, 1.000000000000000000 ) ) ;
#231 = DIRECTION ( 'NONE',  ( 0.000000000000000000, 0.000000000000000000, 1.000000000000000000 ) ) ;
#232 = EDGE_CURVE ( 'NONE', #337, #28, #45, .T. ) ;
#233 =( GEOMETRIC_REPRESENTATION_CONTEXT ( 3 ) GLOBAL_UNCERTAINTY_ASSIGNED_CONTEXT ( ( #124 ) ) GLOBAL_UNIT_ASSIGNED_CONTEXT ( ( #4, #253, #174 ) ) REPRESENTATION_CONTEXT ( 'NONE', 'WORKASPACE' ) );
#234 = DIRECTION ( 'NONE',  ( -0.000000000000000000, -0.000000000000000000, -1.000000000000000000 ) ) ;
#235 = DIRECTION ( 'NONE',  ( 1.000000000000000000, 0.000000000000000000, 0.000000000000000000 ) ) ;
#236 = PRESENTATION_STYLE_ASSIGNMENT (( #108 ) ) ;
#237 = DIRECTION ( 'NONE',  ( -0.000000000000000000, -0.000000000000000000, -1.000000000000000000 ) ) ;
#238 = APPLICATION_CONTEXT ( 'automotive_design' ) ;
#239 = DIRECTION ( 'NONE',  ( -1.000000000000000000, 0.000000000000000000, 0.000000000000000000 ) ) ;
#240 = CARTESIAN_POINT ( 'NONE',  ( 0.000000000000000000, 0.000000000000000000, 20.00000000000000000 ) ) ;
#241 = DIRECTION ( 'NONE',  ( 1.000000000000000000, 0.000000000000000000, 0.000000000000000000 ) ) ;
#242 = CIRCLE ( 'NONE', #317, 30.00000000000000000 ) ;
#243 = APPLICATION_CONTEXT ( 'automotive_design' ) ;
#244 = ORIENTED_EDGE ( 'NONE', *, *, #250, .F. ) ;
#245 = VERTEX_POINT ( 'NONE', #77 ) ;
#246 = CARTESIAN_POINT ( 'NONE',  ( 4.000000000000000000, 4.898587196589412829E-16, 20.00000000000000000 ) ) ;
#247 = EDGE_CURVE ( 'NONE', #178, #138, #106, .T. ) ;
#248 = LINE ( 'NONE', #246, #137 ) ;
#249 = CIRCLE ( 'NONE', #97, 30.00000000000000000 ) ;
#250 = EDGE_CURVE ( 'NONE', #178, #147, #350, .T. ) ;
#251 = ORIENTED_EDGE ( 'NONE', *, *, #123, .F. ) ;
#252 = ORIENTED_EDGE ( 'NONE', *, *, #232, .F. ) ;
#253 =( NAMED_UNIT ( * ) PLANE_ANGLE_UNIT ( ) SI_UNIT ( $, .RADIAN. ) );
#254 = DIRECTION ( 'NONE',  ( 0.000000000000000000, -1.000000000000000000, 0.000000000000000000 ) ) ;
#255 = EDGE_LOOP ( 'NONE', ( #314, #61, #336, #35 ) ) ;
#256 = CIRCLE ( 'NONE', #103, 24.99999999999999645 ) ;
#257 = DIRECTION ( 'NONE',  ( -0.000000000000000000, -0.000000000000000000, -1.000000000000000000 ) ) ;
#258 = FACE_OUTER_BOUND ( 'NONE', #113, .T. ) ;
#259 = LINE ( 'NONE', #210, #229 ) ;
#260 = EDGE_CURVE ( 'NONE', #138, #191, #242, .T. ) ;
#261 = AXIS2_PLACEMENT_3D ( 'NONE', #342, #304, #274 ) ;
#262 = FACE_BOUND ( 'NONE', #66, .T. ) ;
#263 = DIRECTION ( 'NONE',  ( 0.000000000000000000, 0.000000000000000000, 1.000000000000000000 ) ) ;
#264 = CARTESIAN_POINT ( 'NONE',  ( 0.000000000000000000, 0.000000000000000000, 15.00000000000000000 ) ) ;
#265 = EDGE_CURVE ( 'NONE', #28, #337, #91, .T. ) ;
#266 = AXIS2_PLACEMENT_3D ( 'NONE', #320, #234, #153 ) ;
#267 = CIRCLE ( 'NONE', #145, 5.000000000000000888 ) ;
#268 = CYLINDRICAL_SURFACE ( 'NONE', #112, 25.00000000000000000 ) ;
#269 = ORIENTED_EDGE ( 'NONE', *, *, #63, .F. ) ;
#270 = DIRECTION ( 'NONE',  ( 0.000000000000000000, -1.000000000000000000, 0.000000000000000000 ) ) ;
#271 = EDGE_LOOP ( 'NONE', ( #39, #278, #168, #198 ) ) ;
#272 = PRODUCT_DEFINITION_CONTEXT ( 'detailed design', #243, 'design' ) ;
#273 = FACE_OUTER_BOUND ( 'NONE', #271, .T. ) ;
#274 = DIRECTION ( 'NONE',  ( 1.000000000000000000, 0.000000000000000000, 0.000000000000000000 ) ) ;
#275 = ORIENTED_EDGE ( 'NONE', *, *, #327, .T. ) ;
#276 = EDGE_CURVE ( 'NONE', #191, #138, #249, .T. ) ;
#277 = CARTESIAN_POINT ( 'NONE',  ( 0.000000000000000000, 0.000000000000000000, 3.999999999999972466 ) ) ;
#278 = ORIENTED_EDGE ( 'NONE', *, *, #247, .T. ) ;
#279 = ORIENTED_EDGE ( 'NONE', *, *, #247, .F. ) ;
#280 = ADVANCED_FACE ( 'NONE', ( #326 ), #104, .F. ) ;
#281 = ORIENTED_EDGE ( 'NONE', *, *, #29, .F. ) ;
#282 = EDGE_LOOP ( 'NONE', ( #132, #228 ) ) ;
#283 = CIRCLE ( 'NONE', #266, 24.99999999999999645 ) ;
#284 = ORIENTED_EDGE ( 'NONE', *, *, #319, .T. ) ;
#285 = PRODUCT_DEFINITION ( 'æœ', '', #170, #272 ) ;
#286 = ORIENTED_EDGE ( 'NONE', *, *, #190, .F. ) ;
#287 = DIRECTION ( 'NONE',  ( 1.000000000000000000, 0.000000000000000000, 0.000000000000000000 ) ) ;
#288 = CIRCLE ( 'NONE', #186, 4.000000000000000000 ) ;
#289 = PRODUCT ( '\X2\8f6e5b50\X0\', '\X2\8f6e5b50\X0\', '', ( #338 ) ) ;
#290 = DIRECTION ( 'NONE',  ( 1.000000000000000000, 0.000000000000000000, 0.000000000000000000 ) ) ;
#291 = CARTESIAN_POINT ( 'NONE',  ( 30.00000000000000000, 3.673940397442059178E-15, 15.00000000000000000 ) ) ;
#292 = ADVANCED_FACE ( 'NONE', ( #82 ), #68, .T. ) ;
#293 = UNCERTAINTY_MEASURE_WITH_UNIT (LENGTH_MEASURE( 1.000000000000000082E-05 ), #115, 'distance_accuracy_value', 'NONE');
#294 = DIRECTION ( 'NONE',  ( -0.000000000000000000, -0.000000000000000000, 1.000000000000000000 ) ) ;
#295 = AXIS2_PLACEMENT_3D ( 'NONE', #23, #180, #287 ) ;
#296 = FACE_OUTER_BOUND ( 'NONE', #176, .T. ) ;
#297 = CARTESIAN_POINT ( 'NONE',  ( 0.000000000000000000, 0.000000000000000000, 0.000000000000000000 ) ) ;
#298 = DIRECTION ( 'NONE',  ( -0.000000000000000000, -0.000000000000000000, -1.000000000000000000 ) ) ;
#299 = AXIS2_PLACEMENT_3D ( 'NONE', #264, #133, #241 ) ;
#300 = AXIS2_PLACEMENT_3D ( 'NONE', #3, #237, #166 ) ;
#301 = CARTESIAN_POINT ( 'NONE',  ( 30.00000000000000000, 3.673940397442059178E-15, 20.00000000000000000 ) ) ;
#302 = ORIENTED_EDGE ( 'NONE', *, *, #335, .T. ) ;
#303 = CARTESIAN_POINT ( 'NONE',  ( 0.000000000000000000, 0.000000000000000000, 20.00000000000000000 ) ) ;
#304 = DIRECTION ( 'NONE',  ( 0.000000000000000000, 0.000000000000000000, 1.000000000000000000 ) ) ;
#305 = AXIS2_PLACEMENT_3D ( 'NONE', #323, #83, #214 ) ;
#306 = EDGE_LOOP ( 'NONE', ( #60, #143, #150, #179 ) ) ;
#307 = ORIENTED_EDGE ( 'NONE', *, *, #335, .F. ) ;
#308 = ADVANCED_FACE ( 'NONE', ( #159 ), #268, .F. ) ;
#309 = ORIENTED_EDGE ( 'NONE', *, *, #182, .F. ) ;
#310 = EDGE_LOOP ( 'NONE', ( #173, #175 ) ) ;
#311 = CARTESIAN_POINT ( 'NONE',  ( -24.99999999999999645, 3.061616997868382648E-15, 5.000000000000000888 ) ) ;
#312 = TOROIDAL_SURFACE ( 'NONE', #305, 24.99999999999999645, 5.000000000000000000 ) ;
#313 = ORIENTED_EDGE ( 'NONE', *, *, #265, .F. ) ;
#314 = ORIENTED_EDGE ( 'NONE', *, *, #1, .F. ) ;
#315 = FACE_BOUND ( 'NONE', #310, .T. ) ;
#316 = FACE_OUTER_BOUND ( 'NONE', #93, .T. ) ;
#317 = AXIS2_PLACEMENT_3D ( 'NONE', #217, #30, #50 ) ;
#318 = AXIS2_PLACEMENT_3D ( 'NONE', #240, #54, #325 ) ;
#319 = EDGE_CURVE ( 'NONE', #171, #245, #267, .T. ) ;
#320 = CARTESIAN_POINT ( 'NONE',  ( 0.000000000000000000, 0.000000000000000000, 0.000000000000000000 ) ) ;
#321 = DIRECTION ( 'NONE',  ( 1.000000000000000000, 0.000000000000000000, 0.000000000000000000 ) ) ;
#322 = PLANE ( 'NONE',  #26 ) ;
#323 = CARTESIAN_POINT ( 'NONE',  ( 0.000000000000000000, 0.000000000000000000, 5.000000000000000888 ) ) ;
#324 = CYLINDRICAL_SURFACE ( 'NONE', #318, 30.00000000000000000 ) ;
#325 = DIRECTION ( 'NONE',  ( -1.000000000000000000, 0.000000000000000000, 0.000000000000000000 ) ) ;
#326 = FACE_OUTER_BOUND ( 'NONE', #201, .T. ) ;
#327 = EDGE_CURVE ( 'NONE', #178, #171, #53, .T. ) ;
#328 = DIRECTION ( 'NONE',  ( 1.000000000000000000, 0.000000000000000000, 0.000000000000000000 ) ) ;
#329 = LINE ( 'NONE', #332, #76 ) ;
#330 = ADVANCED_FACE ( 'NONE', ( #273 ), #324, .T. ) ;
#331 = CIRCLE ( 'NONE', #33, 25.00000000000000000 ) ;
#332 = CARTESIAN_POINT ( 'NONE',  ( -30.00000000000000000, 0.000000000000000000, 20.00000000000000000 ) ) ;
#333 = DIRECTION ( 'NONE',  ( 0.000000000000000000, 0.000000000000000000, -1.000000000000000000 ) ) ;
#334 = SHAPE_DEFINITION_REPRESENTATION ( #67, #71 ) ;
#335 = EDGE_CURVE ( 'NONE', #6, #194, #99, .T. ) ;
#336 = ORIENTED_EDGE ( 'NONE', *, *, #41, .T. ) ;
#337 = VERTEX_POINT ( 'NONE', #32 ) ;
#338 = PRODUCT_CONTEXT ( 'NONE', #238, 'mechanical' ) ;
#339 = DIRECTION ( 'NONE',  ( 0.000000000000000000, 0.000000000000000000, 1.000000000000000000 ) ) ;
#340 = VECTOR ( 'NONE', #204, 1000.000000000000000 ) ;
#341 = MECHANICAL_DESIGN_GEOMETRIC_PRESENTATION_REPRESENTATION (  '', ( #346 ), #22 ) ;
#342 = CARTESIAN_POINT ( 'NONE',  ( 0.000000000000000000, 0.000000000000000000, 0.000000000000000000 ) ) ;
#343 = CARTESIAN_POINT ( 'NONE',  ( -30.00000000000000000, 0.000000000000000000, 5.000000000000000888 ) ) ;
#344 = ADVANCED_FACE ( 'NONE', ( #163 ), #128, .T. ) ;
#345 = CARTESIAN_POINT ( 'NONE',  ( 0.000000000000000000, 0.000000000000000000, 0.000000000000000000 ) ) ;
#346 = STYLED_ITEM ( 'NONE', ( #236 ), #352 ) ;
#347 = DIRECTION ( 'NONE',  ( 1.000000000000000000, 0.000000000000000000, -0.000000000000000000 ) ) ;
#348 = CARTESIAN_POINT ( 'NONE',  ( 0.000000000000000000, 0.000000000000000000, 20.00000000000000000 ) ) ;
#349 = FILL_AREA_STYLE ('',( #27 ) ) ;
#350 = CIRCLE ( 'NONE', #197, 5.000000000000000888 ) ;
#351 = DIRECTION ( 'NONE',  ( 0.000000000000000000, 0.000000000000000000, 1.000000000000000000 ) ) ;
#352 = MANIFOLD_SOLID_BREP ( '\X2\570689d2\X0\1', #169 ) ;
#353 = CARTESIAN_POINT ( 'NONE',  ( 0.000000000000000000, 0.000000000000000000, 3.999999999999972466 ) ) ;
ENDSEC;
END-ISO-10303-21;
